<?xml version="1.0" encoding="UTF-8" standalone="no"?>
<!-- This is a Stata 19.5 generated SVG file (http://www.stata.com) -->

<svg version="1.1" width="7.500in" height="4.500in" viewBox="0 0 5400 3240" xmlns="http://www.w3.org/2000/svg" xmlns:xlink="http://www.w3.org/1999/xlink">
	<desc>Stata Graph - Graph</desc>
	<rect x="0" y="0" width="5400" height="3240" style="fill:#FFFFFF;stroke:none"/>
	<rect x="0.00" y="0.00" width="5400.00" height="3240.00" style="fill:#FFFFFF"/>
	<rect x="3.24" y="3.24" width="5393.52" height="3233.52" style="fill:none;stroke:#FFFFFF;stroke-width:6.48"/>
	<rect x="557.72" y="309.82" width="4728.88" height="2456.83" style="fill:#FFFFFF"/>
	<rect x="560.96" y="313.06" width="4722.40" height="2450.35" style="fill:none;stroke:#FFFFFF;stroke-width:6.48"/>
	<line x1="557.72" y1="2695.28" x2="622.52" y2="2695.28" style="stroke:#F0F0F0;stroke-width:9.72"/>
	<line x1="654.92" y1="2695.28" x2="719.72" y2="2695.28" style="stroke:#F0F0F0;stroke-width:9.72"/>
	<line x1="752.12" y1="2695.28" x2="816.92" y2="2695.28" style="stroke:#F0F0F0;stroke-width:9.72"/>
	<line x1="849.32" y1="2695.28" x2="914.12" y2="2695.28" style="stroke:#F0F0F0;stroke-width:9.72"/>
	<line x1="946.52" y1="2695.28" x2="1011.32" y2="2695.28" style="stroke:#F0F0F0;stroke-width:9.72"/>
	<line x1="1043.72" y1="2695.28" x2="1108.52" y2="2695.28" style="stroke:#F0F0F0;stroke-width:9.72"/>
	<line x1="1140.92" y1="2695.28" x2="1205.72" y2="2695.28" style="stroke:#F0F0F0;stroke-width:9.72"/>
	<line x1="1238.12" y1="2695.28" x2="1302.92" y2="2695.28" style="stroke:#F0F0F0;stroke-width:9.72"/>
	<line x1="1335.32" y1="2695.28" x2="1400.12" y2="2695.28" style="stroke:#F0F0F0;stroke-width:9.72"/>
	<line x1="1432.52" y1="2695.28" x2="1497.32" y2="2695.28" style="stroke:#F0F0F0;stroke-width:9.72"/>
	<line x1="1529.72" y1="2695.28" x2="1594.52" y2="2695.28" style="stroke:#F0F0F0;stroke-width:9.72"/>
	<line x1="1626.92" y1="2695.28" x2="1691.72" y2="2695.28" style="stroke:#F0F0F0;stroke-width:9.72"/>
	<line x1="1724.12" y1="2695.28" x2="1788.92" y2="2695.28" style="stroke:#F0F0F0;stroke-width:9.72"/>
	<line x1="1821.32" y1="2695.28" x2="1886.12" y2="2695.28" style="stroke:#F0F0F0;stroke-width:9.72"/>
	<line x1="1918.52" y1="2695.28" x2="1983.32" y2="2695.28" style="stroke:#F0F0F0;stroke-width:9.72"/>
	<line x1="2015.72" y1="2695.28" x2="2080.52" y2="2695.28" style="stroke:#F0F0F0;stroke-width:9.72"/>
	<line x1="2112.92" y1="2695.28" x2="2177.72" y2="2695.28" style="stroke:#F0F0F0;stroke-width:9.72"/>
	<line x1="2210.12" y1="2695.28" x2="2274.92" y2="2695.28" style="stroke:#F0F0F0;stroke-width:9.72"/>
	<line x1="2307.32" y1="2695.28" x2="2372.12" y2="2695.28" style="stroke:#F0F0F0;stroke-width:9.72"/>
	<line x1="2404.52" y1="2695.28" x2="2469.32" y2="2695.28" style="stroke:#F0F0F0;stroke-width:9.72"/>
	<line x1="2501.72" y1="2695.28" x2="2566.52" y2="2695.28" style="stroke:#F0F0F0;stroke-width:9.72"/>
	<line x1="2598.92" y1="2695.28" x2="2663.72" y2="2695.28" style="stroke:#F0F0F0;stroke-width:9.72"/>
	<line x1="2696.12" y1="2695.28" x2="2760.92" y2="2695.28" style="stroke:#F0F0F0;stroke-width:9.72"/>
	<line x1="2793.32" y1="2695.28" x2="2858.12" y2="2695.28" style="stroke:#F0F0F0;stroke-width:9.72"/>
	<line x1="2890.52" y1="2695.28" x2="2955.32" y2="2695.28" style="stroke:#F0F0F0;stroke-width:9.72"/>
	<line x1="2987.72" y1="2695.28" x2="3052.52" y2="2695.28" style="stroke:#F0F0F0;stroke-width:9.72"/>
	<line x1="3084.92" y1="2695.28" x2="3149.72" y2="2695.28" style="stroke:#F0F0F0;stroke-width:9.72"/>
	<line x1="3182.12" y1="2695.28" x2="3246.92" y2="2695.28" style="stroke:#F0F0F0;stroke-width:9.72"/>
	<line x1="3279.32" y1="2695.28" x2="3344.12" y2="2695.28" style="stroke:#F0F0F0;stroke-width:9.72"/>
	<line x1="3376.52" y1="2695.28" x2="3441.32" y2="2695.28" style="stroke:#F0F0F0;stroke-width:9.72"/>
	<line x1="3473.72" y1="2695.28" x2="3538.52" y2="2695.28" style="stroke:#F0F0F0;stroke-width:9.72"/>
	<line x1="3570.92" y1="2695.28" x2="3635.72" y2="2695.28" style="stroke:#F0F0F0;stroke-width:9.72"/>
	<line x1="3668.12" y1="2695.28" x2="3732.92" y2="2695.28" style="stroke:#F0F0F0;stroke-width:9.72"/>
	<line x1="3765.32" y1="2695.28" x2="3830.12" y2="2695.28" style="stroke:#F0F0F0;stroke-width:9.72"/>
	<line x1="3862.52" y1="2695.28" x2="3927.32" y2="2695.28" style="stroke:#F0F0F0;stroke-width:9.72"/>
	<line x1="3959.72" y1="2695.28" x2="4024.52" y2="2695.28" style="stroke:#F0F0F0;stroke-width:9.72"/>
	<line x1="4056.92" y1="2695.28" x2="4121.72" y2="2695.28" style="stroke:#F0F0F0;stroke-width:9.72"/>
	<line x1="4154.12" y1="2695.28" x2="4218.92" y2="2695.28" style="stroke:#F0F0F0;stroke-width:9.72"/>
	<line x1="4251.32" y1="2695.28" x2="4316.12" y2="2695.28" style="stroke:#F0F0F0;stroke-width:9.72"/>
	<line x1="4348.52" y1="2695.28" x2="4413.32" y2="2695.28" style="stroke:#F0F0F0;stroke-width:9.72"/>
	<line x1="4445.72" y1="2695.28" x2="4510.52" y2="2695.28" style="stroke:#F0F0F0;stroke-width:9.72"/>
	<line x1="4542.92" y1="2695.28" x2="4607.72" y2="2695.28" style="stroke:#F0F0F0;stroke-width:9.72"/>
	<line x1="4640.12" y1="2695.28" x2="4704.92" y2="2695.28" style="stroke:#F0F0F0;stroke-width:9.72"/>
	<line x1="4737.32" y1="2695.28" x2="4802.12" y2="2695.28" style="stroke:#F0F0F0;stroke-width:9.72"/>
	<line x1="4834.52" y1="2695.28" x2="4899.32" y2="2695.28" style="stroke:#F0F0F0;stroke-width:9.72"/>
	<line x1="4931.72" y1="2695.28" x2="4996.52" y2="2695.28" style="stroke:#F0F0F0;stroke-width:9.72"/>
	<line x1="5028.92" y1="2695.28" x2="5093.72" y2="2695.28" style="stroke:#F0F0F0;stroke-width:9.72"/>
	<line x1="5126.12" y1="2695.28" x2="5190.92" y2="2695.28" style="stroke:#F0F0F0;stroke-width:9.72"/>
	<line x1="5223.32" y1="2695.28" x2="5286.60" y2="2695.28" style="stroke:#F0F0F0;stroke-width:9.72"/>
	<line x1="557.72" y1="2116.80" x2="622.52" y2="2116.80" style="stroke:#F0F0F0;stroke-width:9.72"/>
	<line x1="654.92" y1="2116.80" x2="719.72" y2="2116.80" style="stroke:#F0F0F0;stroke-width:9.72"/>
	<line x1="752.12" y1="2116.80" x2="816.92" y2="2116.80" style="stroke:#F0F0F0;stroke-width:9.72"/>
	<line x1="849.32" y1="2116.80" x2="914.12" y2="2116.80" style="stroke:#F0F0F0;stroke-width:9.72"/>
	<line x1="946.52" y1="2116.80" x2="1011.32" y2="2116.80" style="stroke:#F0F0F0;stroke-width:9.72"/>
	<line x1="1043.72" y1="2116.80" x2="1108.52" y2="2116.80" style="stroke:#F0F0F0;stroke-width:9.72"/>
	<line x1="1140.92" y1="2116.80" x2="1205.72" y2="2116.80" style="stroke:#F0F0F0;stroke-width:9.72"/>
	<line x1="1238.12" y1="2116.80" x2="1302.92" y2="2116.80" style="stroke:#F0F0F0;stroke-width:9.72"/>
	<line x1="1335.32" y1="2116.80" x2="1400.12" y2="2116.80" style="stroke:#F0F0F0;stroke-width:9.72"/>
	<line x1="1432.52" y1="2116.80" x2="1497.32" y2="2116.80" style="stroke:#F0F0F0;stroke-width:9.72"/>
	<line x1="1529.72" y1="2116.80" x2="1594.52" y2="2116.80" style="stroke:#F0F0F0;stroke-width:9.72"/>
	<line x1="1626.92" y1="2116.80" x2="1691.72" y2="2116.80" style="stroke:#F0F0F0;stroke-width:9.72"/>
	<line x1="1724.12" y1="2116.80" x2="1788.92" y2="2116.80" style="stroke:#F0F0F0;stroke-width:9.72"/>
	<line x1="1821.32" y1="2116.80" x2="1886.12" y2="2116.80" style="stroke:#F0F0F0;stroke-width:9.72"/>
	<line x1="1918.52" y1="2116.80" x2="1983.32" y2="2116.80" style="stroke:#F0F0F0;stroke-width:9.72"/>
	<line x1="2015.72" y1="2116.80" x2="2080.52" y2="2116.80" style="stroke:#F0F0F0;stroke-width:9.72"/>
	<line x1="2112.92" y1="2116.80" x2="2177.72" y2="2116.80" style="stroke:#F0F0F0;stroke-width:9.72"/>
	<line x1="2210.12" y1="2116.80" x2="2274.92" y2="2116.80" style="stroke:#F0F0F0;stroke-width:9.72"/>
	<line x1="2307.32" y1="2116.80" x2="2372.12" y2="2116.80" style="stroke:#F0F0F0;stroke-width:9.72"/>
	<line x1="2404.52" y1="2116.80" x2="2469.32" y2="2116.80" style="stroke:#F0F0F0;stroke-width:9.72"/>
	<line x1="2501.72" y1="2116.80" x2="2566.52" y2="2116.80" style="stroke:#F0F0F0;stroke-width:9.72"/>
	<line x1="2598.92" y1="2116.80" x2="2663.72" y2="2116.80" style="stroke:#F0F0F0;stroke-width:9.72"/>
	<line x1="2696.12" y1="2116.80" x2="2760.92" y2="2116.80" style="stroke:#F0F0F0;stroke-width:9.72"/>
	<line x1="2793.32" y1="2116.80" x2="2858.12" y2="2116.80" style="stroke:#F0F0F0;stroke-width:9.72"/>
	<line x1="2890.52" y1="2116.80" x2="2955.32" y2="2116.80" style="stroke:#F0F0F0;stroke-width:9.72"/>
	<line x1="2987.72" y1="2116.80" x2="3052.52" y2="2116.80" style="stroke:#F0F0F0;stroke-width:9.72"/>
	<line x1="3084.92" y1="2116.80" x2="3149.72" y2="2116.80" style="stroke:#F0F0F0;stroke-width:9.72"/>
	<line x1="3182.12" y1="2116.80" x2="3246.92" y2="2116.80" style="stroke:#F0F0F0;stroke-width:9.72"/>
	<line x1="3279.32" y1="2116.80" x2="3344.12" y2="2116.80" style="stroke:#F0F0F0;stroke-width:9.72"/>
	<line x1="3376.52" y1="2116.80" x2="3441.32" y2="2116.80" style="stroke:#F0F0F0;stroke-width:9.72"/>
	<line x1="3473.72" y1="2116.80" x2="3538.52" y2="2116.80" style="stroke:#F0F0F0;stroke-width:9.72"/>
	<line x1="3570.92" y1="2116.80" x2="3635.72" y2="2116.80" style="stroke:#F0F0F0;stroke-width:9.72"/>
	<line x1="3668.12" y1="2116.80" x2="3732.92" y2="2116.80" style="stroke:#F0F0F0;stroke-width:9.72"/>
	<line x1="3765.32" y1="2116.80" x2="3830.12" y2="2116.80" style="stroke:#F0F0F0;stroke-width:9.72"/>
	<line x1="3862.52" y1="2116.80" x2="3927.32" y2="2116.80" style="stroke:#F0F0F0;stroke-width:9.72"/>
	<line x1="3959.72" y1="2116.80" x2="4024.52" y2="2116.80" style="stroke:#F0F0F0;stroke-width:9.72"/>
	<line x1="4056.92" y1="2116.80" x2="4121.72" y2="2116.80" style="stroke:#F0F0F0;stroke-width:9.72"/>
	<line x1="4154.12" y1="2116.80" x2="4218.92" y2="2116.80" style="stroke:#F0F0F0;stroke-width:9.72"/>
	<line x1="4251.32" y1="2116.80" x2="4316.12" y2="2116.80" style="stroke:#F0F0F0;stroke-width:9.72"/>
	<line x1="4348.52" y1="2116.80" x2="4413.32" y2="2116.80" style="stroke:#F0F0F0;stroke-width:9.72"/>
	<line x1="4445.72" y1="2116.80" x2="4510.52" y2="2116.80" style="stroke:#F0F0F0;stroke-width:9.72"/>
	<line x1="4542.92" y1="2116.80" x2="4607.72" y2="2116.80" style="stroke:#F0F0F0;stroke-width:9.72"/>
	<line x1="4640.12" y1="2116.80" x2="4704.92" y2="2116.80" style="stroke:#F0F0F0;stroke-width:9.72"/>
	<line x1="4737.32" y1="2116.80" x2="4802.12" y2="2116.80" style="stroke:#F0F0F0;stroke-width:9.72"/>
	<line x1="4834.52" y1="2116.80" x2="4899.32" y2="2116.80" style="stroke:#F0F0F0;stroke-width:9.72"/>
	<line x1="4931.72" y1="2116.80" x2="4996.52" y2="2116.80" style="stroke:#F0F0F0;stroke-width:9.72"/>
	<line x1="5028.92" y1="2116.80" x2="5093.72" y2="2116.80" style="stroke:#F0F0F0;stroke-width:9.72"/>
	<line x1="5126.12" y1="2116.80" x2="5190.92" y2="2116.80" style="stroke:#F0F0F0;stroke-width:9.72"/>
	<line x1="5223.32" y1="2116.80" x2="5286.60" y2="2116.80" style="stroke:#F0F0F0;stroke-width:9.72"/>
	<line x1="557.72" y1="1538.16" x2="622.52" y2="1538.16" style="stroke:#F0F0F0;stroke-width:9.72"/>
	<line x1="654.92" y1="1538.16" x2="719.72" y2="1538.16" style="stroke:#F0F0F0;stroke-width:9.72"/>
	<line x1="752.12" y1="1538.16" x2="816.92" y2="1538.16" style="stroke:#F0F0F0;stroke-width:9.72"/>
	<line x1="849.32" y1="1538.16" x2="914.12" y2="1538.16" style="stroke:#F0F0F0;stroke-width:9.72"/>
	<line x1="946.52" y1="1538.16" x2="1011.32" y2="1538.16" style="stroke:#F0F0F0;stroke-width:9.72"/>
	<line x1="1043.72" y1="1538.16" x2="1108.52" y2="1538.16" style="stroke:#F0F0F0;stroke-width:9.72"/>
	<line x1="1140.92" y1="1538.16" x2="1205.72" y2="1538.16" style="stroke:#F0F0F0;stroke-width:9.72"/>
	<line x1="1238.12" y1="1538.16" x2="1302.92" y2="1538.16" style="stroke:#F0F0F0;stroke-width:9.72"/>
	<line x1="1335.32" y1="1538.16" x2="1400.12" y2="1538.16" style="stroke:#F0F0F0;stroke-width:9.72"/>
	<line x1="1432.52" y1="1538.16" x2="1497.32" y2="1538.16" style="stroke:#F0F0F0;stroke-width:9.72"/>
	<line x1="1529.72" y1="1538.16" x2="1594.52" y2="1538.16" style="stroke:#F0F0F0;stroke-width:9.72"/>
	<line x1="1626.92" y1="1538.16" x2="1691.72" y2="1538.16" style="stroke:#F0F0F0;stroke-width:9.72"/>
	<line x1="1724.12" y1="1538.16" x2="1788.92" y2="1538.16" style="stroke:#F0F0F0;stroke-width:9.72"/>
	<line x1="1821.32" y1="1538.16" x2="1886.12" y2="1538.16" style="stroke:#F0F0F0;stroke-width:9.72"/>
	<line x1="1918.52" y1="1538.16" x2="1983.32" y2="1538.16" style="stroke:#F0F0F0;stroke-width:9.72"/>
	<line x1="2015.72" y1="1538.16" x2="2080.52" y2="1538.16" style="stroke:#F0F0F0;stroke-width:9.72"/>
	<line x1="2112.92" y1="1538.16" x2="2177.72" y2="1538.16" style="stroke:#F0F0F0;stroke-width:9.72"/>
	<line x1="2210.12" y1="1538.16" x2="2274.92" y2="1538.16" style="stroke:#F0F0F0;stroke-width:9.72"/>
	<line x1="2307.32" y1="1538.16" x2="2372.12" y2="1538.16" style="stroke:#F0F0F0;stroke-width:9.72"/>
	<line x1="2404.52" y1="1538.16" x2="2469.32" y2="1538.16" style="stroke:#F0F0F0;stroke-width:9.72"/>
	<line x1="2501.72" y1="1538.16" x2="2566.52" y2="1538.16" style="stroke:#F0F0F0;stroke-width:9.72"/>
	<line x1="2598.92" y1="1538.16" x2="2663.72" y2="1538.16" style="stroke:#F0F0F0;stroke-width:9.72"/>
	<line x1="2696.12" y1="1538.16" x2="2760.92" y2="1538.16" style="stroke:#F0F0F0;stroke-width:9.72"/>
	<line x1="2793.32" y1="1538.16" x2="2858.12" y2="1538.16" style="stroke:#F0F0F0;stroke-width:9.72"/>
	<line x1="2890.52" y1="1538.16" x2="2955.32" y2="1538.16" style="stroke:#F0F0F0;stroke-width:9.72"/>
	<line x1="2987.72" y1="1538.16" x2="3052.52" y2="1538.16" style="stroke:#F0F0F0;stroke-width:9.72"/>
	<line x1="3084.92" y1="1538.16" x2="3149.72" y2="1538.16" style="stroke:#F0F0F0;stroke-width:9.72"/>
	<line x1="3182.12" y1="1538.16" x2="3246.92" y2="1538.16" style="stroke:#F0F0F0;stroke-width:9.72"/>
	<line x1="3279.32" y1="1538.16" x2="3344.12" y2="1538.16" style="stroke:#F0F0F0;stroke-width:9.72"/>
	<line x1="3376.52" y1="1538.16" x2="3441.32" y2="1538.16" style="stroke:#F0F0F0;stroke-width:9.72"/>
	<line x1="3473.72" y1="1538.16" x2="3538.52" y2="1538.16" style="stroke:#F0F0F0;stroke-width:9.72"/>
	<line x1="3570.92" y1="1538.16" x2="3635.72" y2="1538.16" style="stroke:#F0F0F0;stroke-width:9.72"/>
	<line x1="3668.12" y1="1538.16" x2="3732.92" y2="1538.16" style="stroke:#F0F0F0;stroke-width:9.72"/>
	<line x1="3765.32" y1="1538.16" x2="3830.12" y2="1538.16" style="stroke:#F0F0F0;stroke-width:9.72"/>
	<line x1="3862.52" y1="1538.16" x2="3927.32" y2="1538.16" style="stroke:#F0F0F0;stroke-width:9.72"/>
	<line x1="3959.72" y1="1538.16" x2="4024.52" y2="1538.16" style="stroke:#F0F0F0;stroke-width:9.72"/>
	<line x1="4056.92" y1="1538.16" x2="4121.72" y2="1538.16" style="stroke:#F0F0F0;stroke-width:9.72"/>
	<line x1="4154.12" y1="1538.16" x2="4218.92" y2="1538.16" style="stroke:#F0F0F0;stroke-width:9.72"/>
	<line x1="4251.32" y1="1538.16" x2="4316.12" y2="1538.16" style="stroke:#F0F0F0;stroke-width:9.72"/>
	<line x1="4348.52" y1="1538.16" x2="4413.32" y2="1538.16" style="stroke:#F0F0F0;stroke-width:9.72"/>
	<line x1="4445.72" y1="1538.16" x2="4510.52" y2="1538.16" style="stroke:#F0F0F0;stroke-width:9.72"/>
	<line x1="4542.92" y1="1538.16" x2="4607.72" y2="1538.16" style="stroke:#F0F0F0;stroke-width:9.72"/>
	<line x1="4640.12" y1="1538.16" x2="4704.92" y2="1538.16" style="stroke:#F0F0F0;stroke-width:9.72"/>
	<line x1="4737.32" y1="1538.16" x2="4802.12" y2="1538.16" style="stroke:#F0F0F0;stroke-width:9.72"/>
	<line x1="4834.52" y1="1538.16" x2="4899.32" y2="1538.16" style="stroke:#F0F0F0;stroke-width:9.72"/>
	<line x1="4931.72" y1="1538.16" x2="4996.52" y2="1538.16" style="stroke:#F0F0F0;stroke-width:9.72"/>
	<line x1="5028.92" y1="1538.16" x2="5093.72" y2="1538.16" style="stroke:#F0F0F0;stroke-width:9.72"/>
	<line x1="5126.12" y1="1538.16" x2="5190.92" y2="1538.16" style="stroke:#F0F0F0;stroke-width:9.72"/>
	<line x1="5223.32" y1="1538.16" x2="5286.60" y2="1538.16" style="stroke:#F0F0F0;stroke-width:9.72"/>
	<line x1="557.72" y1="959.68" x2="622.52" y2="959.68" style="stroke:#F0F0F0;stroke-width:9.72"/>
	<line x1="654.92" y1="959.68" x2="719.72" y2="959.68" style="stroke:#F0F0F0;stroke-width:9.72"/>
	<line x1="752.12" y1="959.68" x2="816.92" y2="959.68" style="stroke:#F0F0F0;stroke-width:9.72"/>
	<line x1="849.32" y1="959.68" x2="914.12" y2="959.68" style="stroke:#F0F0F0;stroke-width:9.72"/>
	<line x1="946.52" y1="959.68" x2="1011.32" y2="959.68" style="stroke:#F0F0F0;stroke-width:9.72"/>
	<line x1="1043.72" y1="959.68" x2="1108.52" y2="959.68" style="stroke:#F0F0F0;stroke-width:9.72"/>
	<line x1="1140.92" y1="959.68" x2="1205.72" y2="959.68" style="stroke:#F0F0F0;stroke-width:9.72"/>
	<line x1="1238.12" y1="959.68" x2="1302.92" y2="959.68" style="stroke:#F0F0F0;stroke-width:9.72"/>
	<line x1="1335.32" y1="959.68" x2="1400.12" y2="959.68" style="stroke:#F0F0F0;stroke-width:9.72"/>
	<line x1="1432.52" y1="959.68" x2="1497.32" y2="959.68" style="stroke:#F0F0F0;stroke-width:9.72"/>
	<line x1="1529.72" y1="959.68" x2="1594.52" y2="959.68" style="stroke:#F0F0F0;stroke-width:9.72"/>
	<line x1="1626.92" y1="959.68" x2="1691.72" y2="959.68" style="stroke:#F0F0F0;stroke-width:9.72"/>
	<line x1="1724.12" y1="959.68" x2="1788.92" y2="959.68" style="stroke:#F0F0F0;stroke-width:9.72"/>
	<line x1="1821.32" y1="959.68" x2="1886.12" y2="959.68" style="stroke:#F0F0F0;stroke-width:9.72"/>
	<line x1="1918.52" y1="959.68" x2="1983.32" y2="959.68" style="stroke:#F0F0F0;stroke-width:9.72"/>
	<line x1="2015.72" y1="959.68" x2="2080.52" y2="959.68" style="stroke:#F0F0F0;stroke-width:9.72"/>
	<line x1="2112.92" y1="959.68" x2="2177.72" y2="959.68" style="stroke:#F0F0F0;stroke-width:9.72"/>
	<line x1="2210.12" y1="959.68" x2="2274.92" y2="959.68" style="stroke:#F0F0F0;stroke-width:9.72"/>
	<line x1="2307.32" y1="959.68" x2="2372.12" y2="959.68" style="stroke:#F0F0F0;stroke-width:9.72"/>
	<line x1="2404.52" y1="959.68" x2="2469.32" y2="959.68" style="stroke:#F0F0F0;stroke-width:9.72"/>
	<line x1="2501.72" y1="959.68" x2="2566.52" y2="959.68" style="stroke:#F0F0F0;stroke-width:9.72"/>
	<line x1="2598.92" y1="959.68" x2="2663.72" y2="959.68" style="stroke:#F0F0F0;stroke-width:9.72"/>
	<line x1="2696.12" y1="959.68" x2="2760.92" y2="959.68" style="stroke:#F0F0F0;stroke-width:9.72"/>
	<line x1="2793.32" y1="959.68" x2="2858.12" y2="959.68" style="stroke:#F0F0F0;stroke-width:9.72"/>
	<line x1="2890.52" y1="959.68" x2="2955.32" y2="959.68" style="stroke:#F0F0F0;stroke-width:9.72"/>
	<line x1="2987.72" y1="959.68" x2="3052.52" y2="959.68" style="stroke:#F0F0F0;stroke-width:9.72"/>
	<line x1="3084.92" y1="959.68" x2="3149.72" y2="959.68" style="stroke:#F0F0F0;stroke-width:9.72"/>
	<line x1="3182.12" y1="959.68" x2="3246.92" y2="959.68" style="stroke:#F0F0F0;stroke-width:9.72"/>
	<line x1="3279.32" y1="959.68" x2="3344.12" y2="959.68" style="stroke:#F0F0F0;stroke-width:9.72"/>
	<line x1="3376.52" y1="959.68" x2="3441.32" y2="959.68" style="stroke:#F0F0F0;stroke-width:9.72"/>
	<line x1="3473.72" y1="959.68" x2="3538.52" y2="959.68" style="stroke:#F0F0F0;stroke-width:9.72"/>
	<line x1="3570.92" y1="959.68" x2="3635.72" y2="959.68" style="stroke:#F0F0F0;stroke-width:9.72"/>
	<line x1="3668.12" y1="959.68" x2="3732.92" y2="959.68" style="stroke:#F0F0F0;stroke-width:9.72"/>
	<line x1="3765.32" y1="959.68" x2="3830.12" y2="959.68" style="stroke:#F0F0F0;stroke-width:9.72"/>
	<line x1="3862.52" y1="959.68" x2="3927.32" y2="959.68" style="stroke:#F0F0F0;stroke-width:9.72"/>
	<line x1="3959.72" y1="959.68" x2="4024.52" y2="959.68" style="stroke:#F0F0F0;stroke-width:9.72"/>
	<line x1="4056.92" y1="959.68" x2="4121.72" y2="959.68" style="stroke:#F0F0F0;stroke-width:9.72"/>
	<line x1="4154.12" y1="959.68" x2="4218.92" y2="959.68" style="stroke:#F0F0F0;stroke-width:9.72"/>
	<line x1="4251.32" y1="959.68" x2="4316.12" y2="959.68" style="stroke:#F0F0F0;stroke-width:9.72"/>
	<line x1="4348.52" y1="959.68" x2="4413.32" y2="959.68" style="stroke:#F0F0F0;stroke-width:9.72"/>
	<line x1="4445.72" y1="959.68" x2="4510.52" y2="959.68" style="stroke:#F0F0F0;stroke-width:9.72"/>
	<line x1="4542.92" y1="959.68" x2="4607.72" y2="959.68" style="stroke:#F0F0F0;stroke-width:9.72"/>
	<line x1="4640.12" y1="959.68" x2="4704.92" y2="959.68" style="stroke:#F0F0F0;stroke-width:9.72"/>
	<line x1="4737.32" y1="959.68" x2="4802.12" y2="959.68" style="stroke:#F0F0F0;stroke-width:9.72"/>
	<line x1="4834.52" y1="959.68" x2="4899.32" y2="959.68" style="stroke:#F0F0F0;stroke-width:9.72"/>
	<line x1="4931.72" y1="959.68" x2="4996.52" y2="959.68" style="stroke:#F0F0F0;stroke-width:9.72"/>
	<line x1="5028.92" y1="959.68" x2="5093.72" y2="959.68" style="stroke:#F0F0F0;stroke-width:9.72"/>
	<line x1="5126.12" y1="959.68" x2="5190.92" y2="959.68" style="stroke:#F0F0F0;stroke-width:9.72"/>
	<line x1="5223.32" y1="959.68" x2="5286.60" y2="959.68" style="stroke:#F0F0F0;stroke-width:9.72"/>
	<line x1="557.72" y1="381.04" x2="622.52" y2="381.04" style="stroke:#F0F0F0;stroke-width:9.72"/>
	<line x1="654.92" y1="381.04" x2="719.72" y2="381.04" style="stroke:#F0F0F0;stroke-width:9.72"/>
	<line x1="752.12" y1="381.04" x2="816.92" y2="381.04" style="stroke:#F0F0F0;stroke-width:9.72"/>
	<line x1="849.32" y1="381.04" x2="914.12" y2="381.04" style="stroke:#F0F0F0;stroke-width:9.72"/>
	<line x1="946.52" y1="381.04" x2="1011.32" y2="381.04" style="stroke:#F0F0F0;stroke-width:9.72"/>
	<line x1="1043.72" y1="381.04" x2="1108.52" y2="381.04" style="stroke:#F0F0F0;stroke-width:9.72"/>
	<line x1="1140.92" y1="381.04" x2="1205.72" y2="381.04" style="stroke:#F0F0F0;stroke-width:9.72"/>
	<line x1="1238.12" y1="381.04" x2="1302.92" y2="381.04" style="stroke:#F0F0F0;stroke-width:9.72"/>
	<line x1="1335.32" y1="381.04" x2="1400.12" y2="381.04" style="stroke:#F0F0F0;stroke-width:9.72"/>
	<line x1="1432.52" y1="381.04" x2="1497.32" y2="381.04" style="stroke:#F0F0F0;stroke-width:9.72"/>
	<line x1="1529.72" y1="381.04" x2="1594.52" y2="381.04" style="stroke:#F0F0F0;stroke-width:9.72"/>
	<line x1="1626.92" y1="381.04" x2="1691.72" y2="381.04" style="stroke:#F0F0F0;stroke-width:9.72"/>
	<line x1="1724.12" y1="381.04" x2="1788.92" y2="381.04" style="stroke:#F0F0F0;stroke-width:9.72"/>
	<line x1="1821.32" y1="381.04" x2="1886.12" y2="381.04" style="stroke:#F0F0F0;stroke-width:9.72"/>
	<line x1="1918.52" y1="381.04" x2="1983.32" y2="381.04" style="stroke:#F0F0F0;stroke-width:9.72"/>
	<line x1="2015.72" y1="381.04" x2="2080.52" y2="381.04" style="stroke:#F0F0F0;stroke-width:9.72"/>
	<line x1="2112.92" y1="381.04" x2="2177.72" y2="381.04" style="stroke:#F0F0F0;stroke-width:9.72"/>
	<line x1="2210.12" y1="381.04" x2="2274.92" y2="381.04" style="stroke:#F0F0F0;stroke-width:9.72"/>
	<line x1="2307.32" y1="381.04" x2="2372.12" y2="381.04" style="stroke:#F0F0F0;stroke-width:9.72"/>
	<line x1="2404.52" y1="381.04" x2="2469.32" y2="381.04" style="stroke:#F0F0F0;stroke-width:9.72"/>
	<line x1="2501.72" y1="381.04" x2="2566.52" y2="381.04" style="stroke:#F0F0F0;stroke-width:9.72"/>
	<line x1="2598.92" y1="381.04" x2="2663.72" y2="381.04" style="stroke:#F0F0F0;stroke-width:9.72"/>
	<line x1="2696.12" y1="381.04" x2="2760.92" y2="381.04" style="stroke:#F0F0F0;stroke-width:9.72"/>
	<line x1="2793.32" y1="381.04" x2="2858.12" y2="381.04" style="stroke:#F0F0F0;stroke-width:9.72"/>
	<line x1="2890.52" y1="381.04" x2="2955.32" y2="381.04" style="stroke:#F0F0F0;stroke-width:9.72"/>
	<line x1="2987.72" y1="381.04" x2="3052.52" y2="381.04" style="stroke:#F0F0F0;stroke-width:9.72"/>
	<line x1="3084.92" y1="381.04" x2="3149.72" y2="381.04" style="stroke:#F0F0F0;stroke-width:9.72"/>
	<line x1="3182.12" y1="381.04" x2="3246.92" y2="381.04" style="stroke:#F0F0F0;stroke-width:9.72"/>
	<line x1="3279.32" y1="381.04" x2="3344.12" y2="381.04" style="stroke:#F0F0F0;stroke-width:9.72"/>
	<line x1="3376.52" y1="381.04" x2="3441.32" y2="381.04" style="stroke:#F0F0F0;stroke-width:9.72"/>
	<line x1="3473.72" y1="381.04" x2="3538.52" y2="381.04" style="stroke:#F0F0F0;stroke-width:9.72"/>
	<line x1="3570.92" y1="381.04" x2="3635.72" y2="381.04" style="stroke:#F0F0F0;stroke-width:9.72"/>
	<line x1="3668.12" y1="381.04" x2="3732.92" y2="381.04" style="stroke:#F0F0F0;stroke-width:9.72"/>
	<line x1="3765.32" y1="381.04" x2="3830.12" y2="381.04" style="stroke:#F0F0F0;stroke-width:9.72"/>
	<line x1="3862.52" y1="381.04" x2="3927.32" y2="381.04" style="stroke:#F0F0F0;stroke-width:9.72"/>
	<line x1="3959.72" y1="381.04" x2="4024.52" y2="381.04" style="stroke:#F0F0F0;stroke-width:9.72"/>
	<line x1="4056.92" y1="381.04" x2="4121.72" y2="381.04" style="stroke:#F0F0F0;stroke-width:9.72"/>
	<line x1="4154.12" y1="381.04" x2="4218.92" y2="381.04" style="stroke:#F0F0F0;stroke-width:9.72"/>
	<line x1="4251.32" y1="381.04" x2="4316.12" y2="381.04" style="stroke:#F0F0F0;stroke-width:9.72"/>
	<line x1="4348.52" y1="381.04" x2="4413.32" y2="381.04" style="stroke:#F0F0F0;stroke-width:9.72"/>
	<line x1="4445.72" y1="381.04" x2="4510.52" y2="381.04" style="stroke:#F0F0F0;stroke-width:9.72"/>
	<line x1="4542.92" y1="381.04" x2="4607.72" y2="381.04" style="stroke:#F0F0F0;stroke-width:9.72"/>
	<line x1="4640.12" y1="381.04" x2="4704.92" y2="381.04" style="stroke:#F0F0F0;stroke-width:9.72"/>
	<line x1="4737.32" y1="381.04" x2="4802.12" y2="381.04" style="stroke:#F0F0F0;stroke-width:9.72"/>
	<line x1="4834.52" y1="381.04" x2="4899.32" y2="381.04" style="stroke:#F0F0F0;stroke-width:9.72"/>
	<line x1="4931.72" y1="381.04" x2="4996.52" y2="381.04" style="stroke:#F0F0F0;stroke-width:9.72"/>
	<line x1="5028.92" y1="381.04" x2="5093.72" y2="381.04" style="stroke:#F0F0F0;stroke-width:9.72"/>
	<line x1="5126.12" y1="381.04" x2="5190.92" y2="381.04" style="stroke:#F0F0F0;stroke-width:9.72"/>
	<line x1="5223.32" y1="381.04" x2="5286.60" y2="381.04" style="stroke:#F0F0F0;stroke-width:9.72"/>
	<line x1="629.10" y1="2766.66" x2="629.10" y2="2701.86" style="stroke:#F0F0F0;stroke-width:9.72"/>
	<line x1="629.10" y1="2669.46" x2="629.10" y2="2604.66" style="stroke:#F0F0F0;stroke-width:9.72"/>
	<line x1="629.10" y1="2572.26" x2="629.10" y2="2507.46" style="stroke:#F0F0F0;stroke-width:9.72"/>
	<line x1="629.10" y1="2475.06" x2="629.10" y2="2410.26" style="stroke:#F0F0F0;stroke-width:9.72"/>
	<line x1="629.10" y1="2377.86" x2="629.10" y2="2313.06" style="stroke:#F0F0F0;stroke-width:9.72"/>
	<line x1="629.10" y1="2280.66" x2="629.10" y2="2215.86" style="stroke:#F0F0F0;stroke-width:9.72"/>
	<line x1="629.10" y1="2183.46" x2="629.10" y2="2118.66" style="stroke:#F0F0F0;stroke-width:9.72"/>
	<line x1="629.10" y1="2086.26" x2="629.10" y2="2021.46" style="stroke:#F0F0F0;stroke-width:9.72"/>
	<line x1="629.10" y1="1989.06" x2="629.10" y2="1924.26" style="stroke:#F0F0F0;stroke-width:9.72"/>
	<line x1="629.10" y1="1891.86" x2="629.10" y2="1827.06" style="stroke:#F0F0F0;stroke-width:9.72"/>
	<line x1="629.10" y1="1794.66" x2="629.10" y2="1729.86" style="stroke:#F0F0F0;stroke-width:9.72"/>
	<line x1="629.10" y1="1697.46" x2="629.10" y2="1632.66" style="stroke:#F0F0F0;stroke-width:9.72"/>
	<line x1="629.10" y1="1600.26" x2="629.10" y2="1535.46" style="stroke:#F0F0F0;stroke-width:9.72"/>
	<line x1="629.10" y1="1503.06" x2="629.10" y2="1438.26" style="stroke:#F0F0F0;stroke-width:9.72"/>
	<line x1="629.10" y1="1405.86" x2="629.10" y2="1341.06" style="stroke:#F0F0F0;stroke-width:9.72"/>
	<line x1="629.10" y1="1308.66" x2="629.10" y2="1243.86" style="stroke:#F0F0F0;stroke-width:9.72"/>
	<line x1="629.10" y1="1211.46" x2="629.10" y2="1146.66" style="stroke:#F0F0F0;stroke-width:9.72"/>
	<line x1="629.10" y1="1114.26" x2="629.10" y2="1049.46" style="stroke:#F0F0F0;stroke-width:9.72"/>
	<line x1="629.10" y1="1017.06" x2="629.10" y2="952.26" style="stroke:#F0F0F0;stroke-width:9.72"/>
	<line x1="629.10" y1="919.86" x2="629.10" y2="855.06" style="stroke:#F0F0F0;stroke-width:9.72"/>
	<line x1="629.10" y1="822.66" x2="629.10" y2="757.86" style="stroke:#F0F0F0;stroke-width:9.72"/>
	<line x1="629.10" y1="725.46" x2="629.10" y2="660.66" style="stroke:#F0F0F0;stroke-width:9.72"/>
	<line x1="629.10" y1="628.26" x2="629.10" y2="563.46" style="stroke:#F0F0F0;stroke-width:9.72"/>
	<line x1="629.10" y1="531.06" x2="629.10" y2="466.26" style="stroke:#F0F0F0;stroke-width:9.72"/>
	<line x1="629.10" y1="433.86" x2="629.10" y2="369.06" style="stroke:#F0F0F0;stroke-width:9.72"/>
	<line x1="629.10" y1="336.66" x2="629.10" y2="309.82" style="stroke:#F0F0F0;stroke-width:9.72"/>
	<line x1="2157.81" y1="2766.66" x2="2157.81" y2="2701.86" style="stroke:#F0F0F0;stroke-width:9.72"/>
	<line x1="2157.81" y1="2669.46" x2="2157.81" y2="2604.66" style="stroke:#F0F0F0;stroke-width:9.72"/>
	<line x1="2157.81" y1="2572.26" x2="2157.81" y2="2507.46" style="stroke:#F0F0F0;stroke-width:9.72"/>
	<line x1="2157.81" y1="2475.06" x2="2157.81" y2="2410.26" style="stroke:#F0F0F0;stroke-width:9.72"/>
	<line x1="2157.81" y1="2377.86" x2="2157.81" y2="2313.06" style="stroke:#F0F0F0;stroke-width:9.72"/>
	<line x1="2157.81" y1="2280.66" x2="2157.81" y2="2215.86" style="stroke:#F0F0F0;stroke-width:9.72"/>
	<line x1="2157.81" y1="2183.46" x2="2157.81" y2="2118.66" style="stroke:#F0F0F0;stroke-width:9.72"/>
	<line x1="2157.81" y1="2086.26" x2="2157.81" y2="2021.46" style="stroke:#F0F0F0;stroke-width:9.72"/>
	<line x1="2157.81" y1="1989.06" x2="2157.81" y2="1924.26" style="stroke:#F0F0F0;stroke-width:9.72"/>
	<line x1="2157.81" y1="1891.86" x2="2157.81" y2="1827.06" style="stroke:#F0F0F0;stroke-width:9.72"/>
	<line x1="2157.81" y1="1794.66" x2="2157.81" y2="1729.86" style="stroke:#F0F0F0;stroke-width:9.72"/>
	<line x1="2157.81" y1="1697.46" x2="2157.81" y2="1632.66" style="stroke:#F0F0F0;stroke-width:9.72"/>
	<line x1="2157.81" y1="1600.26" x2="2157.81" y2="1535.46" style="stroke:#F0F0F0;stroke-width:9.72"/>
	<line x1="2157.81" y1="1503.06" x2="2157.81" y2="1438.26" style="stroke:#F0F0F0;stroke-width:9.72"/>
	<line x1="2157.81" y1="1405.86" x2="2157.81" y2="1341.06" style="stroke:#F0F0F0;stroke-width:9.72"/>
	<line x1="2157.81" y1="1308.66" x2="2157.81" y2="1243.86" style="stroke:#F0F0F0;stroke-width:9.72"/>
	<line x1="2157.81" y1="1211.46" x2="2157.81" y2="1146.66" style="stroke:#F0F0F0;stroke-width:9.72"/>
	<line x1="2157.81" y1="1114.26" x2="2157.81" y2="1049.46" style="stroke:#F0F0F0;stroke-width:9.72"/>
	<line x1="2157.81" y1="1017.06" x2="2157.81" y2="952.26" style="stroke:#F0F0F0;stroke-width:9.72"/>
	<line x1="2157.81" y1="919.86" x2="2157.81" y2="855.06" style="stroke:#F0F0F0;stroke-width:9.72"/>
	<line x1="2157.81" y1="822.66" x2="2157.81" y2="757.86" style="stroke:#F0F0F0;stroke-width:9.72"/>
	<line x1="2157.81" y1="725.46" x2="2157.81" y2="660.66" style="stroke:#F0F0F0;stroke-width:9.72"/>
	<line x1="2157.81" y1="628.26" x2="2157.81" y2="563.46" style="stroke:#F0F0F0;stroke-width:9.72"/>
	<line x1="2157.81" y1="531.06" x2="2157.81" y2="466.26" style="stroke:#F0F0F0;stroke-width:9.72"/>
	<line x1="2157.81" y1="433.86" x2="2157.81" y2="369.06" style="stroke:#F0F0F0;stroke-width:9.72"/>
	<line x1="2157.81" y1="336.66" x2="2157.81" y2="309.82" style="stroke:#F0F0F0;stroke-width:9.72"/>
	<line x1="3686.51" y1="2766.66" x2="3686.51" y2="2701.86" style="stroke:#F0F0F0;stroke-width:9.72"/>
	<line x1="3686.51" y1="2669.46" x2="3686.51" y2="2604.66" style="stroke:#F0F0F0;stroke-width:9.72"/>
	<line x1="3686.51" y1="2572.26" x2="3686.51" y2="2507.46" style="stroke:#F0F0F0;stroke-width:9.72"/>
	<line x1="3686.51" y1="2475.06" x2="3686.51" y2="2410.26" style="stroke:#F0F0F0;stroke-width:9.72"/>
	<line x1="3686.51" y1="2377.86" x2="3686.51" y2="2313.06" style="stroke:#F0F0F0;stroke-width:9.72"/>
	<line x1="3686.51" y1="2280.66" x2="3686.51" y2="2215.86" style="stroke:#F0F0F0;stroke-width:9.72"/>
	<line x1="3686.51" y1="2183.46" x2="3686.51" y2="2118.66" style="stroke:#F0F0F0;stroke-width:9.72"/>
	<line x1="3686.51" y1="2086.26" x2="3686.51" y2="2021.46" style="stroke:#F0F0F0;stroke-width:9.72"/>
	<line x1="3686.51" y1="1989.06" x2="3686.51" y2="1924.26" style="stroke:#F0F0F0;stroke-width:9.72"/>
	<line x1="3686.51" y1="1891.86" x2="3686.51" y2="1827.06" style="stroke:#F0F0F0;stroke-width:9.72"/>
	<line x1="3686.51" y1="1794.66" x2="3686.51" y2="1729.86" style="stroke:#F0F0F0;stroke-width:9.72"/>
	<line x1="3686.51" y1="1697.46" x2="3686.51" y2="1632.66" style="stroke:#F0F0F0;stroke-width:9.72"/>
	<line x1="3686.51" y1="1600.26" x2="3686.51" y2="1535.46" style="stroke:#F0F0F0;stroke-width:9.72"/>
	<line x1="3686.51" y1="1503.06" x2="3686.51" y2="1438.26" style="stroke:#F0F0F0;stroke-width:9.72"/>
	<line x1="3686.51" y1="1405.86" x2="3686.51" y2="1341.06" style="stroke:#F0F0F0;stroke-width:9.72"/>
	<line x1="3686.51" y1="1308.66" x2="3686.51" y2="1243.86" style="stroke:#F0F0F0;stroke-width:9.72"/>
	<line x1="3686.51" y1="1211.46" x2="3686.51" y2="1146.66" style="stroke:#F0F0F0;stroke-width:9.72"/>
	<line x1="3686.51" y1="1114.26" x2="3686.51" y2="1049.46" style="stroke:#F0F0F0;stroke-width:9.72"/>
	<line x1="3686.51" y1="1017.06" x2="3686.51" y2="952.26" style="stroke:#F0F0F0;stroke-width:9.72"/>
	<line x1="3686.51" y1="919.86" x2="3686.51" y2="855.06" style="stroke:#F0F0F0;stroke-width:9.72"/>
	<line x1="3686.51" y1="822.66" x2="3686.51" y2="757.86" style="stroke:#F0F0F0;stroke-width:9.72"/>
	<line x1="3686.51" y1="725.46" x2="3686.51" y2="660.66" style="stroke:#F0F0F0;stroke-width:9.72"/>
	<line x1="3686.51" y1="628.26" x2="3686.51" y2="563.46" style="stroke:#F0F0F0;stroke-width:9.72"/>
	<line x1="3686.51" y1="531.06" x2="3686.51" y2="466.26" style="stroke:#F0F0F0;stroke-width:9.72"/>
	<line x1="3686.51" y1="433.86" x2="3686.51" y2="369.06" style="stroke:#F0F0F0;stroke-width:9.72"/>
	<line x1="3686.51" y1="336.66" x2="3686.51" y2="309.82" style="stroke:#F0F0F0;stroke-width:9.72"/>
	<line x1="5215.39" y1="2766.66" x2="5215.39" y2="2701.86" style="stroke:#F0F0F0;stroke-width:9.72"/>
	<line x1="5215.39" y1="2669.46" x2="5215.39" y2="2604.66" style="stroke:#F0F0F0;stroke-width:9.72"/>
	<line x1="5215.39" y1="2572.26" x2="5215.39" y2="2507.46" style="stroke:#F0F0F0;stroke-width:9.72"/>
	<line x1="5215.39" y1="2475.06" x2="5215.39" y2="2410.26" style="stroke:#F0F0F0;stroke-width:9.72"/>
	<line x1="5215.39" y1="2377.86" x2="5215.39" y2="2313.06" style="stroke:#F0F0F0;stroke-width:9.72"/>
	<line x1="5215.39" y1="2280.66" x2="5215.39" y2="2215.86" style="stroke:#F0F0F0;stroke-width:9.72"/>
	<line x1="5215.39" y1="2183.46" x2="5215.39" y2="2118.66" style="stroke:#F0F0F0;stroke-width:9.72"/>
	<line x1="5215.39" y1="2086.26" x2="5215.39" y2="2021.46" style="stroke:#F0F0F0;stroke-width:9.72"/>
	<line x1="5215.39" y1="1989.06" x2="5215.39" y2="1924.26" style="stroke:#F0F0F0;stroke-width:9.72"/>
	<line x1="5215.39" y1="1891.86" x2="5215.39" y2="1827.06" style="stroke:#F0F0F0;stroke-width:9.72"/>
	<line x1="5215.39" y1="1794.66" x2="5215.39" y2="1729.86" style="stroke:#F0F0F0;stroke-width:9.72"/>
	<line x1="5215.39" y1="1697.46" x2="5215.39" y2="1632.66" style="stroke:#F0F0F0;stroke-width:9.72"/>
	<line x1="5215.39" y1="1600.26" x2="5215.39" y2="1535.46" style="stroke:#F0F0F0;stroke-width:9.72"/>
	<line x1="5215.39" y1="1503.06" x2="5215.39" y2="1438.26" style="stroke:#F0F0F0;stroke-width:9.72"/>
	<line x1="5215.39" y1="1405.86" x2="5215.39" y2="1341.06" style="stroke:#F0F0F0;stroke-width:9.72"/>
	<line x1="5215.39" y1="1308.66" x2="5215.39" y2="1243.86" style="stroke:#F0F0F0;stroke-width:9.72"/>
	<line x1="5215.39" y1="1211.46" x2="5215.39" y2="1146.66" style="stroke:#F0F0F0;stroke-width:9.72"/>
	<line x1="5215.39" y1="1114.26" x2="5215.39" y2="1049.46" style="stroke:#F0F0F0;stroke-width:9.72"/>
	<line x1="5215.39" y1="1017.06" x2="5215.39" y2="952.26" style="stroke:#F0F0F0;stroke-width:9.72"/>
	<line x1="5215.39" y1="919.86" x2="5215.39" y2="855.06" style="stroke:#F0F0F0;stroke-width:9.72"/>
	<line x1="5215.39" y1="822.66" x2="5215.39" y2="757.86" style="stroke:#F0F0F0;stroke-width:9.72"/>
	<line x1="5215.39" y1="725.46" x2="5215.39" y2="660.66" style="stroke:#F0F0F0;stroke-width:9.72"/>
	<line x1="5215.39" y1="628.26" x2="5215.39" y2="563.46" style="stroke:#F0F0F0;stroke-width:9.72"/>
	<line x1="5215.39" y1="531.06" x2="5215.39" y2="466.26" style="stroke:#F0F0F0;stroke-width:9.72"/>
	<line x1="5215.39" y1="433.86" x2="5215.39" y2="369.06" style="stroke:#F0F0F0;stroke-width:9.72"/>
	<line x1="5215.39" y1="336.66" x2="5215.39" y2="309.82" style="stroke:#F0F0F0;stroke-width:9.72"/>
	<path d=" M628.93 547.43 L639.23 496.46 L649.35 462.21 L659.64 444.82 L669.94 444.15 L680.06 460.18 L690.36 469.46 L700.48 494.61 L710.78 537.81 L721.07 599.57 L731.19 679.56 L741.49 777.77 L751.61 894.38 L761.91 1024.48 L772.20 1166.74 L782.33 1328.06 L792.62 1508.46 L802.74 1707.75 L813.04 1789.93 L823.33 1814.91 L833.46 1847.48 L843.75 1873.29 L853.88 1906.71 L864.17 1948.56 L874.46 1998.84 L884.59 2048.46 L894.88 2067.69 L905.01 2092.67 L915.30 2119.84 L925.43 2149.20 L935.72 2184.64 L946.01 2226.32 L956.14 2274.07 L966.43 2294.32 L976.56 2305.46 L986.85 2319.98 L997.14 2330.61 L1007.27 2345.29 L1017.56 2364.02 L1027.69 2386.63 L1037.98 2406.54 L1048.28 2409.07 L1058.40 2414.14 L1068.69 2413.80 L1078.82 2409.24 L1089.11 2408.06 L1099.41 2410.26 L1109.53 2415.66 L1119.83 2415.49 L1129.95 2415.15 L1140.24 2417.01 L1150.54 2410.93 L1160.66 2408.23 L1170.96 2408.91 L1181.08 2412.79 L1191.38 2415.32 L1201.67 2409.92 L1211.79 2406.71 L1222.09 2406.21 L1232.21 2407.89 L1242.51 2412.11 L1252.80 2418.86 L1262.93 2427.98 L1273.22 2433.04 L1283.34 2438.61 L1293.64 2446.37 L1303.93 2455.99 L1314.06 2467.63 L1324.35 2481.30 L1334.48 2496.99 L1344.77 2511.84 L1355.06 2523.49 L1365.19 2536.65 L1375.48 2548.97 L1385.61 2561.46 L1395.90 2575.97 L1406.19 2592.17 L1416.32 2610.06 L1426.61 2616.13 L1436.74 2621.03 L1447.03 2626.93 L1457.33 2633.51 L1467.45 2641.28 L1477.74 2649.71 L1487.87 2658.99 L1498.16 2664.73 L1508.46 2663.72 L1518.58 2663.04 L1528.88 2654.94 L1539.00 2643.98 L1549.29 2634.02 L1559.59 2624.74 L1569.71 2616.47 L1580.01 2609.04 L1590.13 2602.46 L1600.43 2595.21 L1610.72 2583.23 L1620.84 2572.43 L1631.14 2562.98 L1641.26 2554.71 L1651.56 2547.96 L1661.85 2542.39 L1671.98 2538.34 L1682.27 2535.47 L1692.39 2533.95 L1702.69 2533.78 L1712.81 2534.79 L1723.11 2537.32 L1733.40 2537.16 L1743.53 2538.17 L1753.82 2540.19 L1763.94 2543.40 L1774.24 2547.62 L1784.53 2553.02 L1794.66 2559.43 L1804.95 2567.03 L1815.08 2575.80 L1825.37 2585.42 L1835.66 2593.52 L1845.79 2601.96 L1856.08 2611.74 L1866.21 2622.71 L1876.50 2634.86 L1886.79 2636.89 L1896.92 2639.42 L1907.21 2641.44 L1917.34 2641.78 L1927.63 2642.96 L1937.93 2644.99 L1948.05 2647.86 L1958.34 2647.35 L1968.47 2643.98 L1978.76 2640.94 L1989.06 2638.41 L1999.18 2636.21 L2009.48 2634.69 L2019.60 2633.34 L2029.89 2632.67 L2040.19 2632.33 L2050.31 2632.33 L2060.61 2632.84 L2070.73 2633.85 L2081.03 2635.20 L2091.32 2637.06 L2101.44 2639.42 L2111.74 2642.12 L2121.86 2645.33 L2132.16 2649.04 L2142.45 2649.71 L2152.57 2650.73 L2162.87 2652.41 L2172.99 2654.78 L2183.29 2657.31 L2193.58 2656.97 L2203.71 2656.97 L2214.00 2657.64 L2224.13 2658.66 L2234.42 2660.01 L2244.71 2661.86 L2254.84 2664.23 L2265.13 2664.39 L2275.26 2663.55 L2285.55 2662.88 L2295.84 2662.54 L2305.97 2662.37 L2316.26 2662.37 L2326.39 2662.54 L2336.68 2663.04 L2346.98 2663.72 L2357.10 2664.56 L2367.39 2665.74 L2377.52 2667.09 L2387.81 2668.61 L2398.11 2670.30 L2408.23 2672.33 L2418.53 2674.52 L2428.65 2677.05 L2438.94 2679.58 L2449.24 2682.62 L2459.36 2685.66 L2469.66 2689.03 L2479.78 2692.58 L2490.07 2695.44 L2500.20 2695.44 L2510.49 2695.44 L2520.79 2695.44 L2530.91 2695.44 L2541.21 2695.44 L2551.33 2695.44 L2561.63 2695.44 L2571.92 2695.44 L2582.04 2695.44 L2592.34 2695.44 L2602.46 2695.44 L2612.76 2695.44 L2623.05 2695.44 L2633.18 2695.44 L2643.47 2695.44 L2653.59 2695.44 L2663.89 2695.44 L2674.18 2695.44 L2684.31 2695.44 L2694.60 2695.44 L2704.73 2695.44 L2715.02 2695.44 L2725.31 2695.44 L2735.44 2695.44 L2745.73 2695.44 L2755.86 2695.44 L2766.15 2695.44 L2776.44 2695.44 L2786.57 2695.44 L2796.86 2695.44 L2806.99 2695.44 L2817.28 2695.44 L2827.58 2695.44 L2837.70 2695.44 L2847.99 2695.44 L2858.12 2695.44 L2868.41 2695.44 L2878.71 2695.44 L2888.83 2695.44 L2899.13 2695.44 L2909.25 2695.44 L2919.54 2695.44 L2929.84 2695.44 L2939.96 2695.44 L2950.26 2695.44 L2960.38 2695.44 L2970.68 2695.44 L2980.97 2695.44 L2991.09 2695.44 L3001.39 2695.44 L3011.51 2695.44 L3021.81 2695.44 L3032.10 2695.44 L3042.23 2695.44 L3052.52 2695.44 L3062.64 2695.44 L3072.94 2695.44 L3083.23 2695.44 L3093.36 2695.44 L3103.65 2695.44 L3113.78 2695.44 L3124.07 2695.44 L3134.36 2695.44 L3144.49 2695.44 L3154.78 2695.44 L3164.91 2695.44 L3175.20 2695.44 L3185.49 2695.44 L3195.62 2695.44 L3205.91 2694.60 L3216.04 2690.89 L3226.33 2687.51 L3236.63 2684.14 L3246.75 2681.27 L3257.04 2678.40 L3267.17 2675.87 L3277.46 2673.51 L3287.76 2671.48 L3297.88 2669.46 L3308.18 2667.77 L3318.30 2666.42 L3328.59 2665.24 L3338.72 2664.06 L3349.01 2663.38 L3359.31 2662.71 L3369.43 2662.37 L3379.73 2662.37 L3389.85 2662.37 L3400.14 2662.71 L3410.44 2663.21 L3420.56 2663.89 L3430.86 2664.90 L3440.98 2663.04 L3451.28 2661.02 L3461.57 2659.33 L3471.69 2658.15 L3481.99 2657.31 L3492.11 2656.97 L3502.41 2656.97 L3512.70 2656.29 L3522.83 2653.59 L3533.12 2651.57 L3543.24 2650.22 L3553.54 2649.54 L3563.83 2647.35 L3573.96 2643.81 L3584.25 2640.94 L3594.38 2638.41 L3604.67 2636.21 L3614.96 2634.53 L3625.09 2633.34 L3635.38 2632.67 L3645.51 2632.33 L3655.80 2632.33 L3666.09 2632.84 L3676.22 2633.85 L3686.51 2635.37" stroke-linejoin="round" style="fill:none;stroke:#1A85FF;stroke-width:9.72"/>
	<path d=" M628.93 2100.94 L643.61 2094.19 L658.13 2088.11 L672.64 2082.88 L687.32 2078.32 L701.83 2074.61 L716.34 2070.56 L731.03 2066.68 L745.54 2063.81 L760.05 2061.62 L774.73 2060.10 L789.24 2059.26 L803.76 2058.58 L818.44 2058.75 L832.95 2059.93 L847.46 2061.79 L862.14 2064.49 L876.66 2067.53 L891.17 2071.57 L905.85 2076.30 L920.36 2082.04 L935.04 2088.45 L949.56 2095.03 L964.07 2102.46 L978.75 2110.73 L993.26 2119.67 L1007.78 2129.63 L1022.46 2138.74 L1036.97 2147.85 L1051.48 2157.98 L1066.16 2169.11 L1080.68 2181.09 L1095.19 2193.24 L1109.87 2205.90 L1124.38 2219.40 L1138.89 2233.91 L1153.58 2249.27 L1168.09 2264.96 L1182.77 2279.48 L1197.28 2294.83 L1211.79 2311.37 L1226.47 2328.75 L1240.99 2346.13 L1255.50 2351.53 L1270.18 2357.61 L1284.69 2364.36 L1299.21 2371.95 L1313.89 2380.05 L1328.40 2384.10 L1342.91 2387.64 L1357.59 2391.86 L1372.11 2396.76 L1386.62 2402.16 L1401.30 2405.53 L1415.81 2407.39 L1430.33 2409.75 L1445.01 2412.62 L1459.52 2415.99 L1474.20 2418.69 L1488.71 2419.20 L1503.23 2420.21 L1517.91 2421.73 L1532.42 2423.59 L1546.93 2425.78 L1561.61 2425.95 L1576.13 2426.63 L1590.64 2427.64 L1605.32 2429.16 L1619.83 2431.01 L1634.34 2431.86 L1649.03 2432.70 L1663.54 2434.05 L1678.05 2435.91 L1692.73 2438.10 L1707.24 2439.79 L1721.93 2441.48 L1736.44 2443.50 L1750.95 2446.03 L1765.63 2448.73 L1780.14 2451.43 L1794.66 2453.29 L1809.34 2455.48 L1823.85 2458.18 L1838.36 2461.05 L1853.04 2464.26 L1867.56 2467.13 L1882.07 2470.33 L1896.75 2474.04 L1911.26 2477.93 L1925.78 2482.14 L1940.46 2485.35 L1954.97 2488.56 L1969.48 2492.10 L1984.16 2495.98 L1998.68 2500.20 L2013.36 2503.91 L2027.87 2507.46 L2042.38 2511.17 L2057.06 2515.39 L2071.57 2519.78 L2086.09 2524.16 L2100.77 2527.88 L2115.28 2531.93 L2129.79 2536.31 L2144.48 2541.04 L2158.99 2545.93 L2173.50 2550.49 L2188.18 2555.21 L2202.69 2560.28 L2217.21 2565.68 L2231.89 2571.24 L2246.40 2574.96 L2261.08 2578.50 L2275.59 2582.38 L2290.11 2586.43 L2304.79 2590.82 L2319.30 2594.19 L2333.81 2597.23 L2348.49 2600.61 L2363.01 2603.98 L2377.52 2607.69 L2392.20 2610.39 L2406.71 2610.90 L2421.23 2611.74 L2435.91 2612.76 L2450.42 2613.94 L2464.93 2614.95 L2479.61 2615.63 L2494.13 2616.30 L2508.64 2617.14 L2523.32 2617.99 L2537.83 2619.17 L2552.51 2619.68 L2567.03 2620.18 L2581.54 2620.69 L2596.22 2621.53 L2610.73 2622.38 L2625.24 2623.05 L2639.93 2623.89 L2654.44 2624.74 L2668.95 2625.58 L2683.63 2626.76 L2698.14 2627.61 L2712.66 2628.11 L2727.34 2628.79 L2741.85 2629.46 L2756.36 2630.31 L2771.04 2631.15 L2785.56 2631.83 L2800.24 2632.50 L2814.75 2633.51 L2829.26 2634.53 L2843.94 2635.54 L2858.46 2636.04 L2872.97 2636.38 L2887.65 2636.89 L2902.16 2637.56 L2916.68 2638.24 L2931.36 2639.08 L2945.87 2639.93 L2960.38 2640.94 L2975.06 2642.12 L2989.58 2643.30 L3004.09 2644.14 L3018.77 2644.65 L3033.28 2645.16 L3047.79 2645.83 L3062.48 2646.51 L3076.99 2647.35 L3091.67 2648.19 L3106.18 2649.04 L3120.69 2650.05 L3135.38 2651.06 L3149.89 2652.24 L3164.40 2653.43 L3179.08 2654.61 L3193.59 2655.96 L3208.11 2657.48 L3222.79 2658.99 L3237.30 2660.18 L3251.81 2661.36 L3266.49 2662.54 L3281.01 2663.89 L3295.52 2665.24 L3310.20 2666.25 L3324.71 2666.93 L3339.39 2667.60 L3353.91 2668.28 L3368.42 2669.12 L3383.10 2669.79 L3397.61 2670.64 L3412.13 2671.48 L3426.81 2672.49 L3441.32 2673.34 L3455.83 2674.35 L3470.51 2675.03 L3485.03 2675.70 L3499.54 2676.38 L3514.22 2677.22 L3528.73 2677.89 L3543.24 2678.23 L3557.93 2678.23 L3572.44 2678.40 L3586.95 2678.57 L3601.63 2678.74 L3616.14 2678.91 L3630.83 2678.74 L3645.34 2678.57 L3659.85 2678.57 L3674.53 2678.57 L3689.04 2678.57 L3703.56 2678.74 L3718.24 2678.91 L3732.75 2679.08 L3747.26 2679.24 L3761.94 2679.41 L3776.46 2679.24 L3790.97 2679.24 L3805.65 2679.08 L3820.16 2679.08 L3834.68 2679.08 L3849.36 2679.08 L3863.87 2679.08 L3878.55 2679.08 L3893.06 2679.24 L3907.58 2679.41 L3922.26 2679.24 L3936.77 2679.08 L3951.28 2678.91 L3965.96 2678.57 L3980.48 2678.40 L3994.99 2678.23 L4009.67 2678.06 L4024.18 2678.06 L4038.69 2677.89 L4053.38 2677.89 L4067.89 2677.73 L4082.40 2677.73 L4097.08 2677.73 L4111.59 2677.73 L4126.11 2677.73 L4140.79 2677.73 L4155.30 2677.73 L4169.98 2677.89 L4184.49 2677.89 L4199.01 2678.06 L4213.69 2678.23 L4228.20 2678.40 L4242.71 2678.57 L4257.39 2678.74 L4271.91 2678.91 L4286.42 2679.24 L4301.10 2679.41 L4315.61 2679.24 L4330.13 2679.24 L4344.81 2679.08 L4359.32 2679.08 L4373.83 2679.08 L4388.51 2678.74 L4403.02 2678.23 L4417.71 2677.89 L4432.22 2677.73 L4446.73 2677.39 L4461.41 2677.22 L4475.93 2677.05 L4490.44 2676.88 L4505.12 2676.88 L4519.63 2676.88 L4534.14 2676.88 L4548.83 2676.88 L4563.34 2676.88 L4577.85 2677.05 L4592.53 2677.22 L4607.04 2677.39 L4621.56 2677.73 L4636.24 2677.89 L4650.75 2678.23 L4665.26 2678.57 L4679.94 2679.08 L4694.46 2679.08 L4709.14 2679.08 L4723.65 2679.24 L4738.16 2679.24 L4752.84 2679.41 L4767.36 2679.24 L4781.87 2679.08 L4796.55 2678.74 L4811.06 2678.57 L4825.58 2678.40 L4840.26 2678.23 L4854.77 2678.06 L4869.28 2677.89 L4883.96 2677.89 L4898.48 2677.73 L4912.99 2677.73 L4927.67 2677.73 L4942.18 2677.73 L4956.86 2677.73 L4971.38 2677.73 L4985.89 2677.73" stroke-linejoin="round" style="fill:none;stroke:#D41159;stroke-width:9.72"/>
	<line x1="557.72" y1="2766.66" x2="557.72" y2="309.82" style="stroke:#000000;stroke-width:6.48"/>
	<line x1="557.72" y1="2695.28" x2="512.83" y2="2695.28" style="stroke:#000000;stroke-width:6.48"/>
	<text x="490.22" y="2734.71" style="font-family:'Helvetica';font-size:112.56px;fill:#000000" text-anchor="end">0</text>
	<line x1="557.72" y1="2116.80" x2="512.83" y2="2116.80" style="stroke:#000000;stroke-width:6.48"/>
	<text x="490.22" y="2156.24" style="font-family:'Helvetica';font-size:112.56px;fill:#000000" text-anchor="end">.05</text>
	<line x1="557.72" y1="1538.16" x2="512.83" y2="1538.16" style="stroke:#000000;stroke-width:6.48"/>
	<text x="490.22" y="1577.59" style="font-family:'Helvetica';font-size:112.56px;fill:#000000" text-anchor="end">.1</text>
	<line x1="557.72" y1="959.68" x2="512.83" y2="959.68" style="stroke:#000000;stroke-width:6.48"/>
	<text x="490.22" y="999.12" style="font-family:'Helvetica';font-size:112.56px;fill:#000000" text-anchor="end">.15</text>
	<line x1="557.72" y1="381.04" x2="512.83" y2="381.04" style="stroke:#000000;stroke-width:6.48"/>
	<text x="490.22" y="420.47" style="font-family:'Helvetica';font-size:112.56px;fill:#000000" text-anchor="end">.2</text>
	<text x="214.55" y="1538.16" style="font-family:'Helvetica';font-size:112.56px;fill:#000000" transform="rotate(-90 214.55,1538.16)" text-anchor="middle">Density</text>
	<line x1="557.72" y1="2766.66" x2="5286.60" y2="2766.66" style="stroke:#000000;stroke-width:6.48"/>
	<line x1="629.10" y1="2766.66" x2="629.10" y2="2811.54" style="stroke:#000000;stroke-width:6.48"/>
	<text x="629.10" y="2912.86" style="font-family:'Helvetica';font-size:112.56px;fill:#000000" text-anchor="middle">0</text>
	<line x1="2157.81" y1="2766.66" x2="2157.81" y2="2811.54" style="stroke:#000000;stroke-width:6.48"/>
	<text x="2157.81" y="2912.86" style="font-family:'Helvetica';font-size:112.56px;fill:#000000" text-anchor="middle">20</text>
	<line x1="3686.51" y1="2766.66" x2="3686.51" y2="2811.54" style="stroke:#000000;stroke-width:6.48"/>
	<text x="3686.51" y="2912.86" style="font-family:'Helvetica';font-size:112.56px;fill:#000000" text-anchor="middle">40</text>
	<line x1="5215.39" y1="2766.66" x2="5215.39" y2="2811.54" style="stroke:#000000;stroke-width:6.48"/>
	<text x="5215.39" y="2912.86" style="font-family:'Helvetica';font-size:112.56px;fill:#000000" text-anchor="middle">60</text>
	<text x="2922.24" y="3070.31" style="font-family:'Helvetica';font-size:112.56px;fill:#000000" text-anchor="middle">Years</text>
	<rect x="4108.56" y="348.64" width="1139.23" height="209.76" style="fill:#FFFFFF"/>
	<rect x="4111.80" y="351.88" width="1132.75" height="203.28" style="fill:none;stroke:#FFFFFF;stroke-width:6.48"/>
	<line x1="4157.16" y1="453.43" x2="4416.36" y2="453.43" style="stroke:#D41159;stroke-width:9.72"/>
	<text x="4483.86" y="492.87" style="font-family:'Helvetica';font-size:112.56px;fill:#000000">ethnic conflict</text>
	<text x="2922.24" y="243.10" style="font-family:'Helvetica';font-size:157.44px;fill:#000000" text-anchor="middle">Civil War Duration</text>
</svg>
