<?xml version="1.0" encoding="UTF-8" standalone="no"?>
<!-- This is a Stata 19.5 generated SVG file (http://www.stata.com) -->

<svg version="1.1" width="7.500in" height="4.500in" viewBox="0 0 5400 3240" xmlns="http://www.w3.org/2000/svg" xmlns:xlink="http://www.w3.org/1999/xlink">
	<desc>Stata Graph - Graph</desc>
	<rect x="0" y="0" width="5400" height="3240" style="fill:#FFFFFF;stroke:none"/>
	<rect x="0.00" y="0.00" width="5400.00" height="3240.00" style="fill:#FFFFFF"/>
	<rect x="3.24" y="3.24" width="5393.52" height="3233.52" style="fill:none;stroke:#FFFFFF;stroke-width:6.48"/>
	<rect x="557.72" y="309.82" width="4728.88" height="2327.91" style="fill:#FFFFFF"/>
	<rect x="560.96" y="313.06" width="4722.40" height="2321.43" style="fill:none;stroke:#FFFFFF;stroke-width:6.48"/>
	<line x1="557.72" y1="2566.52" x2="622.52" y2="2566.52" style="stroke:#F0F0F0;stroke-width:9.72"/>
	<line x1="654.92" y1="2566.52" x2="719.72" y2="2566.52" style="stroke:#F0F0F0;stroke-width:9.72"/>
	<line x1="752.12" y1="2566.52" x2="816.92" y2="2566.52" style="stroke:#F0F0F0;stroke-width:9.72"/>
	<line x1="849.32" y1="2566.52" x2="914.12" y2="2566.52" style="stroke:#F0F0F0;stroke-width:9.72"/>
	<line x1="946.52" y1="2566.52" x2="1011.32" y2="2566.52" style="stroke:#F0F0F0;stroke-width:9.72"/>
	<line x1="1043.72" y1="2566.52" x2="1108.52" y2="2566.52" style="stroke:#F0F0F0;stroke-width:9.72"/>
	<line x1="1140.92" y1="2566.52" x2="1205.72" y2="2566.52" style="stroke:#F0F0F0;stroke-width:9.72"/>
	<line x1="1238.12" y1="2566.52" x2="1302.92" y2="2566.52" style="stroke:#F0F0F0;stroke-width:9.72"/>
	<line x1="1335.32" y1="2566.52" x2="1400.12" y2="2566.52" style="stroke:#F0F0F0;stroke-width:9.72"/>
	<line x1="1432.52" y1="2566.52" x2="1497.32" y2="2566.52" style="stroke:#F0F0F0;stroke-width:9.72"/>
	<line x1="1529.72" y1="2566.52" x2="1594.52" y2="2566.52" style="stroke:#F0F0F0;stroke-width:9.72"/>
	<line x1="1626.92" y1="2566.52" x2="1691.72" y2="2566.52" style="stroke:#F0F0F0;stroke-width:9.72"/>
	<line x1="1724.12" y1="2566.52" x2="1788.92" y2="2566.52" style="stroke:#F0F0F0;stroke-width:9.72"/>
	<line x1="1821.32" y1="2566.52" x2="1886.12" y2="2566.52" style="stroke:#F0F0F0;stroke-width:9.72"/>
	<line x1="1918.52" y1="2566.52" x2="1983.32" y2="2566.52" style="stroke:#F0F0F0;stroke-width:9.72"/>
	<line x1="2015.72" y1="2566.52" x2="2080.52" y2="2566.52" style="stroke:#F0F0F0;stroke-width:9.72"/>
	<line x1="2112.92" y1="2566.52" x2="2177.72" y2="2566.52" style="stroke:#F0F0F0;stroke-width:9.72"/>
	<line x1="2210.12" y1="2566.52" x2="2274.92" y2="2566.52" style="stroke:#F0F0F0;stroke-width:9.72"/>
	<line x1="2307.32" y1="2566.52" x2="2372.12" y2="2566.52" style="stroke:#F0F0F0;stroke-width:9.72"/>
	<line x1="2404.52" y1="2566.52" x2="2469.32" y2="2566.52" style="stroke:#F0F0F0;stroke-width:9.72"/>
	<line x1="2501.72" y1="2566.52" x2="2566.52" y2="2566.52" style="stroke:#F0F0F0;stroke-width:9.72"/>
	<line x1="2598.92" y1="2566.52" x2="2663.72" y2="2566.52" style="stroke:#F0F0F0;stroke-width:9.72"/>
	<line x1="2696.12" y1="2566.52" x2="2760.92" y2="2566.52" style="stroke:#F0F0F0;stroke-width:9.72"/>
	<line x1="2793.32" y1="2566.52" x2="2858.12" y2="2566.52" style="stroke:#F0F0F0;stroke-width:9.72"/>
	<line x1="2890.52" y1="2566.52" x2="2955.32" y2="2566.52" style="stroke:#F0F0F0;stroke-width:9.72"/>
	<line x1="2987.72" y1="2566.52" x2="3052.52" y2="2566.52" style="stroke:#F0F0F0;stroke-width:9.72"/>
	<line x1="3084.92" y1="2566.52" x2="3149.72" y2="2566.52" style="stroke:#F0F0F0;stroke-width:9.72"/>
	<line x1="3182.12" y1="2566.52" x2="3246.92" y2="2566.52" style="stroke:#F0F0F0;stroke-width:9.72"/>
	<line x1="3279.32" y1="2566.52" x2="3344.12" y2="2566.52" style="stroke:#F0F0F0;stroke-width:9.72"/>
	<line x1="3376.52" y1="2566.52" x2="3441.32" y2="2566.52" style="stroke:#F0F0F0;stroke-width:9.72"/>
	<line x1="3473.72" y1="2566.52" x2="3538.52" y2="2566.52" style="stroke:#F0F0F0;stroke-width:9.72"/>
	<line x1="3570.92" y1="2566.52" x2="3635.72" y2="2566.52" style="stroke:#F0F0F0;stroke-width:9.72"/>
	<line x1="3668.12" y1="2566.52" x2="3732.92" y2="2566.52" style="stroke:#F0F0F0;stroke-width:9.72"/>
	<line x1="3765.32" y1="2566.52" x2="3830.12" y2="2566.52" style="stroke:#F0F0F0;stroke-width:9.72"/>
	<line x1="3862.52" y1="2566.52" x2="3927.32" y2="2566.52" style="stroke:#F0F0F0;stroke-width:9.72"/>
	<line x1="3959.72" y1="2566.52" x2="4024.52" y2="2566.52" style="stroke:#F0F0F0;stroke-width:9.72"/>
	<line x1="4056.92" y1="2566.52" x2="4121.72" y2="2566.52" style="stroke:#F0F0F0;stroke-width:9.72"/>
	<line x1="4154.12" y1="2566.52" x2="4218.92" y2="2566.52" style="stroke:#F0F0F0;stroke-width:9.72"/>
	<line x1="4251.32" y1="2566.52" x2="4316.12" y2="2566.52" style="stroke:#F0F0F0;stroke-width:9.72"/>
	<line x1="4348.52" y1="2566.52" x2="4413.32" y2="2566.52" style="stroke:#F0F0F0;stroke-width:9.72"/>
	<line x1="4445.72" y1="2566.52" x2="4510.52" y2="2566.52" style="stroke:#F0F0F0;stroke-width:9.72"/>
	<line x1="4542.92" y1="2566.52" x2="4607.72" y2="2566.52" style="stroke:#F0F0F0;stroke-width:9.72"/>
	<line x1="4640.12" y1="2566.52" x2="4704.92" y2="2566.52" style="stroke:#F0F0F0;stroke-width:9.72"/>
	<line x1="4737.32" y1="2566.52" x2="4802.12" y2="2566.52" style="stroke:#F0F0F0;stroke-width:9.72"/>
	<line x1="4834.52" y1="2566.52" x2="4899.32" y2="2566.52" style="stroke:#F0F0F0;stroke-width:9.72"/>
	<line x1="4931.72" y1="2566.52" x2="4996.52" y2="2566.52" style="stroke:#F0F0F0;stroke-width:9.72"/>
	<line x1="5028.92" y1="2566.52" x2="5093.72" y2="2566.52" style="stroke:#F0F0F0;stroke-width:9.72"/>
	<line x1="5126.12" y1="2566.52" x2="5190.92" y2="2566.52" style="stroke:#F0F0F0;stroke-width:9.72"/>
	<line x1="5223.32" y1="2566.52" x2="5286.60" y2="2566.52" style="stroke:#F0F0F0;stroke-width:9.72"/>
	<line x1="557.72" y1="1838.03" x2="622.52" y2="1838.03" style="stroke:#F0F0F0;stroke-width:9.72"/>
	<line x1="654.92" y1="1838.03" x2="719.72" y2="1838.03" style="stroke:#F0F0F0;stroke-width:9.72"/>
	<line x1="752.12" y1="1838.03" x2="816.92" y2="1838.03" style="stroke:#F0F0F0;stroke-width:9.72"/>
	<line x1="849.32" y1="1838.03" x2="914.12" y2="1838.03" style="stroke:#F0F0F0;stroke-width:9.72"/>
	<line x1="946.52" y1="1838.03" x2="1011.32" y2="1838.03" style="stroke:#F0F0F0;stroke-width:9.72"/>
	<line x1="1043.72" y1="1838.03" x2="1108.52" y2="1838.03" style="stroke:#F0F0F0;stroke-width:9.72"/>
	<line x1="1140.92" y1="1838.03" x2="1205.72" y2="1838.03" style="stroke:#F0F0F0;stroke-width:9.72"/>
	<line x1="1238.12" y1="1838.03" x2="1302.92" y2="1838.03" style="stroke:#F0F0F0;stroke-width:9.72"/>
	<line x1="1335.32" y1="1838.03" x2="1400.12" y2="1838.03" style="stroke:#F0F0F0;stroke-width:9.72"/>
	<line x1="1432.52" y1="1838.03" x2="1497.32" y2="1838.03" style="stroke:#F0F0F0;stroke-width:9.72"/>
	<line x1="1529.72" y1="1838.03" x2="1594.52" y2="1838.03" style="stroke:#F0F0F0;stroke-width:9.72"/>
	<line x1="1626.92" y1="1838.03" x2="1691.72" y2="1838.03" style="stroke:#F0F0F0;stroke-width:9.72"/>
	<line x1="1724.12" y1="1838.03" x2="1788.92" y2="1838.03" style="stroke:#F0F0F0;stroke-width:9.72"/>
	<line x1="1821.32" y1="1838.03" x2="1886.12" y2="1838.03" style="stroke:#F0F0F0;stroke-width:9.72"/>
	<line x1="1918.52" y1="1838.03" x2="1983.32" y2="1838.03" style="stroke:#F0F0F0;stroke-width:9.72"/>
	<line x1="2015.72" y1="1838.03" x2="2080.52" y2="1838.03" style="stroke:#F0F0F0;stroke-width:9.72"/>
	<line x1="2112.92" y1="1838.03" x2="2177.72" y2="1838.03" style="stroke:#F0F0F0;stroke-width:9.72"/>
	<line x1="2210.12" y1="1838.03" x2="2274.92" y2="1838.03" style="stroke:#F0F0F0;stroke-width:9.72"/>
	<line x1="2307.32" y1="1838.03" x2="2372.12" y2="1838.03" style="stroke:#F0F0F0;stroke-width:9.72"/>
	<line x1="2404.52" y1="1838.03" x2="2469.32" y2="1838.03" style="stroke:#F0F0F0;stroke-width:9.72"/>
	<line x1="2501.72" y1="1838.03" x2="2566.52" y2="1838.03" style="stroke:#F0F0F0;stroke-width:9.72"/>
	<line x1="2598.92" y1="1838.03" x2="2663.72" y2="1838.03" style="stroke:#F0F0F0;stroke-width:9.72"/>
	<line x1="2696.12" y1="1838.03" x2="2760.92" y2="1838.03" style="stroke:#F0F0F0;stroke-width:9.72"/>
	<line x1="2793.32" y1="1838.03" x2="2858.12" y2="1838.03" style="stroke:#F0F0F0;stroke-width:9.72"/>
	<line x1="2890.52" y1="1838.03" x2="2955.32" y2="1838.03" style="stroke:#F0F0F0;stroke-width:9.72"/>
	<line x1="2987.72" y1="1838.03" x2="3052.52" y2="1838.03" style="stroke:#F0F0F0;stroke-width:9.72"/>
	<line x1="3084.92" y1="1838.03" x2="3149.72" y2="1838.03" style="stroke:#F0F0F0;stroke-width:9.72"/>
	<line x1="3182.12" y1="1838.03" x2="3246.92" y2="1838.03" style="stroke:#F0F0F0;stroke-width:9.72"/>
	<line x1="3279.32" y1="1838.03" x2="3344.12" y2="1838.03" style="stroke:#F0F0F0;stroke-width:9.72"/>
	<line x1="3376.52" y1="1838.03" x2="3441.32" y2="1838.03" style="stroke:#F0F0F0;stroke-width:9.72"/>
	<line x1="3473.72" y1="1838.03" x2="3538.52" y2="1838.03" style="stroke:#F0F0F0;stroke-width:9.72"/>
	<line x1="3570.92" y1="1838.03" x2="3635.72" y2="1838.03" style="stroke:#F0F0F0;stroke-width:9.72"/>
	<line x1="3668.12" y1="1838.03" x2="3732.92" y2="1838.03" style="stroke:#F0F0F0;stroke-width:9.72"/>
	<line x1="3765.32" y1="1838.03" x2="3830.12" y2="1838.03" style="stroke:#F0F0F0;stroke-width:9.72"/>
	<line x1="3862.52" y1="1838.03" x2="3927.32" y2="1838.03" style="stroke:#F0F0F0;stroke-width:9.72"/>
	<line x1="3959.72" y1="1838.03" x2="4024.52" y2="1838.03" style="stroke:#F0F0F0;stroke-width:9.72"/>
	<line x1="4056.92" y1="1838.03" x2="4121.72" y2="1838.03" style="stroke:#F0F0F0;stroke-width:9.72"/>
	<line x1="4154.12" y1="1838.03" x2="4218.92" y2="1838.03" style="stroke:#F0F0F0;stroke-width:9.72"/>
	<line x1="4251.32" y1="1838.03" x2="4316.12" y2="1838.03" style="stroke:#F0F0F0;stroke-width:9.72"/>
	<line x1="4348.52" y1="1838.03" x2="4413.32" y2="1838.03" style="stroke:#F0F0F0;stroke-width:9.72"/>
	<line x1="4445.72" y1="1838.03" x2="4510.52" y2="1838.03" style="stroke:#F0F0F0;stroke-width:9.72"/>
	<line x1="4542.92" y1="1838.03" x2="4607.72" y2="1838.03" style="stroke:#F0F0F0;stroke-width:9.72"/>
	<line x1="4640.12" y1="1838.03" x2="4704.92" y2="1838.03" style="stroke:#F0F0F0;stroke-width:9.72"/>
	<line x1="4737.32" y1="1838.03" x2="4802.12" y2="1838.03" style="stroke:#F0F0F0;stroke-width:9.72"/>
	<line x1="4834.52" y1="1838.03" x2="4899.32" y2="1838.03" style="stroke:#F0F0F0;stroke-width:9.72"/>
	<line x1="4931.72" y1="1838.03" x2="4996.52" y2="1838.03" style="stroke:#F0F0F0;stroke-width:9.72"/>
	<line x1="5028.92" y1="1838.03" x2="5093.72" y2="1838.03" style="stroke:#F0F0F0;stroke-width:9.72"/>
	<line x1="5126.12" y1="1838.03" x2="5190.92" y2="1838.03" style="stroke:#F0F0F0;stroke-width:9.72"/>
	<line x1="5223.32" y1="1838.03" x2="5286.60" y2="1838.03" style="stroke:#F0F0F0;stroke-width:9.72"/>
	<line x1="557.72" y1="1109.53" x2="622.52" y2="1109.53" style="stroke:#F0F0F0;stroke-width:9.72"/>
	<line x1="654.92" y1="1109.53" x2="719.72" y2="1109.53" style="stroke:#F0F0F0;stroke-width:9.72"/>
	<line x1="752.12" y1="1109.53" x2="816.92" y2="1109.53" style="stroke:#F0F0F0;stroke-width:9.72"/>
	<line x1="849.32" y1="1109.53" x2="914.12" y2="1109.53" style="stroke:#F0F0F0;stroke-width:9.72"/>
	<line x1="946.52" y1="1109.53" x2="1011.32" y2="1109.53" style="stroke:#F0F0F0;stroke-width:9.72"/>
	<line x1="1043.72" y1="1109.53" x2="1108.52" y2="1109.53" style="stroke:#F0F0F0;stroke-width:9.72"/>
	<line x1="1140.92" y1="1109.53" x2="1205.72" y2="1109.53" style="stroke:#F0F0F0;stroke-width:9.72"/>
	<line x1="1238.12" y1="1109.53" x2="1302.92" y2="1109.53" style="stroke:#F0F0F0;stroke-width:9.72"/>
	<line x1="1335.32" y1="1109.53" x2="1400.12" y2="1109.53" style="stroke:#F0F0F0;stroke-width:9.72"/>
	<line x1="1432.52" y1="1109.53" x2="1497.32" y2="1109.53" style="stroke:#F0F0F0;stroke-width:9.72"/>
	<line x1="1529.72" y1="1109.53" x2="1594.52" y2="1109.53" style="stroke:#F0F0F0;stroke-width:9.72"/>
	<line x1="1626.92" y1="1109.53" x2="1691.72" y2="1109.53" style="stroke:#F0F0F0;stroke-width:9.72"/>
	<line x1="1724.12" y1="1109.53" x2="1788.92" y2="1109.53" style="stroke:#F0F0F0;stroke-width:9.72"/>
	<line x1="1821.32" y1="1109.53" x2="1886.12" y2="1109.53" style="stroke:#F0F0F0;stroke-width:9.72"/>
	<line x1="1918.52" y1="1109.53" x2="1983.32" y2="1109.53" style="stroke:#F0F0F0;stroke-width:9.72"/>
	<line x1="2015.72" y1="1109.53" x2="2080.52" y2="1109.53" style="stroke:#F0F0F0;stroke-width:9.72"/>
	<line x1="2112.92" y1="1109.53" x2="2177.72" y2="1109.53" style="stroke:#F0F0F0;stroke-width:9.72"/>
	<line x1="2210.12" y1="1109.53" x2="2274.92" y2="1109.53" style="stroke:#F0F0F0;stroke-width:9.72"/>
	<line x1="2307.32" y1="1109.53" x2="2372.12" y2="1109.53" style="stroke:#F0F0F0;stroke-width:9.72"/>
	<line x1="2404.52" y1="1109.53" x2="2469.32" y2="1109.53" style="stroke:#F0F0F0;stroke-width:9.72"/>
	<line x1="2501.72" y1="1109.53" x2="2566.52" y2="1109.53" style="stroke:#F0F0F0;stroke-width:9.72"/>
	<line x1="2598.92" y1="1109.53" x2="2663.72" y2="1109.53" style="stroke:#F0F0F0;stroke-width:9.72"/>
	<line x1="2696.12" y1="1109.53" x2="2760.92" y2="1109.53" style="stroke:#F0F0F0;stroke-width:9.72"/>
	<line x1="2793.32" y1="1109.53" x2="2858.12" y2="1109.53" style="stroke:#F0F0F0;stroke-width:9.72"/>
	<line x1="2890.52" y1="1109.53" x2="2955.32" y2="1109.53" style="stroke:#F0F0F0;stroke-width:9.72"/>
	<line x1="2987.72" y1="1109.53" x2="3052.52" y2="1109.53" style="stroke:#F0F0F0;stroke-width:9.72"/>
	<line x1="3084.92" y1="1109.53" x2="3149.72" y2="1109.53" style="stroke:#F0F0F0;stroke-width:9.72"/>
	<line x1="3182.12" y1="1109.53" x2="3246.92" y2="1109.53" style="stroke:#F0F0F0;stroke-width:9.72"/>
	<line x1="3279.32" y1="1109.53" x2="3344.12" y2="1109.53" style="stroke:#F0F0F0;stroke-width:9.72"/>
	<line x1="3376.52" y1="1109.53" x2="3441.32" y2="1109.53" style="stroke:#F0F0F0;stroke-width:9.72"/>
	<line x1="3473.72" y1="1109.53" x2="3538.52" y2="1109.53" style="stroke:#F0F0F0;stroke-width:9.72"/>
	<line x1="3570.92" y1="1109.53" x2="3635.72" y2="1109.53" style="stroke:#F0F0F0;stroke-width:9.72"/>
	<line x1="3668.12" y1="1109.53" x2="3732.92" y2="1109.53" style="stroke:#F0F0F0;stroke-width:9.72"/>
	<line x1="3765.32" y1="1109.53" x2="3830.12" y2="1109.53" style="stroke:#F0F0F0;stroke-width:9.72"/>
	<line x1="3862.52" y1="1109.53" x2="3927.32" y2="1109.53" style="stroke:#F0F0F0;stroke-width:9.72"/>
	<line x1="3959.72" y1="1109.53" x2="4024.52" y2="1109.53" style="stroke:#F0F0F0;stroke-width:9.72"/>
	<line x1="4056.92" y1="1109.53" x2="4121.72" y2="1109.53" style="stroke:#F0F0F0;stroke-width:9.72"/>
	<line x1="4154.12" y1="1109.53" x2="4218.92" y2="1109.53" style="stroke:#F0F0F0;stroke-width:9.72"/>
	<line x1="4251.32" y1="1109.53" x2="4316.12" y2="1109.53" style="stroke:#F0F0F0;stroke-width:9.72"/>
	<line x1="4348.52" y1="1109.53" x2="4413.32" y2="1109.53" style="stroke:#F0F0F0;stroke-width:9.72"/>
	<line x1="4445.72" y1="1109.53" x2="4510.52" y2="1109.53" style="stroke:#F0F0F0;stroke-width:9.72"/>
	<line x1="4542.92" y1="1109.53" x2="4607.72" y2="1109.53" style="stroke:#F0F0F0;stroke-width:9.72"/>
	<line x1="4640.12" y1="1109.53" x2="4704.92" y2="1109.53" style="stroke:#F0F0F0;stroke-width:9.72"/>
	<line x1="4737.32" y1="1109.53" x2="4802.12" y2="1109.53" style="stroke:#F0F0F0;stroke-width:9.72"/>
	<line x1="4834.52" y1="1109.53" x2="4899.32" y2="1109.53" style="stroke:#F0F0F0;stroke-width:9.72"/>
	<line x1="4931.72" y1="1109.53" x2="4996.52" y2="1109.53" style="stroke:#F0F0F0;stroke-width:9.72"/>
	<line x1="5028.92" y1="1109.53" x2="5093.72" y2="1109.53" style="stroke:#F0F0F0;stroke-width:9.72"/>
	<line x1="5126.12" y1="1109.53" x2="5190.92" y2="1109.53" style="stroke:#F0F0F0;stroke-width:9.72"/>
	<line x1="5223.32" y1="1109.53" x2="5286.60" y2="1109.53" style="stroke:#F0F0F0;stroke-width:9.72"/>
	<line x1="557.72" y1="381.04" x2="622.52" y2="381.04" style="stroke:#F0F0F0;stroke-width:9.72"/>
	<line x1="654.92" y1="381.04" x2="719.72" y2="381.04" style="stroke:#F0F0F0;stroke-width:9.72"/>
	<line x1="752.12" y1="381.04" x2="816.92" y2="381.04" style="stroke:#F0F0F0;stroke-width:9.72"/>
	<line x1="849.32" y1="381.04" x2="914.12" y2="381.04" style="stroke:#F0F0F0;stroke-width:9.72"/>
	<line x1="946.52" y1="381.04" x2="1011.32" y2="381.04" style="stroke:#F0F0F0;stroke-width:9.72"/>
	<line x1="1043.72" y1="381.04" x2="1108.52" y2="381.04" style="stroke:#F0F0F0;stroke-width:9.72"/>
	<line x1="1140.92" y1="381.04" x2="1205.72" y2="381.04" style="stroke:#F0F0F0;stroke-width:9.72"/>
	<line x1="1238.12" y1="381.04" x2="1302.92" y2="381.04" style="stroke:#F0F0F0;stroke-width:9.72"/>
	<line x1="1335.32" y1="381.04" x2="1400.12" y2="381.04" style="stroke:#F0F0F0;stroke-width:9.72"/>
	<line x1="1432.52" y1="381.04" x2="1497.32" y2="381.04" style="stroke:#F0F0F0;stroke-width:9.72"/>
	<line x1="1529.72" y1="381.04" x2="1594.52" y2="381.04" style="stroke:#F0F0F0;stroke-width:9.72"/>
	<line x1="1626.92" y1="381.04" x2="1691.72" y2="381.04" style="stroke:#F0F0F0;stroke-width:9.72"/>
	<line x1="1724.12" y1="381.04" x2="1788.92" y2="381.04" style="stroke:#F0F0F0;stroke-width:9.72"/>
	<line x1="1821.32" y1="381.04" x2="1886.12" y2="381.04" style="stroke:#F0F0F0;stroke-width:9.72"/>
	<line x1="1918.52" y1="381.04" x2="1983.32" y2="381.04" style="stroke:#F0F0F0;stroke-width:9.72"/>
	<line x1="2015.72" y1="381.04" x2="2080.52" y2="381.04" style="stroke:#F0F0F0;stroke-width:9.72"/>
	<line x1="2112.92" y1="381.04" x2="2177.72" y2="381.04" style="stroke:#F0F0F0;stroke-width:9.72"/>
	<line x1="2210.12" y1="381.04" x2="2274.92" y2="381.04" style="stroke:#F0F0F0;stroke-width:9.72"/>
	<line x1="2307.32" y1="381.04" x2="2372.12" y2="381.04" style="stroke:#F0F0F0;stroke-width:9.72"/>
	<line x1="2404.52" y1="381.04" x2="2469.32" y2="381.04" style="stroke:#F0F0F0;stroke-width:9.72"/>
	<line x1="2501.72" y1="381.04" x2="2566.52" y2="381.04" style="stroke:#F0F0F0;stroke-width:9.72"/>
	<line x1="2598.92" y1="381.04" x2="2663.72" y2="381.04" style="stroke:#F0F0F0;stroke-width:9.72"/>
	<line x1="2696.12" y1="381.04" x2="2760.92" y2="381.04" style="stroke:#F0F0F0;stroke-width:9.72"/>
	<line x1="2793.32" y1="381.04" x2="2858.12" y2="381.04" style="stroke:#F0F0F0;stroke-width:9.72"/>
	<line x1="2890.52" y1="381.04" x2="2955.32" y2="381.04" style="stroke:#F0F0F0;stroke-width:9.72"/>
	<line x1="2987.72" y1="381.04" x2="3052.52" y2="381.04" style="stroke:#F0F0F0;stroke-width:9.72"/>
	<line x1="3084.92" y1="381.04" x2="3149.72" y2="381.04" style="stroke:#F0F0F0;stroke-width:9.72"/>
	<line x1="3182.12" y1="381.04" x2="3246.92" y2="381.04" style="stroke:#F0F0F0;stroke-width:9.72"/>
	<line x1="3279.32" y1="381.04" x2="3344.12" y2="381.04" style="stroke:#F0F0F0;stroke-width:9.72"/>
	<line x1="3376.52" y1="381.04" x2="3441.32" y2="381.04" style="stroke:#F0F0F0;stroke-width:9.72"/>
	<line x1="3473.72" y1="381.04" x2="3538.52" y2="381.04" style="stroke:#F0F0F0;stroke-width:9.72"/>
	<line x1="3570.92" y1="381.04" x2="3635.72" y2="381.04" style="stroke:#F0F0F0;stroke-width:9.72"/>
	<line x1="3668.12" y1="381.04" x2="3732.92" y2="381.04" style="stroke:#F0F0F0;stroke-width:9.72"/>
	<line x1="3765.32" y1="381.04" x2="3830.12" y2="381.04" style="stroke:#F0F0F0;stroke-width:9.72"/>
	<line x1="3862.52" y1="381.04" x2="3927.32" y2="381.04" style="stroke:#F0F0F0;stroke-width:9.72"/>
	<line x1="3959.72" y1="381.04" x2="4024.52" y2="381.04" style="stroke:#F0F0F0;stroke-width:9.72"/>
	<line x1="4056.92" y1="381.04" x2="4121.72" y2="381.04" style="stroke:#F0F0F0;stroke-width:9.72"/>
	<line x1="4154.12" y1="381.04" x2="4218.92" y2="381.04" style="stroke:#F0F0F0;stroke-width:9.72"/>
	<line x1="4251.32" y1="381.04" x2="4316.12" y2="381.04" style="stroke:#F0F0F0;stroke-width:9.72"/>
	<line x1="4348.52" y1="381.04" x2="4413.32" y2="381.04" style="stroke:#F0F0F0;stroke-width:9.72"/>
	<line x1="4445.72" y1="381.04" x2="4510.52" y2="381.04" style="stroke:#F0F0F0;stroke-width:9.72"/>
	<line x1="4542.92" y1="381.04" x2="4607.72" y2="381.04" style="stroke:#F0F0F0;stroke-width:9.72"/>
	<line x1="4640.12" y1="381.04" x2="4704.92" y2="381.04" style="stroke:#F0F0F0;stroke-width:9.72"/>
	<line x1="4737.32" y1="381.04" x2="4802.12" y2="381.04" style="stroke:#F0F0F0;stroke-width:9.72"/>
	<line x1="4834.52" y1="381.04" x2="4899.32" y2="381.04" style="stroke:#F0F0F0;stroke-width:9.72"/>
	<line x1="4931.72" y1="381.04" x2="4996.52" y2="381.04" style="stroke:#F0F0F0;stroke-width:9.72"/>
	<line x1="5028.92" y1="381.04" x2="5093.72" y2="381.04" style="stroke:#F0F0F0;stroke-width:9.72"/>
	<line x1="5126.12" y1="381.04" x2="5190.92" y2="381.04" style="stroke:#F0F0F0;stroke-width:9.72"/>
	<line x1="5223.32" y1="381.04" x2="5286.60" y2="381.04" style="stroke:#F0F0F0;stroke-width:9.72"/>
	<line x1="884.59" y1="2637.73" x2="884.59" y2="2572.93" style="stroke:#F0F0F0;stroke-width:9.72"/>
	<line x1="884.59" y1="2540.53" x2="884.59" y2="2475.73" style="stroke:#F0F0F0;stroke-width:9.72"/>
	<line x1="884.59" y1="2443.33" x2="884.59" y2="2378.53" style="stroke:#F0F0F0;stroke-width:9.72"/>
	<line x1="884.59" y1="2346.13" x2="884.59" y2="2281.33" style="stroke:#F0F0F0;stroke-width:9.72"/>
	<line x1="884.59" y1="2248.93" x2="884.59" y2="2184.13" style="stroke:#F0F0F0;stroke-width:9.72"/>
	<line x1="884.59" y1="2151.73" x2="884.59" y2="2086.93" style="stroke:#F0F0F0;stroke-width:9.72"/>
	<line x1="884.59" y1="2054.53" x2="884.59" y2="1989.73" style="stroke:#F0F0F0;stroke-width:9.72"/>
	<line x1="884.59" y1="1957.33" x2="884.59" y2="1892.53" style="stroke:#F0F0F0;stroke-width:9.72"/>
	<line x1="884.59" y1="1860.13" x2="884.59" y2="1795.33" style="stroke:#F0F0F0;stroke-width:9.72"/>
	<line x1="884.59" y1="1762.93" x2="884.59" y2="1698.13" style="stroke:#F0F0F0;stroke-width:9.72"/>
	<line x1="884.59" y1="1665.73" x2="884.59" y2="1600.93" style="stroke:#F0F0F0;stroke-width:9.72"/>
	<line x1="884.59" y1="1568.53" x2="884.59" y2="1503.73" style="stroke:#F0F0F0;stroke-width:9.72"/>
	<line x1="884.59" y1="1471.33" x2="884.59" y2="1406.53" style="stroke:#F0F0F0;stroke-width:9.72"/>
	<line x1="884.59" y1="1374.13" x2="884.59" y2="1309.33" style="stroke:#F0F0F0;stroke-width:9.72"/>
	<line x1="884.59" y1="1276.93" x2="884.59" y2="1212.13" style="stroke:#F0F0F0;stroke-width:9.72"/>
	<line x1="884.59" y1="1179.73" x2="884.59" y2="1114.93" style="stroke:#F0F0F0;stroke-width:9.72"/>
	<line x1="884.59" y1="1082.53" x2="884.59" y2="1017.73" style="stroke:#F0F0F0;stroke-width:9.72"/>
	<line x1="884.59" y1="985.33" x2="884.59" y2="920.53" style="stroke:#F0F0F0;stroke-width:9.72"/>
	<line x1="884.59" y1="888.13" x2="884.59" y2="823.33" style="stroke:#F0F0F0;stroke-width:9.72"/>
	<line x1="884.59" y1="790.93" x2="884.59" y2="726.13" style="stroke:#F0F0F0;stroke-width:9.72"/>
	<line x1="884.59" y1="693.73" x2="884.59" y2="628.93" style="stroke:#F0F0F0;stroke-width:9.72"/>
	<line x1="884.59" y1="596.53" x2="884.59" y2="531.73" style="stroke:#F0F0F0;stroke-width:9.72"/>
	<line x1="884.59" y1="499.33" x2="884.59" y2="434.53" style="stroke:#F0F0F0;stroke-width:9.72"/>
	<line x1="884.59" y1="402.13" x2="884.59" y2="337.33" style="stroke:#F0F0F0;stroke-width:9.72"/>
	<line x1="2314.41" y1="2637.73" x2="2314.41" y2="2572.93" style="stroke:#F0F0F0;stroke-width:9.72"/>
	<line x1="2314.41" y1="2540.53" x2="2314.41" y2="2475.73" style="stroke:#F0F0F0;stroke-width:9.72"/>
	<line x1="2314.41" y1="2443.33" x2="2314.41" y2="2378.53" style="stroke:#F0F0F0;stroke-width:9.72"/>
	<line x1="2314.41" y1="2346.13" x2="2314.41" y2="2281.33" style="stroke:#F0F0F0;stroke-width:9.72"/>
	<line x1="2314.41" y1="2248.93" x2="2314.41" y2="2184.13" style="stroke:#F0F0F0;stroke-width:9.72"/>
	<line x1="2314.41" y1="2151.73" x2="2314.41" y2="2086.93" style="stroke:#F0F0F0;stroke-width:9.72"/>
	<line x1="2314.41" y1="2054.53" x2="2314.41" y2="1989.73" style="stroke:#F0F0F0;stroke-width:9.72"/>
	<line x1="2314.41" y1="1957.33" x2="2314.41" y2="1892.53" style="stroke:#F0F0F0;stroke-width:9.72"/>
	<line x1="2314.41" y1="1860.13" x2="2314.41" y2="1795.33" style="stroke:#F0F0F0;stroke-width:9.72"/>
	<line x1="2314.41" y1="1762.93" x2="2314.41" y2="1698.13" style="stroke:#F0F0F0;stroke-width:9.72"/>
	<line x1="2314.41" y1="1665.73" x2="2314.41" y2="1600.93" style="stroke:#F0F0F0;stroke-width:9.72"/>
	<line x1="2314.41" y1="1568.53" x2="2314.41" y2="1503.73" style="stroke:#F0F0F0;stroke-width:9.72"/>
	<line x1="2314.41" y1="1471.33" x2="2314.41" y2="1406.53" style="stroke:#F0F0F0;stroke-width:9.72"/>
	<line x1="2314.41" y1="1374.13" x2="2314.41" y2="1309.33" style="stroke:#F0F0F0;stroke-width:9.72"/>
	<line x1="2314.41" y1="1276.93" x2="2314.41" y2="1212.13" style="stroke:#F0F0F0;stroke-width:9.72"/>
	<line x1="2314.41" y1="1179.73" x2="2314.41" y2="1114.93" style="stroke:#F0F0F0;stroke-width:9.72"/>
	<line x1="2314.41" y1="1082.53" x2="2314.41" y2="1017.73" style="stroke:#F0F0F0;stroke-width:9.72"/>
	<line x1="2314.41" y1="985.33" x2="2314.41" y2="920.53" style="stroke:#F0F0F0;stroke-width:9.72"/>
	<line x1="2314.41" y1="888.13" x2="2314.41" y2="823.33" style="stroke:#F0F0F0;stroke-width:9.72"/>
	<line x1="2314.41" y1="790.93" x2="2314.41" y2="726.13" style="stroke:#F0F0F0;stroke-width:9.72"/>
	<line x1="2314.41" y1="693.73" x2="2314.41" y2="628.93" style="stroke:#F0F0F0;stroke-width:9.72"/>
	<line x1="2314.41" y1="596.53" x2="2314.41" y2="531.73" style="stroke:#F0F0F0;stroke-width:9.72"/>
	<line x1="2314.41" y1="499.33" x2="2314.41" y2="434.53" style="stroke:#F0F0F0;stroke-width:9.72"/>
	<line x1="2314.41" y1="402.13" x2="2314.41" y2="337.33" style="stroke:#F0F0F0;stroke-width:9.72"/>
	<line x1="3744.39" y1="2637.73" x2="3744.39" y2="2572.93" style="stroke:#F0F0F0;stroke-width:9.72"/>
	<line x1="3744.39" y1="2540.53" x2="3744.39" y2="2475.73" style="stroke:#F0F0F0;stroke-width:9.72"/>
	<line x1="3744.39" y1="2443.33" x2="3744.39" y2="2378.53" style="stroke:#F0F0F0;stroke-width:9.72"/>
	<line x1="3744.39" y1="2346.13" x2="3744.39" y2="2281.33" style="stroke:#F0F0F0;stroke-width:9.72"/>
	<line x1="3744.39" y1="2248.93" x2="3744.39" y2="2184.13" style="stroke:#F0F0F0;stroke-width:9.72"/>
	<line x1="3744.39" y1="2151.73" x2="3744.39" y2="2086.93" style="stroke:#F0F0F0;stroke-width:9.72"/>
	<line x1="3744.39" y1="2054.53" x2="3744.39" y2="1989.73" style="stroke:#F0F0F0;stroke-width:9.72"/>
	<line x1="3744.39" y1="1957.33" x2="3744.39" y2="1892.53" style="stroke:#F0F0F0;stroke-width:9.72"/>
	<line x1="3744.39" y1="1860.13" x2="3744.39" y2="1795.33" style="stroke:#F0F0F0;stroke-width:9.72"/>
	<line x1="3744.39" y1="1762.93" x2="3744.39" y2="1698.13" style="stroke:#F0F0F0;stroke-width:9.72"/>
	<line x1="3744.39" y1="1665.73" x2="3744.39" y2="1600.93" style="stroke:#F0F0F0;stroke-width:9.72"/>
	<line x1="3744.39" y1="1568.53" x2="3744.39" y2="1503.73" style="stroke:#F0F0F0;stroke-width:9.72"/>
	<line x1="3744.39" y1="1471.33" x2="3744.39" y2="1406.53" style="stroke:#F0F0F0;stroke-width:9.72"/>
	<line x1="3744.39" y1="1374.13" x2="3744.39" y2="1309.33" style="stroke:#F0F0F0;stroke-width:9.72"/>
	<line x1="3744.39" y1="1276.93" x2="3744.39" y2="1212.13" style="stroke:#F0F0F0;stroke-width:9.72"/>
	<line x1="3744.39" y1="1179.73" x2="3744.39" y2="1114.93" style="stroke:#F0F0F0;stroke-width:9.72"/>
	<line x1="3744.39" y1="1082.53" x2="3744.39" y2="1017.73" style="stroke:#F0F0F0;stroke-width:9.72"/>
	<line x1="3744.39" y1="985.33" x2="3744.39" y2="920.53" style="stroke:#F0F0F0;stroke-width:9.72"/>
	<line x1="3744.39" y1="888.13" x2="3744.39" y2="823.33" style="stroke:#F0F0F0;stroke-width:9.72"/>
	<line x1="3744.39" y1="790.93" x2="3744.39" y2="726.13" style="stroke:#F0F0F0;stroke-width:9.72"/>
	<line x1="3744.39" y1="693.73" x2="3744.39" y2="628.93" style="stroke:#F0F0F0;stroke-width:9.72"/>
	<line x1="3744.39" y1="596.53" x2="3744.39" y2="531.73" style="stroke:#F0F0F0;stroke-width:9.72"/>
	<line x1="3744.39" y1="499.33" x2="3744.39" y2="434.53" style="stroke:#F0F0F0;stroke-width:9.72"/>
	<line x1="3744.39" y1="402.13" x2="3744.39" y2="337.33" style="stroke:#F0F0F0;stroke-width:9.72"/>
	<line x1="5174.38" y1="2637.73" x2="5174.38" y2="2572.93" style="stroke:#F0F0F0;stroke-width:9.72"/>
	<line x1="5174.38" y1="2540.53" x2="5174.38" y2="2475.73" style="stroke:#F0F0F0;stroke-width:9.72"/>
	<line x1="5174.38" y1="2443.33" x2="5174.38" y2="2378.53" style="stroke:#F0F0F0;stroke-width:9.72"/>
	<line x1="5174.38" y1="2346.13" x2="5174.38" y2="2281.33" style="stroke:#F0F0F0;stroke-width:9.72"/>
	<line x1="5174.38" y1="2248.93" x2="5174.38" y2="2184.13" style="stroke:#F0F0F0;stroke-width:9.72"/>
	<line x1="5174.38" y1="2151.73" x2="5174.38" y2="2086.93" style="stroke:#F0F0F0;stroke-width:9.72"/>
	<line x1="5174.38" y1="2054.53" x2="5174.38" y2="1989.73" style="stroke:#F0F0F0;stroke-width:9.72"/>
	<line x1="5174.38" y1="1957.33" x2="5174.38" y2="1892.53" style="stroke:#F0F0F0;stroke-width:9.72"/>
	<line x1="5174.38" y1="1860.13" x2="5174.38" y2="1795.33" style="stroke:#F0F0F0;stroke-width:9.72"/>
	<line x1="5174.38" y1="1762.93" x2="5174.38" y2="1698.13" style="stroke:#F0F0F0;stroke-width:9.72"/>
	<line x1="5174.38" y1="1665.73" x2="5174.38" y2="1600.93" style="stroke:#F0F0F0;stroke-width:9.72"/>
	<line x1="5174.38" y1="1568.53" x2="5174.38" y2="1503.73" style="stroke:#F0F0F0;stroke-width:9.72"/>
	<line x1="5174.38" y1="1471.33" x2="5174.38" y2="1406.53" style="stroke:#F0F0F0;stroke-width:9.72"/>
	<line x1="5174.38" y1="1374.13" x2="5174.38" y2="1309.33" style="stroke:#F0F0F0;stroke-width:9.72"/>
	<line x1="5174.38" y1="1276.93" x2="5174.38" y2="1212.13" style="stroke:#F0F0F0;stroke-width:9.72"/>
	<line x1="5174.38" y1="1179.73" x2="5174.38" y2="1114.93" style="stroke:#F0F0F0;stroke-width:9.72"/>
	<line x1="5174.38" y1="1082.53" x2="5174.38" y2="1017.73" style="stroke:#F0F0F0;stroke-width:9.72"/>
	<line x1="5174.38" y1="985.33" x2="5174.38" y2="920.53" style="stroke:#F0F0F0;stroke-width:9.72"/>
	<line x1="5174.38" y1="888.13" x2="5174.38" y2="823.33" style="stroke:#F0F0F0;stroke-width:9.72"/>
	<line x1="5174.38" y1="790.93" x2="5174.38" y2="726.13" style="stroke:#F0F0F0;stroke-width:9.72"/>
	<line x1="5174.38" y1="693.73" x2="5174.38" y2="628.93" style="stroke:#F0F0F0;stroke-width:9.72"/>
	<line x1="5174.38" y1="596.53" x2="5174.38" y2="531.73" style="stroke:#F0F0F0;stroke-width:9.72"/>
	<line x1="5174.38" y1="499.33" x2="5174.38" y2="434.53" style="stroke:#F0F0F0;stroke-width:9.72"/>
	<line x1="5174.38" y1="402.13" x2="5174.38" y2="337.33" style="stroke:#F0F0F0;stroke-width:9.72"/>
	<path d=" M628.93 1396.07 L722.59 1073.08 L816.08 824.68 L909.73 657.62 L1003.39 572.91 L1096.88 576.79 L1190.53 687.15 L1284.19 885.94 L1377.68 1171.97 L1471.33 1485.00 L1564.99 1610.21 L1658.48 1684.80 L1752.13 1718.04 L1845.79 1742.01 L1939.28 1784.87 L2032.93 1841.40 L2126.59 1916.83 L2220.07 1999.69 L2313.73 2094.19 L2407.39 2195.61 L2500.88 2274.41 L2594.53 2311.71 L2688.19 2328.41 L2781.68 2344.44 L2875.33 2361.66 L2968.82 2379.38 L3062.48 2394.56 L3156.13 2411.94 L3249.62 2432.53 L3343.28 2460.88 L3436.93 2481.81 L3530.42 2500.71 L3624.08 2512.69 L3717.73 2513.70 L3811.22 2516.06 L3904.88 2515.05 L3998.53 2514.04 L4092.02 2511.17 L4185.68 2511.17 L4279.33 2514.21 L4372.82 2515.05 L4466.48 2509.48 L4560.13 2508.30 L4653.62 2513.19 L4747.27 2516.06 L4840.93 2511.84 L4934.42 2510.83 L5028.08 2512.52 L5121.56 2517.41 L5215.22 2525.34" stroke-linejoin="round" style="fill:none;stroke:#1A85FF;stroke-width:9.72"/>
	<line x1="557.72" y1="2637.73" x2="557.72" y2="309.82" style="stroke:#000000;stroke-width:6.48"/>
	<line x1="557.72" y1="2566.52" x2="512.83" y2="2566.52" style="stroke:#000000;stroke-width:6.48"/>
	<text x="490.22" y="2605.96" style="font-family:'Helvetica';font-size:112.56px;fill:#000000" text-anchor="end">0</text>
	<line x1="557.72" y1="1838.03" x2="512.83" y2="1838.03" style="stroke:#000000;stroke-width:6.48"/>
	<text x="490.22" y="1877.46" style="font-family:'Helvetica';font-size:112.56px;fill:#000000" text-anchor="end">.02</text>
	<line x1="557.72" y1="1109.53" x2="512.83" y2="1109.53" style="stroke:#000000;stroke-width:6.48"/>
	<text x="490.22" y="1148.97" style="font-family:'Helvetica';font-size:112.56px;fill:#000000" text-anchor="end">.04</text>
	<line x1="557.72" y1="381.04" x2="512.83" y2="381.04" style="stroke:#000000;stroke-width:6.48"/>
	<text x="490.22" y="420.47" style="font-family:'Helvetica';font-size:112.56px;fill:#000000" text-anchor="end">.06</text>
	<text x="214.55" y="1473.69" style="font-family:'Helvetica';font-size:112.56px;fill:#000000" transform="rotate(-90 214.55,1473.69)" text-anchor="middle">Density</text>
	<line x1="557.72" y1="2637.73" x2="5286.60" y2="2637.73" style="stroke:#000000;stroke-width:6.48"/>
	<line x1="884.59" y1="2637.73" x2="884.59" y2="2682.79" style="stroke:#000000;stroke-width:6.48"/>
	<text x="884.59" y="2783.94" style="font-family:'Helvetica';font-size:112.56px;fill:#000000" text-anchor="middle">0</text>
	<line x1="2314.41" y1="2637.73" x2="2314.41" y2="2682.79" style="stroke:#000000;stroke-width:6.48"/>
	<text x="2314.41" y="2783.94" style="font-family:'Helvetica';font-size:112.56px;fill:#000000" text-anchor="middle">20</text>
	<line x1="3744.39" y1="2637.73" x2="3744.39" y2="2682.79" style="stroke:#000000;stroke-width:6.48"/>
	<text x="3744.39" y="2783.94" style="font-family:'Helvetica';font-size:112.56px;fill:#000000" text-anchor="middle">40</text>
	<line x1="5174.38" y1="2637.73" x2="5174.38" y2="2682.79" style="stroke:#000000;stroke-width:6.48"/>
	<text x="5174.38" y="2783.94" style="font-family:'Helvetica';font-size:112.56px;fill:#000000" text-anchor="middle">60</text>
	<text x="2922.24" y="2941.38" style="font-family:'Helvetica';font-size:112.56px;fill:#000000" text-anchor="middle">Years</text>
	<text x="577.13" y="3080.13" style="font-family:'Helvetica';font-size:89.94px;fill:#000000">kernel = epanechnikov, bandwidth = 3.5734</text>
	<text x="2922.24" y="243.10" style="font-family:'Helvetica';font-size:157.44px;fill:#000000" text-anchor="middle">Civil War Duration</text>
</svg>
