<?xml version="1.0" encoding="UTF-8" standalone="no"?>
<!-- This is a Stata 18.0 generated SVG file (http://www.stata.com) -->

<svg version="1.1" width="7.500in" height="4.500in" viewBox="0 0 5400 3240" xmlns="http://www.w3.org/2000/svg" xmlns:xlink="http://www.w3.org/1999/xlink">
	<desc>Stata Graph - Graph</desc>
	<rect x="0" y="0" width="5400" height="3240" style="fill:#FFFFFF;stroke:none"/>
	<rect x="0.00" y="0.00" width="5400.00" height="3240.00" style="fill:#FFFFFF"/>
	<rect x="3.24" y="3.24" width="5393.52" height="3233.52" style="fill:none;stroke:#FFFFFF;stroke-width:6.48"/>
	<rect x="590.63" y="309.82" width="3872.81" height="2456.83" style="fill:#FFFFFF"/>
	<rect x="593.87" y="313.06" width="3866.33" height="2450.35" style="fill:none;stroke:#FFFFFF;stroke-width:6.48"/>
	<line x1="590.63" y1="1923.92" x2="655.43" y2="1923.92" style="stroke:#F0F0F0;stroke-width:9.72"/>
	<line x1="687.83" y1="1923.92" x2="752.63" y2="1923.92" style="stroke:#F0F0F0;stroke-width:9.72"/>
	<line x1="785.03" y1="1923.92" x2="849.83" y2="1923.92" style="stroke:#F0F0F0;stroke-width:9.72"/>
	<line x1="882.23" y1="1923.92" x2="947.03" y2="1923.92" style="stroke:#F0F0F0;stroke-width:9.72"/>
	<line x1="979.43" y1="1923.92" x2="1044.22" y2="1923.92" style="stroke:#F0F0F0;stroke-width:9.72"/>
	<line x1="1076.63" y1="1923.92" x2="1141.43" y2="1923.92" style="stroke:#F0F0F0;stroke-width:9.72"/>
	<line x1="1173.83" y1="1923.92" x2="1238.63" y2="1923.92" style="stroke:#F0F0F0;stroke-width:9.72"/>
	<line x1="1271.03" y1="1923.92" x2="1335.83" y2="1923.92" style="stroke:#F0F0F0;stroke-width:9.72"/>
	<line x1="1368.23" y1="1923.92" x2="1433.03" y2="1923.92" style="stroke:#F0F0F0;stroke-width:9.72"/>
	<line x1="1465.43" y1="1923.92" x2="1530.23" y2="1923.92" style="stroke:#F0F0F0;stroke-width:9.72"/>
	<line x1="1562.63" y1="1923.92" x2="1627.43" y2="1923.92" style="stroke:#F0F0F0;stroke-width:9.72"/>
	<line x1="1659.83" y1="1923.92" x2="1724.63" y2="1923.92" style="stroke:#F0F0F0;stroke-width:9.72"/>
	<line x1="1757.03" y1="1923.92" x2="1821.83" y2="1923.92" style="stroke:#F0F0F0;stroke-width:9.72"/>
	<line x1="1854.23" y1="1923.92" x2="1919.03" y2="1923.92" style="stroke:#F0F0F0;stroke-width:9.72"/>
	<line x1="1951.43" y1="1923.92" x2="2016.23" y2="1923.92" style="stroke:#F0F0F0;stroke-width:9.72"/>
	<line x1="2048.63" y1="1923.92" x2="2113.43" y2="1923.92" style="stroke:#F0F0F0;stroke-width:9.72"/>
	<line x1="2145.82" y1="1923.92" x2="2210.63" y2="1923.92" style="stroke:#F0F0F0;stroke-width:9.72"/>
	<line x1="2243.03" y1="1923.92" x2="2307.82" y2="1923.92" style="stroke:#F0F0F0;stroke-width:9.72"/>
	<line x1="2340.23" y1="1923.92" x2="2405.03" y2="1923.92" style="stroke:#F0F0F0;stroke-width:9.72"/>
	<line x1="2437.43" y1="1923.92" x2="2502.23" y2="1923.92" style="stroke:#F0F0F0;stroke-width:9.72"/>
	<line x1="2534.63" y1="1923.92" x2="2599.43" y2="1923.92" style="stroke:#F0F0F0;stroke-width:9.72"/>
	<line x1="2631.83" y1="1923.92" x2="2696.63" y2="1923.92" style="stroke:#F0F0F0;stroke-width:9.72"/>
	<line x1="2729.03" y1="1923.92" x2="2793.83" y2="1923.92" style="stroke:#F0F0F0;stroke-width:9.72"/>
	<line x1="2826.23" y1="1923.92" x2="2891.03" y2="1923.92" style="stroke:#F0F0F0;stroke-width:9.72"/>
	<line x1="2923.43" y1="1923.92" x2="2988.23" y2="1923.92" style="stroke:#F0F0F0;stroke-width:9.72"/>
	<line x1="3020.63" y1="1923.92" x2="3085.43" y2="1923.92" style="stroke:#F0F0F0;stroke-width:9.72"/>
	<line x1="3117.83" y1="1923.92" x2="3182.63" y2="1923.92" style="stroke:#F0F0F0;stroke-width:9.72"/>
	<line x1="3215.03" y1="1923.92" x2="3279.83" y2="1923.92" style="stroke:#F0F0F0;stroke-width:9.72"/>
	<line x1="3312.23" y1="1923.92" x2="3377.03" y2="1923.92" style="stroke:#F0F0F0;stroke-width:9.72"/>
	<line x1="3409.43" y1="1923.92" x2="3474.23" y2="1923.92" style="stroke:#F0F0F0;stroke-width:9.72"/>
	<line x1="3506.63" y1="1923.92" x2="3571.43" y2="1923.92" style="stroke:#F0F0F0;stroke-width:9.72"/>
	<line x1="3603.83" y1="1923.92" x2="3668.63" y2="1923.92" style="stroke:#F0F0F0;stroke-width:9.72"/>
	<line x1="3701.03" y1="1923.92" x2="3765.83" y2="1923.92" style="stroke:#F0F0F0;stroke-width:9.72"/>
	<line x1="3798.23" y1="1923.92" x2="3863.03" y2="1923.92" style="stroke:#F0F0F0;stroke-width:9.72"/>
	<line x1="3895.43" y1="1923.92" x2="3960.23" y2="1923.92" style="stroke:#F0F0F0;stroke-width:9.72"/>
	<line x1="3992.63" y1="1923.92" x2="4057.43" y2="1923.92" style="stroke:#F0F0F0;stroke-width:9.72"/>
	<line x1="4089.83" y1="1923.92" x2="4154.63" y2="1923.92" style="stroke:#F0F0F0;stroke-width:9.72"/>
	<line x1="4187.02" y1="1923.92" x2="4251.83" y2="1923.92" style="stroke:#F0F0F0;stroke-width:9.72"/>
	<line x1="4284.23" y1="1923.92" x2="4349.02" y2="1923.92" style="stroke:#F0F0F0;stroke-width:9.72"/>
	<line x1="4381.43" y1="1923.92" x2="4446.23" y2="1923.92" style="stroke:#F0F0F0;stroke-width:9.72"/>
	<line x1="590.63" y1="1152.56" x2="655.43" y2="1152.56" style="stroke:#F0F0F0;stroke-width:9.72"/>
	<line x1="687.83" y1="1152.56" x2="752.63" y2="1152.56" style="stroke:#F0F0F0;stroke-width:9.72"/>
	<line x1="785.03" y1="1152.56" x2="849.83" y2="1152.56" style="stroke:#F0F0F0;stroke-width:9.72"/>
	<line x1="882.23" y1="1152.56" x2="947.03" y2="1152.56" style="stroke:#F0F0F0;stroke-width:9.72"/>
	<line x1="979.43" y1="1152.56" x2="1044.22" y2="1152.56" style="stroke:#F0F0F0;stroke-width:9.72"/>
	<line x1="1076.63" y1="1152.56" x2="1141.43" y2="1152.56" style="stroke:#F0F0F0;stroke-width:9.72"/>
	<line x1="1173.83" y1="1152.56" x2="1238.63" y2="1152.56" style="stroke:#F0F0F0;stroke-width:9.72"/>
	<line x1="1271.03" y1="1152.56" x2="1335.83" y2="1152.56" style="stroke:#F0F0F0;stroke-width:9.72"/>
	<line x1="1368.23" y1="1152.56" x2="1433.03" y2="1152.56" style="stroke:#F0F0F0;stroke-width:9.72"/>
	<line x1="1465.43" y1="1152.56" x2="1530.23" y2="1152.56" style="stroke:#F0F0F0;stroke-width:9.72"/>
	<line x1="1562.63" y1="1152.56" x2="1627.43" y2="1152.56" style="stroke:#F0F0F0;stroke-width:9.72"/>
	<line x1="1659.83" y1="1152.56" x2="1724.63" y2="1152.56" style="stroke:#F0F0F0;stroke-width:9.72"/>
	<line x1="1757.03" y1="1152.56" x2="1821.83" y2="1152.56" style="stroke:#F0F0F0;stroke-width:9.72"/>
	<line x1="1854.23" y1="1152.56" x2="1919.03" y2="1152.56" style="stroke:#F0F0F0;stroke-width:9.72"/>
	<line x1="1951.43" y1="1152.56" x2="2016.23" y2="1152.56" style="stroke:#F0F0F0;stroke-width:9.72"/>
	<line x1="2048.63" y1="1152.56" x2="2113.43" y2="1152.56" style="stroke:#F0F0F0;stroke-width:9.72"/>
	<line x1="2145.82" y1="1152.56" x2="2210.63" y2="1152.56" style="stroke:#F0F0F0;stroke-width:9.72"/>
	<line x1="2243.03" y1="1152.56" x2="2307.82" y2="1152.56" style="stroke:#F0F0F0;stroke-width:9.72"/>
	<line x1="2340.23" y1="1152.56" x2="2405.03" y2="1152.56" style="stroke:#F0F0F0;stroke-width:9.72"/>
	<line x1="2437.43" y1="1152.56" x2="2502.23" y2="1152.56" style="stroke:#F0F0F0;stroke-width:9.72"/>
	<line x1="2534.63" y1="1152.56" x2="2599.43" y2="1152.56" style="stroke:#F0F0F0;stroke-width:9.72"/>
	<line x1="2631.83" y1="1152.56" x2="2696.63" y2="1152.56" style="stroke:#F0F0F0;stroke-width:9.72"/>
	<line x1="2729.03" y1="1152.56" x2="2793.83" y2="1152.56" style="stroke:#F0F0F0;stroke-width:9.72"/>
	<line x1="2826.23" y1="1152.56" x2="2891.03" y2="1152.56" style="stroke:#F0F0F0;stroke-width:9.72"/>
	<line x1="2923.43" y1="1152.56" x2="2988.23" y2="1152.56" style="stroke:#F0F0F0;stroke-width:9.72"/>
	<line x1="3020.63" y1="1152.56" x2="3085.43" y2="1152.56" style="stroke:#F0F0F0;stroke-width:9.72"/>
	<line x1="3117.83" y1="1152.56" x2="3182.63" y2="1152.56" style="stroke:#F0F0F0;stroke-width:9.72"/>
	<line x1="3215.03" y1="1152.56" x2="3279.83" y2="1152.56" style="stroke:#F0F0F0;stroke-width:9.72"/>
	<line x1="3312.23" y1="1152.56" x2="3377.03" y2="1152.56" style="stroke:#F0F0F0;stroke-width:9.72"/>
	<line x1="3409.43" y1="1152.56" x2="3474.23" y2="1152.56" style="stroke:#F0F0F0;stroke-width:9.72"/>
	<line x1="3506.63" y1="1152.56" x2="3571.43" y2="1152.56" style="stroke:#F0F0F0;stroke-width:9.72"/>
	<line x1="3603.83" y1="1152.56" x2="3668.63" y2="1152.56" style="stroke:#F0F0F0;stroke-width:9.72"/>
	<line x1="3701.03" y1="1152.56" x2="3765.83" y2="1152.56" style="stroke:#F0F0F0;stroke-width:9.72"/>
	<line x1="3798.23" y1="1152.56" x2="3863.03" y2="1152.56" style="stroke:#F0F0F0;stroke-width:9.72"/>
	<line x1="3895.43" y1="1152.56" x2="3960.23" y2="1152.56" style="stroke:#F0F0F0;stroke-width:9.72"/>
	<line x1="3992.63" y1="1152.56" x2="4057.43" y2="1152.56" style="stroke:#F0F0F0;stroke-width:9.72"/>
	<line x1="4089.83" y1="1152.56" x2="4154.63" y2="1152.56" style="stroke:#F0F0F0;stroke-width:9.72"/>
	<line x1="4187.02" y1="1152.56" x2="4251.83" y2="1152.56" style="stroke:#F0F0F0;stroke-width:9.72"/>
	<line x1="4284.23" y1="1152.56" x2="4349.02" y2="1152.56" style="stroke:#F0F0F0;stroke-width:9.72"/>
	<line x1="4381.43" y1="1152.56" x2="4446.23" y2="1152.56" style="stroke:#F0F0F0;stroke-width:9.72"/>
	<line x1="590.63" y1="381.04" x2="655.43" y2="381.04" style="stroke:#F0F0F0;stroke-width:9.72"/>
	<line x1="687.83" y1="381.04" x2="752.63" y2="381.04" style="stroke:#F0F0F0;stroke-width:9.72"/>
	<line x1="785.03" y1="381.04" x2="849.83" y2="381.04" style="stroke:#F0F0F0;stroke-width:9.72"/>
	<line x1="882.23" y1="381.04" x2="947.03" y2="381.04" style="stroke:#F0F0F0;stroke-width:9.72"/>
	<line x1="979.43" y1="381.04" x2="1044.22" y2="381.04" style="stroke:#F0F0F0;stroke-width:9.72"/>
	<line x1="1076.63" y1="381.04" x2="1141.43" y2="381.04" style="stroke:#F0F0F0;stroke-width:9.72"/>
	<line x1="1173.83" y1="381.04" x2="1238.63" y2="381.04" style="stroke:#F0F0F0;stroke-width:9.72"/>
	<line x1="1271.03" y1="381.04" x2="1335.83" y2="381.04" style="stroke:#F0F0F0;stroke-width:9.72"/>
	<line x1="1368.23" y1="381.04" x2="1433.03" y2="381.04" style="stroke:#F0F0F0;stroke-width:9.72"/>
	<line x1="1465.43" y1="381.04" x2="1530.23" y2="381.04" style="stroke:#F0F0F0;stroke-width:9.72"/>
	<line x1="1562.63" y1="381.04" x2="1627.43" y2="381.04" style="stroke:#F0F0F0;stroke-width:9.72"/>
	<line x1="1659.83" y1="381.04" x2="1724.63" y2="381.04" style="stroke:#F0F0F0;stroke-width:9.72"/>
	<line x1="1757.03" y1="381.04" x2="1821.83" y2="381.04" style="stroke:#F0F0F0;stroke-width:9.72"/>
	<line x1="1854.23" y1="381.04" x2="1919.03" y2="381.04" style="stroke:#F0F0F0;stroke-width:9.72"/>
	<line x1="1951.43" y1="381.04" x2="2016.23" y2="381.04" style="stroke:#F0F0F0;stroke-width:9.72"/>
	<line x1="2048.63" y1="381.04" x2="2113.43" y2="381.04" style="stroke:#F0F0F0;stroke-width:9.72"/>
	<line x1="2145.82" y1="381.04" x2="2210.63" y2="381.04" style="stroke:#F0F0F0;stroke-width:9.72"/>
	<line x1="2243.03" y1="381.04" x2="2307.82" y2="381.04" style="stroke:#F0F0F0;stroke-width:9.72"/>
	<line x1="2340.23" y1="381.04" x2="2405.03" y2="381.04" style="stroke:#F0F0F0;stroke-width:9.72"/>
	<line x1="2437.43" y1="381.04" x2="2502.23" y2="381.04" style="stroke:#F0F0F0;stroke-width:9.72"/>
	<line x1="2534.63" y1="381.04" x2="2599.43" y2="381.04" style="stroke:#F0F0F0;stroke-width:9.72"/>
	<line x1="2631.83" y1="381.04" x2="2696.63" y2="381.04" style="stroke:#F0F0F0;stroke-width:9.72"/>
	<line x1="2729.03" y1="381.04" x2="2793.83" y2="381.04" style="stroke:#F0F0F0;stroke-width:9.72"/>
	<line x1="2826.23" y1="381.04" x2="2891.03" y2="381.04" style="stroke:#F0F0F0;stroke-width:9.72"/>
	<line x1="2923.43" y1="381.04" x2="2988.23" y2="381.04" style="stroke:#F0F0F0;stroke-width:9.72"/>
	<line x1="3020.63" y1="381.04" x2="3085.43" y2="381.04" style="stroke:#F0F0F0;stroke-width:9.72"/>
	<line x1="3117.83" y1="381.04" x2="3182.63" y2="381.04" style="stroke:#F0F0F0;stroke-width:9.72"/>
	<line x1="3215.03" y1="381.04" x2="3279.83" y2="381.04" style="stroke:#F0F0F0;stroke-width:9.72"/>
	<line x1="3312.23" y1="381.04" x2="3377.03" y2="381.04" style="stroke:#F0F0F0;stroke-width:9.72"/>
	<line x1="3409.43" y1="381.04" x2="3474.23" y2="381.04" style="stroke:#F0F0F0;stroke-width:9.72"/>
	<line x1="3506.63" y1="381.04" x2="3571.43" y2="381.04" style="stroke:#F0F0F0;stroke-width:9.72"/>
	<line x1="3603.83" y1="381.04" x2="3668.63" y2="381.04" style="stroke:#F0F0F0;stroke-width:9.72"/>
	<line x1="3701.03" y1="381.04" x2="3765.83" y2="381.04" style="stroke:#F0F0F0;stroke-width:9.72"/>
	<line x1="3798.23" y1="381.04" x2="3863.03" y2="381.04" style="stroke:#F0F0F0;stroke-width:9.72"/>
	<line x1="3895.43" y1="381.04" x2="3960.23" y2="381.04" style="stroke:#F0F0F0;stroke-width:9.72"/>
	<line x1="3992.63" y1="381.04" x2="4057.43" y2="381.04" style="stroke:#F0F0F0;stroke-width:9.72"/>
	<line x1="4089.83" y1="381.04" x2="4154.63" y2="381.04" style="stroke:#F0F0F0;stroke-width:9.72"/>
	<line x1="4187.02" y1="381.04" x2="4251.83" y2="381.04" style="stroke:#F0F0F0;stroke-width:9.72"/>
	<line x1="4284.23" y1="381.04" x2="4349.02" y2="381.04" style="stroke:#F0F0F0;stroke-width:9.72"/>
	<line x1="4381.43" y1="381.04" x2="4446.23" y2="381.04" style="stroke:#F0F0F0;stroke-width:9.72"/>
	<line x1="661.84" y1="2766.66" x2="661.84" y2="2701.86" style="stroke:#F0F0F0;stroke-width:9.72"/>
	<line x1="661.84" y1="2669.46" x2="661.84" y2="2604.66" style="stroke:#F0F0F0;stroke-width:9.72"/>
	<line x1="661.84" y1="2572.26" x2="661.84" y2="2507.46" style="stroke:#F0F0F0;stroke-width:9.72"/>
	<line x1="661.84" y1="2475.06" x2="661.84" y2="2410.26" style="stroke:#F0F0F0;stroke-width:9.72"/>
	<line x1="661.84" y1="2377.86" x2="661.84" y2="2313.06" style="stroke:#F0F0F0;stroke-width:9.72"/>
	<line x1="661.84" y1="2280.66" x2="661.84" y2="2215.86" style="stroke:#F0F0F0;stroke-width:9.72"/>
	<line x1="661.84" y1="2183.46" x2="661.84" y2="2118.66" style="stroke:#F0F0F0;stroke-width:9.72"/>
	<line x1="661.84" y1="2086.26" x2="661.84" y2="2021.46" style="stroke:#F0F0F0;stroke-width:9.72"/>
	<line x1="661.84" y1="1989.06" x2="661.84" y2="1924.26" style="stroke:#F0F0F0;stroke-width:9.72"/>
	<line x1="661.84" y1="1891.86" x2="661.84" y2="1827.06" style="stroke:#F0F0F0;stroke-width:9.72"/>
	<line x1="661.84" y1="1794.66" x2="661.84" y2="1729.86" style="stroke:#F0F0F0;stroke-width:9.72"/>
	<line x1="661.84" y1="1697.46" x2="661.84" y2="1632.66" style="stroke:#F0F0F0;stroke-width:9.72"/>
	<line x1="661.84" y1="1600.26" x2="661.84" y2="1535.46" style="stroke:#F0F0F0;stroke-width:9.72"/>
	<line x1="661.84" y1="1503.06" x2="661.84" y2="1438.26" style="stroke:#F0F0F0;stroke-width:9.72"/>
	<line x1="661.84" y1="1405.86" x2="661.84" y2="1341.06" style="stroke:#F0F0F0;stroke-width:9.72"/>
	<line x1="661.84" y1="1308.66" x2="661.84" y2="1243.86" style="stroke:#F0F0F0;stroke-width:9.72"/>
	<line x1="661.84" y1="1211.46" x2="661.84" y2="1146.66" style="stroke:#F0F0F0;stroke-width:9.72"/>
	<line x1="661.84" y1="1114.26" x2="661.84" y2="1049.46" style="stroke:#F0F0F0;stroke-width:9.72"/>
	<line x1="661.84" y1="1017.06" x2="661.84" y2="952.26" style="stroke:#F0F0F0;stroke-width:9.72"/>
	<line x1="661.84" y1="919.86" x2="661.84" y2="855.06" style="stroke:#F0F0F0;stroke-width:9.72"/>
	<line x1="661.84" y1="822.66" x2="661.84" y2="757.86" style="stroke:#F0F0F0;stroke-width:9.72"/>
	<line x1="661.84" y1="725.46" x2="661.84" y2="660.66" style="stroke:#F0F0F0;stroke-width:9.72"/>
	<line x1="661.84" y1="628.26" x2="661.84" y2="563.46" style="stroke:#F0F0F0;stroke-width:9.72"/>
	<line x1="661.84" y1="531.06" x2="661.84" y2="466.26" style="stroke:#F0F0F0;stroke-width:9.72"/>
	<line x1="661.84" y1="433.86" x2="661.84" y2="369.06" style="stroke:#F0F0F0;stroke-width:9.72"/>
	<line x1="661.84" y1="336.66" x2="661.84" y2="309.82" style="stroke:#F0F0F0;stroke-width:9.72"/>
	<line x1="1379.19" y1="2766.66" x2="1379.19" y2="2701.86" style="stroke:#F0F0F0;stroke-width:9.72"/>
	<line x1="1379.19" y1="2669.46" x2="1379.19" y2="2604.66" style="stroke:#F0F0F0;stroke-width:9.72"/>
	<line x1="1379.19" y1="2572.26" x2="1379.19" y2="2507.46" style="stroke:#F0F0F0;stroke-width:9.72"/>
	<line x1="1379.19" y1="2475.06" x2="1379.19" y2="2410.26" style="stroke:#F0F0F0;stroke-width:9.72"/>
	<line x1="1379.19" y1="2377.86" x2="1379.19" y2="2313.06" style="stroke:#F0F0F0;stroke-width:9.72"/>
	<line x1="1379.19" y1="2280.66" x2="1379.19" y2="2215.86" style="stroke:#F0F0F0;stroke-width:9.72"/>
	<line x1="1379.19" y1="2183.46" x2="1379.19" y2="2118.66" style="stroke:#F0F0F0;stroke-width:9.72"/>
	<line x1="1379.19" y1="2086.26" x2="1379.19" y2="2021.46" style="stroke:#F0F0F0;stroke-width:9.72"/>
	<line x1="1379.19" y1="1989.06" x2="1379.19" y2="1924.26" style="stroke:#F0F0F0;stroke-width:9.72"/>
	<line x1="1379.19" y1="1891.86" x2="1379.19" y2="1827.06" style="stroke:#F0F0F0;stroke-width:9.72"/>
	<line x1="1379.19" y1="1794.66" x2="1379.19" y2="1729.86" style="stroke:#F0F0F0;stroke-width:9.72"/>
	<line x1="1379.19" y1="1697.46" x2="1379.19" y2="1632.66" style="stroke:#F0F0F0;stroke-width:9.72"/>
	<line x1="1379.19" y1="1600.26" x2="1379.19" y2="1535.46" style="stroke:#F0F0F0;stroke-width:9.72"/>
	<line x1="1379.19" y1="1503.06" x2="1379.19" y2="1438.26" style="stroke:#F0F0F0;stroke-width:9.72"/>
	<line x1="1379.19" y1="1405.86" x2="1379.19" y2="1341.06" style="stroke:#F0F0F0;stroke-width:9.72"/>
	<line x1="1379.19" y1="1308.66" x2="1379.19" y2="1243.86" style="stroke:#F0F0F0;stroke-width:9.72"/>
	<line x1="1379.19" y1="1211.46" x2="1379.19" y2="1146.66" style="stroke:#F0F0F0;stroke-width:9.72"/>
	<line x1="1379.19" y1="1114.26" x2="1379.19" y2="1049.46" style="stroke:#F0F0F0;stroke-width:9.72"/>
	<line x1="1379.19" y1="1017.06" x2="1379.19" y2="952.26" style="stroke:#F0F0F0;stroke-width:9.72"/>
	<line x1="1379.19" y1="919.86" x2="1379.19" y2="855.06" style="stroke:#F0F0F0;stroke-width:9.72"/>
	<line x1="1379.19" y1="822.66" x2="1379.19" y2="757.86" style="stroke:#F0F0F0;stroke-width:9.72"/>
	<line x1="1379.19" y1="725.46" x2="1379.19" y2="660.66" style="stroke:#F0F0F0;stroke-width:9.72"/>
	<line x1="1379.19" y1="628.26" x2="1379.19" y2="563.46" style="stroke:#F0F0F0;stroke-width:9.72"/>
	<line x1="1379.19" y1="531.06" x2="1379.19" y2="466.26" style="stroke:#F0F0F0;stroke-width:9.72"/>
	<line x1="1379.19" y1="433.86" x2="1379.19" y2="369.06" style="stroke:#F0F0F0;stroke-width:9.72"/>
	<line x1="1379.19" y1="336.66" x2="1379.19" y2="309.82" style="stroke:#F0F0F0;stroke-width:9.72"/>
	<line x1="2096.55" y1="2766.66" x2="2096.55" y2="2701.86" style="stroke:#F0F0F0;stroke-width:9.72"/>
	<line x1="2096.55" y1="2669.46" x2="2096.55" y2="2604.66" style="stroke:#F0F0F0;stroke-width:9.72"/>
	<line x1="2096.55" y1="2572.26" x2="2096.55" y2="2507.46" style="stroke:#F0F0F0;stroke-width:9.72"/>
	<line x1="2096.55" y1="2475.06" x2="2096.55" y2="2410.26" style="stroke:#F0F0F0;stroke-width:9.72"/>
	<line x1="2096.55" y1="2377.86" x2="2096.55" y2="2313.06" style="stroke:#F0F0F0;stroke-width:9.72"/>
	<line x1="2096.55" y1="2280.66" x2="2096.55" y2="2215.86" style="stroke:#F0F0F0;stroke-width:9.72"/>
	<line x1="2096.55" y1="2183.46" x2="2096.55" y2="2118.66" style="stroke:#F0F0F0;stroke-width:9.72"/>
	<line x1="2096.55" y1="2086.26" x2="2096.55" y2="2021.46" style="stroke:#F0F0F0;stroke-width:9.72"/>
	<line x1="2096.55" y1="1989.06" x2="2096.55" y2="1924.26" style="stroke:#F0F0F0;stroke-width:9.72"/>
	<line x1="2096.55" y1="1891.86" x2="2096.55" y2="1827.06" style="stroke:#F0F0F0;stroke-width:9.72"/>
	<line x1="2096.55" y1="1794.66" x2="2096.55" y2="1729.86" style="stroke:#F0F0F0;stroke-width:9.72"/>
	<line x1="2096.55" y1="1697.46" x2="2096.55" y2="1632.66" style="stroke:#F0F0F0;stroke-width:9.72"/>
	<line x1="2096.55" y1="1600.26" x2="2096.55" y2="1535.46" style="stroke:#F0F0F0;stroke-width:9.72"/>
	<line x1="2096.55" y1="1503.06" x2="2096.55" y2="1438.26" style="stroke:#F0F0F0;stroke-width:9.72"/>
	<line x1="2096.55" y1="1405.86" x2="2096.55" y2="1341.06" style="stroke:#F0F0F0;stroke-width:9.72"/>
	<line x1="2096.55" y1="1308.66" x2="2096.55" y2="1243.86" style="stroke:#F0F0F0;stroke-width:9.72"/>
	<line x1="2096.55" y1="1211.46" x2="2096.55" y2="1146.66" style="stroke:#F0F0F0;stroke-width:9.72"/>
	<line x1="2096.55" y1="1114.26" x2="2096.55" y2="1049.46" style="stroke:#F0F0F0;stroke-width:9.72"/>
	<line x1="2096.55" y1="1017.06" x2="2096.55" y2="952.26" style="stroke:#F0F0F0;stroke-width:9.72"/>
	<line x1="2096.55" y1="919.86" x2="2096.55" y2="855.06" style="stroke:#F0F0F0;stroke-width:9.72"/>
	<line x1="2096.55" y1="822.66" x2="2096.55" y2="757.86" style="stroke:#F0F0F0;stroke-width:9.72"/>
	<line x1="2096.55" y1="725.46" x2="2096.55" y2="660.66" style="stroke:#F0F0F0;stroke-width:9.72"/>
	<line x1="2096.55" y1="628.26" x2="2096.55" y2="563.46" style="stroke:#F0F0F0;stroke-width:9.72"/>
	<line x1="2096.55" y1="531.06" x2="2096.55" y2="466.26" style="stroke:#F0F0F0;stroke-width:9.72"/>
	<line x1="2096.55" y1="433.86" x2="2096.55" y2="369.06" style="stroke:#F0F0F0;stroke-width:9.72"/>
	<line x1="2096.55" y1="336.66" x2="2096.55" y2="309.82" style="stroke:#F0F0F0;stroke-width:9.72"/>
	<line x1="2813.91" y1="2766.66" x2="2813.91" y2="2701.86" style="stroke:#F0F0F0;stroke-width:9.72"/>
	<line x1="2813.91" y1="2669.46" x2="2813.91" y2="2604.66" style="stroke:#F0F0F0;stroke-width:9.72"/>
	<line x1="2813.91" y1="2572.26" x2="2813.91" y2="2507.46" style="stroke:#F0F0F0;stroke-width:9.72"/>
	<line x1="2813.91" y1="2475.06" x2="2813.91" y2="2410.26" style="stroke:#F0F0F0;stroke-width:9.72"/>
	<line x1="2813.91" y1="2377.86" x2="2813.91" y2="2313.06" style="stroke:#F0F0F0;stroke-width:9.72"/>
	<line x1="2813.91" y1="2280.66" x2="2813.91" y2="2215.86" style="stroke:#F0F0F0;stroke-width:9.72"/>
	<line x1="2813.91" y1="2183.46" x2="2813.91" y2="2118.66" style="stroke:#F0F0F0;stroke-width:9.72"/>
	<line x1="2813.91" y1="2086.26" x2="2813.91" y2="2021.46" style="stroke:#F0F0F0;stroke-width:9.72"/>
	<line x1="2813.91" y1="1989.06" x2="2813.91" y2="1924.26" style="stroke:#F0F0F0;stroke-width:9.72"/>
	<line x1="2813.91" y1="1891.86" x2="2813.91" y2="1827.06" style="stroke:#F0F0F0;stroke-width:9.72"/>
	<line x1="2813.91" y1="1794.66" x2="2813.91" y2="1729.86" style="stroke:#F0F0F0;stroke-width:9.72"/>
	<line x1="2813.91" y1="1697.46" x2="2813.91" y2="1632.66" style="stroke:#F0F0F0;stroke-width:9.72"/>
	<line x1="2813.91" y1="1600.26" x2="2813.91" y2="1535.46" style="stroke:#F0F0F0;stroke-width:9.72"/>
	<line x1="2813.91" y1="1503.06" x2="2813.91" y2="1438.26" style="stroke:#F0F0F0;stroke-width:9.72"/>
	<line x1="2813.91" y1="1405.86" x2="2813.91" y2="1341.06" style="stroke:#F0F0F0;stroke-width:9.72"/>
	<line x1="2813.91" y1="1308.66" x2="2813.91" y2="1243.86" style="stroke:#F0F0F0;stroke-width:9.72"/>
	<line x1="2813.91" y1="1211.46" x2="2813.91" y2="1146.66" style="stroke:#F0F0F0;stroke-width:9.72"/>
	<line x1="2813.91" y1="1114.26" x2="2813.91" y2="1049.46" style="stroke:#F0F0F0;stroke-width:9.72"/>
	<line x1="2813.91" y1="1017.06" x2="2813.91" y2="952.26" style="stroke:#F0F0F0;stroke-width:9.72"/>
	<line x1="2813.91" y1="919.86" x2="2813.91" y2="855.06" style="stroke:#F0F0F0;stroke-width:9.72"/>
	<line x1="2813.91" y1="822.66" x2="2813.91" y2="757.86" style="stroke:#F0F0F0;stroke-width:9.72"/>
	<line x1="2813.91" y1="725.46" x2="2813.91" y2="660.66" style="stroke:#F0F0F0;stroke-width:9.72"/>
	<line x1="2813.91" y1="628.26" x2="2813.91" y2="563.46" style="stroke:#F0F0F0;stroke-width:9.72"/>
	<line x1="2813.91" y1="531.06" x2="2813.91" y2="466.26" style="stroke:#F0F0F0;stroke-width:9.72"/>
	<line x1="2813.91" y1="433.86" x2="2813.91" y2="369.06" style="stroke:#F0F0F0;stroke-width:9.72"/>
	<line x1="2813.91" y1="336.66" x2="2813.91" y2="309.82" style="stroke:#F0F0F0;stroke-width:9.72"/>
	<line x1="3531.26" y1="2766.66" x2="3531.26" y2="2701.86" style="stroke:#F0F0F0;stroke-width:9.72"/>
	<line x1="3531.26" y1="2669.46" x2="3531.26" y2="2604.66" style="stroke:#F0F0F0;stroke-width:9.72"/>
	<line x1="3531.26" y1="2572.26" x2="3531.26" y2="2507.46" style="stroke:#F0F0F0;stroke-width:9.72"/>
	<line x1="3531.26" y1="2475.06" x2="3531.26" y2="2410.26" style="stroke:#F0F0F0;stroke-width:9.72"/>
	<line x1="3531.26" y1="2377.86" x2="3531.26" y2="2313.06" style="stroke:#F0F0F0;stroke-width:9.72"/>
	<line x1="3531.26" y1="2280.66" x2="3531.26" y2="2215.86" style="stroke:#F0F0F0;stroke-width:9.72"/>
	<line x1="3531.26" y1="2183.46" x2="3531.26" y2="2118.66" style="stroke:#F0F0F0;stroke-width:9.72"/>
	<line x1="3531.26" y1="2086.26" x2="3531.26" y2="2021.46" style="stroke:#F0F0F0;stroke-width:9.72"/>
	<line x1="3531.26" y1="1989.06" x2="3531.26" y2="1924.26" style="stroke:#F0F0F0;stroke-width:9.72"/>
	<line x1="3531.26" y1="1891.86" x2="3531.26" y2="1827.06" style="stroke:#F0F0F0;stroke-width:9.72"/>
	<line x1="3531.26" y1="1794.66" x2="3531.26" y2="1729.86" style="stroke:#F0F0F0;stroke-width:9.72"/>
	<line x1="3531.26" y1="1697.46" x2="3531.26" y2="1632.66" style="stroke:#F0F0F0;stroke-width:9.72"/>
	<line x1="3531.26" y1="1600.26" x2="3531.26" y2="1535.46" style="stroke:#F0F0F0;stroke-width:9.72"/>
	<line x1="3531.26" y1="1503.06" x2="3531.26" y2="1438.26" style="stroke:#F0F0F0;stroke-width:9.72"/>
	<line x1="3531.26" y1="1405.86" x2="3531.26" y2="1341.06" style="stroke:#F0F0F0;stroke-width:9.72"/>
	<line x1="3531.26" y1="1308.66" x2="3531.26" y2="1243.86" style="stroke:#F0F0F0;stroke-width:9.72"/>
	<line x1="3531.26" y1="1211.46" x2="3531.26" y2="1146.66" style="stroke:#F0F0F0;stroke-width:9.72"/>
	<line x1="3531.26" y1="1114.26" x2="3531.26" y2="1049.46" style="stroke:#F0F0F0;stroke-width:9.72"/>
	<line x1="3531.26" y1="1017.06" x2="3531.26" y2="952.26" style="stroke:#F0F0F0;stroke-width:9.72"/>
	<line x1="3531.26" y1="919.86" x2="3531.26" y2="855.06" style="stroke:#F0F0F0;stroke-width:9.72"/>
	<line x1="3531.26" y1="822.66" x2="3531.26" y2="757.86" style="stroke:#F0F0F0;stroke-width:9.72"/>
	<line x1="3531.26" y1="725.46" x2="3531.26" y2="660.66" style="stroke:#F0F0F0;stroke-width:9.72"/>
	<line x1="3531.26" y1="628.26" x2="3531.26" y2="563.46" style="stroke:#F0F0F0;stroke-width:9.72"/>
	<line x1="3531.26" y1="531.06" x2="3531.26" y2="466.26" style="stroke:#F0F0F0;stroke-width:9.72"/>
	<line x1="3531.26" y1="433.86" x2="3531.26" y2="369.06" style="stroke:#F0F0F0;stroke-width:9.72"/>
	<line x1="3531.26" y1="336.66" x2="3531.26" y2="309.82" style="stroke:#F0F0F0;stroke-width:9.72"/>
	<line x1="4248.62" y1="2766.66" x2="4248.62" y2="2701.86" style="stroke:#F0F0F0;stroke-width:9.72"/>
	<line x1="4248.62" y1="2669.46" x2="4248.62" y2="2604.66" style="stroke:#F0F0F0;stroke-width:9.72"/>
	<line x1="4248.62" y1="2572.26" x2="4248.62" y2="2507.46" style="stroke:#F0F0F0;stroke-width:9.72"/>
	<line x1="4248.62" y1="2475.06" x2="4248.62" y2="2410.26" style="stroke:#F0F0F0;stroke-width:9.72"/>
	<line x1="4248.62" y1="2377.86" x2="4248.62" y2="2313.06" style="stroke:#F0F0F0;stroke-width:9.72"/>
	<line x1="4248.62" y1="2280.66" x2="4248.62" y2="2215.86" style="stroke:#F0F0F0;stroke-width:9.72"/>
	<line x1="4248.62" y1="2183.46" x2="4248.62" y2="2118.66" style="stroke:#F0F0F0;stroke-width:9.72"/>
	<line x1="4248.62" y1="2086.26" x2="4248.62" y2="2021.46" style="stroke:#F0F0F0;stroke-width:9.72"/>
	<line x1="4248.62" y1="1989.06" x2="4248.62" y2="1924.26" style="stroke:#F0F0F0;stroke-width:9.72"/>
	<line x1="4248.62" y1="1891.86" x2="4248.62" y2="1827.06" style="stroke:#F0F0F0;stroke-width:9.72"/>
	<line x1="4248.62" y1="1794.66" x2="4248.62" y2="1729.86" style="stroke:#F0F0F0;stroke-width:9.72"/>
	<line x1="4248.62" y1="1697.46" x2="4248.62" y2="1632.66" style="stroke:#F0F0F0;stroke-width:9.72"/>
	<line x1="4248.62" y1="1600.26" x2="4248.62" y2="1535.46" style="stroke:#F0F0F0;stroke-width:9.72"/>
	<line x1="4248.62" y1="1503.06" x2="4248.62" y2="1438.26" style="stroke:#F0F0F0;stroke-width:9.72"/>
	<line x1="4248.62" y1="1405.86" x2="4248.62" y2="1341.06" style="stroke:#F0F0F0;stroke-width:9.72"/>
	<line x1="4248.62" y1="1308.66" x2="4248.62" y2="1243.86" style="stroke:#F0F0F0;stroke-width:9.72"/>
	<line x1="4248.62" y1="1211.46" x2="4248.62" y2="1146.66" style="stroke:#F0F0F0;stroke-width:9.72"/>
	<line x1="4248.62" y1="1114.26" x2="4248.62" y2="1049.46" style="stroke:#F0F0F0;stroke-width:9.72"/>
	<line x1="4248.62" y1="1017.06" x2="4248.62" y2="952.26" style="stroke:#F0F0F0;stroke-width:9.72"/>
	<line x1="4248.62" y1="919.86" x2="4248.62" y2="855.06" style="stroke:#F0F0F0;stroke-width:9.72"/>
	<line x1="4248.62" y1="822.66" x2="4248.62" y2="757.86" style="stroke:#F0F0F0;stroke-width:9.72"/>
	<line x1="4248.62" y1="725.46" x2="4248.62" y2="660.66" style="stroke:#F0F0F0;stroke-width:9.72"/>
	<line x1="4248.62" y1="628.26" x2="4248.62" y2="563.46" style="stroke:#F0F0F0;stroke-width:9.72"/>
	<line x1="4248.62" y1="531.06" x2="4248.62" y2="466.26" style="stroke:#F0F0F0;stroke-width:9.72"/>
	<line x1="4248.62" y1="433.86" x2="4248.62" y2="369.06" style="stroke:#F0F0F0;stroke-width:9.72"/>
	<line x1="4248.62" y1="336.66" x2="4248.62" y2="309.82" style="stroke:#F0F0F0;stroke-width:9.72"/>
	<path d=" M876.99 1851.02 L948.71 1889.33 L1020.43 1832.63 L1092.15 1837.52 L1163.87 1855.41 L1235.59 1884.26 L1307.47 1832.96 L1379.19 1790.94 L1450.91 1737.62 L1522.63 1720.41 L1594.35 1703.70 L1666.07 1670.63 L1737.79 1653.24 L1809.51 1622.70 L1881.23 1577.64 L1952.94 1541.03 L2024.66 1513.52 L2096.55 1478.93 L2168.27 1406.03 L2239.99 1347.81 L2311.71 1302.24 L2383.43 1302.24 L2455.14 1329.24 L2526.86 1299.88 L2598.58 1298.70 L2670.30 1297.18 L2742.02 1286.04 L2813.91 1271.70 L2885.63 1290.60 L2957.34 1233.22 L3029.06 1175.01 L3100.78 1138.72 L3172.50 1113.24 L3244.22 1123.71 L3315.94 1146.32 L3387.66 1154.42 L3459.38 1144.13 L3531.26 1106.66 L3602.98 1067.34 L3674.70 1117.46 L3746.42 1071.90 L3818.14 1054.18 L3889.86 1109.36 L3961.58 1080.84 L4033.29 1082.03 L4105.01 1110.54 L4176.73 1093.50 L4248.62 1061.94 L4320.34 1031.40 L4392.06 1036.13" stroke-linejoin="round" style="fill:none;stroke:#1A85FF;stroke-width:9.72"/>
	<path d=" M1020.43 2016.23 L1092.15 1913.96 L1163.87 1936.74 L1235.59 1946.03 L1307.47 1974.54 L1379.19 1988.72 L1450.91 1999.52 L1522.63 2007.28 L1594.35 1997.33 L1666.07 1998.51 L1737.79 1988.04 L1809.51 1986.02 L1881.23 1971.51 L1952.94 1963.41 L2024.66 1961.04 L2096.55 1947.21 L2168.27 1920.21 L2239.99 1880.72 L2311.71 1864.18 L2383.43 1839.88 L2455.14 1811.70 L2526.86 1802.42 L2598.58 1789.76 L2670.30 1743.02 L2742.02 1713.83 L2813.91 1687.16 L2885.63 1687.16 L2957.34 1635.86 L3029.06 1615.44 L3100.78 1580.34 L3172.50 1647.51 L3244.22 1653.24 L3315.94 1605.32 L3387.66 1564.82 L3459.38 1472.01 L3531.26 1487.36 L3602.98 1437.92 L3674.70 1404.00 L3746.42 1406.70 L3818.14 1379.03 L3889.86 1373.63 L3961.58 1329.92 L4033.29 1326.88 L4105.01 1289.08 L4176.73 1286.72 L4248.62 1249.76 L4320.34 1233.90" stroke-linejoin="round" style="fill:none;stroke:#D41159;stroke-width:9.72"/>
	<line x1="590.63" y1="2766.66" x2="590.63" y2="309.82" style="stroke:#000000;stroke-width:6.48"/>
	<line x1="590.63" y1="2695.28" x2="545.57" y2="2695.28" style="stroke:#000000;stroke-width:6.48"/>
	<text x="523.13" y="2734.71" style="font-family:'Helvetica';font-size:112.56px;fill:#000000" text-anchor="end">40</text>
	<line x1="590.63" y1="1923.92" x2="545.57" y2="1923.92" style="stroke:#000000;stroke-width:6.48"/>
	<text x="523.13" y="1963.36" style="font-family:'Helvetica';font-size:112.56px;fill:#000000" text-anchor="end">60</text>
	<line x1="590.63" y1="1152.56" x2="545.57" y2="1152.56" style="stroke:#000000;stroke-width:6.48"/>
	<text x="523.13" y="1192.00" style="font-family:'Helvetica';font-size:112.56px;fill:#000000" text-anchor="end">80</text>
	<line x1="590.63" y1="381.04" x2="545.57" y2="381.04" style="stroke:#000000;stroke-width:6.48"/>
	<text x="523.13" y="420.47" style="font-family:'Helvetica';font-size:112.56px;fill:#000000" text-anchor="end">100</text>
	<text x="214.55" y="1538.16" style="font-family:'Helvetica';font-size:112.56px;fill:#000000" transform="rotate(-90 214.55,1538.16)" text-anchor="middle">Female earnings</text>
	<line x1="590.63" y1="2766.66" x2="4463.44" y2="2766.66" style="stroke:#000000;stroke-width:6.48"/>
	<line x1="661.84" y1="2766.66" x2="661.84" y2="2811.54" style="stroke:#000000;stroke-width:6.48"/>
	<text x="661.84" y="2912.86" style="font-family:'Helvetica';font-size:112.56px;fill:#000000" text-anchor="middle">1970</text>
	<line x1="1379.19" y1="2766.66" x2="1379.19" y2="2811.54" style="stroke:#000000;stroke-width:6.48"/>
	<text x="1379.19" y="2912.86" style="font-family:'Helvetica';font-size:112.56px;fill:#000000" text-anchor="middle">1980</text>
	<line x1="2096.55" y1="2766.66" x2="2096.55" y2="2811.54" style="stroke:#000000;stroke-width:6.48"/>
	<text x="2096.55" y="2912.86" style="font-family:'Helvetica';font-size:112.56px;fill:#000000" text-anchor="middle">1990</text>
	<line x1="2813.91" y1="2766.66" x2="2813.91" y2="2811.54" style="stroke:#000000;stroke-width:6.48"/>
	<text x="2813.91" y="2912.86" style="font-family:'Helvetica';font-size:112.56px;fill:#000000" text-anchor="middle">2000</text>
	<line x1="3531.26" y1="2766.66" x2="3531.26" y2="2811.54" style="stroke:#000000;stroke-width:6.48"/>
	<text x="3531.26" y="2912.86" style="font-family:'Helvetica';font-size:112.56px;fill:#000000" text-anchor="middle">2010</text>
	<line x1="4248.62" y1="2766.66" x2="4248.62" y2="2811.54" style="stroke:#000000;stroke-width:6.48"/>
	<text x="4248.62" y="2912.86" style="font-family:'Helvetica';font-size:112.56px;fill:#000000" text-anchor="middle">2020</text>
	<text x="2527.03" y="3070.31" style="font-family:'Helvetica';font-size:112.56px;fill:#000000" text-anchor="middle">TIME</text>
	<rect x="4502.25" y="1354.56" width="745.54" height="367.20" style="fill:#FFFFFF"/>
	<rect x="4505.49" y="1357.80" width="739.06" height="360.72" style="fill:none;stroke:#FFFFFF;stroke-width:6.48"/>
	<line x1="4550.85" y1="1459.52" x2="4810.05" y2="1459.52" style="stroke:#1A85FF;stroke-width:9.72"/>
	<line x1="4550.85" y1="1616.96" x2="4810.05" y2="1616.96" style="stroke:#D41159;stroke-width:9.72"/>
	<text x="4877.55" y="1498.96" style="font-family:'Helvetica';font-size:112.56px;fill:#000000">US</text>
	<text x="4877.55" y="1656.40" style="font-family:'Helvetica';font-size:112.56px;fill:#000000">Japan</text>
	<text x="2527.03" y="243.10" style="font-family:'Helvetica';font-size:157.44px;fill:#000000" text-anchor="middle">Gender pay gap: 1970-2022</text>
</svg>
