<?xml version="1.0" encoding="UTF-8" standalone="no"?>
<!-- This is a Stata 18.0 generated SVG file (http://www.stata.com) -->

<svg version="1.1" width="7.500in" height="4.500in" viewBox="0 0 5400 3240" xmlns="http://www.w3.org/2000/svg" xmlns:xlink="http://www.w3.org/1999/xlink">
	<desc>Stata Graph - Graph</desc>
	<rect x="0" y="0" width="5400" height="3240" style="fill:#FFFFFF;stroke:none"/>
	<rect x="0.00" y="0.00" width="5400.00" height="3240.00" style="fill:#FFFFFF"/>
	<rect x="3.24" y="3.24" width="5393.52" height="3233.52" style="fill:none;stroke:#FFFFFF;stroke-width:6.48"/>
	<rect x="557.72" y="309.82" width="4728.88" height="2456.83" style="fill:#FFFFFF"/>
	<rect x="560.96" y="313.06" width="4722.40" height="2450.35" style="fill:none;stroke:#FFFFFF;stroke-width:6.48"/>
	<line x1="557.72" y1="2116.80" x2="622.52" y2="2116.80" style="stroke:#F0F0F0;stroke-width:9.72"/>
	<line x1="654.92" y1="2116.80" x2="719.72" y2="2116.80" style="stroke:#F0F0F0;stroke-width:9.72"/>
	<line x1="752.12" y1="2116.80" x2="816.92" y2="2116.80" style="stroke:#F0F0F0;stroke-width:9.72"/>
	<line x1="849.32" y1="2116.80" x2="914.12" y2="2116.80" style="stroke:#F0F0F0;stroke-width:9.72"/>
	<line x1="946.52" y1="2116.80" x2="1011.32" y2="2116.80" style="stroke:#F0F0F0;stroke-width:9.72"/>
	<line x1="1043.72" y1="2116.80" x2="1108.52" y2="2116.80" style="stroke:#F0F0F0;stroke-width:9.72"/>
	<line x1="1140.92" y1="2116.80" x2="1205.72" y2="2116.80" style="stroke:#F0F0F0;stroke-width:9.72"/>
	<line x1="1238.12" y1="2116.80" x2="1302.92" y2="2116.80" style="stroke:#F0F0F0;stroke-width:9.72"/>
	<line x1="1335.32" y1="2116.80" x2="1400.12" y2="2116.80" style="stroke:#F0F0F0;stroke-width:9.72"/>
	<line x1="1432.52" y1="2116.80" x2="1497.32" y2="2116.80" style="stroke:#F0F0F0;stroke-width:9.72"/>
	<line x1="1529.72" y1="2116.80" x2="1594.52" y2="2116.80" style="stroke:#F0F0F0;stroke-width:9.72"/>
	<line x1="1626.92" y1="2116.80" x2="1691.72" y2="2116.80" style="stroke:#F0F0F0;stroke-width:9.72"/>
	<line x1="1724.12" y1="2116.80" x2="1788.92" y2="2116.80" style="stroke:#F0F0F0;stroke-width:9.72"/>
	<line x1="1821.32" y1="2116.80" x2="1886.12" y2="2116.80" style="stroke:#F0F0F0;stroke-width:9.72"/>
	<line x1="1918.52" y1="2116.80" x2="1983.32" y2="2116.80" style="stroke:#F0F0F0;stroke-width:9.72"/>
	<line x1="2015.72" y1="2116.80" x2="2080.52" y2="2116.80" style="stroke:#F0F0F0;stroke-width:9.72"/>
	<line x1="2112.92" y1="2116.80" x2="2177.72" y2="2116.80" style="stroke:#F0F0F0;stroke-width:9.72"/>
	<line x1="2210.12" y1="2116.80" x2="2274.92" y2="2116.80" style="stroke:#F0F0F0;stroke-width:9.72"/>
	<line x1="2307.32" y1="2116.80" x2="2372.12" y2="2116.80" style="stroke:#F0F0F0;stroke-width:9.72"/>
	<line x1="2404.52" y1="2116.80" x2="2469.32" y2="2116.80" style="stroke:#F0F0F0;stroke-width:9.72"/>
	<line x1="2501.72" y1="2116.80" x2="2566.52" y2="2116.80" style="stroke:#F0F0F0;stroke-width:9.72"/>
	<line x1="2598.92" y1="2116.80" x2="2663.72" y2="2116.80" style="stroke:#F0F0F0;stroke-width:9.72"/>
	<line x1="2696.12" y1="2116.80" x2="2760.92" y2="2116.80" style="stroke:#F0F0F0;stroke-width:9.72"/>
	<line x1="2793.32" y1="2116.80" x2="2858.12" y2="2116.80" style="stroke:#F0F0F0;stroke-width:9.72"/>
	<line x1="2890.52" y1="2116.80" x2="2955.32" y2="2116.80" style="stroke:#F0F0F0;stroke-width:9.72"/>
	<line x1="2987.72" y1="2116.80" x2="3052.52" y2="2116.80" style="stroke:#F0F0F0;stroke-width:9.72"/>
	<line x1="3084.92" y1="2116.80" x2="3149.72" y2="2116.80" style="stroke:#F0F0F0;stroke-width:9.72"/>
	<line x1="3182.12" y1="2116.80" x2="3246.92" y2="2116.80" style="stroke:#F0F0F0;stroke-width:9.72"/>
	<line x1="3279.32" y1="2116.80" x2="3344.12" y2="2116.80" style="stroke:#F0F0F0;stroke-width:9.72"/>
	<line x1="3376.52" y1="2116.80" x2="3441.32" y2="2116.80" style="stroke:#F0F0F0;stroke-width:9.72"/>
	<line x1="3473.72" y1="2116.80" x2="3538.52" y2="2116.80" style="stroke:#F0F0F0;stroke-width:9.72"/>
	<line x1="3570.92" y1="2116.80" x2="3635.72" y2="2116.80" style="stroke:#F0F0F0;stroke-width:9.72"/>
	<line x1="3668.12" y1="2116.80" x2="3732.92" y2="2116.80" style="stroke:#F0F0F0;stroke-width:9.72"/>
	<line x1="3765.32" y1="2116.80" x2="3830.12" y2="2116.80" style="stroke:#F0F0F0;stroke-width:9.72"/>
	<line x1="3862.52" y1="2116.80" x2="3927.32" y2="2116.80" style="stroke:#F0F0F0;stroke-width:9.72"/>
	<line x1="3959.72" y1="2116.80" x2="4024.52" y2="2116.80" style="stroke:#F0F0F0;stroke-width:9.72"/>
	<line x1="4056.92" y1="2116.80" x2="4121.72" y2="2116.80" style="stroke:#F0F0F0;stroke-width:9.72"/>
	<line x1="4154.12" y1="2116.80" x2="4218.92" y2="2116.80" style="stroke:#F0F0F0;stroke-width:9.72"/>
	<line x1="4251.32" y1="2116.80" x2="4316.12" y2="2116.80" style="stroke:#F0F0F0;stroke-width:9.72"/>
	<line x1="4348.52" y1="2116.80" x2="4413.32" y2="2116.80" style="stroke:#F0F0F0;stroke-width:9.72"/>
	<line x1="4445.72" y1="2116.80" x2="4510.52" y2="2116.80" style="stroke:#F0F0F0;stroke-width:9.72"/>
	<line x1="4542.92" y1="2116.80" x2="4607.72" y2="2116.80" style="stroke:#F0F0F0;stroke-width:9.72"/>
	<line x1="4640.12" y1="2116.80" x2="4704.92" y2="2116.80" style="stroke:#F0F0F0;stroke-width:9.72"/>
	<line x1="4737.32" y1="2116.80" x2="4802.12" y2="2116.80" style="stroke:#F0F0F0;stroke-width:9.72"/>
	<line x1="4834.52" y1="2116.80" x2="4899.32" y2="2116.80" style="stroke:#F0F0F0;stroke-width:9.72"/>
	<line x1="4931.72" y1="2116.80" x2="4996.52" y2="2116.80" style="stroke:#F0F0F0;stroke-width:9.72"/>
	<line x1="5028.92" y1="2116.80" x2="5093.72" y2="2116.80" style="stroke:#F0F0F0;stroke-width:9.72"/>
	<line x1="5126.12" y1="2116.80" x2="5190.92" y2="2116.80" style="stroke:#F0F0F0;stroke-width:9.72"/>
	<line x1="5223.32" y1="2116.80" x2="5286.60" y2="2116.80" style="stroke:#F0F0F0;stroke-width:9.72"/>
	<line x1="557.72" y1="1538.16" x2="622.52" y2="1538.16" style="stroke:#F0F0F0;stroke-width:9.72"/>
	<line x1="654.92" y1="1538.16" x2="719.72" y2="1538.16" style="stroke:#F0F0F0;stroke-width:9.72"/>
	<line x1="752.12" y1="1538.16" x2="816.92" y2="1538.16" style="stroke:#F0F0F0;stroke-width:9.72"/>
	<line x1="849.32" y1="1538.16" x2="914.12" y2="1538.16" style="stroke:#F0F0F0;stroke-width:9.72"/>
	<line x1="946.52" y1="1538.16" x2="1011.32" y2="1538.16" style="stroke:#F0F0F0;stroke-width:9.72"/>
	<line x1="1043.72" y1="1538.16" x2="1108.52" y2="1538.16" style="stroke:#F0F0F0;stroke-width:9.72"/>
	<line x1="1140.92" y1="1538.16" x2="1205.72" y2="1538.16" style="stroke:#F0F0F0;stroke-width:9.72"/>
	<line x1="1238.12" y1="1538.16" x2="1302.92" y2="1538.16" style="stroke:#F0F0F0;stroke-width:9.72"/>
	<line x1="1335.32" y1="1538.16" x2="1400.12" y2="1538.16" style="stroke:#F0F0F0;stroke-width:9.72"/>
	<line x1="1432.52" y1="1538.16" x2="1497.32" y2="1538.16" style="stroke:#F0F0F0;stroke-width:9.72"/>
	<line x1="1529.72" y1="1538.16" x2="1594.52" y2="1538.16" style="stroke:#F0F0F0;stroke-width:9.72"/>
	<line x1="1626.92" y1="1538.16" x2="1691.72" y2="1538.16" style="stroke:#F0F0F0;stroke-width:9.72"/>
	<line x1="1724.12" y1="1538.16" x2="1788.92" y2="1538.16" style="stroke:#F0F0F0;stroke-width:9.72"/>
	<line x1="1821.32" y1="1538.16" x2="1886.12" y2="1538.16" style="stroke:#F0F0F0;stroke-width:9.72"/>
	<line x1="1918.52" y1="1538.16" x2="1983.32" y2="1538.16" style="stroke:#F0F0F0;stroke-width:9.72"/>
	<line x1="2015.72" y1="1538.16" x2="2080.52" y2="1538.16" style="stroke:#F0F0F0;stroke-width:9.72"/>
	<line x1="2112.92" y1="1538.16" x2="2177.72" y2="1538.16" style="stroke:#F0F0F0;stroke-width:9.72"/>
	<line x1="2210.12" y1="1538.16" x2="2274.92" y2="1538.16" style="stroke:#F0F0F0;stroke-width:9.72"/>
	<line x1="2307.32" y1="1538.16" x2="2372.12" y2="1538.16" style="stroke:#F0F0F0;stroke-width:9.72"/>
	<line x1="2404.52" y1="1538.16" x2="2469.32" y2="1538.16" style="stroke:#F0F0F0;stroke-width:9.72"/>
	<line x1="2501.72" y1="1538.16" x2="2566.52" y2="1538.16" style="stroke:#F0F0F0;stroke-width:9.72"/>
	<line x1="2598.92" y1="1538.16" x2="2663.72" y2="1538.16" style="stroke:#F0F0F0;stroke-width:9.72"/>
	<line x1="2696.12" y1="1538.16" x2="2760.92" y2="1538.16" style="stroke:#F0F0F0;stroke-width:9.72"/>
	<line x1="2793.32" y1="1538.16" x2="2858.12" y2="1538.16" style="stroke:#F0F0F0;stroke-width:9.72"/>
	<line x1="2890.52" y1="1538.16" x2="2955.32" y2="1538.16" style="stroke:#F0F0F0;stroke-width:9.72"/>
	<line x1="2987.72" y1="1538.16" x2="3052.52" y2="1538.16" style="stroke:#F0F0F0;stroke-width:9.72"/>
	<line x1="3084.92" y1="1538.16" x2="3149.72" y2="1538.16" style="stroke:#F0F0F0;stroke-width:9.72"/>
	<line x1="3182.12" y1="1538.16" x2="3246.92" y2="1538.16" style="stroke:#F0F0F0;stroke-width:9.72"/>
	<line x1="3279.32" y1="1538.16" x2="3344.12" y2="1538.16" style="stroke:#F0F0F0;stroke-width:9.72"/>
	<line x1="3376.52" y1="1538.16" x2="3441.32" y2="1538.16" style="stroke:#F0F0F0;stroke-width:9.72"/>
	<line x1="3473.72" y1="1538.16" x2="3538.52" y2="1538.16" style="stroke:#F0F0F0;stroke-width:9.72"/>
	<line x1="3570.92" y1="1538.16" x2="3635.72" y2="1538.16" style="stroke:#F0F0F0;stroke-width:9.72"/>
	<line x1="3668.12" y1="1538.16" x2="3732.92" y2="1538.16" style="stroke:#F0F0F0;stroke-width:9.72"/>
	<line x1="3765.32" y1="1538.16" x2="3830.12" y2="1538.16" style="stroke:#F0F0F0;stroke-width:9.72"/>
	<line x1="3862.52" y1="1538.16" x2="3927.32" y2="1538.16" style="stroke:#F0F0F0;stroke-width:9.72"/>
	<line x1="3959.72" y1="1538.16" x2="4024.52" y2="1538.16" style="stroke:#F0F0F0;stroke-width:9.72"/>
	<line x1="4056.92" y1="1538.16" x2="4121.72" y2="1538.16" style="stroke:#F0F0F0;stroke-width:9.72"/>
	<line x1="4154.12" y1="1538.16" x2="4218.92" y2="1538.16" style="stroke:#F0F0F0;stroke-width:9.72"/>
	<line x1="4251.32" y1="1538.16" x2="4316.12" y2="1538.16" style="stroke:#F0F0F0;stroke-width:9.72"/>
	<line x1="4348.52" y1="1538.16" x2="4413.32" y2="1538.16" style="stroke:#F0F0F0;stroke-width:9.72"/>
	<line x1="4445.72" y1="1538.16" x2="4510.52" y2="1538.16" style="stroke:#F0F0F0;stroke-width:9.72"/>
	<line x1="4542.92" y1="1538.16" x2="4607.72" y2="1538.16" style="stroke:#F0F0F0;stroke-width:9.72"/>
	<line x1="4640.12" y1="1538.16" x2="4704.92" y2="1538.16" style="stroke:#F0F0F0;stroke-width:9.72"/>
	<line x1="4737.32" y1="1538.16" x2="4802.12" y2="1538.16" style="stroke:#F0F0F0;stroke-width:9.72"/>
	<line x1="4834.52" y1="1538.16" x2="4899.32" y2="1538.16" style="stroke:#F0F0F0;stroke-width:9.72"/>
	<line x1="4931.72" y1="1538.16" x2="4996.52" y2="1538.16" style="stroke:#F0F0F0;stroke-width:9.72"/>
	<line x1="5028.92" y1="1538.16" x2="5093.72" y2="1538.16" style="stroke:#F0F0F0;stroke-width:9.72"/>
	<line x1="5126.12" y1="1538.16" x2="5190.92" y2="1538.16" style="stroke:#F0F0F0;stroke-width:9.72"/>
	<line x1="5223.32" y1="1538.16" x2="5286.60" y2="1538.16" style="stroke:#F0F0F0;stroke-width:9.72"/>
	<line x1="557.72" y1="959.68" x2="622.52" y2="959.68" style="stroke:#F0F0F0;stroke-width:9.72"/>
	<line x1="654.92" y1="959.68" x2="719.72" y2="959.68" style="stroke:#F0F0F0;stroke-width:9.72"/>
	<line x1="752.12" y1="959.68" x2="816.92" y2="959.68" style="stroke:#F0F0F0;stroke-width:9.72"/>
	<line x1="849.32" y1="959.68" x2="914.12" y2="959.68" style="stroke:#F0F0F0;stroke-width:9.72"/>
	<line x1="946.52" y1="959.68" x2="1011.32" y2="959.68" style="stroke:#F0F0F0;stroke-width:9.72"/>
	<line x1="1043.72" y1="959.68" x2="1108.52" y2="959.68" style="stroke:#F0F0F0;stroke-width:9.72"/>
	<line x1="1140.92" y1="959.68" x2="1205.72" y2="959.68" style="stroke:#F0F0F0;stroke-width:9.72"/>
	<line x1="1238.12" y1="959.68" x2="1302.92" y2="959.68" style="stroke:#F0F0F0;stroke-width:9.72"/>
	<line x1="1335.32" y1="959.68" x2="1400.12" y2="959.68" style="stroke:#F0F0F0;stroke-width:9.72"/>
	<line x1="1432.52" y1="959.68" x2="1497.32" y2="959.68" style="stroke:#F0F0F0;stroke-width:9.72"/>
	<line x1="1529.72" y1="959.68" x2="1594.52" y2="959.68" style="stroke:#F0F0F0;stroke-width:9.72"/>
	<line x1="1626.92" y1="959.68" x2="1691.72" y2="959.68" style="stroke:#F0F0F0;stroke-width:9.72"/>
	<line x1="1724.12" y1="959.68" x2="1788.92" y2="959.68" style="stroke:#F0F0F0;stroke-width:9.72"/>
	<line x1="1821.32" y1="959.68" x2="1886.12" y2="959.68" style="stroke:#F0F0F0;stroke-width:9.72"/>
	<line x1="1918.52" y1="959.68" x2="1983.32" y2="959.68" style="stroke:#F0F0F0;stroke-width:9.72"/>
	<line x1="2015.72" y1="959.68" x2="2080.52" y2="959.68" style="stroke:#F0F0F0;stroke-width:9.72"/>
	<line x1="2112.92" y1="959.68" x2="2177.72" y2="959.68" style="stroke:#F0F0F0;stroke-width:9.72"/>
	<line x1="2210.12" y1="959.68" x2="2274.92" y2="959.68" style="stroke:#F0F0F0;stroke-width:9.72"/>
	<line x1="2307.32" y1="959.68" x2="2372.12" y2="959.68" style="stroke:#F0F0F0;stroke-width:9.72"/>
	<line x1="2404.52" y1="959.68" x2="2469.32" y2="959.68" style="stroke:#F0F0F0;stroke-width:9.72"/>
	<line x1="2501.72" y1="959.68" x2="2566.52" y2="959.68" style="stroke:#F0F0F0;stroke-width:9.72"/>
	<line x1="2598.92" y1="959.68" x2="2663.72" y2="959.68" style="stroke:#F0F0F0;stroke-width:9.72"/>
	<line x1="2696.12" y1="959.68" x2="2760.92" y2="959.68" style="stroke:#F0F0F0;stroke-width:9.72"/>
	<line x1="2793.32" y1="959.68" x2="2858.12" y2="959.68" style="stroke:#F0F0F0;stroke-width:9.72"/>
	<line x1="2890.52" y1="959.68" x2="2955.32" y2="959.68" style="stroke:#F0F0F0;stroke-width:9.72"/>
	<line x1="2987.72" y1="959.68" x2="3052.52" y2="959.68" style="stroke:#F0F0F0;stroke-width:9.72"/>
	<line x1="3084.92" y1="959.68" x2="3149.72" y2="959.68" style="stroke:#F0F0F0;stroke-width:9.72"/>
	<line x1="3182.12" y1="959.68" x2="3246.92" y2="959.68" style="stroke:#F0F0F0;stroke-width:9.72"/>
	<line x1="3279.32" y1="959.68" x2="3344.12" y2="959.68" style="stroke:#F0F0F0;stroke-width:9.72"/>
	<line x1="3376.52" y1="959.68" x2="3441.32" y2="959.68" style="stroke:#F0F0F0;stroke-width:9.72"/>
	<line x1="3473.72" y1="959.68" x2="3538.52" y2="959.68" style="stroke:#F0F0F0;stroke-width:9.72"/>
	<line x1="3570.92" y1="959.68" x2="3635.72" y2="959.68" style="stroke:#F0F0F0;stroke-width:9.72"/>
	<line x1="3668.12" y1="959.68" x2="3732.92" y2="959.68" style="stroke:#F0F0F0;stroke-width:9.72"/>
	<line x1="3765.32" y1="959.68" x2="3830.12" y2="959.68" style="stroke:#F0F0F0;stroke-width:9.72"/>
	<line x1="3862.52" y1="959.68" x2="3927.32" y2="959.68" style="stroke:#F0F0F0;stroke-width:9.72"/>
	<line x1="3959.72" y1="959.68" x2="4024.52" y2="959.68" style="stroke:#F0F0F0;stroke-width:9.72"/>
	<line x1="4056.92" y1="959.68" x2="4121.72" y2="959.68" style="stroke:#F0F0F0;stroke-width:9.72"/>
	<line x1="4154.12" y1="959.68" x2="4218.92" y2="959.68" style="stroke:#F0F0F0;stroke-width:9.72"/>
	<line x1="4251.32" y1="959.68" x2="4316.12" y2="959.68" style="stroke:#F0F0F0;stroke-width:9.72"/>
	<line x1="4348.52" y1="959.68" x2="4413.32" y2="959.68" style="stroke:#F0F0F0;stroke-width:9.72"/>
	<line x1="4445.72" y1="959.68" x2="4510.52" y2="959.68" style="stroke:#F0F0F0;stroke-width:9.72"/>
	<line x1="4542.92" y1="959.68" x2="4607.72" y2="959.68" style="stroke:#F0F0F0;stroke-width:9.72"/>
	<line x1="4640.12" y1="959.68" x2="4704.92" y2="959.68" style="stroke:#F0F0F0;stroke-width:9.72"/>
	<line x1="4737.32" y1="959.68" x2="4802.12" y2="959.68" style="stroke:#F0F0F0;stroke-width:9.72"/>
	<line x1="4834.52" y1="959.68" x2="4899.32" y2="959.68" style="stroke:#F0F0F0;stroke-width:9.72"/>
	<line x1="4931.72" y1="959.68" x2="4996.52" y2="959.68" style="stroke:#F0F0F0;stroke-width:9.72"/>
	<line x1="5028.92" y1="959.68" x2="5093.72" y2="959.68" style="stroke:#F0F0F0;stroke-width:9.72"/>
	<line x1="5126.12" y1="959.68" x2="5190.92" y2="959.68" style="stroke:#F0F0F0;stroke-width:9.72"/>
	<line x1="5223.32" y1="959.68" x2="5286.60" y2="959.68" style="stroke:#F0F0F0;stroke-width:9.72"/>
	<line x1="557.72" y1="381.04" x2="622.52" y2="381.04" style="stroke:#F0F0F0;stroke-width:9.72"/>
	<line x1="654.92" y1="381.04" x2="719.72" y2="381.04" style="stroke:#F0F0F0;stroke-width:9.72"/>
	<line x1="752.12" y1="381.04" x2="816.92" y2="381.04" style="stroke:#F0F0F0;stroke-width:9.72"/>
	<line x1="849.32" y1="381.04" x2="914.12" y2="381.04" style="stroke:#F0F0F0;stroke-width:9.72"/>
	<line x1="946.52" y1="381.04" x2="1011.32" y2="381.04" style="stroke:#F0F0F0;stroke-width:9.72"/>
	<line x1="1043.72" y1="381.04" x2="1108.52" y2="381.04" style="stroke:#F0F0F0;stroke-width:9.72"/>
	<line x1="1140.92" y1="381.04" x2="1205.72" y2="381.04" style="stroke:#F0F0F0;stroke-width:9.72"/>
	<line x1="1238.12" y1="381.04" x2="1302.92" y2="381.04" style="stroke:#F0F0F0;stroke-width:9.72"/>
	<line x1="1335.32" y1="381.04" x2="1400.12" y2="381.04" style="stroke:#F0F0F0;stroke-width:9.72"/>
	<line x1="1432.52" y1="381.04" x2="1497.32" y2="381.04" style="stroke:#F0F0F0;stroke-width:9.72"/>
	<line x1="1529.72" y1="381.04" x2="1594.52" y2="381.04" style="stroke:#F0F0F0;stroke-width:9.72"/>
	<line x1="1626.92" y1="381.04" x2="1691.72" y2="381.04" style="stroke:#F0F0F0;stroke-width:9.72"/>
	<line x1="1724.12" y1="381.04" x2="1788.92" y2="381.04" style="stroke:#F0F0F0;stroke-width:9.72"/>
	<line x1="1821.32" y1="381.04" x2="1886.12" y2="381.04" style="stroke:#F0F0F0;stroke-width:9.72"/>
	<line x1="1918.52" y1="381.04" x2="1983.32" y2="381.04" style="stroke:#F0F0F0;stroke-width:9.72"/>
	<line x1="2015.72" y1="381.04" x2="2080.52" y2="381.04" style="stroke:#F0F0F0;stroke-width:9.72"/>
	<line x1="2112.92" y1="381.04" x2="2177.72" y2="381.04" style="stroke:#F0F0F0;stroke-width:9.72"/>
	<line x1="2210.12" y1="381.04" x2="2274.92" y2="381.04" style="stroke:#F0F0F0;stroke-width:9.72"/>
	<line x1="2307.32" y1="381.04" x2="2372.12" y2="381.04" style="stroke:#F0F0F0;stroke-width:9.72"/>
	<line x1="2404.52" y1="381.04" x2="2469.32" y2="381.04" style="stroke:#F0F0F0;stroke-width:9.72"/>
	<line x1="2501.72" y1="381.04" x2="2566.52" y2="381.04" style="stroke:#F0F0F0;stroke-width:9.72"/>
	<line x1="2598.92" y1="381.04" x2="2663.72" y2="381.04" style="stroke:#F0F0F0;stroke-width:9.72"/>
	<line x1="2696.12" y1="381.04" x2="2760.92" y2="381.04" style="stroke:#F0F0F0;stroke-width:9.72"/>
	<line x1="2793.32" y1="381.04" x2="2858.12" y2="381.04" style="stroke:#F0F0F0;stroke-width:9.72"/>
	<line x1="2890.52" y1="381.04" x2="2955.32" y2="381.04" style="stroke:#F0F0F0;stroke-width:9.72"/>
	<line x1="2987.72" y1="381.04" x2="3052.52" y2="381.04" style="stroke:#F0F0F0;stroke-width:9.72"/>
	<line x1="3084.92" y1="381.04" x2="3149.72" y2="381.04" style="stroke:#F0F0F0;stroke-width:9.72"/>
	<line x1="3182.12" y1="381.04" x2="3246.92" y2="381.04" style="stroke:#F0F0F0;stroke-width:9.72"/>
	<line x1="3279.32" y1="381.04" x2="3344.12" y2="381.04" style="stroke:#F0F0F0;stroke-width:9.72"/>
	<line x1="3376.52" y1="381.04" x2="3441.32" y2="381.04" style="stroke:#F0F0F0;stroke-width:9.72"/>
	<line x1="3473.72" y1="381.04" x2="3538.52" y2="381.04" style="stroke:#F0F0F0;stroke-width:9.72"/>
	<line x1="3570.92" y1="381.04" x2="3635.72" y2="381.04" style="stroke:#F0F0F0;stroke-width:9.72"/>
	<line x1="3668.12" y1="381.04" x2="3732.92" y2="381.04" style="stroke:#F0F0F0;stroke-width:9.72"/>
	<line x1="3765.32" y1="381.04" x2="3830.12" y2="381.04" style="stroke:#F0F0F0;stroke-width:9.72"/>
	<line x1="3862.52" y1="381.04" x2="3927.32" y2="381.04" style="stroke:#F0F0F0;stroke-width:9.72"/>
	<line x1="3959.72" y1="381.04" x2="4024.52" y2="381.04" style="stroke:#F0F0F0;stroke-width:9.72"/>
	<line x1="4056.92" y1="381.04" x2="4121.72" y2="381.04" style="stroke:#F0F0F0;stroke-width:9.72"/>
	<line x1="4154.12" y1="381.04" x2="4218.92" y2="381.04" style="stroke:#F0F0F0;stroke-width:9.72"/>
	<line x1="4251.32" y1="381.04" x2="4316.12" y2="381.04" style="stroke:#F0F0F0;stroke-width:9.72"/>
	<line x1="4348.52" y1="381.04" x2="4413.32" y2="381.04" style="stroke:#F0F0F0;stroke-width:9.72"/>
	<line x1="4445.72" y1="381.04" x2="4510.52" y2="381.04" style="stroke:#F0F0F0;stroke-width:9.72"/>
	<line x1="4542.92" y1="381.04" x2="4607.72" y2="381.04" style="stroke:#F0F0F0;stroke-width:9.72"/>
	<line x1="4640.12" y1="381.04" x2="4704.92" y2="381.04" style="stroke:#F0F0F0;stroke-width:9.72"/>
	<line x1="4737.32" y1="381.04" x2="4802.12" y2="381.04" style="stroke:#F0F0F0;stroke-width:9.72"/>
	<line x1="4834.52" y1="381.04" x2="4899.32" y2="381.04" style="stroke:#F0F0F0;stroke-width:9.72"/>
	<line x1="4931.72" y1="381.04" x2="4996.52" y2="381.04" style="stroke:#F0F0F0;stroke-width:9.72"/>
	<line x1="5028.92" y1="381.04" x2="5093.72" y2="381.04" style="stroke:#F0F0F0;stroke-width:9.72"/>
	<line x1="5126.12" y1="381.04" x2="5190.92" y2="381.04" style="stroke:#F0F0F0;stroke-width:9.72"/>
	<line x1="5223.32" y1="381.04" x2="5286.60" y2="381.04" style="stroke:#F0F0F0;stroke-width:9.72"/>
	<line x1="629.10" y1="2766.66" x2="629.10" y2="2701.86" style="stroke:#F0F0F0;stroke-width:9.72"/>
	<line x1="629.10" y1="2669.46" x2="629.10" y2="2604.66" style="stroke:#F0F0F0;stroke-width:9.72"/>
	<line x1="629.10" y1="2572.26" x2="629.10" y2="2507.46" style="stroke:#F0F0F0;stroke-width:9.72"/>
	<line x1="629.10" y1="2475.06" x2="629.10" y2="2410.26" style="stroke:#F0F0F0;stroke-width:9.72"/>
	<line x1="629.10" y1="2377.86" x2="629.10" y2="2313.06" style="stroke:#F0F0F0;stroke-width:9.72"/>
	<line x1="629.10" y1="2280.66" x2="629.10" y2="2215.86" style="stroke:#F0F0F0;stroke-width:9.72"/>
	<line x1="629.10" y1="2183.46" x2="629.10" y2="2118.66" style="stroke:#F0F0F0;stroke-width:9.72"/>
	<line x1="629.10" y1="2086.26" x2="629.10" y2="2021.46" style="stroke:#F0F0F0;stroke-width:9.72"/>
	<line x1="629.10" y1="1989.06" x2="629.10" y2="1924.26" style="stroke:#F0F0F0;stroke-width:9.72"/>
	<line x1="629.10" y1="1891.86" x2="629.10" y2="1827.06" style="stroke:#F0F0F0;stroke-width:9.72"/>
	<line x1="629.10" y1="1794.66" x2="629.10" y2="1729.86" style="stroke:#F0F0F0;stroke-width:9.72"/>
	<line x1="629.10" y1="1697.46" x2="629.10" y2="1632.66" style="stroke:#F0F0F0;stroke-width:9.72"/>
	<line x1="629.10" y1="1600.26" x2="629.10" y2="1535.46" style="stroke:#F0F0F0;stroke-width:9.72"/>
	<line x1="629.10" y1="1503.06" x2="629.10" y2="1438.26" style="stroke:#F0F0F0;stroke-width:9.72"/>
	<line x1="629.10" y1="1405.86" x2="629.10" y2="1341.06" style="stroke:#F0F0F0;stroke-width:9.72"/>
	<line x1="629.10" y1="1308.66" x2="629.10" y2="1243.86" style="stroke:#F0F0F0;stroke-width:9.72"/>
	<line x1="629.10" y1="1211.46" x2="629.10" y2="1146.66" style="stroke:#F0F0F0;stroke-width:9.72"/>
	<line x1="629.10" y1="1114.26" x2="629.10" y2="1049.46" style="stroke:#F0F0F0;stroke-width:9.72"/>
	<line x1="629.10" y1="1017.06" x2="629.10" y2="952.26" style="stroke:#F0F0F0;stroke-width:9.72"/>
	<line x1="629.10" y1="919.86" x2="629.10" y2="855.06" style="stroke:#F0F0F0;stroke-width:9.72"/>
	<line x1="629.10" y1="822.66" x2="629.10" y2="757.86" style="stroke:#F0F0F0;stroke-width:9.72"/>
	<line x1="629.10" y1="725.46" x2="629.10" y2="660.66" style="stroke:#F0F0F0;stroke-width:9.72"/>
	<line x1="629.10" y1="628.26" x2="629.10" y2="563.46" style="stroke:#F0F0F0;stroke-width:9.72"/>
	<line x1="629.10" y1="531.06" x2="629.10" y2="466.26" style="stroke:#F0F0F0;stroke-width:9.72"/>
	<line x1="629.10" y1="433.86" x2="629.10" y2="369.06" style="stroke:#F0F0F0;stroke-width:9.72"/>
	<line x1="629.10" y1="336.66" x2="629.10" y2="309.82" style="stroke:#F0F0F0;stroke-width:9.72"/>
	<line x1="2132.66" y1="2766.66" x2="2132.66" y2="2701.86" style="stroke:#F0F0F0;stroke-width:9.72"/>
	<line x1="2132.66" y1="2669.46" x2="2132.66" y2="2604.66" style="stroke:#F0F0F0;stroke-width:9.72"/>
	<line x1="2132.66" y1="2572.26" x2="2132.66" y2="2507.46" style="stroke:#F0F0F0;stroke-width:9.72"/>
	<line x1="2132.66" y1="2475.06" x2="2132.66" y2="2410.26" style="stroke:#F0F0F0;stroke-width:9.72"/>
	<line x1="2132.66" y1="2377.86" x2="2132.66" y2="2313.06" style="stroke:#F0F0F0;stroke-width:9.72"/>
	<line x1="2132.66" y1="2280.66" x2="2132.66" y2="2215.86" style="stroke:#F0F0F0;stroke-width:9.72"/>
	<line x1="2132.66" y1="2183.46" x2="2132.66" y2="2118.66" style="stroke:#F0F0F0;stroke-width:9.72"/>
	<line x1="2132.66" y1="2086.26" x2="2132.66" y2="2021.46" style="stroke:#F0F0F0;stroke-width:9.72"/>
	<line x1="2132.66" y1="1989.06" x2="2132.66" y2="1924.26" style="stroke:#F0F0F0;stroke-width:9.72"/>
	<line x1="2132.66" y1="1891.86" x2="2132.66" y2="1827.06" style="stroke:#F0F0F0;stroke-width:9.72"/>
	<line x1="2132.66" y1="1794.66" x2="2132.66" y2="1729.86" style="stroke:#F0F0F0;stroke-width:9.72"/>
	<line x1="2132.66" y1="1697.46" x2="2132.66" y2="1632.66" style="stroke:#F0F0F0;stroke-width:9.72"/>
	<line x1="2132.66" y1="1600.26" x2="2132.66" y2="1535.46" style="stroke:#F0F0F0;stroke-width:9.72"/>
	<line x1="2132.66" y1="1503.06" x2="2132.66" y2="1438.26" style="stroke:#F0F0F0;stroke-width:9.72"/>
	<line x1="2132.66" y1="1405.86" x2="2132.66" y2="1341.06" style="stroke:#F0F0F0;stroke-width:9.72"/>
	<line x1="2132.66" y1="1308.66" x2="2132.66" y2="1243.86" style="stroke:#F0F0F0;stroke-width:9.72"/>
	<line x1="2132.66" y1="1211.46" x2="2132.66" y2="1146.66" style="stroke:#F0F0F0;stroke-width:9.72"/>
	<line x1="2132.66" y1="1114.26" x2="2132.66" y2="1049.46" style="stroke:#F0F0F0;stroke-width:9.72"/>
	<line x1="2132.66" y1="1017.06" x2="2132.66" y2="952.26" style="stroke:#F0F0F0;stroke-width:9.72"/>
	<line x1="2132.66" y1="919.86" x2="2132.66" y2="855.06" style="stroke:#F0F0F0;stroke-width:9.72"/>
	<line x1="2132.66" y1="822.66" x2="2132.66" y2="757.86" style="stroke:#F0F0F0;stroke-width:9.72"/>
	<line x1="2132.66" y1="725.46" x2="2132.66" y2="660.66" style="stroke:#F0F0F0;stroke-width:9.72"/>
	<line x1="2132.66" y1="628.26" x2="2132.66" y2="563.46" style="stroke:#F0F0F0;stroke-width:9.72"/>
	<line x1="2132.66" y1="531.06" x2="2132.66" y2="466.26" style="stroke:#F0F0F0;stroke-width:9.72"/>
	<line x1="2132.66" y1="433.86" x2="2132.66" y2="369.06" style="stroke:#F0F0F0;stroke-width:9.72"/>
	<line x1="2132.66" y1="336.66" x2="2132.66" y2="309.82" style="stroke:#F0F0F0;stroke-width:9.72"/>
	<line x1="3636.39" y1="2766.66" x2="3636.39" y2="2701.86" style="stroke:#F0F0F0;stroke-width:9.72"/>
	<line x1="3636.39" y1="2669.46" x2="3636.39" y2="2604.66" style="stroke:#F0F0F0;stroke-width:9.72"/>
	<line x1="3636.39" y1="2572.26" x2="3636.39" y2="2507.46" style="stroke:#F0F0F0;stroke-width:9.72"/>
	<line x1="3636.39" y1="2475.06" x2="3636.39" y2="2410.26" style="stroke:#F0F0F0;stroke-width:9.72"/>
	<line x1="3636.39" y1="2377.86" x2="3636.39" y2="2313.06" style="stroke:#F0F0F0;stroke-width:9.72"/>
	<line x1="3636.39" y1="2280.66" x2="3636.39" y2="2215.86" style="stroke:#F0F0F0;stroke-width:9.72"/>
	<line x1="3636.39" y1="2183.46" x2="3636.39" y2="2118.66" style="stroke:#F0F0F0;stroke-width:9.72"/>
	<line x1="3636.39" y1="2086.26" x2="3636.39" y2="2021.46" style="stroke:#F0F0F0;stroke-width:9.72"/>
	<line x1="3636.39" y1="1989.06" x2="3636.39" y2="1924.26" style="stroke:#F0F0F0;stroke-width:9.72"/>
	<line x1="3636.39" y1="1891.86" x2="3636.39" y2="1827.06" style="stroke:#F0F0F0;stroke-width:9.72"/>
	<line x1="3636.39" y1="1794.66" x2="3636.39" y2="1729.86" style="stroke:#F0F0F0;stroke-width:9.72"/>
	<line x1="3636.39" y1="1697.46" x2="3636.39" y2="1632.66" style="stroke:#F0F0F0;stroke-width:9.72"/>
	<line x1="3636.39" y1="1600.26" x2="3636.39" y2="1535.46" style="stroke:#F0F0F0;stroke-width:9.72"/>
	<line x1="3636.39" y1="1503.06" x2="3636.39" y2="1438.26" style="stroke:#F0F0F0;stroke-width:9.72"/>
	<line x1="3636.39" y1="1405.86" x2="3636.39" y2="1341.06" style="stroke:#F0F0F0;stroke-width:9.72"/>
	<line x1="3636.39" y1="1308.66" x2="3636.39" y2="1243.86" style="stroke:#F0F0F0;stroke-width:9.72"/>
	<line x1="3636.39" y1="1211.46" x2="3636.39" y2="1146.66" style="stroke:#F0F0F0;stroke-width:9.72"/>
	<line x1="3636.39" y1="1114.26" x2="3636.39" y2="1049.46" style="stroke:#F0F0F0;stroke-width:9.72"/>
	<line x1="3636.39" y1="1017.06" x2="3636.39" y2="952.26" style="stroke:#F0F0F0;stroke-width:9.72"/>
	<line x1="3636.39" y1="919.86" x2="3636.39" y2="855.06" style="stroke:#F0F0F0;stroke-width:9.72"/>
	<line x1="3636.39" y1="822.66" x2="3636.39" y2="757.86" style="stroke:#F0F0F0;stroke-width:9.72"/>
	<line x1="3636.39" y1="725.46" x2="3636.39" y2="660.66" style="stroke:#F0F0F0;stroke-width:9.72"/>
	<line x1="3636.39" y1="628.26" x2="3636.39" y2="563.46" style="stroke:#F0F0F0;stroke-width:9.72"/>
	<line x1="3636.39" y1="531.06" x2="3636.39" y2="466.26" style="stroke:#F0F0F0;stroke-width:9.72"/>
	<line x1="3636.39" y1="433.86" x2="3636.39" y2="369.06" style="stroke:#F0F0F0;stroke-width:9.72"/>
	<line x1="3636.39" y1="336.66" x2="3636.39" y2="309.82" style="stroke:#F0F0F0;stroke-width:9.72"/>
	<line x1="5140.13" y1="2766.66" x2="5140.13" y2="2701.86" style="stroke:#F0F0F0;stroke-width:9.72"/>
	<line x1="5140.13" y1="2669.46" x2="5140.13" y2="2604.66" style="stroke:#F0F0F0;stroke-width:9.72"/>
	<line x1="5140.13" y1="2572.26" x2="5140.13" y2="2507.46" style="stroke:#F0F0F0;stroke-width:9.72"/>
	<line x1="5140.13" y1="2475.06" x2="5140.13" y2="2410.26" style="stroke:#F0F0F0;stroke-width:9.72"/>
	<line x1="5140.13" y1="2377.86" x2="5140.13" y2="2313.06" style="stroke:#F0F0F0;stroke-width:9.72"/>
	<line x1="5140.13" y1="2280.66" x2="5140.13" y2="2215.86" style="stroke:#F0F0F0;stroke-width:9.72"/>
	<line x1="5140.13" y1="2183.46" x2="5140.13" y2="2118.66" style="stroke:#F0F0F0;stroke-width:9.72"/>
	<line x1="5140.13" y1="2086.26" x2="5140.13" y2="2021.46" style="stroke:#F0F0F0;stroke-width:9.72"/>
	<line x1="5140.13" y1="1989.06" x2="5140.13" y2="1924.26" style="stroke:#F0F0F0;stroke-width:9.72"/>
	<line x1="5140.13" y1="1891.86" x2="5140.13" y2="1827.06" style="stroke:#F0F0F0;stroke-width:9.72"/>
	<line x1="5140.13" y1="1794.66" x2="5140.13" y2="1729.86" style="stroke:#F0F0F0;stroke-width:9.72"/>
	<line x1="5140.13" y1="1697.46" x2="5140.13" y2="1632.66" style="stroke:#F0F0F0;stroke-width:9.72"/>
	<line x1="5140.13" y1="1600.26" x2="5140.13" y2="1535.46" style="stroke:#F0F0F0;stroke-width:9.72"/>
	<line x1="5140.13" y1="1503.06" x2="5140.13" y2="1438.26" style="stroke:#F0F0F0;stroke-width:9.72"/>
	<line x1="5140.13" y1="1405.86" x2="5140.13" y2="1341.06" style="stroke:#F0F0F0;stroke-width:9.72"/>
	<line x1="5140.13" y1="1308.66" x2="5140.13" y2="1243.86" style="stroke:#F0F0F0;stroke-width:9.72"/>
	<line x1="5140.13" y1="1211.46" x2="5140.13" y2="1146.66" style="stroke:#F0F0F0;stroke-width:9.72"/>
	<line x1="5140.13" y1="1114.26" x2="5140.13" y2="1049.46" style="stroke:#F0F0F0;stroke-width:9.72"/>
	<line x1="5140.13" y1="1017.06" x2="5140.13" y2="952.26" style="stroke:#F0F0F0;stroke-width:9.72"/>
	<line x1="5140.13" y1="919.86" x2="5140.13" y2="855.06" style="stroke:#F0F0F0;stroke-width:9.72"/>
	<line x1="5140.13" y1="822.66" x2="5140.13" y2="757.86" style="stroke:#F0F0F0;stroke-width:9.72"/>
	<line x1="5140.13" y1="725.46" x2="5140.13" y2="660.66" style="stroke:#F0F0F0;stroke-width:9.72"/>
	<line x1="5140.13" y1="628.26" x2="5140.13" y2="563.46" style="stroke:#F0F0F0;stroke-width:9.72"/>
	<line x1="5140.13" y1="531.06" x2="5140.13" y2="466.26" style="stroke:#F0F0F0;stroke-width:9.72"/>
	<line x1="5140.13" y1="433.86" x2="5140.13" y2="369.06" style="stroke:#F0F0F0;stroke-width:9.72"/>
	<line x1="5140.13" y1="336.66" x2="5140.13" y2="309.82" style="stroke:#F0F0F0;stroke-width:9.72"/>
	<path d=" M628.93 493.43 L704.19 1441.97 L779.29 1636.71 L854.55 1521.45 L929.64 1682.61 L1004.91 1540.01 L1080.00 1657.29 L1155.26 1907.21 L1230.36 2152.41 L1305.62 2275.59 L1380.88 2271.71 L1455.98 1977.24 L1531.24 1871.10 L1606.33 2029.89 L1681.59 1757.70 L1756.69 1495.46 L1831.95 1586.59 L1907.04 1592.16 L1982.31 1588.61 L2057.40 1495.46 L2132.66 1499.01 L2207.93 1441.97 L2283.02 1385.61 L2358.28 1235.76 L2433.38 1200.32 L2508.64 1194.58 L2583.73 1174.84 L2658.99 1159.31 L2734.09 1250.61 L2809.35 1302.41 L2884.44 1296.51 L2959.71 1302.08 L3034.80 1258.71 L3110.06 1245.21 L3185.33 1406.03 L3260.42 1440.62 L3335.68 1473.19 L3410.78 1420.03 L3486.04 1314.90 L3561.13 1276.43 L3636.39 1358.10 L3711.49 1265.96 L3786.75 1215.17 L3861.84 1216.18 L3937.11 1297.52 L4012.20 1355.57 L4087.46 1438.76 L4162.73 1551.99 L4237.82 1421.21 L4313.08 1053.51 L4388.18 1197.79 L4463.44 1036.13 L4538.53 1148.18 L4613.79 1244.03 L4688.89 1150.71 L4764.15 1195.43 L4839.24 1367.55 L4914.51 1461.71 L4989.60 1172.31 L5064.86 1002.88 L5140.13 786.54 L5215.22 534.43" stroke-linejoin="round" style="fill:none;stroke:#1A85FF;stroke-width:9.72"/>
	<line x1="557.72" y1="2766.66" x2="557.72" y2="309.82" style="stroke:#000000;stroke-width:6.48"/>
	<line x1="557.72" y1="2695.28" x2="512.83" y2="2695.28" style="stroke:#000000;stroke-width:6.48"/>
	<text x="490.22" y="2734.71" style="font-family:'Helvetica';font-size:112.56px;fill:#000000" text-anchor="end">.7</text>
	<line x1="557.72" y1="2116.80" x2="512.83" y2="2116.80" style="stroke:#000000;stroke-width:6.48"/>
	<text x="490.22" y="2156.24" style="font-family:'Helvetica';font-size:112.56px;fill:#000000" text-anchor="end">.8</text>
	<line x1="557.72" y1="1538.16" x2="512.83" y2="1538.16" style="stroke:#000000;stroke-width:6.48"/>
	<text x="490.22" y="1577.59" style="font-family:'Helvetica';font-size:112.56px;fill:#000000" text-anchor="end">.9</text>
	<line x1="557.72" y1="959.68" x2="512.83" y2="959.68" style="stroke:#000000;stroke-width:6.48"/>
	<text x="490.22" y="999.12" style="font-family:'Helvetica';font-size:112.56px;fill:#000000" text-anchor="end">1</text>
	<line x1="557.72" y1="381.04" x2="512.83" y2="381.04" style="stroke:#000000;stroke-width:6.48"/>
	<text x="490.22" y="420.47" style="font-family:'Helvetica';font-size:112.56px;fill:#000000" text-anchor="end">1.1</text>
	<text x="214.55" y="1538.16" style="font-family:'Helvetica';font-size:112.56px;fill:#000000" transform="rotate(-90 214.55,1538.16)" text-anchor="middle">Military spending (%GdP)</text>
	<line x1="557.72" y1="2766.66" x2="5286.60" y2="2766.66" style="stroke:#000000;stroke-width:6.48"/>
	<line x1="629.10" y1="2766.66" x2="629.10" y2="2811.54" style="stroke:#000000;stroke-width:6.48"/>
	<text x="629.10" y="2912.86" style="font-family:'Helvetica';font-size:112.56px;fill:#000000" text-anchor="middle">1960</text>
	<line x1="2132.66" y1="2766.66" x2="2132.66" y2="2811.54" style="stroke:#000000;stroke-width:6.48"/>
	<text x="2132.66" y="2912.86" style="font-family:'Helvetica';font-size:112.56px;fill:#000000" text-anchor="middle">1980</text>
	<line x1="3636.39" y1="2766.66" x2="3636.39" y2="2811.54" style="stroke:#000000;stroke-width:6.48"/>
	<text x="3636.39" y="2912.86" style="font-family:'Helvetica';font-size:112.56px;fill:#000000" text-anchor="middle">2000</text>
	<line x1="5140.13" y1="2766.66" x2="5140.13" y2="2811.54" style="stroke:#000000;stroke-width:6.48"/>
	<text x="5140.13" y="2912.86" style="font-family:'Helvetica';font-size:112.56px;fill:#000000" text-anchor="middle">2020</text>
	<text x="2922.24" y="3070.31" style="font-family:'Helvetica';font-size:112.56px;fill:#000000" text-anchor="middle">year</text>
	<text x="2922.24" y="243.10" style="font-family:'Helvetica';font-size:157.44px;fill:#000000" text-anchor="middle">Japan Military Spending: 1960-2021</text>
</svg>
