<?xml version="1.0" encoding="UTF-8" standalone="no"?>
<!-- This is a Stata 18.0 generated SVG file (http://www.stata.com) -->

<svg version="1.1" width="7.500in" height="4.500in" viewBox="0 0 5400 3240" xmlns="http://www.w3.org/2000/svg" xmlns:xlink="http://www.w3.org/1999/xlink">
	<desc>Stata Graph - Graph</desc>
	<rect x="0" y="0" width="5400" height="3240" style="fill:#FFFFFF;stroke:none"/>
	<rect x="0.00" y="0.00" width="5400.00" height="3240.00" style="fill:#FFFFFF"/>
	<rect x="3.24" y="3.24" width="5393.52" height="3233.52" style="fill:none;stroke:#FFFFFF;stroke-width:6.48"/>
	<rect x="590.63" y="309.82" width="4695.98" height="2456.83" style="fill:#FFFFFF"/>
	<rect x="593.87" y="313.06" width="4689.50" height="2450.35" style="fill:none;stroke:#FFFFFF;stroke-width:6.48"/>
	<line x1="590.63" y1="1923.92" x2="655.43" y2="1923.92" style="stroke:#F0F0F0;stroke-width:9.72"/>
	<line x1="687.83" y1="1923.92" x2="752.63" y2="1923.92" style="stroke:#F0F0F0;stroke-width:9.72"/>
	<line x1="785.03" y1="1923.92" x2="849.83" y2="1923.92" style="stroke:#F0F0F0;stroke-width:9.72"/>
	<line x1="882.23" y1="1923.92" x2="947.03" y2="1923.92" style="stroke:#F0F0F0;stroke-width:9.72"/>
	<line x1="979.43" y1="1923.92" x2="1044.22" y2="1923.92" style="stroke:#F0F0F0;stroke-width:9.72"/>
	<line x1="1076.63" y1="1923.92" x2="1141.43" y2="1923.92" style="stroke:#F0F0F0;stroke-width:9.72"/>
	<line x1="1173.83" y1="1923.92" x2="1238.63" y2="1923.92" style="stroke:#F0F0F0;stroke-width:9.72"/>
	<line x1="1271.03" y1="1923.92" x2="1335.83" y2="1923.92" style="stroke:#F0F0F0;stroke-width:9.72"/>
	<line x1="1368.23" y1="1923.92" x2="1433.03" y2="1923.92" style="stroke:#F0F0F0;stroke-width:9.72"/>
	<line x1="1465.43" y1="1923.92" x2="1530.23" y2="1923.92" style="stroke:#F0F0F0;stroke-width:9.72"/>
	<line x1="1562.63" y1="1923.92" x2="1627.43" y2="1923.92" style="stroke:#F0F0F0;stroke-width:9.72"/>
	<line x1="1659.83" y1="1923.92" x2="1724.63" y2="1923.92" style="stroke:#F0F0F0;stroke-width:9.72"/>
	<line x1="1757.03" y1="1923.92" x2="1821.83" y2="1923.92" style="stroke:#F0F0F0;stroke-width:9.72"/>
	<line x1="1854.23" y1="1923.92" x2="1919.03" y2="1923.92" style="stroke:#F0F0F0;stroke-width:9.72"/>
	<line x1="1951.43" y1="1923.92" x2="2016.23" y2="1923.92" style="stroke:#F0F0F0;stroke-width:9.72"/>
	<line x1="2048.63" y1="1923.92" x2="2113.43" y2="1923.92" style="stroke:#F0F0F0;stroke-width:9.72"/>
	<line x1="2145.82" y1="1923.92" x2="2210.63" y2="1923.92" style="stroke:#F0F0F0;stroke-width:9.72"/>
	<line x1="2243.03" y1="1923.92" x2="2307.82" y2="1923.92" style="stroke:#F0F0F0;stroke-width:9.72"/>
	<line x1="2340.23" y1="1923.92" x2="2405.03" y2="1923.92" style="stroke:#F0F0F0;stroke-width:9.72"/>
	<line x1="2437.43" y1="1923.92" x2="2502.23" y2="1923.92" style="stroke:#F0F0F0;stroke-width:9.72"/>
	<line x1="2534.63" y1="1923.92" x2="2599.43" y2="1923.92" style="stroke:#F0F0F0;stroke-width:9.72"/>
	<line x1="2631.83" y1="1923.92" x2="2696.63" y2="1923.92" style="stroke:#F0F0F0;stroke-width:9.72"/>
	<line x1="2729.03" y1="1923.92" x2="2793.83" y2="1923.92" style="stroke:#F0F0F0;stroke-width:9.72"/>
	<line x1="2826.23" y1="1923.92" x2="2891.03" y2="1923.92" style="stroke:#F0F0F0;stroke-width:9.72"/>
	<line x1="2923.43" y1="1923.92" x2="2988.23" y2="1923.92" style="stroke:#F0F0F0;stroke-width:9.72"/>
	<line x1="3020.63" y1="1923.92" x2="3085.43" y2="1923.92" style="stroke:#F0F0F0;stroke-width:9.72"/>
	<line x1="3117.83" y1="1923.92" x2="3182.63" y2="1923.92" style="stroke:#F0F0F0;stroke-width:9.72"/>
	<line x1="3215.03" y1="1923.92" x2="3279.83" y2="1923.92" style="stroke:#F0F0F0;stroke-width:9.72"/>
	<line x1="3312.23" y1="1923.92" x2="3377.03" y2="1923.92" style="stroke:#F0F0F0;stroke-width:9.72"/>
	<line x1="3409.43" y1="1923.92" x2="3474.23" y2="1923.92" style="stroke:#F0F0F0;stroke-width:9.72"/>
	<line x1="3506.63" y1="1923.92" x2="3571.43" y2="1923.92" style="stroke:#F0F0F0;stroke-width:9.72"/>
	<line x1="3603.83" y1="1923.92" x2="3668.63" y2="1923.92" style="stroke:#F0F0F0;stroke-width:9.72"/>
	<line x1="3701.03" y1="1923.92" x2="3765.83" y2="1923.92" style="stroke:#F0F0F0;stroke-width:9.72"/>
	<line x1="3798.23" y1="1923.92" x2="3863.03" y2="1923.92" style="stroke:#F0F0F0;stroke-width:9.72"/>
	<line x1="3895.43" y1="1923.92" x2="3960.23" y2="1923.92" style="stroke:#F0F0F0;stroke-width:9.72"/>
	<line x1="3992.63" y1="1923.92" x2="4057.43" y2="1923.92" style="stroke:#F0F0F0;stroke-width:9.72"/>
	<line x1="4089.83" y1="1923.92" x2="4154.63" y2="1923.92" style="stroke:#F0F0F0;stroke-width:9.72"/>
	<line x1="4187.02" y1="1923.92" x2="4251.83" y2="1923.92" style="stroke:#F0F0F0;stroke-width:9.72"/>
	<line x1="4284.23" y1="1923.92" x2="4349.02" y2="1923.92" style="stroke:#F0F0F0;stroke-width:9.72"/>
	<line x1="4381.43" y1="1923.92" x2="4446.23" y2="1923.92" style="stroke:#F0F0F0;stroke-width:9.72"/>
	<line x1="4478.63" y1="1923.92" x2="4543.43" y2="1923.92" style="stroke:#F0F0F0;stroke-width:9.72"/>
	<line x1="4575.83" y1="1923.92" x2="4640.63" y2="1923.92" style="stroke:#F0F0F0;stroke-width:9.72"/>
	<line x1="4673.02" y1="1923.92" x2="4737.83" y2="1923.92" style="stroke:#F0F0F0;stroke-width:9.72"/>
	<line x1="4770.23" y1="1923.92" x2="4835.02" y2="1923.92" style="stroke:#F0F0F0;stroke-width:9.72"/>
	<line x1="4867.43" y1="1923.92" x2="4932.23" y2="1923.92" style="stroke:#F0F0F0;stroke-width:9.72"/>
	<line x1="4964.63" y1="1923.92" x2="5029.43" y2="1923.92" style="stroke:#F0F0F0;stroke-width:9.72"/>
	<line x1="5061.83" y1="1923.92" x2="5126.63" y2="1923.92" style="stroke:#F0F0F0;stroke-width:9.72"/>
	<line x1="5159.02" y1="1923.92" x2="5223.83" y2="1923.92" style="stroke:#F0F0F0;stroke-width:9.72"/>
	<line x1="5256.23" y1="1923.92" x2="5286.60" y2="1923.92" style="stroke:#F0F0F0;stroke-width:9.72"/>
	<line x1="590.63" y1="1152.56" x2="655.43" y2="1152.56" style="stroke:#F0F0F0;stroke-width:9.72"/>
	<line x1="687.83" y1="1152.56" x2="752.63" y2="1152.56" style="stroke:#F0F0F0;stroke-width:9.72"/>
	<line x1="785.03" y1="1152.56" x2="849.83" y2="1152.56" style="stroke:#F0F0F0;stroke-width:9.72"/>
	<line x1="882.23" y1="1152.56" x2="947.03" y2="1152.56" style="stroke:#F0F0F0;stroke-width:9.72"/>
	<line x1="979.43" y1="1152.56" x2="1044.22" y2="1152.56" style="stroke:#F0F0F0;stroke-width:9.72"/>
	<line x1="1076.63" y1="1152.56" x2="1141.43" y2="1152.56" style="stroke:#F0F0F0;stroke-width:9.72"/>
	<line x1="1173.83" y1="1152.56" x2="1238.63" y2="1152.56" style="stroke:#F0F0F0;stroke-width:9.72"/>
	<line x1="1271.03" y1="1152.56" x2="1335.83" y2="1152.56" style="stroke:#F0F0F0;stroke-width:9.72"/>
	<line x1="1368.23" y1="1152.56" x2="1433.03" y2="1152.56" style="stroke:#F0F0F0;stroke-width:9.72"/>
	<line x1="1465.43" y1="1152.56" x2="1530.23" y2="1152.56" style="stroke:#F0F0F0;stroke-width:9.72"/>
	<line x1="1562.63" y1="1152.56" x2="1627.43" y2="1152.56" style="stroke:#F0F0F0;stroke-width:9.72"/>
	<line x1="1659.83" y1="1152.56" x2="1724.63" y2="1152.56" style="stroke:#F0F0F0;stroke-width:9.72"/>
	<line x1="1757.03" y1="1152.56" x2="1821.83" y2="1152.56" style="stroke:#F0F0F0;stroke-width:9.72"/>
	<line x1="1854.23" y1="1152.56" x2="1919.03" y2="1152.56" style="stroke:#F0F0F0;stroke-width:9.72"/>
	<line x1="1951.43" y1="1152.56" x2="2016.23" y2="1152.56" style="stroke:#F0F0F0;stroke-width:9.72"/>
	<line x1="2048.63" y1="1152.56" x2="2113.43" y2="1152.56" style="stroke:#F0F0F0;stroke-width:9.72"/>
	<line x1="2145.82" y1="1152.56" x2="2210.63" y2="1152.56" style="stroke:#F0F0F0;stroke-width:9.72"/>
	<line x1="2243.03" y1="1152.56" x2="2307.82" y2="1152.56" style="stroke:#F0F0F0;stroke-width:9.72"/>
	<line x1="2340.23" y1="1152.56" x2="2405.03" y2="1152.56" style="stroke:#F0F0F0;stroke-width:9.72"/>
	<line x1="2437.43" y1="1152.56" x2="2502.23" y2="1152.56" style="stroke:#F0F0F0;stroke-width:9.72"/>
	<line x1="2534.63" y1="1152.56" x2="2599.43" y2="1152.56" style="stroke:#F0F0F0;stroke-width:9.72"/>
	<line x1="2631.83" y1="1152.56" x2="2696.63" y2="1152.56" style="stroke:#F0F0F0;stroke-width:9.72"/>
	<line x1="2729.03" y1="1152.56" x2="2793.83" y2="1152.56" style="stroke:#F0F0F0;stroke-width:9.72"/>
	<line x1="2826.23" y1="1152.56" x2="2891.03" y2="1152.56" style="stroke:#F0F0F0;stroke-width:9.72"/>
	<line x1="2923.43" y1="1152.56" x2="2988.23" y2="1152.56" style="stroke:#F0F0F0;stroke-width:9.72"/>
	<line x1="3020.63" y1="1152.56" x2="3085.43" y2="1152.56" style="stroke:#F0F0F0;stroke-width:9.72"/>
	<line x1="3117.83" y1="1152.56" x2="3182.63" y2="1152.56" style="stroke:#F0F0F0;stroke-width:9.72"/>
	<line x1="3215.03" y1="1152.56" x2="3279.83" y2="1152.56" style="stroke:#F0F0F0;stroke-width:9.72"/>
	<line x1="3312.23" y1="1152.56" x2="3377.03" y2="1152.56" style="stroke:#F0F0F0;stroke-width:9.72"/>
	<line x1="3409.43" y1="1152.56" x2="3474.23" y2="1152.56" style="stroke:#F0F0F0;stroke-width:9.72"/>
	<line x1="3506.63" y1="1152.56" x2="3571.43" y2="1152.56" style="stroke:#F0F0F0;stroke-width:9.72"/>
	<line x1="3603.83" y1="1152.56" x2="3668.63" y2="1152.56" style="stroke:#F0F0F0;stroke-width:9.72"/>
	<line x1="3701.03" y1="1152.56" x2="3765.83" y2="1152.56" style="stroke:#F0F0F0;stroke-width:9.72"/>
	<line x1="3798.23" y1="1152.56" x2="3863.03" y2="1152.56" style="stroke:#F0F0F0;stroke-width:9.72"/>
	<line x1="3895.43" y1="1152.56" x2="3960.23" y2="1152.56" style="stroke:#F0F0F0;stroke-width:9.72"/>
	<line x1="3992.63" y1="1152.56" x2="4057.43" y2="1152.56" style="stroke:#F0F0F0;stroke-width:9.72"/>
	<line x1="4089.83" y1="1152.56" x2="4154.63" y2="1152.56" style="stroke:#F0F0F0;stroke-width:9.72"/>
	<line x1="4187.02" y1="1152.56" x2="4251.83" y2="1152.56" style="stroke:#F0F0F0;stroke-width:9.72"/>
	<line x1="4284.23" y1="1152.56" x2="4349.02" y2="1152.56" style="stroke:#F0F0F0;stroke-width:9.72"/>
	<line x1="4381.43" y1="1152.56" x2="4446.23" y2="1152.56" style="stroke:#F0F0F0;stroke-width:9.72"/>
	<line x1="4478.63" y1="1152.56" x2="4543.43" y2="1152.56" style="stroke:#F0F0F0;stroke-width:9.72"/>
	<line x1="4575.83" y1="1152.56" x2="4640.63" y2="1152.56" style="stroke:#F0F0F0;stroke-width:9.72"/>
	<line x1="4673.02" y1="1152.56" x2="4737.83" y2="1152.56" style="stroke:#F0F0F0;stroke-width:9.72"/>
	<line x1="4770.23" y1="1152.56" x2="4835.02" y2="1152.56" style="stroke:#F0F0F0;stroke-width:9.72"/>
	<line x1="4867.43" y1="1152.56" x2="4932.23" y2="1152.56" style="stroke:#F0F0F0;stroke-width:9.72"/>
	<line x1="4964.63" y1="1152.56" x2="5029.43" y2="1152.56" style="stroke:#F0F0F0;stroke-width:9.72"/>
	<line x1="5061.83" y1="1152.56" x2="5126.63" y2="1152.56" style="stroke:#F0F0F0;stroke-width:9.72"/>
	<line x1="5159.02" y1="1152.56" x2="5223.83" y2="1152.56" style="stroke:#F0F0F0;stroke-width:9.72"/>
	<line x1="5256.23" y1="1152.56" x2="5286.60" y2="1152.56" style="stroke:#F0F0F0;stroke-width:9.72"/>
	<line x1="590.63" y1="381.04" x2="655.43" y2="381.04" style="stroke:#F0F0F0;stroke-width:9.72"/>
	<line x1="687.83" y1="381.04" x2="752.63" y2="381.04" style="stroke:#F0F0F0;stroke-width:9.72"/>
	<line x1="785.03" y1="381.04" x2="849.83" y2="381.04" style="stroke:#F0F0F0;stroke-width:9.72"/>
	<line x1="882.23" y1="381.04" x2="947.03" y2="381.04" style="stroke:#F0F0F0;stroke-width:9.72"/>
	<line x1="979.43" y1="381.04" x2="1044.22" y2="381.04" style="stroke:#F0F0F0;stroke-width:9.72"/>
	<line x1="1076.63" y1="381.04" x2="1141.43" y2="381.04" style="stroke:#F0F0F0;stroke-width:9.72"/>
	<line x1="1173.83" y1="381.04" x2="1238.63" y2="381.04" style="stroke:#F0F0F0;stroke-width:9.72"/>
	<line x1="1271.03" y1="381.04" x2="1335.83" y2="381.04" style="stroke:#F0F0F0;stroke-width:9.72"/>
	<line x1="1368.23" y1="381.04" x2="1433.03" y2="381.04" style="stroke:#F0F0F0;stroke-width:9.72"/>
	<line x1="1465.43" y1="381.04" x2="1530.23" y2="381.04" style="stroke:#F0F0F0;stroke-width:9.72"/>
	<line x1="1562.63" y1="381.04" x2="1627.43" y2="381.04" style="stroke:#F0F0F0;stroke-width:9.72"/>
	<line x1="1659.83" y1="381.04" x2="1724.63" y2="381.04" style="stroke:#F0F0F0;stroke-width:9.72"/>
	<line x1="1757.03" y1="381.04" x2="1821.83" y2="381.04" style="stroke:#F0F0F0;stroke-width:9.72"/>
	<line x1="1854.23" y1="381.04" x2="1919.03" y2="381.04" style="stroke:#F0F0F0;stroke-width:9.72"/>
	<line x1="1951.43" y1="381.04" x2="2016.23" y2="381.04" style="stroke:#F0F0F0;stroke-width:9.72"/>
	<line x1="2048.63" y1="381.04" x2="2113.43" y2="381.04" style="stroke:#F0F0F0;stroke-width:9.72"/>
	<line x1="2145.82" y1="381.04" x2="2210.63" y2="381.04" style="stroke:#F0F0F0;stroke-width:9.72"/>
	<line x1="2243.03" y1="381.04" x2="2307.82" y2="381.04" style="stroke:#F0F0F0;stroke-width:9.72"/>
	<line x1="2340.23" y1="381.04" x2="2405.03" y2="381.04" style="stroke:#F0F0F0;stroke-width:9.72"/>
	<line x1="2437.43" y1="381.04" x2="2502.23" y2="381.04" style="stroke:#F0F0F0;stroke-width:9.72"/>
	<line x1="2534.63" y1="381.04" x2="2599.43" y2="381.04" style="stroke:#F0F0F0;stroke-width:9.72"/>
	<line x1="2631.83" y1="381.04" x2="2696.63" y2="381.04" style="stroke:#F0F0F0;stroke-width:9.72"/>
	<line x1="2729.03" y1="381.04" x2="2793.83" y2="381.04" style="stroke:#F0F0F0;stroke-width:9.72"/>
	<line x1="2826.23" y1="381.04" x2="2891.03" y2="381.04" style="stroke:#F0F0F0;stroke-width:9.72"/>
	<line x1="2923.43" y1="381.04" x2="2988.23" y2="381.04" style="stroke:#F0F0F0;stroke-width:9.72"/>
	<line x1="3020.63" y1="381.04" x2="3085.43" y2="381.04" style="stroke:#F0F0F0;stroke-width:9.72"/>
	<line x1="3117.83" y1="381.04" x2="3182.63" y2="381.04" style="stroke:#F0F0F0;stroke-width:9.72"/>
	<line x1="3215.03" y1="381.04" x2="3279.83" y2="381.04" style="stroke:#F0F0F0;stroke-width:9.72"/>
	<line x1="3312.23" y1="381.04" x2="3377.03" y2="381.04" style="stroke:#F0F0F0;stroke-width:9.72"/>
	<line x1="3409.43" y1="381.04" x2="3474.23" y2="381.04" style="stroke:#F0F0F0;stroke-width:9.72"/>
	<line x1="3506.63" y1="381.04" x2="3571.43" y2="381.04" style="stroke:#F0F0F0;stroke-width:9.72"/>
	<line x1="3603.83" y1="381.04" x2="3668.63" y2="381.04" style="stroke:#F0F0F0;stroke-width:9.72"/>
	<line x1="3701.03" y1="381.04" x2="3765.83" y2="381.04" style="stroke:#F0F0F0;stroke-width:9.72"/>
	<line x1="3798.23" y1="381.04" x2="3863.03" y2="381.04" style="stroke:#F0F0F0;stroke-width:9.72"/>
	<line x1="3895.43" y1="381.04" x2="3960.23" y2="381.04" style="stroke:#F0F0F0;stroke-width:9.72"/>
	<line x1="3992.63" y1="381.04" x2="4057.43" y2="381.04" style="stroke:#F0F0F0;stroke-width:9.72"/>
	<line x1="4089.83" y1="381.04" x2="4154.63" y2="381.04" style="stroke:#F0F0F0;stroke-width:9.72"/>
	<line x1="4187.02" y1="381.04" x2="4251.83" y2="381.04" style="stroke:#F0F0F0;stroke-width:9.72"/>
	<line x1="4284.23" y1="381.04" x2="4349.02" y2="381.04" style="stroke:#F0F0F0;stroke-width:9.72"/>
	<line x1="4381.43" y1="381.04" x2="4446.23" y2="381.04" style="stroke:#F0F0F0;stroke-width:9.72"/>
	<line x1="4478.63" y1="381.04" x2="4543.43" y2="381.04" style="stroke:#F0F0F0;stroke-width:9.72"/>
	<line x1="4575.83" y1="381.04" x2="4640.63" y2="381.04" style="stroke:#F0F0F0;stroke-width:9.72"/>
	<line x1="4673.02" y1="381.04" x2="4737.83" y2="381.04" style="stroke:#F0F0F0;stroke-width:9.72"/>
	<line x1="4770.23" y1="381.04" x2="4835.02" y2="381.04" style="stroke:#F0F0F0;stroke-width:9.72"/>
	<line x1="4867.43" y1="381.04" x2="4932.23" y2="381.04" style="stroke:#F0F0F0;stroke-width:9.72"/>
	<line x1="4964.63" y1="381.04" x2="5029.43" y2="381.04" style="stroke:#F0F0F0;stroke-width:9.72"/>
	<line x1="5061.83" y1="381.04" x2="5126.63" y2="381.04" style="stroke:#F0F0F0;stroke-width:9.72"/>
	<line x1="5159.02" y1="381.04" x2="5223.83" y2="381.04" style="stroke:#F0F0F0;stroke-width:9.72"/>
	<line x1="5256.23" y1="381.04" x2="5286.60" y2="381.04" style="stroke:#F0F0F0;stroke-width:9.72"/>
	<line x1="661.84" y1="2766.66" x2="661.84" y2="2701.86" style="stroke:#F0F0F0;stroke-width:9.72"/>
	<line x1="661.84" y1="2669.46" x2="661.84" y2="2604.66" style="stroke:#F0F0F0;stroke-width:9.72"/>
	<line x1="661.84" y1="2572.26" x2="661.84" y2="2507.46" style="stroke:#F0F0F0;stroke-width:9.72"/>
	<line x1="661.84" y1="2475.06" x2="661.84" y2="2410.26" style="stroke:#F0F0F0;stroke-width:9.72"/>
	<line x1="661.84" y1="2377.86" x2="661.84" y2="2313.06" style="stroke:#F0F0F0;stroke-width:9.72"/>
	<line x1="661.84" y1="2280.66" x2="661.84" y2="2215.86" style="stroke:#F0F0F0;stroke-width:9.72"/>
	<line x1="661.84" y1="2183.46" x2="661.84" y2="2118.66" style="stroke:#F0F0F0;stroke-width:9.72"/>
	<line x1="661.84" y1="2086.26" x2="661.84" y2="2021.46" style="stroke:#F0F0F0;stroke-width:9.72"/>
	<line x1="661.84" y1="1989.06" x2="661.84" y2="1924.26" style="stroke:#F0F0F0;stroke-width:9.72"/>
	<line x1="661.84" y1="1891.86" x2="661.84" y2="1827.06" style="stroke:#F0F0F0;stroke-width:9.72"/>
	<line x1="661.84" y1="1794.66" x2="661.84" y2="1729.86" style="stroke:#F0F0F0;stroke-width:9.72"/>
	<line x1="661.84" y1="1697.46" x2="661.84" y2="1632.66" style="stroke:#F0F0F0;stroke-width:9.72"/>
	<line x1="661.84" y1="1600.26" x2="661.84" y2="1535.46" style="stroke:#F0F0F0;stroke-width:9.72"/>
	<line x1="661.84" y1="1503.06" x2="661.84" y2="1438.26" style="stroke:#F0F0F0;stroke-width:9.72"/>
	<line x1="661.84" y1="1405.86" x2="661.84" y2="1341.06" style="stroke:#F0F0F0;stroke-width:9.72"/>
	<line x1="661.84" y1="1308.66" x2="661.84" y2="1243.86" style="stroke:#F0F0F0;stroke-width:9.72"/>
	<line x1="661.84" y1="1211.46" x2="661.84" y2="1146.66" style="stroke:#F0F0F0;stroke-width:9.72"/>
	<line x1="661.84" y1="1114.26" x2="661.84" y2="1049.46" style="stroke:#F0F0F0;stroke-width:9.72"/>
	<line x1="661.84" y1="1017.06" x2="661.84" y2="952.26" style="stroke:#F0F0F0;stroke-width:9.72"/>
	<line x1="661.84" y1="919.86" x2="661.84" y2="855.06" style="stroke:#F0F0F0;stroke-width:9.72"/>
	<line x1="661.84" y1="822.66" x2="661.84" y2="757.86" style="stroke:#F0F0F0;stroke-width:9.72"/>
	<line x1="661.84" y1="725.46" x2="661.84" y2="660.66" style="stroke:#F0F0F0;stroke-width:9.72"/>
	<line x1="661.84" y1="628.26" x2="661.84" y2="563.46" style="stroke:#F0F0F0;stroke-width:9.72"/>
	<line x1="661.84" y1="531.06" x2="661.84" y2="466.26" style="stroke:#F0F0F0;stroke-width:9.72"/>
	<line x1="661.84" y1="433.86" x2="661.84" y2="369.06" style="stroke:#F0F0F0;stroke-width:9.72"/>
	<line x1="661.84" y1="336.66" x2="661.84" y2="309.82" style="stroke:#F0F0F0;stroke-width:9.72"/>
	<line x1="1554.69" y1="2766.66" x2="1554.69" y2="2701.86" style="stroke:#F0F0F0;stroke-width:9.72"/>
	<line x1="1554.69" y1="2669.46" x2="1554.69" y2="2604.66" style="stroke:#F0F0F0;stroke-width:9.72"/>
	<line x1="1554.69" y1="2572.26" x2="1554.69" y2="2507.46" style="stroke:#F0F0F0;stroke-width:9.72"/>
	<line x1="1554.69" y1="2475.06" x2="1554.69" y2="2410.26" style="stroke:#F0F0F0;stroke-width:9.72"/>
	<line x1="1554.69" y1="2377.86" x2="1554.69" y2="2313.06" style="stroke:#F0F0F0;stroke-width:9.72"/>
	<line x1="1554.69" y1="2280.66" x2="1554.69" y2="2215.86" style="stroke:#F0F0F0;stroke-width:9.72"/>
	<line x1="1554.69" y1="2183.46" x2="1554.69" y2="2118.66" style="stroke:#F0F0F0;stroke-width:9.72"/>
	<line x1="1554.69" y1="2086.26" x2="1554.69" y2="2021.46" style="stroke:#F0F0F0;stroke-width:9.72"/>
	<line x1="1554.69" y1="1989.06" x2="1554.69" y2="1924.26" style="stroke:#F0F0F0;stroke-width:9.72"/>
	<line x1="1554.69" y1="1891.86" x2="1554.69" y2="1827.06" style="stroke:#F0F0F0;stroke-width:9.72"/>
	<line x1="1554.69" y1="1794.66" x2="1554.69" y2="1729.86" style="stroke:#F0F0F0;stroke-width:9.72"/>
	<line x1="1554.69" y1="1697.46" x2="1554.69" y2="1632.66" style="stroke:#F0F0F0;stroke-width:9.72"/>
	<line x1="1554.69" y1="1600.26" x2="1554.69" y2="1535.46" style="stroke:#F0F0F0;stroke-width:9.72"/>
	<line x1="1554.69" y1="1503.06" x2="1554.69" y2="1438.26" style="stroke:#F0F0F0;stroke-width:9.72"/>
	<line x1="1554.69" y1="1405.86" x2="1554.69" y2="1341.06" style="stroke:#F0F0F0;stroke-width:9.72"/>
	<line x1="1554.69" y1="1308.66" x2="1554.69" y2="1243.86" style="stroke:#F0F0F0;stroke-width:9.72"/>
	<line x1="1554.69" y1="1211.46" x2="1554.69" y2="1146.66" style="stroke:#F0F0F0;stroke-width:9.72"/>
	<line x1="1554.69" y1="1114.26" x2="1554.69" y2="1049.46" style="stroke:#F0F0F0;stroke-width:9.72"/>
	<line x1="1554.69" y1="1017.06" x2="1554.69" y2="952.26" style="stroke:#F0F0F0;stroke-width:9.72"/>
	<line x1="1554.69" y1="919.86" x2="1554.69" y2="855.06" style="stroke:#F0F0F0;stroke-width:9.72"/>
	<line x1="1554.69" y1="822.66" x2="1554.69" y2="757.86" style="stroke:#F0F0F0;stroke-width:9.72"/>
	<line x1="1554.69" y1="725.46" x2="1554.69" y2="660.66" style="stroke:#F0F0F0;stroke-width:9.72"/>
	<line x1="1554.69" y1="628.26" x2="1554.69" y2="563.46" style="stroke:#F0F0F0;stroke-width:9.72"/>
	<line x1="1554.69" y1="531.06" x2="1554.69" y2="466.26" style="stroke:#F0F0F0;stroke-width:9.72"/>
	<line x1="1554.69" y1="433.86" x2="1554.69" y2="369.06" style="stroke:#F0F0F0;stroke-width:9.72"/>
	<line x1="1554.69" y1="336.66" x2="1554.69" y2="309.82" style="stroke:#F0F0F0;stroke-width:9.72"/>
	<line x1="2447.55" y1="2766.66" x2="2447.55" y2="2701.86" style="stroke:#F0F0F0;stroke-width:9.72"/>
	<line x1="2447.55" y1="2669.46" x2="2447.55" y2="2604.66" style="stroke:#F0F0F0;stroke-width:9.72"/>
	<line x1="2447.55" y1="2572.26" x2="2447.55" y2="2507.46" style="stroke:#F0F0F0;stroke-width:9.72"/>
	<line x1="2447.55" y1="2475.06" x2="2447.55" y2="2410.26" style="stroke:#F0F0F0;stroke-width:9.72"/>
	<line x1="2447.55" y1="2377.86" x2="2447.55" y2="2313.06" style="stroke:#F0F0F0;stroke-width:9.72"/>
	<line x1="2447.55" y1="2280.66" x2="2447.55" y2="2215.86" style="stroke:#F0F0F0;stroke-width:9.72"/>
	<line x1="2447.55" y1="2183.46" x2="2447.55" y2="2118.66" style="stroke:#F0F0F0;stroke-width:9.72"/>
	<line x1="2447.55" y1="2086.26" x2="2447.55" y2="2021.46" style="stroke:#F0F0F0;stroke-width:9.72"/>
	<line x1="2447.55" y1="1989.06" x2="2447.55" y2="1924.26" style="stroke:#F0F0F0;stroke-width:9.72"/>
	<line x1="2447.55" y1="1891.86" x2="2447.55" y2="1827.06" style="stroke:#F0F0F0;stroke-width:9.72"/>
	<line x1="2447.55" y1="1794.66" x2="2447.55" y2="1729.86" style="stroke:#F0F0F0;stroke-width:9.72"/>
	<line x1="2447.55" y1="1697.46" x2="2447.55" y2="1632.66" style="stroke:#F0F0F0;stroke-width:9.72"/>
	<line x1="2447.55" y1="1600.26" x2="2447.55" y2="1535.46" style="stroke:#F0F0F0;stroke-width:9.72"/>
	<line x1="2447.55" y1="1503.06" x2="2447.55" y2="1438.26" style="stroke:#F0F0F0;stroke-width:9.72"/>
	<line x1="2447.55" y1="1405.86" x2="2447.55" y2="1341.06" style="stroke:#F0F0F0;stroke-width:9.72"/>
	<line x1="2447.55" y1="1308.66" x2="2447.55" y2="1243.86" style="stroke:#F0F0F0;stroke-width:9.72"/>
	<line x1="2447.55" y1="1211.46" x2="2447.55" y2="1146.66" style="stroke:#F0F0F0;stroke-width:9.72"/>
	<line x1="2447.55" y1="1114.26" x2="2447.55" y2="1049.46" style="stroke:#F0F0F0;stroke-width:9.72"/>
	<line x1="2447.55" y1="1017.06" x2="2447.55" y2="952.26" style="stroke:#F0F0F0;stroke-width:9.72"/>
	<line x1="2447.55" y1="919.86" x2="2447.55" y2="855.06" style="stroke:#F0F0F0;stroke-width:9.72"/>
	<line x1="2447.55" y1="822.66" x2="2447.55" y2="757.86" style="stroke:#F0F0F0;stroke-width:9.72"/>
	<line x1="2447.55" y1="725.46" x2="2447.55" y2="660.66" style="stroke:#F0F0F0;stroke-width:9.72"/>
	<line x1="2447.55" y1="628.26" x2="2447.55" y2="563.46" style="stroke:#F0F0F0;stroke-width:9.72"/>
	<line x1="2447.55" y1="531.06" x2="2447.55" y2="466.26" style="stroke:#F0F0F0;stroke-width:9.72"/>
	<line x1="2447.55" y1="433.86" x2="2447.55" y2="369.06" style="stroke:#F0F0F0;stroke-width:9.72"/>
	<line x1="2447.55" y1="336.66" x2="2447.55" y2="309.82" style="stroke:#F0F0F0;stroke-width:9.72"/>
	<line x1="3340.41" y1="2766.66" x2="3340.41" y2="2701.86" style="stroke:#F0F0F0;stroke-width:9.72"/>
	<line x1="3340.41" y1="2669.46" x2="3340.41" y2="2604.66" style="stroke:#F0F0F0;stroke-width:9.72"/>
	<line x1="3340.41" y1="2572.26" x2="3340.41" y2="2507.46" style="stroke:#F0F0F0;stroke-width:9.72"/>
	<line x1="3340.41" y1="2475.06" x2="3340.41" y2="2410.26" style="stroke:#F0F0F0;stroke-width:9.72"/>
	<line x1="3340.41" y1="2377.86" x2="3340.41" y2="2313.06" style="stroke:#F0F0F0;stroke-width:9.72"/>
	<line x1="3340.41" y1="2280.66" x2="3340.41" y2="2215.86" style="stroke:#F0F0F0;stroke-width:9.72"/>
	<line x1="3340.41" y1="2183.46" x2="3340.41" y2="2118.66" style="stroke:#F0F0F0;stroke-width:9.72"/>
	<line x1="3340.41" y1="2086.26" x2="3340.41" y2="2021.46" style="stroke:#F0F0F0;stroke-width:9.72"/>
	<line x1="3340.41" y1="1989.06" x2="3340.41" y2="1924.26" style="stroke:#F0F0F0;stroke-width:9.72"/>
	<line x1="3340.41" y1="1891.86" x2="3340.41" y2="1827.06" style="stroke:#F0F0F0;stroke-width:9.72"/>
	<line x1="3340.41" y1="1794.66" x2="3340.41" y2="1729.86" style="stroke:#F0F0F0;stroke-width:9.72"/>
	<line x1="3340.41" y1="1697.46" x2="3340.41" y2="1632.66" style="stroke:#F0F0F0;stroke-width:9.72"/>
	<line x1="3340.41" y1="1600.26" x2="3340.41" y2="1535.46" style="stroke:#F0F0F0;stroke-width:9.72"/>
	<line x1="3340.41" y1="1503.06" x2="3340.41" y2="1438.26" style="stroke:#F0F0F0;stroke-width:9.72"/>
	<line x1="3340.41" y1="1405.86" x2="3340.41" y2="1341.06" style="stroke:#F0F0F0;stroke-width:9.72"/>
	<line x1="3340.41" y1="1308.66" x2="3340.41" y2="1243.86" style="stroke:#F0F0F0;stroke-width:9.72"/>
	<line x1="3340.41" y1="1211.46" x2="3340.41" y2="1146.66" style="stroke:#F0F0F0;stroke-width:9.72"/>
	<line x1="3340.41" y1="1114.26" x2="3340.41" y2="1049.46" style="stroke:#F0F0F0;stroke-width:9.72"/>
	<line x1="3340.41" y1="1017.06" x2="3340.41" y2="952.26" style="stroke:#F0F0F0;stroke-width:9.72"/>
	<line x1="3340.41" y1="919.86" x2="3340.41" y2="855.06" style="stroke:#F0F0F0;stroke-width:9.72"/>
	<line x1="3340.41" y1="822.66" x2="3340.41" y2="757.86" style="stroke:#F0F0F0;stroke-width:9.72"/>
	<line x1="3340.41" y1="725.46" x2="3340.41" y2="660.66" style="stroke:#F0F0F0;stroke-width:9.72"/>
	<line x1="3340.41" y1="628.26" x2="3340.41" y2="563.46" style="stroke:#F0F0F0;stroke-width:9.72"/>
	<line x1="3340.41" y1="531.06" x2="3340.41" y2="466.26" style="stroke:#F0F0F0;stroke-width:9.72"/>
	<line x1="3340.41" y1="433.86" x2="3340.41" y2="369.06" style="stroke:#F0F0F0;stroke-width:9.72"/>
	<line x1="3340.41" y1="336.66" x2="3340.41" y2="309.82" style="stroke:#F0F0F0;stroke-width:9.72"/>
	<line x1="4233.26" y1="2766.66" x2="4233.26" y2="2701.86" style="stroke:#F0F0F0;stroke-width:9.72"/>
	<line x1="4233.26" y1="2669.46" x2="4233.26" y2="2604.66" style="stroke:#F0F0F0;stroke-width:9.72"/>
	<line x1="4233.26" y1="2572.26" x2="4233.26" y2="2507.46" style="stroke:#F0F0F0;stroke-width:9.72"/>
	<line x1="4233.26" y1="2475.06" x2="4233.26" y2="2410.26" style="stroke:#F0F0F0;stroke-width:9.72"/>
	<line x1="4233.26" y1="2377.86" x2="4233.26" y2="2313.06" style="stroke:#F0F0F0;stroke-width:9.72"/>
	<line x1="4233.26" y1="2280.66" x2="4233.26" y2="2215.86" style="stroke:#F0F0F0;stroke-width:9.72"/>
	<line x1="4233.26" y1="2183.46" x2="4233.26" y2="2118.66" style="stroke:#F0F0F0;stroke-width:9.72"/>
	<line x1="4233.26" y1="2086.26" x2="4233.26" y2="2021.46" style="stroke:#F0F0F0;stroke-width:9.72"/>
	<line x1="4233.26" y1="1989.06" x2="4233.26" y2="1924.26" style="stroke:#F0F0F0;stroke-width:9.72"/>
	<line x1="4233.26" y1="1891.86" x2="4233.26" y2="1827.06" style="stroke:#F0F0F0;stroke-width:9.72"/>
	<line x1="4233.26" y1="1794.66" x2="4233.26" y2="1729.86" style="stroke:#F0F0F0;stroke-width:9.72"/>
	<line x1="4233.26" y1="1697.46" x2="4233.26" y2="1632.66" style="stroke:#F0F0F0;stroke-width:9.72"/>
	<line x1="4233.26" y1="1600.26" x2="4233.26" y2="1535.46" style="stroke:#F0F0F0;stroke-width:9.72"/>
	<line x1="4233.26" y1="1503.06" x2="4233.26" y2="1438.26" style="stroke:#F0F0F0;stroke-width:9.72"/>
	<line x1="4233.26" y1="1405.86" x2="4233.26" y2="1341.06" style="stroke:#F0F0F0;stroke-width:9.72"/>
	<line x1="4233.26" y1="1308.66" x2="4233.26" y2="1243.86" style="stroke:#F0F0F0;stroke-width:9.72"/>
	<line x1="4233.26" y1="1211.46" x2="4233.26" y2="1146.66" style="stroke:#F0F0F0;stroke-width:9.72"/>
	<line x1="4233.26" y1="1114.26" x2="4233.26" y2="1049.46" style="stroke:#F0F0F0;stroke-width:9.72"/>
	<line x1="4233.26" y1="1017.06" x2="4233.26" y2="952.26" style="stroke:#F0F0F0;stroke-width:9.72"/>
	<line x1="4233.26" y1="919.86" x2="4233.26" y2="855.06" style="stroke:#F0F0F0;stroke-width:9.72"/>
	<line x1="4233.26" y1="822.66" x2="4233.26" y2="757.86" style="stroke:#F0F0F0;stroke-width:9.72"/>
	<line x1="4233.26" y1="725.46" x2="4233.26" y2="660.66" style="stroke:#F0F0F0;stroke-width:9.72"/>
	<line x1="4233.26" y1="628.26" x2="4233.26" y2="563.46" style="stroke:#F0F0F0;stroke-width:9.72"/>
	<line x1="4233.26" y1="531.06" x2="4233.26" y2="466.26" style="stroke:#F0F0F0;stroke-width:9.72"/>
	<line x1="4233.26" y1="433.86" x2="4233.26" y2="369.06" style="stroke:#F0F0F0;stroke-width:9.72"/>
	<line x1="4233.26" y1="336.66" x2="4233.26" y2="309.82" style="stroke:#F0F0F0;stroke-width:9.72"/>
	<line x1="5126.12" y1="2766.66" x2="5126.12" y2="2701.86" style="stroke:#F0F0F0;stroke-width:9.72"/>
	<line x1="5126.12" y1="2669.46" x2="5126.12" y2="2604.66" style="stroke:#F0F0F0;stroke-width:9.72"/>
	<line x1="5126.12" y1="2572.26" x2="5126.12" y2="2507.46" style="stroke:#F0F0F0;stroke-width:9.72"/>
	<line x1="5126.12" y1="2475.06" x2="5126.12" y2="2410.26" style="stroke:#F0F0F0;stroke-width:9.72"/>
	<line x1="5126.12" y1="2377.86" x2="5126.12" y2="2313.06" style="stroke:#F0F0F0;stroke-width:9.72"/>
	<line x1="5126.12" y1="2280.66" x2="5126.12" y2="2215.86" style="stroke:#F0F0F0;stroke-width:9.72"/>
	<line x1="5126.12" y1="2183.46" x2="5126.12" y2="2118.66" style="stroke:#F0F0F0;stroke-width:9.72"/>
	<line x1="5126.12" y1="2086.26" x2="5126.12" y2="2021.46" style="stroke:#F0F0F0;stroke-width:9.72"/>
	<line x1="5126.12" y1="1989.06" x2="5126.12" y2="1924.26" style="stroke:#F0F0F0;stroke-width:9.72"/>
	<line x1="5126.12" y1="1891.86" x2="5126.12" y2="1827.06" style="stroke:#F0F0F0;stroke-width:9.72"/>
	<line x1="5126.12" y1="1794.66" x2="5126.12" y2="1729.86" style="stroke:#F0F0F0;stroke-width:9.72"/>
	<line x1="5126.12" y1="1697.46" x2="5126.12" y2="1632.66" style="stroke:#F0F0F0;stroke-width:9.72"/>
	<line x1="5126.12" y1="1600.26" x2="5126.12" y2="1535.46" style="stroke:#F0F0F0;stroke-width:9.72"/>
	<line x1="5126.12" y1="1503.06" x2="5126.12" y2="1438.26" style="stroke:#F0F0F0;stroke-width:9.72"/>
	<line x1="5126.12" y1="1405.86" x2="5126.12" y2="1341.06" style="stroke:#F0F0F0;stroke-width:9.72"/>
	<line x1="5126.12" y1="1308.66" x2="5126.12" y2="1243.86" style="stroke:#F0F0F0;stroke-width:9.72"/>
	<line x1="5126.12" y1="1211.46" x2="5126.12" y2="1146.66" style="stroke:#F0F0F0;stroke-width:9.72"/>
	<line x1="5126.12" y1="1114.26" x2="5126.12" y2="1049.46" style="stroke:#F0F0F0;stroke-width:9.72"/>
	<line x1="5126.12" y1="1017.06" x2="5126.12" y2="952.26" style="stroke:#F0F0F0;stroke-width:9.72"/>
	<line x1="5126.12" y1="919.86" x2="5126.12" y2="855.06" style="stroke:#F0F0F0;stroke-width:9.72"/>
	<line x1="5126.12" y1="822.66" x2="5126.12" y2="757.86" style="stroke:#F0F0F0;stroke-width:9.72"/>
	<line x1="5126.12" y1="725.46" x2="5126.12" y2="660.66" style="stroke:#F0F0F0;stroke-width:9.72"/>
	<line x1="5126.12" y1="628.26" x2="5126.12" y2="563.46" style="stroke:#F0F0F0;stroke-width:9.72"/>
	<line x1="5126.12" y1="531.06" x2="5126.12" y2="466.26" style="stroke:#F0F0F0;stroke-width:9.72"/>
	<line x1="5126.12" y1="433.86" x2="5126.12" y2="369.06" style="stroke:#F0F0F0;stroke-width:9.72"/>
	<line x1="5126.12" y1="336.66" x2="5126.12" y2="309.82" style="stroke:#F0F0F0;stroke-width:9.72"/>
	<path d=" M1108.18 2016.23 L1197.45 1913.96 L1286.72 1936.74 L1375.99 1946.03 L1465.26 1974.54 L1554.53 1988.72 L1643.96 1999.52 L1733.23 2007.28 L1822.50 1997.33 L1911.77 1998.51 L2001.04 1988.04 L2090.31 1986.02 L2179.57 1971.51 L2268.84 1963.41 L2358.11 1961.04 L2447.38 1947.21 L2536.65 1920.21 L2626.09 1880.72 L2715.36 1864.18 L2804.63 1839.88 L2893.89 1811.70 L2983.16 1802.42 L3072.43 1789.76 L3161.70 1743.02 L3250.97 1713.83 L3340.24 1687.16 L3429.51 1687.16 L3518.78 1635.86 L3608.21 1615.44 L3697.48 1580.34 L3786.75 1647.51 L3876.02 1653.24 L3965.29 1605.32 L4054.56 1564.82 L4143.83 1472.01 L4233.09 1487.36 L4322.36 1437.92 L4411.63 1404.00 L4500.90 1406.70 L4590.17 1379.03 L4679.61 1373.63 L4768.88 1329.92 L4858.14 1326.88 L4947.41 1289.08 L5036.68 1286.72 L5125.95 1249.76 L5215.22 1233.90" stroke-linejoin="round" style="fill:none;stroke:#1A85FF;stroke-width:9.72"/>
	<line x1="590.63" y1="2766.66" x2="590.63" y2="309.82" style="stroke:#000000;stroke-width:6.48"/>
	<line x1="590.63" y1="2695.28" x2="545.57" y2="2695.28" style="stroke:#000000;stroke-width:6.48"/>
	<text x="523.13" y="2734.71" style="font-family:'Helvetica';font-size:112.56px;fill:#000000" text-anchor="end">40</text>
	<line x1="590.63" y1="1923.92" x2="545.57" y2="1923.92" style="stroke:#000000;stroke-width:6.48"/>
	<text x="523.13" y="1963.36" style="font-family:'Helvetica';font-size:112.56px;fill:#000000" text-anchor="end">60</text>
	<line x1="590.63" y1="1152.56" x2="545.57" y2="1152.56" style="stroke:#000000;stroke-width:6.48"/>
	<text x="523.13" y="1192.00" style="font-family:'Helvetica';font-size:112.56px;fill:#000000" text-anchor="end">80</text>
	<line x1="590.63" y1="381.04" x2="545.57" y2="381.04" style="stroke:#000000;stroke-width:6.48"/>
	<text x="523.13" y="420.47" style="font-family:'Helvetica';font-size:112.56px;fill:#000000" text-anchor="end">100</text>
	<text x="214.55" y="1538.16" style="font-family:'Helvetica';font-size:112.56px;fill:#000000" transform="rotate(-90 214.55,1538.16)" text-anchor="middle">Female earnings</text>
	<line x1="590.63" y1="2766.66" x2="5286.60" y2="2766.66" style="stroke:#000000;stroke-width:6.48"/>
	<line x1="661.84" y1="2766.66" x2="661.84" y2="2811.54" style="stroke:#000000;stroke-width:6.48"/>
	<text x="661.84" y="2912.86" style="font-family:'Helvetica';font-size:112.56px;fill:#000000" text-anchor="middle">1970</text>
	<line x1="1554.69" y1="2766.66" x2="1554.69" y2="2811.54" style="stroke:#000000;stroke-width:6.48"/>
	<text x="1554.69" y="2912.86" style="font-family:'Helvetica';font-size:112.56px;fill:#000000" text-anchor="middle">1980</text>
	<line x1="2447.55" y1="2766.66" x2="2447.55" y2="2811.54" style="stroke:#000000;stroke-width:6.48"/>
	<text x="2447.55" y="2912.86" style="font-family:'Helvetica';font-size:112.56px;fill:#000000" text-anchor="middle">1990</text>
	<line x1="3340.41" y1="2766.66" x2="3340.41" y2="2811.54" style="stroke:#000000;stroke-width:6.48"/>
	<text x="3340.41" y="2912.86" style="font-family:'Helvetica';font-size:112.56px;fill:#000000" text-anchor="middle">2000</text>
	<line x1="4233.26" y1="2766.66" x2="4233.26" y2="2811.54" style="stroke:#000000;stroke-width:6.48"/>
	<text x="4233.26" y="2912.86" style="font-family:'Helvetica';font-size:112.56px;fill:#000000" text-anchor="middle">2010</text>
	<line x1="5126.12" y1="2766.66" x2="5126.12" y2="2811.54" style="stroke:#000000;stroke-width:6.48"/>
	<text x="5126.12" y="2912.86" style="font-family:'Helvetica';font-size:112.56px;fill:#000000" text-anchor="middle">2020</text>
	<text x="2938.61" y="3070.31" style="font-family:'Helvetica';font-size:112.56px;fill:#000000" text-anchor="middle">TIME</text>
	<text x="2938.61" y="243.10" style="font-family:'Helvetica';font-size:157.44px;fill:#000000" text-anchor="middle">Japan gender pay gap: 1970-2022</text>
</svg>
