<?xml version="1.0" encoding="UTF-8" standalone="no"?>
<!-- This is a Stata 18.0 generated SVG file (http://www.stata.com) -->

<svg version="1.1" width="7.500in" height="4.500in" viewBox="0 0 5400 3240" xmlns="http://www.w3.org/2000/svg" xmlns:xlink="http://www.w3.org/1999/xlink">
	<desc>Stata Graph - Graph</desc>
	<rect x="0" y="0" width="5400" height="3240" style="fill:#FFFFFF;stroke:none"/>
	<rect x="0.00" y="0.00" width="5400.00" height="3240.00" style="fill:#FFFFFF"/>
	<rect x="3.24" y="3.24" width="5393.52" height="3233.52" style="fill:none;stroke:#FFFFFF;stroke-width:6.48"/>
	<rect x="590.63" y="309.82" width="4695.98" height="2456.83" style="fill:#FFFFFF"/>
	<rect x="593.87" y="313.06" width="4689.50" height="2450.35" style="fill:none;stroke:#FFFFFF;stroke-width:6.48"/>
	<line x1="590.63" y1="1923.92" x2="655.43" y2="1923.92" style="stroke:#F0F0F0;stroke-width:9.72"/>
	<line x1="687.83" y1="1923.92" x2="752.63" y2="1923.92" style="stroke:#F0F0F0;stroke-width:9.72"/>
	<line x1="785.03" y1="1923.92" x2="849.83" y2="1923.92" style="stroke:#F0F0F0;stroke-width:9.72"/>
	<line x1="882.23" y1="1923.92" x2="947.03" y2="1923.92" style="stroke:#F0F0F0;stroke-width:9.72"/>
	<line x1="979.43" y1="1923.92" x2="1044.22" y2="1923.92" style="stroke:#F0F0F0;stroke-width:9.72"/>
	<line x1="1076.63" y1="1923.92" x2="1141.43" y2="1923.92" style="stroke:#F0F0F0;stroke-width:9.72"/>
	<line x1="1173.83" y1="1923.92" x2="1238.63" y2="1923.92" style="stroke:#F0F0F0;stroke-width:9.72"/>
	<line x1="1271.03" y1="1923.92" x2="1335.83" y2="1923.92" style="stroke:#F0F0F0;stroke-width:9.72"/>
	<line x1="1368.23" y1="1923.92" x2="1433.03" y2="1923.92" style="stroke:#F0F0F0;stroke-width:9.72"/>
	<line x1="1465.43" y1="1923.92" x2="1530.23" y2="1923.92" style="stroke:#F0F0F0;stroke-width:9.72"/>
	<line x1="1562.63" y1="1923.92" x2="1627.43" y2="1923.92" style="stroke:#F0F0F0;stroke-width:9.72"/>
	<line x1="1659.83" y1="1923.92" x2="1724.63" y2="1923.92" style="stroke:#F0F0F0;stroke-width:9.72"/>
	<line x1="1757.03" y1="1923.92" x2="1821.83" y2="1923.92" style="stroke:#F0F0F0;stroke-width:9.72"/>
	<line x1="1854.23" y1="1923.92" x2="1919.03" y2="1923.92" style="stroke:#F0F0F0;stroke-width:9.72"/>
	<line x1="1951.43" y1="1923.92" x2="2016.23" y2="1923.92" style="stroke:#F0F0F0;stroke-width:9.72"/>
	<line x1="2048.63" y1="1923.92" x2="2113.43" y2="1923.92" style="stroke:#F0F0F0;stroke-width:9.72"/>
	<line x1="2145.82" y1="1923.92" x2="2210.63" y2="1923.92" style="stroke:#F0F0F0;stroke-width:9.72"/>
	<line x1="2243.03" y1="1923.92" x2="2307.82" y2="1923.92" style="stroke:#F0F0F0;stroke-width:9.72"/>
	<line x1="2340.23" y1="1923.92" x2="2405.03" y2="1923.92" style="stroke:#F0F0F0;stroke-width:9.72"/>
	<line x1="2437.43" y1="1923.92" x2="2502.23" y2="1923.92" style="stroke:#F0F0F0;stroke-width:9.72"/>
	<line x1="2534.63" y1="1923.92" x2="2599.43" y2="1923.92" style="stroke:#F0F0F0;stroke-width:9.72"/>
	<line x1="2631.83" y1="1923.92" x2="2696.63" y2="1923.92" style="stroke:#F0F0F0;stroke-width:9.72"/>
	<line x1="2729.03" y1="1923.92" x2="2793.83" y2="1923.92" style="stroke:#F0F0F0;stroke-width:9.72"/>
	<line x1="2826.23" y1="1923.92" x2="2891.03" y2="1923.92" style="stroke:#F0F0F0;stroke-width:9.72"/>
	<line x1="2923.43" y1="1923.92" x2="2988.23" y2="1923.92" style="stroke:#F0F0F0;stroke-width:9.72"/>
	<line x1="3020.63" y1="1923.92" x2="3085.43" y2="1923.92" style="stroke:#F0F0F0;stroke-width:9.72"/>
	<line x1="3117.83" y1="1923.92" x2="3182.63" y2="1923.92" style="stroke:#F0F0F0;stroke-width:9.72"/>
	<line x1="3215.03" y1="1923.92" x2="3279.83" y2="1923.92" style="stroke:#F0F0F0;stroke-width:9.72"/>
	<line x1="3312.23" y1="1923.92" x2="3377.03" y2="1923.92" style="stroke:#F0F0F0;stroke-width:9.72"/>
	<line x1="3409.43" y1="1923.92" x2="3474.23" y2="1923.92" style="stroke:#F0F0F0;stroke-width:9.72"/>
	<line x1="3506.63" y1="1923.92" x2="3571.43" y2="1923.92" style="stroke:#F0F0F0;stroke-width:9.72"/>
	<line x1="3603.83" y1="1923.92" x2="3668.63" y2="1923.92" style="stroke:#F0F0F0;stroke-width:9.72"/>
	<line x1="3701.03" y1="1923.92" x2="3765.83" y2="1923.92" style="stroke:#F0F0F0;stroke-width:9.72"/>
	<line x1="3798.23" y1="1923.92" x2="3863.03" y2="1923.92" style="stroke:#F0F0F0;stroke-width:9.72"/>
	<line x1="3895.43" y1="1923.92" x2="3960.23" y2="1923.92" style="stroke:#F0F0F0;stroke-width:9.72"/>
	<line x1="3992.63" y1="1923.92" x2="4057.43" y2="1923.92" style="stroke:#F0F0F0;stroke-width:9.72"/>
	<line x1="4089.83" y1="1923.92" x2="4154.63" y2="1923.92" style="stroke:#F0F0F0;stroke-width:9.72"/>
	<line x1="4187.02" y1="1923.92" x2="4251.83" y2="1923.92" style="stroke:#F0F0F0;stroke-width:9.72"/>
	<line x1="4284.23" y1="1923.92" x2="4349.02" y2="1923.92" style="stroke:#F0F0F0;stroke-width:9.72"/>
	<line x1="4381.43" y1="1923.92" x2="4446.23" y2="1923.92" style="stroke:#F0F0F0;stroke-width:9.72"/>
	<line x1="4478.63" y1="1923.92" x2="4543.43" y2="1923.92" style="stroke:#F0F0F0;stroke-width:9.72"/>
	<line x1="4575.83" y1="1923.92" x2="4640.63" y2="1923.92" style="stroke:#F0F0F0;stroke-width:9.72"/>
	<line x1="4673.02" y1="1923.92" x2="4737.83" y2="1923.92" style="stroke:#F0F0F0;stroke-width:9.72"/>
	<line x1="4770.23" y1="1923.92" x2="4835.02" y2="1923.92" style="stroke:#F0F0F0;stroke-width:9.72"/>
	<line x1="4867.43" y1="1923.92" x2="4932.23" y2="1923.92" style="stroke:#F0F0F0;stroke-width:9.72"/>
	<line x1="4964.63" y1="1923.92" x2="5029.43" y2="1923.92" style="stroke:#F0F0F0;stroke-width:9.72"/>
	<line x1="5061.83" y1="1923.92" x2="5126.63" y2="1923.92" style="stroke:#F0F0F0;stroke-width:9.72"/>
	<line x1="5159.02" y1="1923.92" x2="5223.83" y2="1923.92" style="stroke:#F0F0F0;stroke-width:9.72"/>
	<line x1="5256.23" y1="1923.92" x2="5286.60" y2="1923.92" style="stroke:#F0F0F0;stroke-width:9.72"/>
	<line x1="590.63" y1="1152.56" x2="655.43" y2="1152.56" style="stroke:#F0F0F0;stroke-width:9.72"/>
	<line x1="687.83" y1="1152.56" x2="752.63" y2="1152.56" style="stroke:#F0F0F0;stroke-width:9.72"/>
	<line x1="785.03" y1="1152.56" x2="849.83" y2="1152.56" style="stroke:#F0F0F0;stroke-width:9.72"/>
	<line x1="882.23" y1="1152.56" x2="947.03" y2="1152.56" style="stroke:#F0F0F0;stroke-width:9.72"/>
	<line x1="979.43" y1="1152.56" x2="1044.22" y2="1152.56" style="stroke:#F0F0F0;stroke-width:9.72"/>
	<line x1="1076.63" y1="1152.56" x2="1141.43" y2="1152.56" style="stroke:#F0F0F0;stroke-width:9.72"/>
	<line x1="1173.83" y1="1152.56" x2="1238.63" y2="1152.56" style="stroke:#F0F0F0;stroke-width:9.72"/>
	<line x1="1271.03" y1="1152.56" x2="1335.83" y2="1152.56" style="stroke:#F0F0F0;stroke-width:9.72"/>
	<line x1="1368.23" y1="1152.56" x2="1433.03" y2="1152.56" style="stroke:#F0F0F0;stroke-width:9.72"/>
	<line x1="1465.43" y1="1152.56" x2="1530.23" y2="1152.56" style="stroke:#F0F0F0;stroke-width:9.72"/>
	<line x1="1562.63" y1="1152.56" x2="1627.43" y2="1152.56" style="stroke:#F0F0F0;stroke-width:9.72"/>
	<line x1="1659.83" y1="1152.56" x2="1724.63" y2="1152.56" style="stroke:#F0F0F0;stroke-width:9.72"/>
	<line x1="1757.03" y1="1152.56" x2="1821.83" y2="1152.56" style="stroke:#F0F0F0;stroke-width:9.72"/>
	<line x1="1854.23" y1="1152.56" x2="1919.03" y2="1152.56" style="stroke:#F0F0F0;stroke-width:9.72"/>
	<line x1="1951.43" y1="1152.56" x2="2016.23" y2="1152.56" style="stroke:#F0F0F0;stroke-width:9.72"/>
	<line x1="2048.63" y1="1152.56" x2="2113.43" y2="1152.56" style="stroke:#F0F0F0;stroke-width:9.72"/>
	<line x1="2145.82" y1="1152.56" x2="2210.63" y2="1152.56" style="stroke:#F0F0F0;stroke-width:9.72"/>
	<line x1="2243.03" y1="1152.56" x2="2307.82" y2="1152.56" style="stroke:#F0F0F0;stroke-width:9.72"/>
	<line x1="2340.23" y1="1152.56" x2="2405.03" y2="1152.56" style="stroke:#F0F0F0;stroke-width:9.72"/>
	<line x1="2437.43" y1="1152.56" x2="2502.23" y2="1152.56" style="stroke:#F0F0F0;stroke-width:9.72"/>
	<line x1="2534.63" y1="1152.56" x2="2599.43" y2="1152.56" style="stroke:#F0F0F0;stroke-width:9.72"/>
	<line x1="2631.83" y1="1152.56" x2="2696.63" y2="1152.56" style="stroke:#F0F0F0;stroke-width:9.72"/>
	<line x1="2729.03" y1="1152.56" x2="2793.83" y2="1152.56" style="stroke:#F0F0F0;stroke-width:9.72"/>
	<line x1="2826.23" y1="1152.56" x2="2891.03" y2="1152.56" style="stroke:#F0F0F0;stroke-width:9.72"/>
	<line x1="2923.43" y1="1152.56" x2="2988.23" y2="1152.56" style="stroke:#F0F0F0;stroke-width:9.72"/>
	<line x1="3020.63" y1="1152.56" x2="3085.43" y2="1152.56" style="stroke:#F0F0F0;stroke-width:9.72"/>
	<line x1="3117.83" y1="1152.56" x2="3182.63" y2="1152.56" style="stroke:#F0F0F0;stroke-width:9.72"/>
	<line x1="3215.03" y1="1152.56" x2="3279.83" y2="1152.56" style="stroke:#F0F0F0;stroke-width:9.72"/>
	<line x1="3312.23" y1="1152.56" x2="3377.03" y2="1152.56" style="stroke:#F0F0F0;stroke-width:9.72"/>
	<line x1="3409.43" y1="1152.56" x2="3474.23" y2="1152.56" style="stroke:#F0F0F0;stroke-width:9.72"/>
	<line x1="3506.63" y1="1152.56" x2="3571.43" y2="1152.56" style="stroke:#F0F0F0;stroke-width:9.72"/>
	<line x1="3603.83" y1="1152.56" x2="3668.63" y2="1152.56" style="stroke:#F0F0F0;stroke-width:9.72"/>
	<line x1="3701.03" y1="1152.56" x2="3765.83" y2="1152.56" style="stroke:#F0F0F0;stroke-width:9.72"/>
	<line x1="3798.23" y1="1152.56" x2="3863.03" y2="1152.56" style="stroke:#F0F0F0;stroke-width:9.72"/>
	<line x1="3895.43" y1="1152.56" x2="3960.23" y2="1152.56" style="stroke:#F0F0F0;stroke-width:9.72"/>
	<line x1="3992.63" y1="1152.56" x2="4057.43" y2="1152.56" style="stroke:#F0F0F0;stroke-width:9.72"/>
	<line x1="4089.83" y1="1152.56" x2="4154.63" y2="1152.56" style="stroke:#F0F0F0;stroke-width:9.72"/>
	<line x1="4187.02" y1="1152.56" x2="4251.83" y2="1152.56" style="stroke:#F0F0F0;stroke-width:9.72"/>
	<line x1="4284.23" y1="1152.56" x2="4349.02" y2="1152.56" style="stroke:#F0F0F0;stroke-width:9.72"/>
	<line x1="4381.43" y1="1152.56" x2="4446.23" y2="1152.56" style="stroke:#F0F0F0;stroke-width:9.72"/>
	<line x1="4478.63" y1="1152.56" x2="4543.43" y2="1152.56" style="stroke:#F0F0F0;stroke-width:9.72"/>
	<line x1="4575.83" y1="1152.56" x2="4640.63" y2="1152.56" style="stroke:#F0F0F0;stroke-width:9.72"/>
	<line x1="4673.02" y1="1152.56" x2="4737.83" y2="1152.56" style="stroke:#F0F0F0;stroke-width:9.72"/>
	<line x1="4770.23" y1="1152.56" x2="4835.02" y2="1152.56" style="stroke:#F0F0F0;stroke-width:9.72"/>
	<line x1="4867.43" y1="1152.56" x2="4932.23" y2="1152.56" style="stroke:#F0F0F0;stroke-width:9.72"/>
	<line x1="4964.63" y1="1152.56" x2="5029.43" y2="1152.56" style="stroke:#F0F0F0;stroke-width:9.72"/>
	<line x1="5061.83" y1="1152.56" x2="5126.63" y2="1152.56" style="stroke:#F0F0F0;stroke-width:9.72"/>
	<line x1="5159.02" y1="1152.56" x2="5223.83" y2="1152.56" style="stroke:#F0F0F0;stroke-width:9.72"/>
	<line x1="5256.23" y1="1152.56" x2="5286.60" y2="1152.56" style="stroke:#F0F0F0;stroke-width:9.72"/>
	<line x1="590.63" y1="381.04" x2="655.43" y2="381.04" style="stroke:#F0F0F0;stroke-width:9.72"/>
	<line x1="687.83" y1="381.04" x2="752.63" y2="381.04" style="stroke:#F0F0F0;stroke-width:9.72"/>
	<line x1="785.03" y1="381.04" x2="849.83" y2="381.04" style="stroke:#F0F0F0;stroke-width:9.72"/>
	<line x1="882.23" y1="381.04" x2="947.03" y2="381.04" style="stroke:#F0F0F0;stroke-width:9.72"/>
	<line x1="979.43" y1="381.04" x2="1044.22" y2="381.04" style="stroke:#F0F0F0;stroke-width:9.72"/>
	<line x1="1076.63" y1="381.04" x2="1141.43" y2="381.04" style="stroke:#F0F0F0;stroke-width:9.72"/>
	<line x1="1173.83" y1="381.04" x2="1238.63" y2="381.04" style="stroke:#F0F0F0;stroke-width:9.72"/>
	<line x1="1271.03" y1="381.04" x2="1335.83" y2="381.04" style="stroke:#F0F0F0;stroke-width:9.72"/>
	<line x1="1368.23" y1="381.04" x2="1433.03" y2="381.04" style="stroke:#F0F0F0;stroke-width:9.72"/>
	<line x1="1465.43" y1="381.04" x2="1530.23" y2="381.04" style="stroke:#F0F0F0;stroke-width:9.72"/>
	<line x1="1562.63" y1="381.04" x2="1627.43" y2="381.04" style="stroke:#F0F0F0;stroke-width:9.72"/>
	<line x1="1659.83" y1="381.04" x2="1724.63" y2="381.04" style="stroke:#F0F0F0;stroke-width:9.72"/>
	<line x1="1757.03" y1="381.04" x2="1821.83" y2="381.04" style="stroke:#F0F0F0;stroke-width:9.72"/>
	<line x1="1854.23" y1="381.04" x2="1919.03" y2="381.04" style="stroke:#F0F0F0;stroke-width:9.72"/>
	<line x1="1951.43" y1="381.04" x2="2016.23" y2="381.04" style="stroke:#F0F0F0;stroke-width:9.72"/>
	<line x1="2048.63" y1="381.04" x2="2113.43" y2="381.04" style="stroke:#F0F0F0;stroke-width:9.72"/>
	<line x1="2145.82" y1="381.04" x2="2210.63" y2="381.04" style="stroke:#F0F0F0;stroke-width:9.72"/>
	<line x1="2243.03" y1="381.04" x2="2307.82" y2="381.04" style="stroke:#F0F0F0;stroke-width:9.72"/>
	<line x1="2340.23" y1="381.04" x2="2405.03" y2="381.04" style="stroke:#F0F0F0;stroke-width:9.72"/>
	<line x1="2437.43" y1="381.04" x2="2502.23" y2="381.04" style="stroke:#F0F0F0;stroke-width:9.72"/>
	<line x1="2534.63" y1="381.04" x2="2599.43" y2="381.04" style="stroke:#F0F0F0;stroke-width:9.72"/>
	<line x1="2631.83" y1="381.04" x2="2696.63" y2="381.04" style="stroke:#F0F0F0;stroke-width:9.72"/>
	<line x1="2729.03" y1="381.04" x2="2793.83" y2="381.04" style="stroke:#F0F0F0;stroke-width:9.72"/>
	<line x1="2826.23" y1="381.04" x2="2891.03" y2="381.04" style="stroke:#F0F0F0;stroke-width:9.72"/>
	<line x1="2923.43" y1="381.04" x2="2988.23" y2="381.04" style="stroke:#F0F0F0;stroke-width:9.72"/>
	<line x1="3020.63" y1="381.04" x2="3085.43" y2="381.04" style="stroke:#F0F0F0;stroke-width:9.72"/>
	<line x1="3117.83" y1="381.04" x2="3182.63" y2="381.04" style="stroke:#F0F0F0;stroke-width:9.72"/>
	<line x1="3215.03" y1="381.04" x2="3279.83" y2="381.04" style="stroke:#F0F0F0;stroke-width:9.72"/>
	<line x1="3312.23" y1="381.04" x2="3377.03" y2="381.04" style="stroke:#F0F0F0;stroke-width:9.72"/>
	<line x1="3409.43" y1="381.04" x2="3474.23" y2="381.04" style="stroke:#F0F0F0;stroke-width:9.72"/>
	<line x1="3506.63" y1="381.04" x2="3571.43" y2="381.04" style="stroke:#F0F0F0;stroke-width:9.72"/>
	<line x1="3603.83" y1="381.04" x2="3668.63" y2="381.04" style="stroke:#F0F0F0;stroke-width:9.72"/>
	<line x1="3701.03" y1="381.04" x2="3765.83" y2="381.04" style="stroke:#F0F0F0;stroke-width:9.72"/>
	<line x1="3798.23" y1="381.04" x2="3863.03" y2="381.04" style="stroke:#F0F0F0;stroke-width:9.72"/>
	<line x1="3895.43" y1="381.04" x2="3960.23" y2="381.04" style="stroke:#F0F0F0;stroke-width:9.72"/>
	<line x1="3992.63" y1="381.04" x2="4057.43" y2="381.04" style="stroke:#F0F0F0;stroke-width:9.72"/>
	<line x1="4089.83" y1="381.04" x2="4154.63" y2="381.04" style="stroke:#F0F0F0;stroke-width:9.72"/>
	<line x1="4187.02" y1="381.04" x2="4251.83" y2="381.04" style="stroke:#F0F0F0;stroke-width:9.72"/>
	<line x1="4284.23" y1="381.04" x2="4349.02" y2="381.04" style="stroke:#F0F0F0;stroke-width:9.72"/>
	<line x1="4381.43" y1="381.04" x2="4446.23" y2="381.04" style="stroke:#F0F0F0;stroke-width:9.72"/>
	<line x1="4478.63" y1="381.04" x2="4543.43" y2="381.04" style="stroke:#F0F0F0;stroke-width:9.72"/>
	<line x1="4575.83" y1="381.04" x2="4640.63" y2="381.04" style="stroke:#F0F0F0;stroke-width:9.72"/>
	<line x1="4673.02" y1="381.04" x2="4737.83" y2="381.04" style="stroke:#F0F0F0;stroke-width:9.72"/>
	<line x1="4770.23" y1="381.04" x2="4835.02" y2="381.04" style="stroke:#F0F0F0;stroke-width:9.72"/>
	<line x1="4867.43" y1="381.04" x2="4932.23" y2="381.04" style="stroke:#F0F0F0;stroke-width:9.72"/>
	<line x1="4964.63" y1="381.04" x2="5029.43" y2="381.04" style="stroke:#F0F0F0;stroke-width:9.72"/>
	<line x1="5061.83" y1="381.04" x2="5126.63" y2="381.04" style="stroke:#F0F0F0;stroke-width:9.72"/>
	<line x1="5159.02" y1="381.04" x2="5223.83" y2="381.04" style="stroke:#F0F0F0;stroke-width:9.72"/>
	<line x1="5256.23" y1="381.04" x2="5286.60" y2="381.04" style="stroke:#F0F0F0;stroke-width:9.72"/>
	<line x1="661.84" y1="2766.66" x2="661.84" y2="2701.86" style="stroke:#F0F0F0;stroke-width:9.72"/>
	<line x1="661.84" y1="2669.46" x2="661.84" y2="2604.66" style="stroke:#F0F0F0;stroke-width:9.72"/>
	<line x1="661.84" y1="2572.26" x2="661.84" y2="2507.46" style="stroke:#F0F0F0;stroke-width:9.72"/>
	<line x1="661.84" y1="2475.06" x2="661.84" y2="2410.26" style="stroke:#F0F0F0;stroke-width:9.72"/>
	<line x1="661.84" y1="2377.86" x2="661.84" y2="2313.06" style="stroke:#F0F0F0;stroke-width:9.72"/>
	<line x1="661.84" y1="2280.66" x2="661.84" y2="2215.86" style="stroke:#F0F0F0;stroke-width:9.72"/>
	<line x1="661.84" y1="2183.46" x2="661.84" y2="2118.66" style="stroke:#F0F0F0;stroke-width:9.72"/>
	<line x1="661.84" y1="2086.26" x2="661.84" y2="2021.46" style="stroke:#F0F0F0;stroke-width:9.72"/>
	<line x1="661.84" y1="1989.06" x2="661.84" y2="1924.26" style="stroke:#F0F0F0;stroke-width:9.72"/>
	<line x1="661.84" y1="1891.86" x2="661.84" y2="1827.06" style="stroke:#F0F0F0;stroke-width:9.72"/>
	<line x1="661.84" y1="1794.66" x2="661.84" y2="1729.86" style="stroke:#F0F0F0;stroke-width:9.72"/>
	<line x1="661.84" y1="1697.46" x2="661.84" y2="1632.66" style="stroke:#F0F0F0;stroke-width:9.72"/>
	<line x1="661.84" y1="1600.26" x2="661.84" y2="1535.46" style="stroke:#F0F0F0;stroke-width:9.72"/>
	<line x1="661.84" y1="1503.06" x2="661.84" y2="1438.26" style="stroke:#F0F0F0;stroke-width:9.72"/>
	<line x1="661.84" y1="1405.86" x2="661.84" y2="1341.06" style="stroke:#F0F0F0;stroke-width:9.72"/>
	<line x1="661.84" y1="1308.66" x2="661.84" y2="1243.86" style="stroke:#F0F0F0;stroke-width:9.72"/>
	<line x1="661.84" y1="1211.46" x2="661.84" y2="1146.66" style="stroke:#F0F0F0;stroke-width:9.72"/>
	<line x1="661.84" y1="1114.26" x2="661.84" y2="1049.46" style="stroke:#F0F0F0;stroke-width:9.72"/>
	<line x1="661.84" y1="1017.06" x2="661.84" y2="952.26" style="stroke:#F0F0F0;stroke-width:9.72"/>
	<line x1="661.84" y1="919.86" x2="661.84" y2="855.06" style="stroke:#F0F0F0;stroke-width:9.72"/>
	<line x1="661.84" y1="822.66" x2="661.84" y2="757.86" style="stroke:#F0F0F0;stroke-width:9.72"/>
	<line x1="661.84" y1="725.46" x2="661.84" y2="660.66" style="stroke:#F0F0F0;stroke-width:9.72"/>
	<line x1="661.84" y1="628.26" x2="661.84" y2="563.46" style="stroke:#F0F0F0;stroke-width:9.72"/>
	<line x1="661.84" y1="531.06" x2="661.84" y2="466.26" style="stroke:#F0F0F0;stroke-width:9.72"/>
	<line x1="661.84" y1="433.86" x2="661.84" y2="369.06" style="stroke:#F0F0F0;stroke-width:9.72"/>
	<line x1="661.84" y1="336.66" x2="661.84" y2="309.82" style="stroke:#F0F0F0;stroke-width:9.72"/>
	<line x1="1537.48" y1="2766.66" x2="1537.48" y2="2701.86" style="stroke:#F0F0F0;stroke-width:9.72"/>
	<line x1="1537.48" y1="2669.46" x2="1537.48" y2="2604.66" style="stroke:#F0F0F0;stroke-width:9.72"/>
	<line x1="1537.48" y1="2572.26" x2="1537.48" y2="2507.46" style="stroke:#F0F0F0;stroke-width:9.72"/>
	<line x1="1537.48" y1="2475.06" x2="1537.48" y2="2410.26" style="stroke:#F0F0F0;stroke-width:9.72"/>
	<line x1="1537.48" y1="2377.86" x2="1537.48" y2="2313.06" style="stroke:#F0F0F0;stroke-width:9.72"/>
	<line x1="1537.48" y1="2280.66" x2="1537.48" y2="2215.86" style="stroke:#F0F0F0;stroke-width:9.72"/>
	<line x1="1537.48" y1="2183.46" x2="1537.48" y2="2118.66" style="stroke:#F0F0F0;stroke-width:9.72"/>
	<line x1="1537.48" y1="2086.26" x2="1537.48" y2="2021.46" style="stroke:#F0F0F0;stroke-width:9.72"/>
	<line x1="1537.48" y1="1989.06" x2="1537.48" y2="1924.26" style="stroke:#F0F0F0;stroke-width:9.72"/>
	<line x1="1537.48" y1="1891.86" x2="1537.48" y2="1827.06" style="stroke:#F0F0F0;stroke-width:9.72"/>
	<line x1="1537.48" y1="1794.66" x2="1537.48" y2="1729.86" style="stroke:#F0F0F0;stroke-width:9.72"/>
	<line x1="1537.48" y1="1697.46" x2="1537.48" y2="1632.66" style="stroke:#F0F0F0;stroke-width:9.72"/>
	<line x1="1537.48" y1="1600.26" x2="1537.48" y2="1535.46" style="stroke:#F0F0F0;stroke-width:9.72"/>
	<line x1="1537.48" y1="1503.06" x2="1537.48" y2="1438.26" style="stroke:#F0F0F0;stroke-width:9.72"/>
	<line x1="1537.48" y1="1405.86" x2="1537.48" y2="1341.06" style="stroke:#F0F0F0;stroke-width:9.72"/>
	<line x1="1537.48" y1="1308.66" x2="1537.48" y2="1243.86" style="stroke:#F0F0F0;stroke-width:9.72"/>
	<line x1="1537.48" y1="1211.46" x2="1537.48" y2="1146.66" style="stroke:#F0F0F0;stroke-width:9.72"/>
	<line x1="1537.48" y1="1114.26" x2="1537.48" y2="1049.46" style="stroke:#F0F0F0;stroke-width:9.72"/>
	<line x1="1537.48" y1="1017.06" x2="1537.48" y2="952.26" style="stroke:#F0F0F0;stroke-width:9.72"/>
	<line x1="1537.48" y1="919.86" x2="1537.48" y2="855.06" style="stroke:#F0F0F0;stroke-width:9.72"/>
	<line x1="1537.48" y1="822.66" x2="1537.48" y2="757.86" style="stroke:#F0F0F0;stroke-width:9.72"/>
	<line x1="1537.48" y1="725.46" x2="1537.48" y2="660.66" style="stroke:#F0F0F0;stroke-width:9.72"/>
	<line x1="1537.48" y1="628.26" x2="1537.48" y2="563.46" style="stroke:#F0F0F0;stroke-width:9.72"/>
	<line x1="1537.48" y1="531.06" x2="1537.48" y2="466.26" style="stroke:#F0F0F0;stroke-width:9.72"/>
	<line x1="1537.48" y1="433.86" x2="1537.48" y2="369.06" style="stroke:#F0F0F0;stroke-width:9.72"/>
	<line x1="1537.48" y1="336.66" x2="1537.48" y2="309.82" style="stroke:#F0F0F0;stroke-width:9.72"/>
	<line x1="2413.13" y1="2766.66" x2="2413.13" y2="2701.86" style="stroke:#F0F0F0;stroke-width:9.72"/>
	<line x1="2413.13" y1="2669.46" x2="2413.13" y2="2604.66" style="stroke:#F0F0F0;stroke-width:9.72"/>
	<line x1="2413.13" y1="2572.26" x2="2413.13" y2="2507.46" style="stroke:#F0F0F0;stroke-width:9.72"/>
	<line x1="2413.13" y1="2475.06" x2="2413.13" y2="2410.26" style="stroke:#F0F0F0;stroke-width:9.72"/>
	<line x1="2413.13" y1="2377.86" x2="2413.13" y2="2313.06" style="stroke:#F0F0F0;stroke-width:9.72"/>
	<line x1="2413.13" y1="2280.66" x2="2413.13" y2="2215.86" style="stroke:#F0F0F0;stroke-width:9.72"/>
	<line x1="2413.13" y1="2183.46" x2="2413.13" y2="2118.66" style="stroke:#F0F0F0;stroke-width:9.72"/>
	<line x1="2413.13" y1="2086.26" x2="2413.13" y2="2021.46" style="stroke:#F0F0F0;stroke-width:9.72"/>
	<line x1="2413.13" y1="1989.06" x2="2413.13" y2="1924.26" style="stroke:#F0F0F0;stroke-width:9.72"/>
	<line x1="2413.13" y1="1891.86" x2="2413.13" y2="1827.06" style="stroke:#F0F0F0;stroke-width:9.72"/>
	<line x1="2413.13" y1="1794.66" x2="2413.13" y2="1729.86" style="stroke:#F0F0F0;stroke-width:9.72"/>
	<line x1="2413.13" y1="1697.46" x2="2413.13" y2="1632.66" style="stroke:#F0F0F0;stroke-width:9.72"/>
	<line x1="2413.13" y1="1600.26" x2="2413.13" y2="1535.46" style="stroke:#F0F0F0;stroke-width:9.72"/>
	<line x1="2413.13" y1="1503.06" x2="2413.13" y2="1438.26" style="stroke:#F0F0F0;stroke-width:9.72"/>
	<line x1="2413.13" y1="1405.86" x2="2413.13" y2="1341.06" style="stroke:#F0F0F0;stroke-width:9.72"/>
	<line x1="2413.13" y1="1308.66" x2="2413.13" y2="1243.86" style="stroke:#F0F0F0;stroke-width:9.72"/>
	<line x1="2413.13" y1="1211.46" x2="2413.13" y2="1146.66" style="stroke:#F0F0F0;stroke-width:9.72"/>
	<line x1="2413.13" y1="1114.26" x2="2413.13" y2="1049.46" style="stroke:#F0F0F0;stroke-width:9.72"/>
	<line x1="2413.13" y1="1017.06" x2="2413.13" y2="952.26" style="stroke:#F0F0F0;stroke-width:9.72"/>
	<line x1="2413.13" y1="919.86" x2="2413.13" y2="855.06" style="stroke:#F0F0F0;stroke-width:9.72"/>
	<line x1="2413.13" y1="822.66" x2="2413.13" y2="757.86" style="stroke:#F0F0F0;stroke-width:9.72"/>
	<line x1="2413.13" y1="725.46" x2="2413.13" y2="660.66" style="stroke:#F0F0F0;stroke-width:9.72"/>
	<line x1="2413.13" y1="628.26" x2="2413.13" y2="563.46" style="stroke:#F0F0F0;stroke-width:9.72"/>
	<line x1="2413.13" y1="531.06" x2="2413.13" y2="466.26" style="stroke:#F0F0F0;stroke-width:9.72"/>
	<line x1="2413.13" y1="433.86" x2="2413.13" y2="369.06" style="stroke:#F0F0F0;stroke-width:9.72"/>
	<line x1="2413.13" y1="336.66" x2="2413.13" y2="309.82" style="stroke:#F0F0F0;stroke-width:9.72"/>
	<line x1="3288.94" y1="2766.66" x2="3288.94" y2="2701.86" style="stroke:#F0F0F0;stroke-width:9.72"/>
	<line x1="3288.94" y1="2669.46" x2="3288.94" y2="2604.66" style="stroke:#F0F0F0;stroke-width:9.72"/>
	<line x1="3288.94" y1="2572.26" x2="3288.94" y2="2507.46" style="stroke:#F0F0F0;stroke-width:9.72"/>
	<line x1="3288.94" y1="2475.06" x2="3288.94" y2="2410.26" style="stroke:#F0F0F0;stroke-width:9.72"/>
	<line x1="3288.94" y1="2377.86" x2="3288.94" y2="2313.06" style="stroke:#F0F0F0;stroke-width:9.72"/>
	<line x1="3288.94" y1="2280.66" x2="3288.94" y2="2215.86" style="stroke:#F0F0F0;stroke-width:9.72"/>
	<line x1="3288.94" y1="2183.46" x2="3288.94" y2="2118.66" style="stroke:#F0F0F0;stroke-width:9.72"/>
	<line x1="3288.94" y1="2086.26" x2="3288.94" y2="2021.46" style="stroke:#F0F0F0;stroke-width:9.72"/>
	<line x1="3288.94" y1="1989.06" x2="3288.94" y2="1924.26" style="stroke:#F0F0F0;stroke-width:9.72"/>
	<line x1="3288.94" y1="1891.86" x2="3288.94" y2="1827.06" style="stroke:#F0F0F0;stroke-width:9.72"/>
	<line x1="3288.94" y1="1794.66" x2="3288.94" y2="1729.86" style="stroke:#F0F0F0;stroke-width:9.72"/>
	<line x1="3288.94" y1="1697.46" x2="3288.94" y2="1632.66" style="stroke:#F0F0F0;stroke-width:9.72"/>
	<line x1="3288.94" y1="1600.26" x2="3288.94" y2="1535.46" style="stroke:#F0F0F0;stroke-width:9.72"/>
	<line x1="3288.94" y1="1503.06" x2="3288.94" y2="1438.26" style="stroke:#F0F0F0;stroke-width:9.72"/>
	<line x1="3288.94" y1="1405.86" x2="3288.94" y2="1341.06" style="stroke:#F0F0F0;stroke-width:9.72"/>
	<line x1="3288.94" y1="1308.66" x2="3288.94" y2="1243.86" style="stroke:#F0F0F0;stroke-width:9.72"/>
	<line x1="3288.94" y1="1211.46" x2="3288.94" y2="1146.66" style="stroke:#F0F0F0;stroke-width:9.72"/>
	<line x1="3288.94" y1="1114.26" x2="3288.94" y2="1049.46" style="stroke:#F0F0F0;stroke-width:9.72"/>
	<line x1="3288.94" y1="1017.06" x2="3288.94" y2="952.26" style="stroke:#F0F0F0;stroke-width:9.72"/>
	<line x1="3288.94" y1="919.86" x2="3288.94" y2="855.06" style="stroke:#F0F0F0;stroke-width:9.72"/>
	<line x1="3288.94" y1="822.66" x2="3288.94" y2="757.86" style="stroke:#F0F0F0;stroke-width:9.72"/>
	<line x1="3288.94" y1="725.46" x2="3288.94" y2="660.66" style="stroke:#F0F0F0;stroke-width:9.72"/>
	<line x1="3288.94" y1="628.26" x2="3288.94" y2="563.46" style="stroke:#F0F0F0;stroke-width:9.72"/>
	<line x1="3288.94" y1="531.06" x2="3288.94" y2="466.26" style="stroke:#F0F0F0;stroke-width:9.72"/>
	<line x1="3288.94" y1="433.86" x2="3288.94" y2="369.06" style="stroke:#F0F0F0;stroke-width:9.72"/>
	<line x1="3288.94" y1="336.66" x2="3288.94" y2="309.82" style="stroke:#F0F0F0;stroke-width:9.72"/>
	<line x1="4164.58" y1="2766.66" x2="4164.58" y2="2701.86" style="stroke:#F0F0F0;stroke-width:9.72"/>
	<line x1="4164.58" y1="2669.46" x2="4164.58" y2="2604.66" style="stroke:#F0F0F0;stroke-width:9.72"/>
	<line x1="4164.58" y1="2572.26" x2="4164.58" y2="2507.46" style="stroke:#F0F0F0;stroke-width:9.72"/>
	<line x1="4164.58" y1="2475.06" x2="4164.58" y2="2410.26" style="stroke:#F0F0F0;stroke-width:9.72"/>
	<line x1="4164.58" y1="2377.86" x2="4164.58" y2="2313.06" style="stroke:#F0F0F0;stroke-width:9.72"/>
	<line x1="4164.58" y1="2280.66" x2="4164.58" y2="2215.86" style="stroke:#F0F0F0;stroke-width:9.72"/>
	<line x1="4164.58" y1="2183.46" x2="4164.58" y2="2118.66" style="stroke:#F0F0F0;stroke-width:9.72"/>
	<line x1="4164.58" y1="2086.26" x2="4164.58" y2="2021.46" style="stroke:#F0F0F0;stroke-width:9.72"/>
	<line x1="4164.58" y1="1989.06" x2="4164.58" y2="1924.26" style="stroke:#F0F0F0;stroke-width:9.72"/>
	<line x1="4164.58" y1="1891.86" x2="4164.58" y2="1827.06" style="stroke:#F0F0F0;stroke-width:9.72"/>
	<line x1="4164.58" y1="1794.66" x2="4164.58" y2="1729.86" style="stroke:#F0F0F0;stroke-width:9.72"/>
	<line x1="4164.58" y1="1697.46" x2="4164.58" y2="1632.66" style="stroke:#F0F0F0;stroke-width:9.72"/>
	<line x1="4164.58" y1="1600.26" x2="4164.58" y2="1535.46" style="stroke:#F0F0F0;stroke-width:9.72"/>
	<line x1="4164.58" y1="1503.06" x2="4164.58" y2="1438.26" style="stroke:#F0F0F0;stroke-width:9.72"/>
	<line x1="4164.58" y1="1405.86" x2="4164.58" y2="1341.06" style="stroke:#F0F0F0;stroke-width:9.72"/>
	<line x1="4164.58" y1="1308.66" x2="4164.58" y2="1243.86" style="stroke:#F0F0F0;stroke-width:9.72"/>
	<line x1="4164.58" y1="1211.46" x2="4164.58" y2="1146.66" style="stroke:#F0F0F0;stroke-width:9.72"/>
	<line x1="4164.58" y1="1114.26" x2="4164.58" y2="1049.46" style="stroke:#F0F0F0;stroke-width:9.72"/>
	<line x1="4164.58" y1="1017.06" x2="4164.58" y2="952.26" style="stroke:#F0F0F0;stroke-width:9.72"/>
	<line x1="4164.58" y1="919.86" x2="4164.58" y2="855.06" style="stroke:#F0F0F0;stroke-width:9.72"/>
	<line x1="4164.58" y1="822.66" x2="4164.58" y2="757.86" style="stroke:#F0F0F0;stroke-width:9.72"/>
	<line x1="4164.58" y1="725.46" x2="4164.58" y2="660.66" style="stroke:#F0F0F0;stroke-width:9.72"/>
	<line x1="4164.58" y1="628.26" x2="4164.58" y2="563.46" style="stroke:#F0F0F0;stroke-width:9.72"/>
	<line x1="4164.58" y1="531.06" x2="4164.58" y2="466.26" style="stroke:#F0F0F0;stroke-width:9.72"/>
	<line x1="4164.58" y1="433.86" x2="4164.58" y2="369.06" style="stroke:#F0F0F0;stroke-width:9.72"/>
	<line x1="4164.58" y1="336.66" x2="4164.58" y2="309.82" style="stroke:#F0F0F0;stroke-width:9.72"/>
	<line x1="5040.23" y1="2766.66" x2="5040.23" y2="2701.86" style="stroke:#F0F0F0;stroke-width:9.72"/>
	<line x1="5040.23" y1="2669.46" x2="5040.23" y2="2604.66" style="stroke:#F0F0F0;stroke-width:9.72"/>
	<line x1="5040.23" y1="2572.26" x2="5040.23" y2="2507.46" style="stroke:#F0F0F0;stroke-width:9.72"/>
	<line x1="5040.23" y1="2475.06" x2="5040.23" y2="2410.26" style="stroke:#F0F0F0;stroke-width:9.72"/>
	<line x1="5040.23" y1="2377.86" x2="5040.23" y2="2313.06" style="stroke:#F0F0F0;stroke-width:9.72"/>
	<line x1="5040.23" y1="2280.66" x2="5040.23" y2="2215.86" style="stroke:#F0F0F0;stroke-width:9.72"/>
	<line x1="5040.23" y1="2183.46" x2="5040.23" y2="2118.66" style="stroke:#F0F0F0;stroke-width:9.72"/>
	<line x1="5040.23" y1="2086.26" x2="5040.23" y2="2021.46" style="stroke:#F0F0F0;stroke-width:9.72"/>
	<line x1="5040.23" y1="1989.06" x2="5040.23" y2="1924.26" style="stroke:#F0F0F0;stroke-width:9.72"/>
	<line x1="5040.23" y1="1891.86" x2="5040.23" y2="1827.06" style="stroke:#F0F0F0;stroke-width:9.72"/>
	<line x1="5040.23" y1="1794.66" x2="5040.23" y2="1729.86" style="stroke:#F0F0F0;stroke-width:9.72"/>
	<line x1="5040.23" y1="1697.46" x2="5040.23" y2="1632.66" style="stroke:#F0F0F0;stroke-width:9.72"/>
	<line x1="5040.23" y1="1600.26" x2="5040.23" y2="1535.46" style="stroke:#F0F0F0;stroke-width:9.72"/>
	<line x1="5040.23" y1="1503.06" x2="5040.23" y2="1438.26" style="stroke:#F0F0F0;stroke-width:9.72"/>
	<line x1="5040.23" y1="1405.86" x2="5040.23" y2="1341.06" style="stroke:#F0F0F0;stroke-width:9.72"/>
	<line x1="5040.23" y1="1308.66" x2="5040.23" y2="1243.86" style="stroke:#F0F0F0;stroke-width:9.72"/>
	<line x1="5040.23" y1="1211.46" x2="5040.23" y2="1146.66" style="stroke:#F0F0F0;stroke-width:9.72"/>
	<line x1="5040.23" y1="1114.26" x2="5040.23" y2="1049.46" style="stroke:#F0F0F0;stroke-width:9.72"/>
	<line x1="5040.23" y1="1017.06" x2="5040.23" y2="952.26" style="stroke:#F0F0F0;stroke-width:9.72"/>
	<line x1="5040.23" y1="919.86" x2="5040.23" y2="855.06" style="stroke:#F0F0F0;stroke-width:9.72"/>
	<line x1="5040.23" y1="822.66" x2="5040.23" y2="757.86" style="stroke:#F0F0F0;stroke-width:9.72"/>
	<line x1="5040.23" y1="725.46" x2="5040.23" y2="660.66" style="stroke:#F0F0F0;stroke-width:9.72"/>
	<line x1="5040.23" y1="628.26" x2="5040.23" y2="563.46" style="stroke:#F0F0F0;stroke-width:9.72"/>
	<line x1="5040.23" y1="531.06" x2="5040.23" y2="466.26" style="stroke:#F0F0F0;stroke-width:9.72"/>
	<line x1="5040.23" y1="433.86" x2="5040.23" y2="369.06" style="stroke:#F0F0F0;stroke-width:9.72"/>
	<line x1="5040.23" y1="336.66" x2="5040.23" y2="309.82" style="stroke:#F0F0F0;stroke-width:9.72"/>
	<path d=" M924.41 1851.02 L1011.99 1889.33 L1099.58 1832.63 L1187.16 1837.52 L1274.74 1855.41 L1362.32 1884.26 L1449.90 1832.96 L1537.48 1790.94 L1625.06 1737.62 L1712.64 1720.41 L1800.06 1703.70 L1887.64 1670.63 L1975.22 1653.24 L2062.80 1622.70 L2150.38 1577.64 L2237.96 1541.03 L2325.54 1513.52 L2413.13 1478.93 L2500.71 1406.03 L2588.29 1347.81 L2675.87 1302.24 L2763.45 1302.24 L2850.86 1329.24 L2938.44 1299.88 L3026.03 1298.70 L3113.61 1297.18 L3201.19 1286.04 L3288.77 1271.70 L3376.35 1290.60 L3463.93 1233.22 L3551.51 1175.01 L3639.09 1138.72 L3726.68 1113.24 L3814.09 1123.71 L3901.67 1146.32 L3989.25 1154.42 L4076.83 1144.13 L4164.41 1106.66 L4251.99 1067.34 L4339.58 1117.46 L4427.16 1071.90 L4514.74 1054.18 L4602.32 1109.36 L4689.90 1080.84 L4777.48 1082.03 L4864.89 1110.54 L4952.48 1093.50 L5040.06 1061.94 L5127.64 1031.40 L5215.22 1036.13" stroke-linejoin="round" style="fill:none;stroke:#1A85FF;stroke-width:9.72"/>
	<line x1="590.63" y1="2766.66" x2="590.63" y2="309.82" style="stroke:#000000;stroke-width:6.48"/>
	<line x1="590.63" y1="2695.28" x2="545.57" y2="2695.28" style="stroke:#000000;stroke-width:6.48"/>
	<text x="523.13" y="2734.71" style="font-family:'Helvetica';font-size:112.56px;fill:#000000" text-anchor="end">40</text>
	<line x1="590.63" y1="1923.92" x2="545.57" y2="1923.92" style="stroke:#000000;stroke-width:6.48"/>
	<text x="523.13" y="1963.36" style="font-family:'Helvetica';font-size:112.56px;fill:#000000" text-anchor="end">60</text>
	<line x1="590.63" y1="1152.56" x2="545.57" y2="1152.56" style="stroke:#000000;stroke-width:6.48"/>
	<text x="523.13" y="1192.00" style="font-family:'Helvetica';font-size:112.56px;fill:#000000" text-anchor="end">80</text>
	<line x1="590.63" y1="381.04" x2="545.57" y2="381.04" style="stroke:#000000;stroke-width:6.48"/>
	<text x="523.13" y="420.47" style="font-family:'Helvetica';font-size:112.56px;fill:#000000" text-anchor="end">100</text>
	<text x="214.55" y="1538.16" style="font-family:'Helvetica';font-size:112.56px;fill:#000000" transform="rotate(-90 214.55,1538.16)" text-anchor="middle">Female earnings</text>
	<line x1="590.63" y1="2766.66" x2="5286.60" y2="2766.66" style="stroke:#000000;stroke-width:6.48"/>
	<line x1="661.84" y1="2766.66" x2="661.84" y2="2811.54" style="stroke:#000000;stroke-width:6.48"/>
	<text x="661.84" y="2912.86" style="font-family:'Helvetica';font-size:112.56px;fill:#000000" text-anchor="middle">1970</text>
	<line x1="1537.48" y1="2766.66" x2="1537.48" y2="2811.54" style="stroke:#000000;stroke-width:6.48"/>
	<text x="1537.48" y="2912.86" style="font-family:'Helvetica';font-size:112.56px;fill:#000000" text-anchor="middle">1980</text>
	<line x1="2413.13" y1="2766.66" x2="2413.13" y2="2811.54" style="stroke:#000000;stroke-width:6.48"/>
	<text x="2413.13" y="2912.86" style="font-family:'Helvetica';font-size:112.56px;fill:#000000" text-anchor="middle">1990</text>
	<line x1="3288.94" y1="2766.66" x2="3288.94" y2="2811.54" style="stroke:#000000;stroke-width:6.48"/>
	<text x="3288.94" y="2912.86" style="font-family:'Helvetica';font-size:112.56px;fill:#000000" text-anchor="middle">2000</text>
	<line x1="4164.58" y1="2766.66" x2="4164.58" y2="2811.54" style="stroke:#000000;stroke-width:6.48"/>
	<text x="4164.58" y="2912.86" style="font-family:'Helvetica';font-size:112.56px;fill:#000000" text-anchor="middle">2010</text>
	<line x1="5040.23" y1="2766.66" x2="5040.23" y2="2811.54" style="stroke:#000000;stroke-width:6.48"/>
	<text x="5040.23" y="2912.86" style="font-family:'Helvetica';font-size:112.56px;fill:#000000" text-anchor="middle">2020</text>
	<text x="2938.61" y="3070.31" style="font-family:'Helvetica';font-size:112.56px;fill:#000000" text-anchor="middle">TIME</text>
	<text x="2938.61" y="243.10" style="font-family:'Helvetica';font-size:157.44px;fill:#000000" text-anchor="middle">US gender pay gap: 1970-2022</text>
</svg>
