<?xml version="1.0" encoding="utf-8" standalone="no"?>
<!DOCTYPE svg PUBLIC "-//W3C//DTD SVG 1.1//EN"
  "http://www.w3.org/Graphics/SVG/1.1/DTD/svg11.dtd">
<svg xmlns:xlink="http://www.w3.org/1999/xlink" width="460.8pt" height="345.6pt" viewBox="0 0 460.8 345.6" xmlns="http://www.w3.org/2000/svg" version="1.1">
 <metadata>
  <rdf:RDF xmlns:dc="http://purl.org/dc/elements/1.1/" xmlns:cc="http://creativecommons.org/ns#" xmlns:rdf="http://www.w3.org/1999/02/22-rdf-syntax-ns#">
   <cc:Work>
    <dc:type rdf:resource="http://purl.org/dc/dcmitype/StillImage"/>
    <dc:date>2023-07-03T10:23:25.008625</dc:date>
    <dc:format>image/svg+xml</dc:format>
    <dc:creator>
     <cc:Agent>
      <dc:title>Matplotlib v3.7.1, https://matplotlib.org/</dc:title>
     </cc:Agent>
    </dc:creator>
   </cc:Work>
  </rdf:RDF>
 </metadata>
 <defs>
  <style type="text/css">*{stroke-linejoin: round; stroke-linecap: butt}</style>
 </defs>
 <g id="figure_1">
  <g id="patch_1">
   <path d="M 0 345.6 
L 460.8 345.6 
L 460.8 0 
L 0 0 
z
" style="fill: #ffffff"/>
  </g>
  <g id="axes_1">
   <g id="patch_2">
    <path d="M 57.6 307.584 
L 414.72 307.584 
L 414.72 41.472 
L 57.6 41.472 
z
" style="fill: #ffffff"/>
   </g>
   <g id="PolyCollection_1">
    <path d="M 57.6 257.163028 
L 57.6 307.584 
L 89.485714 307.584 
L 95.862857 307.584 
L 102.24 307.584 
L 108.617143 307.584 
L 114.994286 307.584 
L 121.371429 307.584 
L 127.748571 307.584 
L 134.125714 307.584 
L 140.502857 307.584 
L 146.88 307.584 
L 153.257143 307.584 
L 159.634286 307.584 
L 166.011429 307.584 
L 172.388571 307.584 
L 178.765714 307.584 
L 185.142857 307.584 
L 191.52 307.584 
L 197.897143 307.584 
L 204.274286 307.584 
L 210.651429 307.584 
L 217.028571 307.584 
L 223.405714 307.584 
L 229.782857 307.584 
L 236.16 307.584 
L 242.537143 307.584 
L 248.914286 307.584 
L 255.291429 307.584 
L 261.668571 307.584 
L 268.045714 307.584 
L 274.422857 307.584 
L 280.8 307.584 
L 287.177143 307.584 
L 293.554286 307.584 
L 299.931429 307.584 
L 306.308571 307.584 
L 312.685714 307.584 
L 319.062857 307.584 
L 325.44 307.584 
L 331.817143 307.584 
L 338.194286 307.584 
L 344.571429 307.584 
L 350.948571 307.584 
L 357.325714 307.584 
L 363.702857 307.584 
L 370.08 307.584 
L 376.457143 307.584 
L 382.834286 307.584 
L 389.211429 307.584 
L 395.588571 307.584 
L 401.965714 307.584 
L 408.342857 307.584 
L 414.72 307.584 
L 414.72 269.896649 
L 414.72 269.896649 
L 408.342857 268.345233 
L 401.965714 266.587912 
L 395.588571 266.178953 
L 389.211429 265.977714 
L 382.834286 265.629067 
L 376.457143 265.097326 
L 370.08 264.274829 
L 363.702857 262.675458 
L 357.325714 261.784787 
L 350.948571 260.458199 
L 344.571429 258.679277 
L 338.194286 257.598686 
L 331.817143 256.670343 
L 325.44 256.303118 
L 319.062857 255.894419 
L 312.685714 255.853981 
L 306.308571 255.099486 
L 299.931429 254.548908 
L 293.554286 253.543922 
L 287.177143 252.940551 
L 280.8 252.693084 
L 274.422857 252.582571 
L 268.045714 252.385566 
L 261.668571 251.82004 
L 255.291429 250.801662 
L 248.914286 250.00526 
L 242.537143 249.105171 
L 236.16 248.631408 
L 229.782857 248.124379 
L 223.405714 247.700472 
L 217.028571 248.142005 
L 210.651429 248.669254 
L 204.274286 249.075188 
L 197.897143 249.364906 
L 191.52 249.004422 
L 185.142857 248.541805 
L 178.765714 248.767065 
L 172.388571 249.2963 
L 166.011429 249.70474 
L 159.634286 249.923261 
L 153.257143 250.164246 
L 146.88 250.334898 
L 140.502857 250.640429 
L 134.125714 250.881674 
L 127.748571 251.303766 
L 121.371429 251.665979 
L 114.994286 252.016786 
L 108.617143 252.600025 
L 102.24 253.16486 
L 95.862857 253.779983 
L 89.485714 254.513395 
L 57.6 257.163028 
z
" clip-path="url(#pa0ebe2f8be)" style="fill: #d3d3d3"/>
   </g>
   <g id="PolyCollection_2">
    <path d="M 57.6 252.893027 
L 57.6 257.163028 
L 89.485714 254.513395 
L 95.862857 253.779983 
L 102.24 253.16486 
L 108.617143 252.600025 
L 114.994286 252.016786 
L 121.371429 251.665979 
L 127.748571 251.303766 
L 134.125714 250.881674 
L 140.502857 250.640429 
L 146.88 250.334898 
L 153.257143 250.164246 
L 159.634286 249.923261 
L 166.011429 249.70474 
L 172.388571 249.2963 
L 178.765714 248.767065 
L 185.142857 248.541805 
L 191.52 249.004422 
L 197.897143 249.364906 
L 204.274286 249.075188 
L 210.651429 248.669254 
L 217.028571 248.142005 
L 223.405714 247.700472 
L 229.782857 248.124379 
L 236.16 248.631408 
L 242.537143 249.105171 
L 248.914286 250.00526 
L 255.291429 250.801662 
L 261.668571 251.82004 
L 268.045714 252.385566 
L 274.422857 252.582571 
L 280.8 252.693084 
L 287.177143 252.940551 
L 293.554286 253.543922 
L 299.931429 254.548908 
L 306.308571 255.099486 
L 312.685714 255.853981 
L 319.062857 255.894419 
L 325.44 256.303118 
L 331.817143 256.670343 
L 338.194286 257.598686 
L 344.571429 258.679277 
L 350.948571 260.458199 
L 357.325714 261.784787 
L 363.702857 262.675458 
L 370.08 264.274829 
L 376.457143 265.097326 
L 382.834286 265.629067 
L 389.211429 265.977714 
L 395.588571 266.178953 
L 401.965714 266.587912 
L 408.342857 268.345233 
L 414.72 269.896649 
L 414.72 203.554548 
L 414.72 203.554548 
L 408.342857 196.284192 
L 401.965714 190.684925 
L 395.588571 194.859274 
L 389.211429 197.92331 
L 382.834286 200.972483 
L 376.457143 203.354345 
L 370.08 204.225056 
L 363.702857 203.711979 
L 357.325714 203.428914 
L 350.948571 202.144751 
L 344.571429 199.305025 
L 338.194286 198.797996 
L 331.817143 200.04198 
L 325.44 203.864399 
L 319.062857 207.443153 
L 312.685714 210.960906 
L 306.308571 212.970618 
L 299.931429 214.595219 
L 293.554286 216.883504 
L 287.177143 220.000506 
L 280.8 223.697464 
L 274.422857 227.161904 
L 268.045714 228.86332 
L 261.668571 230.031612 
L 255.291429 230.559897 
L 248.914286 230.737548 
L 242.537143 230.218163 
L 236.16 230.474269 
L 229.782857 231.246391 
L 223.405714 232.918948 
L 217.028571 235.151846 
L 210.651429 236.788545 
L 204.274286 237.905599 
L 197.897143 241.115142 
L 191.52 241.712033 
L 185.142857 242.067938 
L 178.765714 242.752531 
L 172.388571 243.838565 
L 166.011429 244.596258 
L 159.634286 245.117717 
L 153.257143 245.593726 
L 146.88 245.984107 
L 140.502857 246.447329 
L 134.125714 246.74612 
L 127.748571 247.227659 
L 121.371429 247.455598 
L 114.994286 247.897218 
L 108.617143 248.569887 
L 102.24 249.009692 
L 95.862857 249.258109 
L 89.485714 250.065139 
L 57.6 252.893027 
z
" clip-path="url(#pa0ebe2f8be)" style="fill: #0000ff"/>
   </g>
   <g id="PolyCollection_3">
    <path d="M 57.6 252.861403 
L 57.6 252.893027 
L 89.485714 250.065139 
L 95.862857 249.258109 
L 102.24 249.009692 
L 108.617143 248.569887 
L 114.994286 247.897218 
L 121.371429 247.455598 
L 127.748571 247.227659 
L 134.125714 246.74612 
L 140.502857 246.447329 
L 146.88 245.984107 
L 153.257143 245.593726 
L 159.634286 245.117717 
L 166.011429 244.596258 
L 172.388571 243.838565 
L 178.765714 242.752531 
L 185.142857 242.067938 
L 191.52 241.712033 
L 197.897143 241.115142 
L 204.274286 237.905599 
L 210.651429 236.788545 
L 217.028571 235.151846 
L 223.405714 232.918948 
L 229.782857 231.246391 
L 236.16 230.474269 
L 242.537143 230.218163 
L 248.914286 230.737548 
L 255.291429 230.559897 
L 261.668571 230.031612 
L 268.045714 228.86332 
L 274.422857 227.161904 
L 280.8 223.697464 
L 287.177143 220.000506 
L 293.554286 216.883504 
L 299.931429 214.595219 
L 306.308571 212.970618 
L 312.685714 210.960906 
L 319.062857 207.443153 
L 325.44 203.864399 
L 331.817143 200.04198 
L 338.194286 198.797996 
L 344.571429 199.305025 
L 350.948571 202.144751 
L 357.325714 203.428914 
L 363.702857 203.711979 
L 370.08 204.225056 
L 376.457143 203.354345 
L 382.834286 200.972483 
L 389.211429 197.92331 
L 395.588571 194.859274 
L 401.965714 190.684925 
L 408.342857 196.284192 
L 414.72 203.554548 
L 414.72 185.851817 
L 414.72 185.851817 
L 408.342857 178.265303 
L 401.965714 172.394808 
L 395.588571 177.416971 
L 389.211429 181.388526 
L 382.834286 185.33969 
L 376.457143 188.368385 
L 370.08 189.068618 
L 363.702857 188.045141 
L 357.325714 186.959194 
L 350.948571 183.996771 
L 344.571429 179.383999 
L 338.194286 175.68825 
L 331.817143 173.033087 
L 325.44 176.476617 
L 319.062857 180.399958 
L 312.685714 184.859447 
L 306.308571 188.210436 
L 299.931429 190.859551 
L 293.554286 193.698067 
L 287.177143 197.019851 
L 280.8 201.716351 
L 274.422857 207.781173 
L 268.045714 209.662486 
L 261.668571 209.877118 
L 255.291429 213.123642 
L 248.914286 215.492111 
L 242.537143 216.426158 
L 236.16 217.111615 
L 229.782857 218.475357 
L 223.405714 222.607887 
L 217.028571 230.276054 
L 210.651429 235.533242 
L 204.274286 237.546237 
L 197.897143 240.920729 
L 191.52 241.527556 
L 185.142857 241.899015 
L 178.765714 242.580929 
L 172.388571 243.683381 
L 166.011429 244.454293 
L 159.634286 244.974974 
L 153.257143 245.464809 
L 146.88 245.863744 
L 140.502857 246.336816 
L 134.125714 246.635607 
L 127.748571 247.11369 
L 121.371429 247.333074 
L 114.994286 247.776682 
L 108.617143 248.459374 
L 102.24 248.901253 
L 95.862857 249.165223 
L 89.485714 249.988151 
L 57.6 252.861403 
z
" clip-path="url(#pa0ebe2f8be)" style="fill: #d3d3d3"/>
   </g>
   <g id="PolyCollection_4">
    <path d="M 57.6 252.81483 
L 57.6 252.861403 
L 89.485714 249.988151 
L 95.862857 249.165223 
L 102.24 248.901253 
L 108.617143 248.459374 
L 114.994286 247.776682 
L 121.371429 247.333074 
L 127.748571 247.11369 
L 134.125714 246.635607 
L 140.502857 246.336816 
L 146.88 245.863744 
L 153.257143 245.464809 
L 159.634286 244.974974 
L 166.011429 244.454293 
L 172.388571 243.683381 
L 178.765714 242.580929 
L 185.142857 241.899015 
L 191.52 241.527556 
L 197.897143 240.920729 
L 204.274286 237.546237 
L 210.651429 235.533242 
L 217.028571 230.276054 
L 223.405714 222.607887 
L 229.782857 218.475357 
L 236.16 217.111615 
L 242.537143 216.426158 
L 248.914286 215.492111 
L 255.291429 213.123642 
L 261.668571 209.877118 
L 268.045714 209.662486 
L 274.422857 207.781173 
L 280.8 201.716351 
L 287.177143 197.019851 
L 293.554286 193.698067 
L 299.931429 190.859551 
L 306.308571 188.210436 
L 312.685714 184.859447 
L 319.062857 180.399958 
L 325.44 176.476617 
L 331.817143 173.033087 
L 338.194286 175.68825 
L 344.571429 179.383999 
L 350.948571 183.996771 
L 357.325714 186.959194 
L 363.702857 188.045141 
L 370.08 189.068618 
L 376.457143 188.368385 
L 382.834286 185.33969 
L 389.211429 181.388526 
L 395.588571 177.416971 
L 401.965714 172.394808 
L 408.342857 178.265303 
L 414.72 185.851817 
L 414.72 161.950681 
L 414.72 161.950681 
L 408.342857 154.101062 
L 401.965714 147.959425 
L 395.588571 153.976032 
L 389.211429 158.87524 
L 382.834286 164.285884 
L 376.457143 168.53005 
L 370.08 170.268016 
L 363.702857 169.97052 
L 357.325714 169.420116 
L 350.948571 165.905474 
L 344.571429 161.223145 
L 338.194286 157.394764 
L 331.817143 154.83456 
L 325.44 158.971496 
L 319.062857 163.681476 
L 312.685714 168.679013 
L 306.308571 170.981641 
L 299.931429 174.854003 
L 293.554286 179.06447 
L 287.177143 183.482916 
L 280.8 189.198659 
L 274.422857 197.78532 
L 268.045714 200.563266 
L 261.668571 201.818483 
L 255.291429 205.821576 
L 248.914286 209.072421 
L 242.537143 208.998025 
L 236.16 210.799068 
L 229.782857 213.099362 
L 223.405714 217.264812 
L 217.028571 226.034222 
L 210.651429 232.169896 
L 204.274286 234.765267 
L 197.897143 238.759115 
L 191.52 239.894746 
L 185.142857 240.839593 
L 178.765714 241.614653 
L 172.388571 243.033955 
L 166.011429 243.887212 
L 159.634286 244.39355 
L 153.257143 244.985516 
L 146.88 245.452712 
L 140.502857 245.966913 
L 134.125714 246.324546 
L 127.748571 246.847301 
L 121.371429 247.070833 
L 114.994286 247.538375 
L 108.617143 248.249926 
L 102.24 248.70684 
L 95.862857 249.090655 
L 89.485714 249.907621 
L 57.6 252.81483 
z
" clip-path="url(#pa0ebe2f8be)" style="fill: #d3d3d3"/>
   </g>
   <g id="PolyCollection_5">
    <path d="M 57.6 252.800228 
L 57.6 252.81483 
L 89.485714 249.907621 
L 95.862857 249.090655 
L 102.24 248.70684 
L 108.617143 248.249926 
L 114.994286 247.538375 
L 121.371429 247.070833 
L 127.748571 246.847301 
L 134.125714 246.324546 
L 140.502857 245.966913 
L 146.88 245.452712 
L 153.257143 244.985516 
L 159.634286 244.39355 
L 166.011429 243.887212 
L 172.388571 243.033955 
L 178.765714 241.614653 
L 185.142857 240.839593 
L 191.52 239.894746 
L 197.897143 238.759115 
L 204.274286 234.765267 
L 210.651429 232.169896 
L 217.028571 226.034222 
L 223.405714 217.264812 
L 229.782857 213.099362 
L 236.16 210.799068 
L 242.537143 208.998025 
L 248.914286 209.072421 
L 255.291429 205.821576 
L 261.668571 201.818483 
L 268.045714 200.563266 
L 274.422857 197.78532 
L 280.8 189.198659 
L 287.177143 183.482916 
L 293.554286 179.06447 
L 299.931429 174.854003 
L 306.308571 170.981641 
L 312.685714 168.679013 
L 319.062857 163.681476 
L 325.44 158.971496 
L 331.817143 154.83456 
L 338.194286 157.394764 
L 344.571429 161.223145 
L 350.948571 165.905474 
L 357.325714 169.420116 
L 363.702857 169.97052 
L 370.08 170.268016 
L 376.457143 168.53005 
L 382.834286 164.285884 
L 389.211429 158.87524 
L 395.588571 153.976032 
L 401.965714 147.959425 
L 408.342857 154.101062 
L 414.72 161.950681 
L 414.72 124.54268 
L 414.72 124.54268 
L 408.342857 115.386691 
L 401.965714 112.363007 
L 395.588571 125.389975 
L 389.211429 136.201931 
L 382.834286 147.005591 
L 376.457143 155.832201 
L 370.08 161.639102 
L 363.702857 163.727184 
L 357.325714 164.895304 
L 350.948571 162.044 
L 344.571429 157.613025 
L 338.194286 153.852126 
L 331.817143 151.280172 
L 325.44 155.786579 
L 319.062857 160.874584 
L 312.685714 166.179121 
L 306.308571 168.733535 
L 299.931429 172.792965 
L 293.554286 177.245628 
L 287.177143 181.829109 
L 280.8 187.73771 
L 274.422857 196.498046 
L 268.045714 199.396356 
L 261.668571 200.790513 
L 255.291429 204.937818 
L 248.914286 208.286215 
L 242.537143 208.286992 
L 236.16 210.141606 
L 229.782857 212.504631 
L 223.405714 216.710951 
L 217.028571 225.495654 
L 210.651429 231.624157 
L 204.274286 234.353716 
L 197.897143 238.380571 
L 191.52 239.515598 
L 185.142857 240.483083 
L 178.765714 241.269635 
L 172.388571 242.733954 
L 166.011429 243.616589 
L 159.634286 244.147985 
L 153.257143 244.748591 
L 146.88 245.269013 
L 140.502857 245.835921 
L 134.125714 246.201418 
L 127.748571 246.757526 
L 121.371429 246.980885 
L 114.994286 247.445661 
L 108.617143 248.157213 
L 102.24 248.619138 
L 95.862857 249.023863 
L 89.485714 249.859493 
L 57.6 252.800228 
z
" clip-path="url(#pa0ebe2f8be)" style="fill: #d3d3d3"/>
   </g>
   <g id="PolyCollection_6">
    <path d="M 57.6 252.799191 
L 57.6 252.800228 
L 89.485714 249.859493 
L 95.862857 249.023863 
L 102.24 248.619138 
L 108.617143 248.157213 
L 114.994286 247.445661 
L 121.371429 246.980885 
L 127.748571 246.757526 
L 134.125714 246.201418 
L 140.502857 245.835921 
L 146.88 245.269013 
L 153.257143 244.748591 
L 159.634286 244.147985 
L 166.011429 243.616589 
L 172.388571 242.733954 
L 178.765714 241.269635 
L 185.142857 240.483083 
L 191.52 239.515598 
L 197.897143 238.380571 
L 204.274286 234.353716 
L 210.651429 231.624157 
L 217.028571 225.495654 
L 223.405714 216.710951 
L 229.782857 212.504631 
L 236.16 210.141606 
L 242.537143 208.286992 
L 248.914286 208.286215 
L 255.291429 204.937818 
L 261.668571 200.790513 
L 268.045714 199.396356 
L 274.422857 196.498046 
L 280.8 187.73771 
L 287.177143 181.829109 
L 293.554286 177.245628 
L 299.931429 172.792965 
L 306.308571 168.733535 
L 312.685714 166.179121 
L 319.062857 160.874584 
L 325.44 155.786579 
L 331.817143 151.280172 
L 338.194286 153.852126 
L 344.571429 157.613025 
L 350.948571 162.044 
L 357.325714 164.895304 
L 363.702857 163.727184 
L 370.08 161.639102 
L 376.457143 155.832201 
L 382.834286 147.005591 
L 389.211429 136.201931 
L 395.588571 125.389975 
L 401.965714 112.363007 
L 408.342857 115.386691 
L 414.72 124.54268 
L 414.72 116.151901 
L 414.72 116.151901 
L 408.342857 107.093291 
L 401.965714 103.996854 
L 395.588571 117.704094 
L 389.211429 129.286185 
L 382.834286 141.175793 
L 376.457143 151.099325 
L 370.08 157.980163 
L 363.702857 161.002205 
L 357.325714 162.81543 
L 350.948571 160.28279 
L 344.571429 156.098763 
L 338.194286 152.534006 
L 331.817143 150.21859 
L 325.44 154.975747 
L 319.062857 160.196817 
L 312.685714 165.578342 
L 306.308571 168.221235 
L 299.931429 172.345297 
L 293.554286 176.848766 
L 287.177143 181.476487 
L 280.8 187.422415 
L 274.422857 196.220511 
L 268.045714 199.151309 
L 261.668571 200.602753 
L 255.291429 204.793434 
L 248.914286 208.172677 
L 242.537143 208.195748 
L 236.16 210.070321 
L 229.782857 212.446221 
L 223.405714 216.662132 
L 217.028571 225.457031 
L 210.651429 231.589682 
L 204.274286 234.320882 
L 197.897143 238.35465 
L 191.52 239.494169 
L 185.142857 240.465111 
L 178.765714 241.252181 
L 172.388571 242.720388 
L 166.011429 243.604665 
L 159.634286 244.136925 
L 153.257143 244.739259 
L 146.88 245.260459 
L 140.502857 245.828923 
L 134.125714 246.195715 
L 127.748571 246.751996 
L 121.371429 246.976478 
L 114.994286 247.442032 
L 108.617143 248.154189 
L 102.24 248.6162 
L 95.862857 249.020493 
L 89.485714 249.855864 
L 57.6 252.799191 
z
" clip-path="url(#pa0ebe2f8be)" style="fill: #d3d3d3"/>
   </g>
   <g id="PolyCollection_7">
    <path d="M 57.6 252.710538 
L 57.6 252.799191 
L 89.485714 249.855864 
L 95.862857 249.020493 
L 102.24 248.6162 
L 108.617143 248.154189 
L 114.994286 247.442032 
L 121.371429 246.976478 
L 127.748571 246.751996 
L 134.125714 246.195715 
L 140.502857 245.828923 
L 146.88 245.260459 
L 153.257143 244.739259 
L 159.634286 244.136925 
L 166.011429 243.604665 
L 172.388571 242.720388 
L 178.765714 241.252181 
L 185.142857 240.465111 
L 191.52 239.494169 
L 197.897143 238.35465 
L 204.274286 234.320882 
L 210.651429 231.589682 
L 217.028571 225.457031 
L 223.405714 216.662132 
L 229.782857 212.446221 
L 236.16 210.070321 
L 242.537143 208.195748 
L 248.914286 208.172677 
L 255.291429 204.793434 
L 261.668571 200.602753 
L 268.045714 199.151309 
L 274.422857 196.220511 
L 280.8 187.422415 
L 287.177143 181.476487 
L 293.554286 176.848766 
L 299.931429 172.345297 
L 306.308571 168.221235 
L 312.685714 165.578342 
L 319.062857 160.196817 
L 325.44 154.975747 
L 331.817143 150.21859 
L 338.194286 152.534006 
L 344.571429 156.098763 
L 350.948571 160.28279 
L 357.325714 162.81543 
L 363.702857 161.002205 
L 370.08 157.980163 
L 376.457143 151.099325 
L 382.834286 141.175793 
L 389.211429 129.286185 
L 395.588571 117.704094 
L 401.965714 103.996854 
L 408.342857 107.093291 
L 414.72 116.151901 
L 414.72 110.983107 
L 414.72 110.983107 
L 408.342857 101.31862 
L 401.965714 98.219763 
L 395.588571 112.835474 
L 389.211429 124.967451 
L 382.834286 137.473305 
L 376.457143 147.996493 
L 370.08 155.369844 
L 363.702857 158.650758 
L 357.325714 160.609318 
L 350.948571 158.152024 
L 344.571429 153.947691 
L 338.194286 150.326684 
L 331.817143 147.864033 
L 325.44 152.762031 
L 319.062857 158.048942 
L 312.685714 163.409816 
L 306.308571 166.157001 
L 299.931429 170.369888 
L 293.554286 174.976267 
L 287.177143 179.676569 
L 280.8 185.750809 
L 274.422857 194.801901 
L 268.045714 197.858505 
L 261.668571 199.571414 
L 255.291429 204.038074 
L 248.914286 207.571639 
L 242.537143 207.652947 
L 236.16 209.582388 
L 229.782857 211.996825 
L 223.405714 216.266912 
L 217.028571 225.143983 
L 210.651429 231.349387 
L 204.274286 234.115323 
L 197.897143 238.178555 
L 191.52 239.335269 
L 185.142857 240.317875 
L 178.765714 241.096391 
L 172.388571 242.584126 
L 166.011429 243.475575 
L 159.634286 244.010599 
L 153.257143 244.614144 
L 146.88 245.145971 
L 140.502857 245.721347 
L 134.125714 246.094361 
L 127.748571 246.653579 
L 121.371429 246.87979 
L 114.994286 247.337395 
L 108.617143 248.047132 
L 102.24 248.523228 
L 95.862857 248.923632 
L 89.485714 249.766348 
L 57.6 252.710538 
z
" clip-path="url(#pa0ebe2f8be)" style="fill: #d3d3d3"/>
   </g>
   <g id="PolyCollection_8">
    <path d="M 57.6 252.649709 
L 57.6 252.710538 
L 89.485714 249.766348 
L 95.862857 248.923632 
L 102.24 248.523228 
L 108.617143 248.047132 
L 114.994286 247.337395 
L 121.371429 246.87979 
L 127.748571 246.653579 
L 134.125714 246.094361 
L 140.502857 245.721347 
L 146.88 245.145971 
L 153.257143 244.614144 
L 159.634286 244.010599 
L 166.011429 243.475575 
L 172.388571 242.584126 
L 178.765714 241.096391 
L 185.142857 240.317875 
L 191.52 239.335269 
L 197.897143 238.178555 
L 204.274286 234.115323 
L 210.651429 231.349387 
L 217.028571 225.143983 
L 223.405714 216.266912 
L 229.782857 211.996825 
L 236.16 209.582388 
L 242.537143 207.652947 
L 248.914286 207.571639 
L 255.291429 204.038074 
L 261.668571 199.571414 
L 268.045714 197.858505 
L 274.422857 194.801901 
L 280.8 185.750809 
L 287.177143 179.676569 
L 293.554286 174.976267 
L 299.931429 170.369888 
L 306.308571 166.157001 
L 312.685714 163.409816 
L 319.062857 158.048942 
L 325.44 152.762031 
L 331.817143 147.864033 
L 338.194286 150.326684 
L 344.571429 153.947691 
L 350.948571 158.152024 
L 357.325714 160.609318 
L 363.702857 158.650758 
L 370.08 155.369844 
L 376.457143 147.996493 
L 382.834286 137.473305 
L 389.211429 124.967451 
L 395.588571 112.835474 
L 401.965714 98.219763 
L 408.342857 101.31862 
L 414.72 110.983107 
L 414.72 106.634822 
L 414.72 106.634822 
L 408.342857 96.706366 
L 401.965714 93.483948 
L 395.588571 108.314464 
L 389.211429 120.631695 
L 382.834286 133.356329 
L 376.457143 144.075485 
L 370.08 151.647396 
L 363.702857 155.090149 
L 357.325714 157.141595 
L 350.948571 154.458177 
L 344.571429 150.380947 
L 338.194286 146.638367 
L 331.817143 144.182369 
L 325.44 149.186214 
L 319.062857 154.625717 
L 312.685714 160.152059 
L 306.308571 163.01641 
L 299.931429 167.360807 
L 293.554286 172.061281 
L 287.177143 176.938801 
L 280.8 183.22007 
L 274.422857 192.619896 
L 268.045714 195.822612 
L 261.668571 197.785493 
L 255.291429 202.466612 
L 248.914286 206.186122 
L 242.537143 206.443525 
L 236.16 208.565824 
L 229.782857 211.09302 
L 223.405714 215.496864 
L 217.028571 224.56299 
L 210.651429 230.870526 
L 204.274286 233.659359 
L 197.897143 237.848744 
L 191.52 239.077693 
L 185.142857 240.089591 
L 178.765714 240.858084 
L 172.388571 242.391182 
L 166.011429 243.30501 
L 159.634286 243.866215 
L 153.257143 244.50389 
L 146.88 245.042716 
L 140.502857 245.62319 
L 134.125714 246.000438 
L 127.748571 246.565273 
L 121.371429 246.789409 
L 114.994286 247.25384 
L 108.617143 247.966775 
L 102.24 248.454276 
L 95.862857 248.857186 
L 89.485714 249.704049 
L 57.6 252.649709 
z
" clip-path="url(#pa0ebe2f8be)" style="fill: #d3d3d3"/>
   </g>
   <g id="PolyCollection_9">
    <path d="M 57.6 251.274561 
L 57.6 252.649709 
L 89.485714 249.704049 
L 95.862857 248.857186 
L 102.24 248.454276 
L 108.617143 247.966775 
L 114.994286 247.25384 
L 121.371429 246.789409 
L 127.748571 246.565273 
L 134.125714 246.000438 
L 140.502857 245.62319 
L 146.88 245.042716 
L 153.257143 244.50389 
L 159.634286 243.866215 
L 166.011429 243.30501 
L 172.388571 242.391182 
L 178.765714 240.858084 
L 185.142857 240.089591 
L 191.52 239.077693 
L 197.897143 237.848744 
L 204.274286 233.659359 
L 210.651429 230.870526 
L 217.028571 224.56299 
L 223.405714 215.496864 
L 229.782857 211.09302 
L 236.16 208.565824 
L 242.537143 206.443525 
L 248.914286 206.186122 
L 255.291429 202.466612 
L 261.668571 197.785493 
L 268.045714 195.822612 
L 274.422857 192.619896 
L 280.8 183.22007 
L 287.177143 176.938801 
L 293.554286 172.061281 
L 299.931429 167.360807 
L 306.308571 163.01641 
L 312.685714 160.152059 
L 319.062857 154.625717 
L 325.44 149.186214 
L 331.817143 144.182369 
L 338.194286 146.638367 
L 344.571429 150.380947 
L 350.948571 154.458177 
L 357.325714 157.141595 
L 363.702857 155.090149 
L 370.08 151.647396 
L 376.457143 144.075485 
L 382.834286 133.356329 
L 389.211429 120.631695 
L 395.588571 108.314464 
L 401.965714 93.483948 
L 408.342857 96.706366 
L 414.72 106.634822 
L 414.72 101.954912 
L 414.72 101.954912 
L 408.342857 91.888293 
L 401.965714 88.371145 
L 395.588571 103.346132 
L 389.211429 115.81777 
L 382.834286 128.715906 
L 376.457143 139.558968 
L 370.08 147.218582 
L 363.702857 150.771501 
L 357.325714 152.962925 
L 350.948571 150.153873 
L 344.571429 146.003025 
L 338.194286 142.132392 
L 331.817143 139.630253 
L 325.44 144.705988 
L 319.062857 150.191286 
L 312.685714 155.884477 
L 306.308571 158.796006 
L 299.931429 163.2275 
L 293.554286 167.916396 
L 287.177143 172.943052 
L 280.8 179.344252 
L 274.422857 188.921555 
L 268.045714 192.126691 
L 261.668571 194.010424 
L 255.291429 198.650242 
L 248.914286 202.453565 
L 242.537143 202.700426 
L 236.16 204.881568 
L 229.782857 207.42233 
L 223.405714 211.824791 
L 217.028571 221.248119 
L 210.651429 227.854964 
L 204.274286 230.828187 
L 197.897143 235.184335 
L 191.52 236.425468 
L 185.142857 237.580022 
L 178.765714 238.34912 
L 172.388571 240.107132 
L 166.011429 241.159986 
L 159.634286 241.855898 
L 153.257143 242.568314 
L 146.88 243.171945 
L 140.502857 243.774452 
L 134.125714 244.152218 
L 127.748571 244.731569 
L 121.371429 244.890556 
L 114.994286 245.401214 
L 108.617143 246.0992 
L 102.24 246.615129 
L 95.862857 247.198281 
L 89.485714 248.058451 
L 57.6 251.274561 
z
" clip-path="url(#pa0ebe2f8be)" style="fill: #d3d3d3"/>
   </g>
   <g id="PolyCollection_10">
    <path d="M 57.6 250.038699 
L 57.6 251.274561 
L 89.485714 248.058451 
L 95.862857 247.198281 
L 102.24 246.615129 
L 108.617143 246.0992 
L 114.994286 245.401214 
L 121.371429 244.890556 
L 127.748571 244.731569 
L 134.125714 244.152218 
L 140.502857 243.774452 
L 146.88 243.171945 
L 153.257143 242.568314 
L 159.634286 241.855898 
L 166.011429 241.159986 
L 172.388571 240.107132 
L 178.765714 238.34912 
L 185.142857 237.580022 
L 191.52 236.425468 
L 197.897143 235.184335 
L 204.274286 230.828187 
L 210.651429 227.854964 
L 217.028571 221.248119 
L 223.405714 211.824791 
L 229.782857 207.42233 
L 236.16 204.881568 
L 242.537143 202.700426 
L 248.914286 202.453565 
L 255.291429 198.650242 
L 261.668571 194.010424 
L 268.045714 192.126691 
L 274.422857 188.921555 
L 280.8 179.344252 
L 287.177143 172.943052 
L 293.554286 167.916396 
L 299.931429 163.2275 
L 306.308571 158.796006 
L 312.685714 155.884477 
L 319.062857 150.191286 
L 325.44 144.705988 
L 331.817143 139.630253 
L 338.194286 142.132392 
L 344.571429 146.003025 
L 350.948571 150.153873 
L 357.325714 152.962925 
L 363.702857 150.771501 
L 370.08 147.218582 
L 376.457143 139.558968 
L 382.834286 128.715906 
L 389.211429 115.81777 
L 395.588571 103.346132 
L 401.965714 88.371145 
L 408.342857 91.888293 
L 414.72 101.954912 
L 414.72 69.04917 
L 414.72 69.04917 
L 408.342857 58.120481 
L 401.965714 54.144 
L 395.588571 71.60177 
L 389.211429 86.225517 
L 382.834286 101.694399 
L 376.457143 114.709961 
L 370.08 124.24553 
L 363.702857 129.031201 
L 357.325714 131.86436 
L 350.948571 127.988888 
L 344.571429 123.181011 
L 338.194286 118.690503 
L 331.817143 115.98557 
L 325.44 121.554682 
L 319.062857 127.434941 
L 312.685714 133.774015 
L 306.308571 137.040844 
L 299.931429 142.114333 
L 293.554286 147.5814 
L 287.177143 153.914598 
L 280.8 161.865485 
L 274.422857 173.126837 
L 268.045714 176.928433 
L 261.668571 179.46954 
L 255.291429 185.308065 
L 248.914286 189.867267 
L 242.537143 190.589619 
L 236.16 193.463735 
L 229.782857 196.842546 
L 223.405714 202.264768 
L 217.028571 214.670392 
L 210.651429 222.521395 
L 204.274286 226.275726 
L 197.897143 231.199127 
L 191.52 232.649708 
L 185.142857 234.086204 
L 178.765714 234.844933 
L 172.388571 236.979329 
L 166.011429 238.245346 
L 159.634286 239.06888 
L 153.257143 239.936048 
L 146.88 240.662289 
L 140.502857 241.319923 
L 134.125714 241.738473 
L 127.748571 242.440606 
L 121.371429 242.620503 
L 114.994286 243.162872 
L 108.617143 243.781106 
L 102.24 244.043693 
L 95.862857 245.475955 
L 89.485714 246.369132 
L 57.6 250.038699 
z
" clip-path="url(#pa0ebe2f8be)" style="fill: #d3d3d3"/>
   </g>
   <g id="matplotlib.axis_1">
    <g id="xtick_1">
     <g id="line2d_1">
      <defs>
       <path id="mdd0dc46950" d="M 0 0 
L 0 3.5 
" style="stroke: #000000; stroke-width: 0.8"/>
      </defs>
      <g>
       <use xlink:href="#mdd0dc46950" x="57.6" y="307.584" style="stroke: #000000; stroke-width: 0.8"/>
      </g>
     </g>
     <g id="text_1">
      <!-- 1965 -->
      <g transform="translate(50.553239 337.952774) rotate(-45) scale(0.1 -0.1)">
       <defs>
        <path id="DejaVuSans-31" d="M 794 531 
L 1825 531 
L 1825 4091 
L 703 3866 
L 703 4441 
L 1819 4666 
L 2450 4666 
L 2450 531 
L 3481 531 
L 3481 0 
L 794 0 
L 794 531 
z
" transform="scale(0.015625)"/>
        <path id="DejaVuSans-39" d="M 703 97 
L 703 672 
Q 941 559 1184 500 
Q 1428 441 1663 441 
Q 2288 441 2617 861 
Q 2947 1281 2994 2138 
Q 2813 1869 2534 1725 
Q 2256 1581 1919 1581 
Q 1219 1581 811 2004 
Q 403 2428 403 3163 
Q 403 3881 828 4315 
Q 1253 4750 1959 4750 
Q 2769 4750 3195 4129 
Q 3622 3509 3622 2328 
Q 3622 1225 3098 567 
Q 2575 -91 1691 -91 
Q 1453 -91 1209 -44 
Q 966 3 703 97 
z
M 1959 2075 
Q 2384 2075 2632 2365 
Q 2881 2656 2881 3163 
Q 2881 3666 2632 3958 
Q 2384 4250 1959 4250 
Q 1534 4250 1286 3958 
Q 1038 3666 1038 3163 
Q 1038 2656 1286 2365 
Q 1534 2075 1959 2075 
z
" transform="scale(0.015625)"/>
        <path id="DejaVuSans-36" d="M 2113 2584 
Q 1688 2584 1439 2293 
Q 1191 2003 1191 1497 
Q 1191 994 1439 701 
Q 1688 409 2113 409 
Q 2538 409 2786 701 
Q 3034 994 3034 1497 
Q 3034 2003 2786 2293 
Q 2538 2584 2113 2584 
z
M 3366 4563 
L 3366 3988 
Q 3128 4100 2886 4159 
Q 2644 4219 2406 4219 
Q 1781 4219 1451 3797 
Q 1122 3375 1075 2522 
Q 1259 2794 1537 2939 
Q 1816 3084 2150 3084 
Q 2853 3084 3261 2657 
Q 3669 2231 3669 1497 
Q 3669 778 3244 343 
Q 2819 -91 2113 -91 
Q 1303 -91 875 529 
Q 447 1150 447 2328 
Q 447 3434 972 4092 
Q 1497 4750 2381 4750 
Q 2619 4750 2861 4703 
Q 3103 4656 3366 4563 
z
" transform="scale(0.015625)"/>
        <path id="DejaVuSans-35" d="M 691 4666 
L 3169 4666 
L 3169 4134 
L 1269 4134 
L 1269 2991 
Q 1406 3038 1543 3061 
Q 1681 3084 1819 3084 
Q 2600 3084 3056 2656 
Q 3513 2228 3513 1497 
Q 3513 744 3044 326 
Q 2575 -91 1722 -91 
Q 1428 -91 1123 -41 
Q 819 9 494 109 
L 494 744 
Q 775 591 1075 516 
Q 1375 441 1709 441 
Q 2250 441 2565 725 
Q 2881 1009 2881 1497 
Q 2881 1984 2565 2268 
Q 2250 2553 1709 2553 
Q 1456 2553 1204 2497 
Q 953 2441 691 2322 
L 691 4666 
z
" transform="scale(0.015625)"/>
       </defs>
       <use xlink:href="#DejaVuSans-31"/>
       <use xlink:href="#DejaVuSans-39" x="63.623047"/>
       <use xlink:href="#DejaVuSans-36" x="127.246094"/>
       <use xlink:href="#DejaVuSans-35" x="190.869141"/>
      </g>
     </g>
    </g>
    <g id="xtick_2">
     <g id="line2d_2">
      <g>
       <use xlink:href="#mdd0dc46950" x="83.108571" y="307.584" style="stroke: #000000; stroke-width: 0.8"/>
      </g>
     </g>
     <g id="text_2">
      <!-- 1969 -->
      <g transform="translate(76.06181 337.952774) rotate(-45) scale(0.1 -0.1)">
       <use xlink:href="#DejaVuSans-31"/>
       <use xlink:href="#DejaVuSans-39" x="63.623047"/>
       <use xlink:href="#DejaVuSans-36" x="127.246094"/>
       <use xlink:href="#DejaVuSans-39" x="190.869141"/>
      </g>
     </g>
    </g>
    <g id="xtick_3">
     <g id="line2d_3">
      <g>
       <use xlink:href="#mdd0dc46950" x="108.617143" y="307.584" style="stroke: #000000; stroke-width: 0.8"/>
      </g>
     </g>
     <g id="text_3">
      <!-- 1973 -->
      <g transform="translate(101.570382 337.952774) rotate(-45) scale(0.1 -0.1)">
       <defs>
        <path id="DejaVuSans-37" d="M 525 4666 
L 3525 4666 
L 3525 4397 
L 1831 0 
L 1172 0 
L 2766 4134 
L 525 4134 
L 525 4666 
z
" transform="scale(0.015625)"/>
        <path id="DejaVuSans-33" d="M 2597 2516 
Q 3050 2419 3304 2112 
Q 3559 1806 3559 1356 
Q 3559 666 3084 287 
Q 2609 -91 1734 -91 
Q 1441 -91 1130 -33 
Q 819 25 488 141 
L 488 750 
Q 750 597 1062 519 
Q 1375 441 1716 441 
Q 2309 441 2620 675 
Q 2931 909 2931 1356 
Q 2931 1769 2642 2001 
Q 2353 2234 1838 2234 
L 1294 2234 
L 1294 2753 
L 1863 2753 
Q 2328 2753 2575 2939 
Q 2822 3125 2822 3475 
Q 2822 3834 2567 4026 
Q 2313 4219 1838 4219 
Q 1578 4219 1281 4162 
Q 984 4106 628 3988 
L 628 4550 
Q 988 4650 1302 4700 
Q 1616 4750 1894 4750 
Q 2613 4750 3031 4423 
Q 3450 4097 3450 3541 
Q 3450 3153 3228 2886 
Q 3006 2619 2597 2516 
z
" transform="scale(0.015625)"/>
       </defs>
       <use xlink:href="#DejaVuSans-31"/>
       <use xlink:href="#DejaVuSans-39" x="63.623047"/>
       <use xlink:href="#DejaVuSans-37" x="127.246094"/>
       <use xlink:href="#DejaVuSans-33" x="190.869141"/>
      </g>
     </g>
    </g>
    <g id="xtick_4">
     <g id="line2d_4">
      <g>
       <use xlink:href="#mdd0dc46950" x="134.125714" y="307.584" style="stroke: #000000; stroke-width: 0.8"/>
      </g>
     </g>
     <g id="text_4">
      <!-- 1977 -->
      <g transform="translate(127.078953 337.952774) rotate(-45) scale(0.1 -0.1)">
       <use xlink:href="#DejaVuSans-31"/>
       <use xlink:href="#DejaVuSans-39" x="63.623047"/>
       <use xlink:href="#DejaVuSans-37" x="127.246094"/>
       <use xlink:href="#DejaVuSans-37" x="190.869141"/>
      </g>
     </g>
    </g>
    <g id="xtick_5">
     <g id="line2d_5">
      <g>
       <use xlink:href="#mdd0dc46950" x="159.634286" y="307.584" style="stroke: #000000; stroke-width: 0.8"/>
      </g>
     </g>
     <g id="text_5">
      <!-- 1981 -->
      <g transform="translate(152.587525 337.952774) rotate(-45) scale(0.1 -0.1)">
       <defs>
        <path id="DejaVuSans-38" d="M 2034 2216 
Q 1584 2216 1326 1975 
Q 1069 1734 1069 1313 
Q 1069 891 1326 650 
Q 1584 409 2034 409 
Q 2484 409 2743 651 
Q 3003 894 3003 1313 
Q 3003 1734 2745 1975 
Q 2488 2216 2034 2216 
z
M 1403 2484 
Q 997 2584 770 2862 
Q 544 3141 544 3541 
Q 544 4100 942 4425 
Q 1341 4750 2034 4750 
Q 2731 4750 3128 4425 
Q 3525 4100 3525 3541 
Q 3525 3141 3298 2862 
Q 3072 2584 2669 2484 
Q 3125 2378 3379 2068 
Q 3634 1759 3634 1313 
Q 3634 634 3220 271 
Q 2806 -91 2034 -91 
Q 1263 -91 848 271 
Q 434 634 434 1313 
Q 434 1759 690 2068 
Q 947 2378 1403 2484 
z
M 1172 3481 
Q 1172 3119 1398 2916 
Q 1625 2713 2034 2713 
Q 2441 2713 2670 2916 
Q 2900 3119 2900 3481 
Q 2900 3844 2670 4047 
Q 2441 4250 2034 4250 
Q 1625 4250 1398 4047 
Q 1172 3844 1172 3481 
z
" transform="scale(0.015625)"/>
       </defs>
       <use xlink:href="#DejaVuSans-31"/>
       <use xlink:href="#DejaVuSans-39" x="63.623047"/>
       <use xlink:href="#DejaVuSans-38" x="127.246094"/>
       <use xlink:href="#DejaVuSans-31" x="190.869141"/>
      </g>
     </g>
    </g>
    <g id="xtick_6">
     <g id="line2d_6">
      <g>
       <use xlink:href="#mdd0dc46950" x="185.142857" y="307.584" style="stroke: #000000; stroke-width: 0.8"/>
      </g>
     </g>
     <g id="text_6">
      <!-- 1985 -->
      <g transform="translate(178.096096 337.952774) rotate(-45) scale(0.1 -0.1)">
       <use xlink:href="#DejaVuSans-31"/>
       <use xlink:href="#DejaVuSans-39" x="63.623047"/>
       <use xlink:href="#DejaVuSans-38" x="127.246094"/>
       <use xlink:href="#DejaVuSans-35" x="190.869141"/>
      </g>
     </g>
    </g>
    <g id="xtick_7">
     <g id="line2d_7">
      <g>
       <use xlink:href="#mdd0dc46950" x="210.651429" y="307.584" style="stroke: #000000; stroke-width: 0.8"/>
      </g>
     </g>
     <g id="text_7">
      <!-- 1989 -->
      <g transform="translate(203.604668 337.952774) rotate(-45) scale(0.1 -0.1)">
       <use xlink:href="#DejaVuSans-31"/>
       <use xlink:href="#DejaVuSans-39" x="63.623047"/>
       <use xlink:href="#DejaVuSans-38" x="127.246094"/>
       <use xlink:href="#DejaVuSans-39" x="190.869141"/>
      </g>
     </g>
    </g>
    <g id="xtick_8">
     <g id="line2d_8">
      <g>
       <use xlink:href="#mdd0dc46950" x="236.16" y="307.584" style="stroke: #000000; stroke-width: 0.8"/>
      </g>
     </g>
     <g id="text_8">
      <!-- 1993 -->
      <g transform="translate(229.113239 337.952774) rotate(-45) scale(0.1 -0.1)">
       <use xlink:href="#DejaVuSans-31"/>
       <use xlink:href="#DejaVuSans-39" x="63.623047"/>
       <use xlink:href="#DejaVuSans-39" x="127.246094"/>
       <use xlink:href="#DejaVuSans-33" x="190.869141"/>
      </g>
     </g>
    </g>
    <g id="xtick_9">
     <g id="line2d_9">
      <g>
       <use xlink:href="#mdd0dc46950" x="261.668571" y="307.584" style="stroke: #000000; stroke-width: 0.8"/>
      </g>
     </g>
     <g id="text_9">
      <!-- 1997 -->
      <g transform="translate(254.62181 337.952774) rotate(-45) scale(0.1 -0.1)">
       <use xlink:href="#DejaVuSans-31"/>
       <use xlink:href="#DejaVuSans-39" x="63.623047"/>
       <use xlink:href="#DejaVuSans-39" x="127.246094"/>
       <use xlink:href="#DejaVuSans-37" x="190.869141"/>
      </g>
     </g>
    </g>
    <g id="xtick_10">
     <g id="line2d_10">
      <g>
       <use xlink:href="#mdd0dc46950" x="287.177143" y="307.584" style="stroke: #000000; stroke-width: 0.8"/>
      </g>
     </g>
     <g id="text_10">
      <!-- 2001 -->
      <g transform="translate(280.130382 337.952774) rotate(-45) scale(0.1 -0.1)">
       <defs>
        <path id="DejaVuSans-32" d="M 1228 531 
L 3431 531 
L 3431 0 
L 469 0 
L 469 531 
Q 828 903 1448 1529 
Q 2069 2156 2228 2338 
Q 2531 2678 2651 2914 
Q 2772 3150 2772 3378 
Q 2772 3750 2511 3984 
Q 2250 4219 1831 4219 
Q 1534 4219 1204 4116 
Q 875 4013 500 3803 
L 500 4441 
Q 881 4594 1212 4672 
Q 1544 4750 1819 4750 
Q 2544 4750 2975 4387 
Q 3406 4025 3406 3419 
Q 3406 3131 3298 2873 
Q 3191 2616 2906 2266 
Q 2828 2175 2409 1742 
Q 1991 1309 1228 531 
z
" transform="scale(0.015625)"/>
        <path id="DejaVuSans-30" d="M 2034 4250 
Q 1547 4250 1301 3770 
Q 1056 3291 1056 2328 
Q 1056 1369 1301 889 
Q 1547 409 2034 409 
Q 2525 409 2770 889 
Q 3016 1369 3016 2328 
Q 3016 3291 2770 3770 
Q 2525 4250 2034 4250 
z
M 2034 4750 
Q 2819 4750 3233 4129 
Q 3647 3509 3647 2328 
Q 3647 1150 3233 529 
Q 2819 -91 2034 -91 
Q 1250 -91 836 529 
Q 422 1150 422 2328 
Q 422 3509 836 4129 
Q 1250 4750 2034 4750 
z
" transform="scale(0.015625)"/>
       </defs>
       <use xlink:href="#DejaVuSans-32"/>
       <use xlink:href="#DejaVuSans-30" x="63.623047"/>
       <use xlink:href="#DejaVuSans-30" x="127.246094"/>
       <use xlink:href="#DejaVuSans-31" x="190.869141"/>
      </g>
     </g>
    </g>
    <g id="xtick_11">
     <g id="line2d_11">
      <g>
       <use xlink:href="#mdd0dc46950" x="312.685714" y="307.584" style="stroke: #000000; stroke-width: 0.8"/>
      </g>
     </g>
     <g id="text_11">
      <!-- 2005 -->
      <g transform="translate(305.638953 337.952774) rotate(-45) scale(0.1 -0.1)">
       <use xlink:href="#DejaVuSans-32"/>
       <use xlink:href="#DejaVuSans-30" x="63.623047"/>
       <use xlink:href="#DejaVuSans-30" x="127.246094"/>
       <use xlink:href="#DejaVuSans-35" x="190.869141"/>
      </g>
     </g>
    </g>
    <g id="xtick_12">
     <g id="line2d_12">
      <g>
       <use xlink:href="#mdd0dc46950" x="338.194286" y="307.584" style="stroke: #000000; stroke-width: 0.8"/>
      </g>
     </g>
     <g id="text_12">
      <!-- 2009 -->
      <g transform="translate(331.147525 337.952774) rotate(-45) scale(0.1 -0.1)">
       <use xlink:href="#DejaVuSans-32"/>
       <use xlink:href="#DejaVuSans-30" x="63.623047"/>
       <use xlink:href="#DejaVuSans-30" x="127.246094"/>
       <use xlink:href="#DejaVuSans-39" x="190.869141"/>
      </g>
     </g>
    </g>
    <g id="xtick_13">
     <g id="line2d_13">
      <g>
       <use xlink:href="#mdd0dc46950" x="363.702857" y="307.584" style="stroke: #000000; stroke-width: 0.8"/>
      </g>
     </g>
     <g id="text_13">
      <!-- 2013 -->
      <g transform="translate(356.656096 337.952774) rotate(-45) scale(0.1 -0.1)">
       <use xlink:href="#DejaVuSans-32"/>
       <use xlink:href="#DejaVuSans-30" x="63.623047"/>
       <use xlink:href="#DejaVuSans-31" x="127.246094"/>
       <use xlink:href="#DejaVuSans-33" x="190.869141"/>
      </g>
     </g>
    </g>
    <g id="xtick_14">
     <g id="line2d_14">
      <g>
       <use xlink:href="#mdd0dc46950" x="389.211429" y="307.584" style="stroke: #000000; stroke-width: 0.8"/>
      </g>
     </g>
     <g id="text_14">
      <!-- 2017 -->
      <g transform="translate(382.164668 337.952774) rotate(-45) scale(0.1 -0.1)">
       <use xlink:href="#DejaVuSans-32"/>
       <use xlink:href="#DejaVuSans-30" x="63.623047"/>
       <use xlink:href="#DejaVuSans-31" x="127.246094"/>
       <use xlink:href="#DejaVuSans-37" x="190.869141"/>
      </g>
     </g>
    </g>
    <g id="xtick_15">
     <g id="line2d_15">
      <g>
       <use xlink:href="#mdd0dc46950" x="414.72" y="307.584" style="stroke: #000000; stroke-width: 0.8"/>
      </g>
     </g>
     <g id="text_15">
      <!-- 2021 -->
      <g transform="translate(407.673239 337.952774) rotate(-45) scale(0.1 -0.1)">
       <use xlink:href="#DejaVuSans-32"/>
       <use xlink:href="#DejaVuSans-30" x="63.623047"/>
       <use xlink:href="#DejaVuSans-32" x="127.246094"/>
       <use xlink:href="#DejaVuSans-31" x="190.869141"/>
      </g>
     </g>
    </g>
   </g>
   <g id="matplotlib.axis_2">
    <g id="ytick_1">
     <g id="line2d_16">
      <defs>
       <path id="m38363a4c62" d="M 0 0 
L -3.5 0 
" style="stroke: #000000; stroke-width: 0.8"/>
      </defs>
      <g>
       <use xlink:href="#m38363a4c62" x="57.6" y="307.584" style="stroke: #000000; stroke-width: 0.8"/>
      </g>
     </g>
     <g id="text_16">
      <!-- 0.0 -->
      <g transform="translate(34.696875 311.383219) scale(0.1 -0.1)">
       <defs>
        <path id="DejaVuSans-2e" d="M 684 794 
L 1344 794 
L 1344 0 
L 684 0 
L 684 794 
z
" transform="scale(0.015625)"/>
       </defs>
       <use xlink:href="#DejaVuSans-30"/>
       <use xlink:href="#DejaVuSans-2e" x="63.623047"/>
       <use xlink:href="#DejaVuSans-30" x="95.410156"/>
      </g>
     </g>
    </g>
    <g id="ytick_2">
     <g id="line2d_17">
      <g>
       <use xlink:href="#m38363a4c62" x="57.6" y="264.381108" style="stroke: #000000; stroke-width: 0.8"/>
      </g>
     </g>
     <g id="text_17">
      <!-- 0.5 -->
      <g transform="translate(34.696875 268.180327) scale(0.1 -0.1)">
       <use xlink:href="#DejaVuSans-30"/>
       <use xlink:href="#DejaVuSans-2e" x="63.623047"/>
       <use xlink:href="#DejaVuSans-35" x="95.410156"/>
      </g>
     </g>
    </g>
    <g id="ytick_3">
     <g id="line2d_18">
      <g>
       <use xlink:href="#m38363a4c62" x="57.6" y="221.178217" style="stroke: #000000; stroke-width: 0.8"/>
      </g>
     </g>
     <g id="text_18">
      <!-- 1.0 -->
      <g transform="translate(34.696875 224.977435) scale(0.1 -0.1)">
       <use xlink:href="#DejaVuSans-31"/>
       <use xlink:href="#DejaVuSans-2e" x="63.623047"/>
       <use xlink:href="#DejaVuSans-30" x="95.410156"/>
      </g>
     </g>
    </g>
    <g id="ytick_4">
     <g id="line2d_19">
      <g>
       <use xlink:href="#m38363a4c62" x="57.6" y="177.975325" style="stroke: #000000; stroke-width: 0.8"/>
      </g>
     </g>
     <g id="text_19">
      <!-- 1.5 -->
      <g transform="translate(34.696875 181.774544) scale(0.1 -0.1)">
       <use xlink:href="#DejaVuSans-31"/>
       <use xlink:href="#DejaVuSans-2e" x="63.623047"/>
       <use xlink:href="#DejaVuSans-35" x="95.410156"/>
      </g>
     </g>
    </g>
    <g id="ytick_5">
     <g id="line2d_20">
      <g>
       <use xlink:href="#m38363a4c62" x="57.6" y="134.772433" style="stroke: #000000; stroke-width: 0.8"/>
      </g>
     </g>
     <g id="text_20">
      <!-- 2.0 -->
      <g transform="translate(34.696875 138.571652) scale(0.1 -0.1)">
       <use xlink:href="#DejaVuSans-32"/>
       <use xlink:href="#DejaVuSans-2e" x="63.623047"/>
       <use xlink:href="#DejaVuSans-30" x="95.410156"/>
      </g>
     </g>
    </g>
    <g id="ytick_6">
     <g id="line2d_21">
      <g>
       <use xlink:href="#m38363a4c62" x="57.6" y="91.569542" style="stroke: #000000; stroke-width: 0.8"/>
      </g>
     </g>
     <g id="text_21">
      <!-- 2.5 -->
      <g transform="translate(34.696875 95.368761) scale(0.1 -0.1)">
       <use xlink:href="#DejaVuSans-32"/>
       <use xlink:href="#DejaVuSans-2e" x="63.623047"/>
       <use xlink:href="#DejaVuSans-35" x="95.410156"/>
      </g>
     </g>
    </g>
    <g id="ytick_7">
     <g id="line2d_22">
      <g>
       <use xlink:href="#m38363a4c62" x="57.6" y="48.36665" style="stroke: #000000; stroke-width: 0.8"/>
      </g>
     </g>
     <g id="text_22">
      <!-- 3.0 -->
      <g transform="translate(34.696875 52.165869) scale(0.1 -0.1)">
       <use xlink:href="#DejaVuSans-33"/>
       <use xlink:href="#DejaVuSans-2e" x="63.623047"/>
       <use xlink:href="#DejaVuSans-30" x="95.410156"/>
      </g>
     </g>
    </g>
    <g id="text_23">
     <!-- Million -->
     <g transform="translate(28.617187 190.626437) rotate(-90) scale(0.1 -0.1)">
      <defs>
       <path id="DejaVuSans-4d" d="M 628 4666 
L 1569 4666 
L 2759 1491 
L 3956 4666 
L 4897 4666 
L 4897 0 
L 4281 0 
L 4281 4097 
L 3078 897 
L 2444 897 
L 1241 4097 
L 1241 0 
L 628 0 
L 628 4666 
z
" transform="scale(0.015625)"/>
       <path id="DejaVuSans-69" d="M 603 3500 
L 1178 3500 
L 1178 0 
L 603 0 
L 603 3500 
z
M 603 4863 
L 1178 4863 
L 1178 4134 
L 603 4134 
L 603 4863 
z
" transform="scale(0.015625)"/>
       <path id="DejaVuSans-6c" d="M 603 4863 
L 1178 4863 
L 1178 0 
L 603 0 
L 603 4863 
z
" transform="scale(0.015625)"/>
       <path id="DejaVuSans-6f" d="M 1959 3097 
Q 1497 3097 1228 2736 
Q 959 2375 959 1747 
Q 959 1119 1226 758 
Q 1494 397 1959 397 
Q 2419 397 2687 759 
Q 2956 1122 2956 1747 
Q 2956 2369 2687 2733 
Q 2419 3097 1959 3097 
z
M 1959 3584 
Q 2709 3584 3137 3096 
Q 3566 2609 3566 1747 
Q 3566 888 3137 398 
Q 2709 -91 1959 -91 
Q 1206 -91 779 398 
Q 353 888 353 1747 
Q 353 2609 779 3096 
Q 1206 3584 1959 3584 
z
" transform="scale(0.015625)"/>
       <path id="DejaVuSans-6e" d="M 3513 2113 
L 3513 0 
L 2938 0 
L 2938 2094 
Q 2938 2591 2744 2837 
Q 2550 3084 2163 3084 
Q 1697 3084 1428 2787 
Q 1159 2491 1159 1978 
L 1159 0 
L 581 0 
L 581 3500 
L 1159 3500 
L 1159 2956 
Q 1366 3272 1645 3428 
Q 1925 3584 2291 3584 
Q 2894 3584 3203 3211 
Q 3513 2838 3513 2113 
z
" transform="scale(0.015625)"/>
      </defs>
      <use xlink:href="#DejaVuSans-4d"/>
      <use xlink:href="#DejaVuSans-69" x="86.279297"/>
      <use xlink:href="#DejaVuSans-6c" x="114.0625"/>
      <use xlink:href="#DejaVuSans-6c" x="141.845703"/>
      <use xlink:href="#DejaVuSans-69" x="169.628906"/>
      <use xlink:href="#DejaVuSans-6f" x="197.412109"/>
      <use xlink:href="#DejaVuSans-6e" x="258.59375"/>
     </g>
    </g>
    <g id="text_24">
     <!-- 1e6 -->
     <g transform="translate(57.6 38.472) scale(0.1 -0.1)">
      <defs>
       <path id="DejaVuSans-65" d="M 3597 1894 
L 3597 1613 
L 953 1613 
Q 991 1019 1311 708 
Q 1631 397 2203 397 
Q 2534 397 2845 478 
Q 3156 559 3463 722 
L 3463 178 
Q 3153 47 2828 -22 
Q 2503 -91 2169 -91 
Q 1331 -91 842 396 
Q 353 884 353 1716 
Q 353 2575 817 3079 
Q 1281 3584 2069 3584 
Q 2775 3584 3186 3129 
Q 3597 2675 3597 1894 
z
M 3022 2063 
Q 3016 2534 2758 2815 
Q 2500 3097 2075 3097 
Q 1594 3097 1305 2825 
Q 1016 2553 972 2059 
L 3022 2063 
z
" transform="scale(0.015625)"/>
      </defs>
      <use xlink:href="#DejaVuSans-31"/>
      <use xlink:href="#DejaVuSans-65" x="63.623047"/>
      <use xlink:href="#DejaVuSans-36" x="125.146484"/>
     </g>
    </g>
   </g>
   <g id="patch_3">
    <path d="M 57.6 307.584 
L 57.6 41.472 
" style="fill: none; stroke: #000000; stroke-width: 0.8; stroke-linejoin: miter; stroke-linecap: square"/>
   </g>
   <g id="patch_4">
    <path d="M 414.72 307.584 
L 414.72 41.472 
" style="fill: none; stroke: #000000; stroke-width: 0.8; stroke-linejoin: miter; stroke-linecap: square"/>
   </g>
   <g id="patch_5">
    <path d="M 57.6 307.584 
L 414.72 307.584 
" style="fill: none; stroke: #000000; stroke-width: 0.8; stroke-linejoin: miter; stroke-linecap: square"/>
   </g>
   <g id="patch_6">
    <path d="M 57.6 41.472 
L 414.72 41.472 
" style="fill: none; stroke: #000000; stroke-width: 0.8; stroke-linejoin: miter; stroke-linecap: square"/>
   </g>
   <g id="text_25">
    <!-- China -->
    <g transform="translate(219.021562 35.472) scale(0.12 -0.12)">
     <defs>
      <path id="DejaVuSans-43" d="M 4122 4306 
L 4122 3641 
Q 3803 3938 3442 4084 
Q 3081 4231 2675 4231 
Q 1875 4231 1450 3742 
Q 1025 3253 1025 2328 
Q 1025 1406 1450 917 
Q 1875 428 2675 428 
Q 3081 428 3442 575 
Q 3803 722 4122 1019 
L 4122 359 
Q 3791 134 3420 21 
Q 3050 -91 2638 -91 
Q 1578 -91 968 557 
Q 359 1206 359 2328 
Q 359 3453 968 4101 
Q 1578 4750 2638 4750 
Q 3056 4750 3426 4639 
Q 3797 4528 4122 4306 
z
" transform="scale(0.015625)"/>
      <path id="DejaVuSans-68" d="M 3513 2113 
L 3513 0 
L 2938 0 
L 2938 2094 
Q 2938 2591 2744 2837 
Q 2550 3084 2163 3084 
Q 1697 3084 1428 2787 
Q 1159 2491 1159 1978 
L 1159 0 
L 581 0 
L 581 4863 
L 1159 4863 
L 1159 2956 
Q 1366 3272 1645 3428 
Q 1925 3584 2291 3584 
Q 2894 3584 3203 3211 
Q 3513 2838 3513 2113 
z
" transform="scale(0.015625)"/>
      <path id="DejaVuSans-61" d="M 2194 1759 
Q 1497 1759 1228 1600 
Q 959 1441 959 1056 
Q 959 750 1161 570 
Q 1363 391 1709 391 
Q 2188 391 2477 730 
Q 2766 1069 2766 1631 
L 2766 1759 
L 2194 1759 
z
M 3341 1997 
L 3341 0 
L 2766 0 
L 2766 531 
Q 2569 213 2275 61 
Q 1981 -91 1556 -91 
Q 1019 -91 701 211 
Q 384 513 384 1019 
Q 384 1609 779 1909 
Q 1175 2209 1959 2209 
L 2766 2209 
L 2766 2266 
Q 2766 2663 2505 2880 
Q 2244 3097 1772 3097 
Q 1472 3097 1187 3025 
Q 903 2953 641 2809 
L 641 3341 
Q 956 3463 1253 3523 
Q 1550 3584 1831 3584 
Q 2591 3584 2966 3190 
Q 3341 2797 3341 1997 
z
" transform="scale(0.015625)"/>
     </defs>
     <use xlink:href="#DejaVuSans-43"/>
     <use xlink:href="#DejaVuSans-68" x="69.824219"/>
     <use xlink:href="#DejaVuSans-69" x="133.203125"/>
     <use xlink:href="#DejaVuSans-6e" x="160.986328"/>
     <use xlink:href="#DejaVuSans-61" x="224.365234"/>
    </g>
   </g>
   <g id="legend_1">
    <g id="patch_7">
     <path d="M 64.6 196.25325 
L 150.476562 196.25325 
Q 152.476562 196.25325 152.476562 194.25325 
L 152.476562 48.472 
Q 152.476562 46.472 150.476562 46.472 
L 64.6 46.472 
Q 62.6 46.472 62.6 48.472 
L 62.6 194.25325 
Q 62.6 196.25325 64.6 196.25325 
z
" style="fill: #ffffff; opacity: 0.8; stroke: #cccccc; stroke-linejoin: miter"/>
    </g>
    <g id="patch_8">
     <path d="M 66.6 58.070437 
L 86.6 58.070437 
L 86.6 51.070437 
L 66.6 51.070437 
z
" style="fill: #d3d3d3"/>
    </g>
    <g id="text_26">
     <!-- Koreas -->
     <g transform="translate(94.6 58.070437) scale(0.1 -0.1)">
      <defs>
       <path id="DejaVuSans-4b" d="M 628 4666 
L 1259 4666 
L 1259 2694 
L 3353 4666 
L 4166 4666 
L 1850 2491 
L 4331 0 
L 3500 0 
L 1259 2247 
L 1259 0 
L 628 0 
L 628 4666 
z
" transform="scale(0.015625)"/>
       <path id="DejaVuSans-72" d="M 2631 2963 
Q 2534 3019 2420 3045 
Q 2306 3072 2169 3072 
Q 1681 3072 1420 2755 
Q 1159 2438 1159 1844 
L 1159 0 
L 581 0 
L 581 3500 
L 1159 3500 
L 1159 2956 
Q 1341 3275 1631 3429 
Q 1922 3584 2338 3584 
Q 2397 3584 2469 3576 
Q 2541 3569 2628 3553 
L 2631 2963 
z
" transform="scale(0.015625)"/>
       <path id="DejaVuSans-73" d="M 2834 3397 
L 2834 2853 
Q 2591 2978 2328 3040 
Q 2066 3103 1784 3103 
Q 1356 3103 1142 2972 
Q 928 2841 928 2578 
Q 928 2378 1081 2264 
Q 1234 2150 1697 2047 
L 1894 2003 
Q 2506 1872 2764 1633 
Q 3022 1394 3022 966 
Q 3022 478 2636 193 
Q 2250 -91 1575 -91 
Q 1294 -91 989 -36 
Q 684 19 347 128 
L 347 722 
Q 666 556 975 473 
Q 1284 391 1588 391 
Q 1994 391 2212 530 
Q 2431 669 2431 922 
Q 2431 1156 2273 1281 
Q 2116 1406 1581 1522 
L 1381 1569 
Q 847 1681 609 1914 
Q 372 2147 372 2553 
Q 372 3047 722 3315 
Q 1072 3584 1716 3584 
Q 2034 3584 2315 3537 
Q 2597 3491 2834 3397 
z
" transform="scale(0.015625)"/>
      </defs>
      <use xlink:href="#DejaVuSans-4b"/>
      <use xlink:href="#DejaVuSans-6f" x="60.576172"/>
      <use xlink:href="#DejaVuSans-72" x="121.757812"/>
      <use xlink:href="#DejaVuSans-65" x="160.621094"/>
      <use xlink:href="#DejaVuSans-61" x="222.144531"/>
      <use xlink:href="#DejaVuSans-73" x="283.423828"/>
     </g>
    </g>
    <g id="patch_9">
     <path d="M 66.6 72.748562 
L 86.6 72.748562 
L 86.6 65.748562 
L 66.6 65.748562 
z
" style="fill: #0000ff"/>
    </g>
    <g id="text_27">
     <!-- China -->
     <g transform="translate(94.6 72.748562) scale(0.1 -0.1)">
      <use xlink:href="#DejaVuSans-43"/>
      <use xlink:href="#DejaVuSans-68" x="69.824219"/>
      <use xlink:href="#DejaVuSans-69" x="133.203125"/>
      <use xlink:href="#DejaVuSans-6e" x="160.986328"/>
      <use xlink:href="#DejaVuSans-61" x="224.365234"/>
     </g>
    </g>
    <g id="patch_10">
     <path d="M 66.6 87.426688 
L 86.6 87.426688 
L 86.6 80.426688 
L 66.6 80.426688 
z
" style="fill: #d3d3d3"/>
    </g>
    <g id="text_28">
     <!-- Brazil -->
     <g transform="translate(94.6 87.426688) scale(0.1 -0.1)">
      <defs>
       <path id="DejaVuSans-42" d="M 1259 2228 
L 1259 519 
L 2272 519 
Q 2781 519 3026 730 
Q 3272 941 3272 1375 
Q 3272 1813 3026 2020 
Q 2781 2228 2272 2228 
L 1259 2228 
z
M 1259 4147 
L 1259 2741 
L 2194 2741 
Q 2656 2741 2882 2914 
Q 3109 3088 3109 3444 
Q 3109 3797 2882 3972 
Q 2656 4147 2194 4147 
L 1259 4147 
z
M 628 4666 
L 2241 4666 
Q 2963 4666 3353 4366 
Q 3744 4066 3744 3513 
Q 3744 3084 3544 2831 
Q 3344 2578 2956 2516 
Q 3422 2416 3680 2098 
Q 3938 1781 3938 1306 
Q 3938 681 3513 340 
Q 3088 0 2303 0 
L 628 0 
L 628 4666 
z
" transform="scale(0.015625)"/>
       <path id="DejaVuSans-7a" d="M 353 3500 
L 3084 3500 
L 3084 2975 
L 922 459 
L 3084 459 
L 3084 0 
L 275 0 
L 275 525 
L 2438 3041 
L 353 3041 
L 353 3500 
z
" transform="scale(0.015625)"/>
      </defs>
      <use xlink:href="#DejaVuSans-42"/>
      <use xlink:href="#DejaVuSans-72" x="68.603516"/>
      <use xlink:href="#DejaVuSans-61" x="109.716797"/>
      <use xlink:href="#DejaVuSans-7a" x="170.996094"/>
      <use xlink:href="#DejaVuSans-69" x="223.486328"/>
      <use xlink:href="#DejaVuSans-6c" x="251.269531"/>
     </g>
    </g>
    <g id="patch_11">
     <path d="M 66.6 102.104812 
L 86.6 102.104812 
L 86.6 95.104812 
L 66.6 95.104812 
z
" style="fill: #d3d3d3"/>
    </g>
    <g id="text_29">
     <!-- Philippines -->
     <g transform="translate(94.6 102.104812) scale(0.1 -0.1)">
      <defs>
       <path id="DejaVuSans-50" d="M 1259 4147 
L 1259 2394 
L 2053 2394 
Q 2494 2394 2734 2622 
Q 2975 2850 2975 3272 
Q 2975 3691 2734 3919 
Q 2494 4147 2053 4147 
L 1259 4147 
z
M 628 4666 
L 2053 4666 
Q 2838 4666 3239 4311 
Q 3641 3956 3641 3272 
Q 3641 2581 3239 2228 
Q 2838 1875 2053 1875 
L 1259 1875 
L 1259 0 
L 628 0 
L 628 4666 
z
" transform="scale(0.015625)"/>
       <path id="DejaVuSans-70" d="M 1159 525 
L 1159 -1331 
L 581 -1331 
L 581 3500 
L 1159 3500 
L 1159 2969 
Q 1341 3281 1617 3432 
Q 1894 3584 2278 3584 
Q 2916 3584 3314 3078 
Q 3713 2572 3713 1747 
Q 3713 922 3314 415 
Q 2916 -91 2278 -91 
Q 1894 -91 1617 61 
Q 1341 213 1159 525 
z
M 3116 1747 
Q 3116 2381 2855 2742 
Q 2594 3103 2138 3103 
Q 1681 3103 1420 2742 
Q 1159 2381 1159 1747 
Q 1159 1113 1420 752 
Q 1681 391 2138 391 
Q 2594 391 2855 752 
Q 3116 1113 3116 1747 
z
" transform="scale(0.015625)"/>
      </defs>
      <use xlink:href="#DejaVuSans-50"/>
      <use xlink:href="#DejaVuSans-68" x="60.302734"/>
      <use xlink:href="#DejaVuSans-69" x="123.681641"/>
      <use xlink:href="#DejaVuSans-6c" x="151.464844"/>
      <use xlink:href="#DejaVuSans-69" x="179.248047"/>
      <use xlink:href="#DejaVuSans-70" x="207.03125"/>
      <use xlink:href="#DejaVuSans-70" x="270.507812"/>
      <use xlink:href="#DejaVuSans-69" x="333.984375"/>
      <use xlink:href="#DejaVuSans-6e" x="361.767578"/>
      <use xlink:href="#DejaVuSans-65" x="425.146484"/>
      <use xlink:href="#DejaVuSans-73" x="486.669922"/>
     </g>
    </g>
    <g id="patch_12">
     <path d="M 66.6 116.782938 
L 86.6 116.782938 
L 86.6 109.782938 
L 66.6 109.782938 
z
" style="fill: #d3d3d3"/>
    </g>
    <g id="text_30">
     <!-- Vietnam -->
     <g transform="translate(94.6 116.782938) scale(0.1 -0.1)">
      <defs>
       <path id="DejaVuSans-56" d="M 1831 0 
L 50 4666 
L 709 4666 
L 2188 738 
L 3669 4666 
L 4325 4666 
L 2547 0 
L 1831 0 
z
" transform="scale(0.015625)"/>
       <path id="DejaVuSans-74" d="M 1172 4494 
L 1172 3500 
L 2356 3500 
L 2356 3053 
L 1172 3053 
L 1172 1153 
Q 1172 725 1289 603 
Q 1406 481 1766 481 
L 2356 481 
L 2356 0 
L 1766 0 
Q 1100 0 847 248 
Q 594 497 594 1153 
L 594 3053 
L 172 3053 
L 172 3500 
L 594 3500 
L 594 4494 
L 1172 4494 
z
" transform="scale(0.015625)"/>
       <path id="DejaVuSans-6d" d="M 3328 2828 
Q 3544 3216 3844 3400 
Q 4144 3584 4550 3584 
Q 5097 3584 5394 3201 
Q 5691 2819 5691 2113 
L 5691 0 
L 5113 0 
L 5113 2094 
Q 5113 2597 4934 2840 
Q 4756 3084 4391 3084 
Q 3944 3084 3684 2787 
Q 3425 2491 3425 1978 
L 3425 0 
L 2847 0 
L 2847 2094 
Q 2847 2600 2669 2842 
Q 2491 3084 2119 3084 
Q 1678 3084 1418 2786 
Q 1159 2488 1159 1978 
L 1159 0 
L 581 0 
L 581 3500 
L 1159 3500 
L 1159 2956 
Q 1356 3278 1631 3431 
Q 1906 3584 2284 3584 
Q 2666 3584 2933 3390 
Q 3200 3197 3328 2828 
z
" transform="scale(0.015625)"/>
      </defs>
      <use xlink:href="#DejaVuSans-56"/>
      <use xlink:href="#DejaVuSans-69" x="66.158203"/>
      <use xlink:href="#DejaVuSans-65" x="93.941406"/>
      <use xlink:href="#DejaVuSans-74" x="155.464844"/>
      <use xlink:href="#DejaVuSans-6e" x="194.673828"/>
      <use xlink:href="#DejaVuSans-61" x="258.052734"/>
      <use xlink:href="#DejaVuSans-6d" x="319.332031"/>
     </g>
    </g>
    <g id="patch_13">
     <path d="M 66.6 131.461062 
L 86.6 131.461062 
L 86.6 124.461062 
L 66.6 124.461062 
z
" style="fill: #d3d3d3"/>
    </g>
    <g id="text_31">
     <!-- Nepal -->
     <g transform="translate(94.6 131.461062) scale(0.1 -0.1)">
      <defs>
       <path id="DejaVuSans-4e" d="M 628 4666 
L 1478 4666 
L 3547 763 
L 3547 4666 
L 4159 4666 
L 4159 0 
L 3309 0 
L 1241 3903 
L 1241 0 
L 628 0 
L 628 4666 
z
" transform="scale(0.015625)"/>
      </defs>
      <use xlink:href="#DejaVuSans-4e"/>
      <use xlink:href="#DejaVuSans-65" x="74.804688"/>
      <use xlink:href="#DejaVuSans-70" x="136.328125"/>
      <use xlink:href="#DejaVuSans-61" x="199.804688"/>
      <use xlink:href="#DejaVuSans-6c" x="261.083984"/>
     </g>
    </g>
    <g id="patch_14">
     <path d="M 66.6 146.139187 
L 86.6 146.139187 
L 86.6 139.139187 
L 66.6 139.139187 
z
" style="fill: #d3d3d3"/>
    </g>
    <g id="text_32">
     <!-- Indonesia -->
     <g transform="translate(94.6 146.139187) scale(0.1 -0.1)">
      <defs>
       <path id="DejaVuSans-49" d="M 628 4666 
L 1259 4666 
L 1259 0 
L 628 0 
L 628 4666 
z
" transform="scale(0.015625)"/>
       <path id="DejaVuSans-64" d="M 2906 2969 
L 2906 4863 
L 3481 4863 
L 3481 0 
L 2906 0 
L 2906 525 
Q 2725 213 2448 61 
Q 2172 -91 1784 -91 
Q 1150 -91 751 415 
Q 353 922 353 1747 
Q 353 2572 751 3078 
Q 1150 3584 1784 3584 
Q 2172 3584 2448 3432 
Q 2725 3281 2906 2969 
z
M 947 1747 
Q 947 1113 1208 752 
Q 1469 391 1925 391 
Q 2381 391 2643 752 
Q 2906 1113 2906 1747 
Q 2906 2381 2643 2742 
Q 2381 3103 1925 3103 
Q 1469 3103 1208 2742 
Q 947 2381 947 1747 
z
" transform="scale(0.015625)"/>
      </defs>
      <use xlink:href="#DejaVuSans-49"/>
      <use xlink:href="#DejaVuSans-6e" x="29.492188"/>
      <use xlink:href="#DejaVuSans-64" x="92.871094"/>
      <use xlink:href="#DejaVuSans-6f" x="156.347656"/>
      <use xlink:href="#DejaVuSans-6e" x="217.529297"/>
      <use xlink:href="#DejaVuSans-65" x="280.908203"/>
      <use xlink:href="#DejaVuSans-73" x="342.431641"/>
      <use xlink:href="#DejaVuSans-69" x="394.53125"/>
      <use xlink:href="#DejaVuSans-61" x="422.314453"/>
     </g>
    </g>
    <g id="patch_15">
     <path d="M 66.6 160.817312 
L 86.6 160.817312 
L 86.6 153.817312 
L 66.6 153.817312 
z
" style="fill: #d3d3d3"/>
    </g>
    <g id="text_33">
     <!-- Thailand -->
     <g transform="translate(94.6 160.817312) scale(0.1 -0.1)">
      <defs>
       <path id="DejaVuSans-54" d="M -19 4666 
L 3928 4666 
L 3928 4134 
L 2272 4134 
L 2272 0 
L 1638 0 
L 1638 4134 
L -19 4134 
L -19 4666 
z
" transform="scale(0.015625)"/>
      </defs>
      <use xlink:href="#DejaVuSans-54"/>
      <use xlink:href="#DejaVuSans-68" x="61.083984"/>
      <use xlink:href="#DejaVuSans-61" x="124.462891"/>
      <use xlink:href="#DejaVuSans-69" x="185.742188"/>
      <use xlink:href="#DejaVuSans-6c" x="213.525391"/>
      <use xlink:href="#DejaVuSans-61" x="241.308594"/>
      <use xlink:href="#DejaVuSans-6e" x="302.587891"/>
      <use xlink:href="#DejaVuSans-64" x="365.966797"/>
     </g>
    </g>
    <g id="patch_16">
     <path d="M 66.6 175.495437 
L 86.6 175.495437 
L 86.6 168.495437 
L 66.6 168.495437 
z
" style="fill: #d3d3d3"/>
    </g>
    <g id="text_34">
     <!-- US -->
     <g transform="translate(94.6 175.495437) scale(0.1 -0.1)">
      <defs>
       <path id="DejaVuSans-55" d="M 556 4666 
L 1191 4666 
L 1191 1831 
Q 1191 1081 1462 751 
Q 1734 422 2344 422 
Q 2950 422 3222 751 
Q 3494 1081 3494 1831 
L 3494 4666 
L 4128 4666 
L 4128 1753 
Q 4128 841 3676 375 
Q 3225 -91 2344 -91 
Q 1459 -91 1007 375 
Q 556 841 556 1753 
L 556 4666 
z
" transform="scale(0.015625)"/>
       <path id="DejaVuSans-53" d="M 3425 4513 
L 3425 3897 
Q 3066 4069 2747 4153 
Q 2428 4238 2131 4238 
Q 1616 4238 1336 4038 
Q 1056 3838 1056 3469 
Q 1056 3159 1242 3001 
Q 1428 2844 1947 2747 
L 2328 2669 
Q 3034 2534 3370 2195 
Q 3706 1856 3706 1288 
Q 3706 609 3251 259 
Q 2797 -91 1919 -91 
Q 1588 -91 1214 -16 
Q 841 59 441 206 
L 441 856 
Q 825 641 1194 531 
Q 1563 422 1919 422 
Q 2459 422 2753 634 
Q 3047 847 3047 1241 
Q 3047 1584 2836 1778 
Q 2625 1972 2144 2069 
L 1759 2144 
Q 1053 2284 737 2584 
Q 422 2884 422 3419 
Q 422 4038 858 4394 
Q 1294 4750 2059 4750 
Q 2388 4750 2728 4690 
Q 3069 4631 3425 4513 
z
" transform="scale(0.015625)"/>
      </defs>
      <use xlink:href="#DejaVuSans-55"/>
      <use xlink:href="#DejaVuSans-53" x="73.193359"/>
     </g>
    </g>
    <g id="patch_17">
     <path d="M 66.6 190.173562 
L 86.6 190.173562 
L 86.6 183.173562 
L 66.6 183.173562 
z
" style="fill: #d3d3d3"/>
    </g>
    <g id="text_35">
     <!-- Other -->
     <g transform="translate(94.6 190.173562) scale(0.1 -0.1)">
      <defs>
       <path id="DejaVuSans-4f" d="M 2522 4238 
Q 1834 4238 1429 3725 
Q 1025 3213 1025 2328 
Q 1025 1447 1429 934 
Q 1834 422 2522 422 
Q 3209 422 3611 934 
Q 4013 1447 4013 2328 
Q 4013 3213 3611 3725 
Q 3209 4238 2522 4238 
z
M 2522 4750 
Q 3503 4750 4090 4092 
Q 4678 3434 4678 2328 
Q 4678 1225 4090 567 
Q 3503 -91 2522 -91 
Q 1538 -91 948 565 
Q 359 1222 359 2328 
Q 359 3434 948 4092 
Q 1538 4750 2522 4750 
z
" transform="scale(0.015625)"/>
      </defs>
      <use xlink:href="#DejaVuSans-4f"/>
      <use xlink:href="#DejaVuSans-74" x="78.710938"/>
      <use xlink:href="#DejaVuSans-68" x="117.919922"/>
      <use xlink:href="#DejaVuSans-65" x="181.298828"/>
      <use xlink:href="#DejaVuSans-72" x="242.822266"/>
     </g>
    </g>
   </g>
  </g>
 </g>
 <defs>
  <clipPath id="pa0ebe2f8be">
   <rect x="57.6" y="41.472" width="357.12" height="266.112"/>
  </clipPath>
 </defs>
</svg>
