<?xml version="1.0" encoding="UTF-8" standalone="no"?>
<!-- This is a Stata 17.0 generated SVG file (http://www.stata.com) -->

<svg version="1.1" width="5.500in" height="4.000in" viewBox="0 0 3960 2880" xmlns="http://www.w3.org/2000/svg" xmlns:xlink="http://www.w3.org/1999/xlink">
	<desc>Stata Graph - Graph</desc>
	<rect x="0" y="0" width="3960" height="2880" style="fill:#FFFFFF;stroke:none"/>
	<rect x="0.00" y="0.00" width="3959.88" height="2880.00" style="fill:#FFFFFF"/>
	<rect x="2.88" y="2.88" width="3954.12" height="2874.24" style="fill:none;stroke:#FFFFFF;stroke-width:5.76"/>
	<rect x="899.45" y="278.23" width="2956.69" height="1952.52" style="fill:none;stroke:#000000;stroke-width:5.76"/>
	<line x1="2094.22" y1="2233.63" x2="2094.22" y2="275.35" style="stroke:#000000;stroke-width:5.76"/>
	<line x1="3510.54" y1="2073.87" x2="2057.22" y2="2073.87" style="stroke:#006000;stroke-width:8.64"/>
	<line x1="2057.22" y1="2095.90" x2="2057.22" y2="2051.84" stroke-linecap="round" style="stroke:#006000;stroke-width:8.64"/>
	<line x1="3510.54" y1="2095.90" x2="3510.54" y2="2051.84" stroke-linecap="round" style="stroke:#006000;stroke-width:8.64"/>
	<line x1="3087.32" y1="1881.18" x2="2026.41" y2="1881.18" style="stroke:#006000;stroke-width:8.64"/>
	<line x1="2026.41" y1="1903.21" x2="2026.41" y2="1859.15" stroke-linecap="round" style="stroke:#006000;stroke-width:8.64"/>
	<line x1="3087.32" y1="1903.21" x2="3087.32" y2="1859.15" stroke-linecap="round" style="stroke:#006000;stroke-width:8.64"/>
	<line x1="2719.90" y1="1688.37" x2="1958.59" y2="1688.37" style="stroke:#006000;stroke-width:8.64"/>
	<line x1="1958.59" y1="1710.40" x2="1958.59" y2="1666.35" stroke-linecap="round" style="stroke:#006000;stroke-width:8.64"/>
	<line x1="2719.90" y1="1710.40" x2="2719.90" y2="1666.35" stroke-linecap="round" style="stroke:#006000;stroke-width:8.64"/>
	<line x1="2452.60" y1="1495.57" x2="1769.13" y2="1495.57" style="stroke:#006000;stroke-width:8.64"/>
	<line x1="1769.13" y1="1517.59" x2="1769.13" y2="1473.54" stroke-linecap="round" style="stroke:#006000;stroke-width:8.64"/>
	<line x1="2452.60" y1="1517.59" x2="2452.60" y2="1473.54" stroke-linecap="round" style="stroke:#006000;stroke-width:8.64"/>
	<line x1="2325.88" y1="1302.76" x2="1417.06" y2="1302.76" style="stroke:#006000;stroke-width:8.64"/>
	<line x1="1417.06" y1="1324.79" x2="1417.06" y2="1280.73" stroke-linecap="round" style="stroke:#006000;stroke-width:8.64"/>
	<line x1="2325.88" y1="1324.79" x2="2325.88" y2="1280.73" stroke-linecap="round" style="stroke:#006000;stroke-width:8.64"/>
	<line x1="2585.01" y1="1109.95" x2="1858.23" y2="1109.95" style="stroke:#006000;stroke-width:8.64"/>
	<line x1="1858.23" y1="1131.98" x2="1858.23" y2="1087.92" stroke-linecap="round" style="stroke:#006000;stroke-width:8.64"/>
	<line x1="2585.01" y1="1131.98" x2="2585.01" y2="1087.92" stroke-linecap="round" style="stroke:#006000;stroke-width:8.64"/>
	<line x1="2010.07" y1="917.14" x2="1256.31" y2="917.14" style="stroke:#006000;stroke-width:8.64"/>
	<line x1="1256.31" y1="939.17" x2="1256.31" y2="895.11" stroke-linecap="round" style="stroke:#006000;stroke-width:8.64"/>
	<line x1="2010.07" y1="939.17" x2="2010.07" y2="895.11" stroke-linecap="round" style="stroke:#006000;stroke-width:8.64"/>
	<line x1="2755.79" y1="724.33" x2="2078.13" y2="724.33" style="stroke:#006000;stroke-width:8.64"/>
	<line x1="2078.13" y1="746.36" x2="2078.13" y2="702.30" stroke-linecap="round" style="stroke:#006000;stroke-width:8.64"/>
	<line x1="2755.79" y1="746.36" x2="2755.79" y2="702.30" stroke-linecap="round" style="stroke:#006000;stroke-width:8.64"/>
	<line x1="2397.90" y1="531.52" x2="1549.47" y2="531.52" style="stroke:#006000;stroke-width:8.64"/>
	<line x1="1549.47" y1="553.55" x2="1549.47" y2="509.49" stroke-linecap="round" style="stroke:#006000;stroke-width:8.64"/>
	<line x1="2397.90" y1="553.55" x2="2397.90" y2="509.49" stroke-linecap="round" style="stroke:#006000;stroke-width:8.64"/>
	<circle cx="2847.36" cy="2073.99" r="26.35" style="fill:#FF4500"/>
	<circle cx="2847.36" cy="2073.99" r="22.03" style="fill:none;stroke:#FF4500;stroke-width:8.64"/>
	<circle cx="2587.98" cy="1881.18" r="26.35" style="fill:#FF4500"/>
	<circle cx="2587.98" cy="1881.18" r="22.03" style="fill:none;stroke:#FF4500;stroke-width:8.64"/>
	<circle cx="2344.94" cy="1688.37" r="26.35" style="fill:#FF4500"/>
	<circle cx="2344.94" cy="1688.37" r="22.03" style="fill:none;stroke:#FF4500;stroke-width:8.64"/>
	<circle cx="2104.12" cy="1495.57" r="26.35" style="fill:#FF4500"/>
	<circle cx="2104.12" cy="1495.57" r="22.03" style="fill:none;stroke:#FF4500;stroke-width:8.64"/>
	<circle cx="1863.18" cy="1302.76" r="26.35" style="fill:#FF4500"/>
	<circle cx="1863.18" cy="1302.76" r="22.03" style="fill:none;stroke:#FF4500;stroke-width:8.64"/>
	<circle cx="2230.22" cy="1109.95" r="26.35" style="fill:#FF4500"/>
	<circle cx="2230.22" cy="1109.95" r="22.03" style="fill:none;stroke:#FF4500;stroke-width:8.64"/>
	<circle cx="1642.53" cy="917.14" r="26.35" style="fill:#FF4500"/>
	<circle cx="1642.53" cy="917.14" r="22.03" style="fill:none;stroke:#FF4500;stroke-width:8.64"/>
	<circle cx="2414.73" cy="724.33" r="26.35" style="fill:#FF4500"/>
	<circle cx="2414.73" cy="724.33" r="22.03" style="fill:none;stroke:#FF4500;stroke-width:8.64"/>
	<circle cx="1965.27" cy="531.52" r="26.35" style="fill:#FF4500"/>
	<circle cx="1965.27" cy="531.52" r="22.03" style="fill:none;stroke:#FF4500;stroke-width:8.64"/>
	<line x1="896.57" y1="2233.63" x2="896.57" y2="275.35" style="stroke:#000000;stroke-width:5.76"/>
	<line x1="896.57" y1="2073.87" x2="856.60" y2="2073.87" style="stroke:#000000;stroke-width:5.76"/>
	<text x="836.55" y="2108.90" style="font-family:'Helvetica';font-size:99.99px;fill:#000000" text-anchor="end">Treatment 20s</text>
	<line x1="896.57" y1="1881.18" x2="856.60" y2="1881.18" style="stroke:#000000;stroke-width:5.76"/>
	<text x="836.55" y="1916.21" style="font-family:'Helvetica';font-size:99.99px;fill:#000000" text-anchor="end">Treatment 30s</text>
	<line x1="896.57" y1="1688.37" x2="856.60" y2="1688.37" style="stroke:#000000;stroke-width:5.76"/>
	<text x="836.55" y="1723.40" style="font-family:'Helvetica';font-size:99.99px;fill:#000000" text-anchor="end">Treatment 40s</text>
	<line x1="896.57" y1="1495.57" x2="856.60" y2="1495.57" style="stroke:#000000;stroke-width:5.76"/>
	<text x="836.55" y="1530.59" style="font-family:'Helvetica';font-size:99.99px;fill:#000000" text-anchor="end">Treatment 50s</text>
	<line x1="896.57" y1="1302.76" x2="856.60" y2="1302.76" style="stroke:#000000;stroke-width:5.76"/>
	<text x="836.55" y="1337.79" style="font-family:'Helvetica';font-size:99.99px;fill:#000000" text-anchor="end">Treatment 60+</text>
	<line x1="896.57" y1="1109.95" x2="856.60" y2="1109.95" style="stroke:#000000;stroke-width:5.76"/>
	<text x="836.55" y="1144.98" style="font-family:'Helvetica';font-size:99.99px;fill:#000000" text-anchor="end">College grad</text>
	<line x1="896.57" y1="917.14" x2="856.60" y2="917.14" style="stroke:#000000;stroke-width:5.76"/>
	<text x="836.55" y="952.17" style="font-family:'Helvetica';font-size:99.99px;fill:#000000" text-anchor="end">High inc.</text>
	<line x1="896.57" y1="724.33" x2="856.60" y2="724.33" style="stroke:#000000;stroke-width:5.76"/>
	<text x="836.55" y="759.36" style="font-family:'Helvetica';font-size:99.99px;fill:#000000" text-anchor="end">LDP</text>
	<line x1="896.57" y1="531.52" x2="856.60" y2="531.52" style="stroke:#000000;stroke-width:5.76"/>
	<text x="836.55" y="566.55" style="font-family:'Helvetica';font-size:99.99px;fill:#000000" text-anchor="end">Foreign Lang.</text>
	<line x1="896.57" y1="2233.63" x2="3859.02" y2="2233.63" style="stroke:#000000;stroke-width:5.76"/>
	<line x1="959.93" y1="2233.63" x2="959.93" y2="2273.73" style="stroke:#000000;stroke-width:5.76"/>
	<text x="959.93" y="2363.59" style="font-family:'Helvetica';font-size:99.99px;fill:#000000" text-anchor="middle">-.4</text>
	<line x1="1527.08" y1="2233.63" x2="1527.08" y2="2273.73" style="stroke:#000000;stroke-width:5.76"/>
	<text x="1527.08" y="2363.59" style="font-family:'Helvetica';font-size:99.99px;fill:#000000" text-anchor="middle">-.2</text>
	<line x1="2094.22" y1="2233.63" x2="2094.22" y2="2273.73" style="stroke:#000000;stroke-width:5.76"/>
	<text x="2094.22" y="2363.59" style="font-family:'Helvetica';font-size:99.99px;fill:#000000" text-anchor="middle">0</text>
	<line x1="2661.37" y1="2233.63" x2="2661.37" y2="2273.73" style="stroke:#000000;stroke-width:5.76"/>
	<text x="2661.37" y="2363.59" style="font-family:'Helvetica';font-size:99.99px;fill:#000000" text-anchor="middle">.2</text>
	<line x1="3228.51" y1="2233.63" x2="3228.51" y2="2273.73" style="stroke:#000000;stroke-width:5.76"/>
	<text x="3228.51" y="2363.59" style="font-family:'Helvetica';font-size:99.99px;fill:#000000" text-anchor="middle">.4</text>
	<line x1="3795.78" y1="2233.63" x2="3795.78" y2="2273.73" style="stroke:#000000;stroke-width:5.76"/>
	<text x="3795.78" y="2363.59" style="font-family:'Helvetica';font-size:99.99px;fill:#000000" text-anchor="middle">.6</text>
	<text x="2377.86" y="2473.60" style="font-family:'Helvetica';font-size:99.99px;fill:#000000" text-anchor="middle">Marginal Effect</text>
	<rect x="1490.45" y="2558.24" width="1774.82" height="186.37" style="fill:#FFFFFF"/>
	<rect x="1493.32" y="2561.12" width="1769.06" height="180.61" style="fill:none;stroke:#000000;stroke-width:5.76"/>
	<line x1="1533.63" y1="2651.43" x2="1907.98" y2="2651.43" style="stroke:#006000;stroke-width:8.64"/>
	<line x1="1533.63" y1="2673.45" x2="1533.63" y2="2629.40" style="stroke:#006000;stroke-width:8.64"/>
	<line x1="1907.98" y1="2673.45" x2="1907.98" y2="2629.40" style="stroke:#006000;stroke-width:8.64"/>
	<text x="1968.00" y="2686.46" style="font-family:'Helvetica';font-size:99.99px;fill:#000000">95% confidence interval</text>
	<text x="2377.86" y="215.98" style="font-family:'Helvetica';font-size:139.96px;fill:#000000" text-anchor="middle">Immigration - Vietnamese</text>
</svg>
