<?xml version="1.0" encoding="UTF-8" standalone="no"?>
<!-- This is a Stata 17.0 generated SVG file (http://www.stata.com) -->

<svg version="1.1" width="5.500in" height="4.000in" viewBox="0 0 3960 2880" xmlns="http://www.w3.org/2000/svg" xmlns:xlink="http://www.w3.org/1999/xlink">
	<desc>Stata Graph - Graph</desc>
	<rect x="0" y="0" width="3960" height="2880" style="fill:#FFFFFF;stroke:none"/>
	<rect x="0.00" y="0.00" width="3959.88" height="2880.00" style="fill:#FFFFFF"/>
	<rect x="2.88" y="2.88" width="3954.12" height="2874.24" style="fill:none;stroke:#FFFFFF;stroke-width:5.76"/>
	<rect x="872.72" y="103.74" width="2983.42" height="2382.57" style="fill:none;stroke:#000000;stroke-width:5.76"/>
	<line x1="869.84" y1="2489.19" x2="869.84" y2="100.86" style="stroke:#E0E0E0;stroke-width:8.64"/>
	<line x1="1447.50" y1="2489.19" x2="1447.50" y2="100.86" style="stroke:#E0E0E0;stroke-width:8.64"/>
	<line x1="2025.17" y1="2489.19" x2="2025.17" y2="100.86" style="stroke:#E0E0E0;stroke-width:8.64"/>
	<line x1="2602.96" y1="2489.19" x2="2602.96" y2="100.86" style="stroke:#E0E0E0;stroke-width:8.64"/>
	<line x1="3180.62" y1="2489.19" x2="3180.62" y2="100.86" style="stroke:#E0E0E0;stroke-width:8.64"/>
	<line x1="3758.29" y1="2489.19" x2="3758.29" y2="100.86" style="stroke:#E0E0E0;stroke-width:8.64"/>
	<rect x="869.84" y="2063.60" width="316.30" height="270.65" style="fill:#BFD7BF"/>
	<rect x="872.72" y="2066.48" width="310.55" height="264.89" style="fill:none;stroke:#006000;stroke-width:5.76"/>
	<rect x="869.84" y="1611.65" width="582.24" height="270.65" style="fill:#BFD7BF"/>
	<rect x="872.72" y="1614.53" width="576.48" height="264.89" style="fill:none;stroke:#006000;stroke-width:5.76"/>
	<rect x="869.84" y="1159.70" width="609.84" height="270.65" style="fill:#BFD7BF"/>
	<rect x="872.72" y="1162.58" width="604.08" height="264.89" style="fill:none;stroke:#006000;stroke-width:5.76"/>
	<rect x="869.84" y="707.75" width="1600.09" height="270.65" style="fill:#BFD7BF"/>
	<rect x="872.72" y="710.63" width="1594.33" height="264.89" style="fill:none;stroke:#006000;stroke-width:5.76"/>
	<rect x="869.84" y="255.68" width="2668.42" height="270.65" style="fill:#BFD7BF"/>
	<rect x="872.72" y="258.56" width="2662.66" height="264.89" style="fill:none;stroke:#006000;stroke-width:5.76"/>
	<text x="1146.17" y="2226.99" style="font-family:'Helvetica';font-size:79.94px;fill:#000000" text-anchor="end">5</text>
	<text x="1412.11" y="1775.05" style="font-family:'Helvetica';font-size:79.94px;fill:#000000" text-anchor="end">10</text>
	<text x="1439.58" y="1322.97" style="font-family:'Helvetica';font-size:79.94px;fill:#000000" text-anchor="end">11</text>
	<text x="2429.96" y="871.02" style="font-family:'Helvetica';font-size:79.94px;fill:#000000" text-anchor="end">28</text>
	<text x="3498.17" y="419.07" style="font-family:'Helvetica';font-size:79.94px;fill:#000000" text-anchor="end">46</text>
	<line x1="869.84" y1="2489.19" x2="3859.02" y2="2489.19" style="stroke:#000000;stroke-width:5.76"/>
	<line x1="869.84" y1="2489.19" x2="869.84" y2="2529.16" style="stroke:#000000;stroke-width:5.76"/>
	<text x="869.84" y="2619.14" style="font-family:'Helvetica';font-size:99.99px;fill:#000000" text-anchor="middle">0</text>
	<line x1="1447.50" y1="2489.19" x2="1447.50" y2="2529.16" style="stroke:#000000;stroke-width:5.76"/>
	<text x="1447.50" y="2619.14" style="font-family:'Helvetica';font-size:99.99px;fill:#000000" text-anchor="middle">10</text>
	<line x1="2025.17" y1="2489.19" x2="2025.17" y2="2529.16" style="stroke:#000000;stroke-width:5.76"/>
	<text x="2025.17" y="2619.14" style="font-family:'Helvetica';font-size:99.99px;fill:#000000" text-anchor="middle">20</text>
	<line x1="2602.96" y1="2489.19" x2="2602.96" y2="2529.16" style="stroke:#000000;stroke-width:5.76"/>
	<text x="2602.96" y="2619.14" style="font-family:'Helvetica';font-size:99.99px;fill:#000000" text-anchor="middle">30</text>
	<line x1="3180.62" y1="2489.19" x2="3180.62" y2="2529.16" style="stroke:#000000;stroke-width:5.76"/>
	<text x="3180.62" y="2619.14" style="font-family:'Helvetica';font-size:99.99px;fill:#000000" text-anchor="middle">40</text>
	<line x1="3758.29" y1="2489.19" x2="3758.29" y2="2529.16" style="stroke:#000000;stroke-width:5.76"/>
	<text x="3758.29" y="2619.14" style="font-family:'Helvetica';font-size:99.99px;fill:#000000" text-anchor="middle">50</text>
	<text x="2364.49" y="2729.16" style="font-family:'Helvetica';font-size:99.99px;fill:#000000" text-anchor="middle">Percent of Respondents</text>
	<line x1="869.84" y1="2489.19" x2="869.84" y2="100.86" style="stroke:#000000;stroke-width:5.76"/>
	<text x="829.87" y="2094.99" style="font-family:'Helvetica';font-size:79.94px;fill:#000000" text-anchor="end">Japanese</text>
	<text x="829.87" y="2174.94" style="font-family:'Helvetica';font-size:79.94px;fill:#000000" text-anchor="end">traditions and</text>
	<text x="829.87" y="2254.88" style="font-family:'Helvetica';font-size:79.94px;fill:#000000" text-anchor="end">culture will be</text>
	<text x="829.87" y="2334.83" style="font-family:'Helvetica';font-size:79.94px;fill:#000000" text-anchor="end">damaged.</text>
	<text x="829.87" y="1762.96" style="font-family:'Helvetica';font-size:79.94px;fill:#000000" text-anchor="end">No negatives</text>
	<text x="829.87" y="1270.92" style="font-family:'Helvetica';font-size:79.94px;fill:#000000" text-anchor="end">Japanese jobs</text>
	<text x="829.87" y="1350.86" style="font-family:'Helvetica';font-size:79.94px;fill:#000000" text-anchor="end">will be lost</text>
	<text x="829.87" y="739.02" style="font-family:'Helvetica';font-size:79.94px;fill:#000000" text-anchor="end">Language and</text>
	<text x="829.87" y="818.97" style="font-family:'Helvetica';font-size:79.94px;fill:#000000" text-anchor="end">cultural</text>
	<text x="829.87" y="898.91" style="font-family:'Helvetica';font-size:79.94px;fill:#000000" text-anchor="end">differences</text>
	<text x="829.87" y="978.86" style="font-family:'Helvetica';font-size:79.94px;fill:#000000" text-anchor="end">cause trouble</text>
	<text x="829.87" y="367.02" style="font-family:'Helvetica';font-size:79.94px;fill:#000000" text-anchor="end">Public safety</text>
	<text x="829.87" y="446.96" style="font-family:'Helvetica';font-size:79.94px;fill:#000000" text-anchor="end">will decline</text>
	<text x="195.01" y="1294.96" style="font-family:'Helvetica';font-size:110.01px;fill:#000000" transform="rotate(-90 195.01,1294.96)" text-anchor="middle">Immigration Negatives</text>
</svg>
