<?xml version="1.0" encoding="utf-8" standalone="no"?>
<!DOCTYPE svg PUBLIC "-//W3C//DTD SVG 1.1//EN"
  "http://www.w3.org/Graphics/SVG/1.1/DTD/svg11.dtd">
<svg xmlns:xlink="http://www.w3.org/1999/xlink" width="460.8pt" height="345.6pt" viewBox="0 0 460.8 345.6" xmlns="http://www.w3.org/2000/svg" version="1.1">
 <metadata>
  <rdf:RDF xmlns:dc="http://purl.org/dc/elements/1.1/" xmlns:cc="http://creativecommons.org/ns#" xmlns:rdf="http://www.w3.org/1999/02/22-rdf-syntax-ns#">
   <cc:Work>
    <dc:type rdf:resource="http://purl.org/dc/dcmitype/StillImage"/>
    <dc:date>2023-08-10T17:41:53.349323</dc:date>
    <dc:format>image/svg+xml</dc:format>
    <dc:creator>
     <cc:Agent>
      <dc:title>Matplotlib v3.6.3, https://matplotlib.org/</dc:title>
     </cc:Agent>
    </dc:creator>
   </cc:Work>
  </rdf:RDF>
 </metadata>
 <defs>
  <style type="text/css">*{stroke-linejoin: round; stroke-linecap: butt}</style>
 </defs>
 <g id="figure_1">
  <g id="patch_1">
   <path d="M 0 345.6 
L 460.8 345.6 
L 460.8 0 
L 0 0 
z
" style="fill: #ffffff"/>
  </g>
  <g id="axes_1">
   <g id="patch_2">
    <path d="M 57.6 307.584 
L 414.72 307.584 
L 414.72 41.472 
L 57.6 41.472 
z
" style="fill: #ffffff"/>
   </g>
   <g id="PolyCollection_1">
    <path d="M 57.6 254.513395 
L 57.6 307.584 
L 64.602353 307.584 
L 71.604706 307.584 
L 78.607059 307.584 
L 85.609412 307.584 
L 92.611765 307.584 
L 99.614118 307.584 
L 106.616471 307.584 
L 113.618824 307.584 
L 120.621176 307.584 
L 127.623529 307.584 
L 134.625882 307.584 
L 141.628235 307.584 
L 148.630588 307.584 
L 155.632941 307.584 
L 162.635294 307.584 
L 169.637647 307.584 
L 176.64 307.584 
L 183.642353 307.584 
L 190.644706 307.584 
L 197.647059 307.584 
L 204.649412 307.584 
L 211.651765 307.584 
L 218.654118 307.584 
L 225.656471 307.584 
L 232.658824 307.584 
L 239.661176 307.584 
L 246.663529 307.584 
L 253.665882 307.584 
L 260.668235 307.584 
L 267.670588 307.584 
L 274.672941 307.584 
L 281.675294 307.584 
L 288.677647 307.584 
L 295.68 307.584 
L 302.682353 307.584 
L 309.684706 307.584 
L 316.687059 307.584 
L 323.689412 307.584 
L 330.691765 307.584 
L 337.694118 307.584 
L 344.696471 307.584 
L 351.698824 307.584 
L 358.701176 307.584 
L 365.703529 307.584 
L 372.705882 307.584 
L 379.708235 307.584 
L 386.710588 307.584 
L 393.712941 307.584 
L 400.715294 307.584 
L 407.717647 307.584 
L 414.72 307.584 
L 414.72 269.896649 
L 414.72 269.896649 
L 407.717647 268.345233 
L 400.715294 266.587912 
L 393.712941 266.178953 
L 386.710588 265.977714 
L 379.708235 265.629067 
L 372.705882 265.097326 
L 365.703529 264.274829 
L 358.701176 262.675458 
L 351.698824 261.784787 
L 344.696471 260.458199 
L 337.694118 258.679277 
L 330.691765 257.598686 
L 323.689412 256.670343 
L 316.687059 256.303118 
L 309.684706 255.894419 
L 302.682353 255.853981 
L 295.68 255.099486 
L 288.677647 254.548908 
L 281.675294 253.543922 
L 274.672941 252.940551 
L 267.670588 252.693084 
L 260.668235 252.582571 
L 253.665882 252.385566 
L 246.663529 251.82004 
L 239.661176 250.801662 
L 232.658824 250.00526 
L 225.656471 249.105171 
L 218.654118 248.631408 
L 211.651765 248.124379 
L 204.649412 247.700472 
L 197.647059 248.142005 
L 190.644706 248.669254 
L 183.642353 249.075188 
L 176.64 249.364906 
L 169.637647 249.004422 
L 162.635294 248.541805 
L 155.632941 248.767065 
L 148.630588 249.2963 
L 141.628235 249.70474 
L 134.625882 249.923261 
L 127.623529 250.164246 
L 120.621176 250.334898 
L 113.618824 250.640429 
L 106.616471 250.881674 
L 99.614118 251.303766 
L 92.611765 251.665979 
L 85.609412 252.016786 
L 78.607059 252.600025 
L 71.604706 253.16486 
L 64.602353 253.779983 
L 57.6 254.513395 
z
" clip-path="url(#p9794301c36)" style="fill: #a1c9f4"/>
   </g>
   <g id="PolyCollection_2">
    <path d="M 57.6 250.065139 
L 57.6 254.513395 
L 64.602353 253.779983 
L 71.604706 253.16486 
L 78.607059 252.600025 
L 85.609412 252.016786 
L 92.611765 251.665979 
L 99.614118 251.303766 
L 106.616471 250.881674 
L 113.618824 250.640429 
L 120.621176 250.334898 
L 127.623529 250.164246 
L 134.625882 249.923261 
L 141.628235 249.70474 
L 148.630588 249.2963 
L 155.632941 248.767065 
L 162.635294 248.541805 
L 169.637647 249.004422 
L 176.64 249.364906 
L 183.642353 249.075188 
L 190.644706 248.669254 
L 197.647059 248.142005 
L 204.649412 247.700472 
L 211.651765 248.124379 
L 218.654118 248.631408 
L 225.656471 249.105171 
L 232.658824 250.00526 
L 239.661176 250.801662 
L 246.663529 251.82004 
L 253.665882 252.385566 
L 260.668235 252.582571 
L 267.670588 252.693084 
L 274.672941 252.940551 
L 281.675294 253.543922 
L 288.677647 254.548908 
L 295.68 255.099486 
L 302.682353 255.853981 
L 309.684706 255.894419 
L 316.687059 256.303118 
L 323.689412 256.670343 
L 330.691765 257.598686 
L 337.694118 258.679277 
L 344.696471 260.458199 
L 351.698824 261.784787 
L 358.701176 262.675458 
L 365.703529 264.274829 
L 372.705882 265.097326 
L 379.708235 265.629067 
L 386.710588 265.977714 
L 393.712941 266.178953 
L 400.715294 266.587912 
L 407.717647 268.345233 
L 414.72 269.896649 
L 414.72 203.554548 
L 414.72 203.554548 
L 407.717647 196.284192 
L 400.715294 190.684925 
L 393.712941 194.859274 
L 386.710588 197.92331 
L 379.708235 200.972483 
L 372.705882 203.354345 
L 365.703529 204.225056 
L 358.701176 203.711979 
L 351.698824 203.428914 
L 344.696471 202.144751 
L 337.694118 199.305025 
L 330.691765 198.797996 
L 323.689412 200.04198 
L 316.687059 203.864399 
L 309.684706 207.443153 
L 302.682353 210.960906 
L 295.68 212.970618 
L 288.677647 214.595219 
L 281.675294 216.883504 
L 274.672941 220.000506 
L 267.670588 223.697464 
L 260.668235 227.161904 
L 253.665882 228.86332 
L 246.663529 230.031612 
L 239.661176 230.559897 
L 232.658824 230.737548 
L 225.656471 230.218163 
L 218.654118 230.474269 
L 211.651765 231.246391 
L 204.649412 232.918948 
L 197.647059 235.151846 
L 190.644706 236.788545 
L 183.642353 237.905599 
L 176.64 241.115142 
L 169.637647 241.712033 
L 162.635294 242.067938 
L 155.632941 242.752531 
L 148.630588 243.838565 
L 141.628235 244.596258 
L 134.625882 245.117717 
L 127.623529 245.593726 
L 120.621176 245.984107 
L 113.618824 246.447329 
L 106.616471 246.74612 
L 99.614118 247.227659 
L 92.611765 247.455598 
L 85.609412 247.897218 
L 78.607059 248.569887 
L 71.604706 249.009692 
L 64.602353 249.258109 
L 57.6 250.065139 
z
" clip-path="url(#p9794301c36)" style="fill: #ffb482"/>
   </g>
   <g id="PolyCollection_3">
    <path d="M 57.6 249.988151 
L 57.6 250.065139 
L 64.602353 249.258109 
L 71.604706 249.009692 
L 78.607059 248.569887 
L 85.609412 247.897218 
L 92.611765 247.455598 
L 99.614118 247.227659 
L 106.616471 246.74612 
L 113.618824 246.447329 
L 120.621176 245.984107 
L 127.623529 245.593726 
L 134.625882 245.117717 
L 141.628235 244.596258 
L 148.630588 243.838565 
L 155.632941 242.752531 
L 162.635294 242.067938 
L 169.637647 241.712033 
L 176.64 241.115142 
L 183.642353 237.905599 
L 190.644706 236.788545 
L 197.647059 235.151846 
L 204.649412 232.918948 
L 211.651765 231.246391 
L 218.654118 230.474269 
L 225.656471 230.218163 
L 232.658824 230.737548 
L 239.661176 230.559897 
L 246.663529 230.031612 
L 253.665882 228.86332 
L 260.668235 227.161904 
L 267.670588 223.697464 
L 274.672941 220.000506 
L 281.675294 216.883504 
L 288.677647 214.595219 
L 295.68 212.970618 
L 302.682353 210.960906 
L 309.684706 207.443153 
L 316.687059 203.864399 
L 323.689412 200.04198 
L 330.691765 198.797996 
L 337.694118 199.305025 
L 344.696471 202.144751 
L 351.698824 203.428914 
L 358.701176 203.711979 
L 365.703529 204.225056 
L 372.705882 203.354345 
L 379.708235 200.972483 
L 386.710588 197.92331 
L 393.712941 194.859274 
L 400.715294 190.684925 
L 407.717647 196.284192 
L 414.72 203.554548 
L 414.72 185.851817 
L 414.72 185.851817 
L 407.717647 178.265303 
L 400.715294 172.394808 
L 393.712941 177.416971 
L 386.710588 181.388526 
L 379.708235 185.33969 
L 372.705882 188.368385 
L 365.703529 189.068618 
L 358.701176 188.045141 
L 351.698824 186.959194 
L 344.696471 183.996771 
L 337.694118 179.383999 
L 330.691765 175.68825 
L 323.689412 173.033087 
L 316.687059 176.476617 
L 309.684706 180.399958 
L 302.682353 184.859447 
L 295.68 188.210436 
L 288.677647 190.859551 
L 281.675294 193.698067 
L 274.672941 197.019851 
L 267.670588 201.716351 
L 260.668235 207.781173 
L 253.665882 209.662486 
L 246.663529 209.877118 
L 239.661176 213.123642 
L 232.658824 215.492111 
L 225.656471 216.426158 
L 218.654118 217.111615 
L 211.651765 218.475357 
L 204.649412 222.607887 
L 197.647059 230.276054 
L 190.644706 235.533242 
L 183.642353 237.546237 
L 176.64 240.920729 
L 169.637647 241.527556 
L 162.635294 241.899015 
L 155.632941 242.580929 
L 148.630588 243.683381 
L 141.628235 244.454293 
L 134.625882 244.974974 
L 127.623529 245.464809 
L 120.621176 245.863744 
L 113.618824 246.336816 
L 106.616471 246.635607 
L 99.614118 247.11369 
L 92.611765 247.333074 
L 85.609412 247.776682 
L 78.607059 248.459374 
L 71.604706 248.901253 
L 64.602353 249.165223 
L 57.6 249.988151 
z
" clip-path="url(#p9794301c36)" style="fill: #8de5a1"/>
   </g>
   <g id="PolyCollection_4">
    <path d="M 57.6 249.907621 
L 57.6 249.988151 
L 64.602353 249.165223 
L 71.604706 248.901253 
L 78.607059 248.459374 
L 85.609412 247.776682 
L 92.611765 247.333074 
L 99.614118 247.11369 
L 106.616471 246.635607 
L 113.618824 246.336816 
L 120.621176 245.863744 
L 127.623529 245.464809 
L 134.625882 244.974974 
L 141.628235 244.454293 
L 148.630588 243.683381 
L 155.632941 242.580929 
L 162.635294 241.899015 
L 169.637647 241.527556 
L 176.64 240.920729 
L 183.642353 237.546237 
L 190.644706 235.533242 
L 197.647059 230.276054 
L 204.649412 222.607887 
L 211.651765 218.475357 
L 218.654118 217.111615 
L 225.656471 216.426158 
L 232.658824 215.492111 
L 239.661176 213.123642 
L 246.663529 209.877118 
L 253.665882 209.662486 
L 260.668235 207.781173 
L 267.670588 201.716351 
L 274.672941 197.019851 
L 281.675294 193.698067 
L 288.677647 190.859551 
L 295.68 188.210436 
L 302.682353 184.859447 
L 309.684706 180.399958 
L 316.687059 176.476617 
L 323.689412 173.033087 
L 330.691765 175.68825 
L 337.694118 179.383999 
L 344.696471 183.996771 
L 351.698824 186.959194 
L 358.701176 188.045141 
L 365.703529 189.068618 
L 372.705882 188.368385 
L 379.708235 185.33969 
L 386.710588 181.388526 
L 393.712941 177.416971 
L 400.715294 172.394808 
L 407.717647 178.265303 
L 414.72 185.851817 
L 414.72 161.950681 
L 414.72 161.950681 
L 407.717647 154.101062 
L 400.715294 147.959425 
L 393.712941 153.976032 
L 386.710588 158.87524 
L 379.708235 164.285884 
L 372.705882 168.53005 
L 365.703529 170.268016 
L 358.701176 169.97052 
L 351.698824 169.420116 
L 344.696471 165.905474 
L 337.694118 161.223145 
L 330.691765 157.394764 
L 323.689412 154.83456 
L 316.687059 158.971496 
L 309.684706 163.681476 
L 302.682353 168.679013 
L 295.68 170.981641 
L 288.677647 174.854003 
L 281.675294 179.06447 
L 274.672941 183.482916 
L 267.670588 189.198659 
L 260.668235 197.78532 
L 253.665882 200.563266 
L 246.663529 201.818483 
L 239.661176 205.821576 
L 232.658824 209.072421 
L 225.656471 208.998025 
L 218.654118 210.799068 
L 211.651765 213.099362 
L 204.649412 217.264812 
L 197.647059 226.034222 
L 190.644706 232.169896 
L 183.642353 234.765267 
L 176.64 238.759115 
L 169.637647 239.894746 
L 162.635294 240.839593 
L 155.632941 241.614653 
L 148.630588 243.033955 
L 141.628235 243.887212 
L 134.625882 244.39355 
L 127.623529 244.985516 
L 120.621176 245.452712 
L 113.618824 245.966913 
L 106.616471 246.324546 
L 99.614118 246.847301 
L 92.611765 247.070833 
L 85.609412 247.538375 
L 78.607059 248.249926 
L 71.604706 248.70684 
L 64.602353 249.090655 
L 57.6 249.907621 
z
" clip-path="url(#p9794301c36)" style="fill: #ff9f9b"/>
   </g>
   <g id="PolyCollection_5">
    <path d="M 57.6 249.859493 
L 57.6 249.907621 
L 64.602353 249.090655 
L 71.604706 248.70684 
L 78.607059 248.249926 
L 85.609412 247.538375 
L 92.611765 247.070833 
L 99.614118 246.847301 
L 106.616471 246.324546 
L 113.618824 245.966913 
L 120.621176 245.452712 
L 127.623529 244.985516 
L 134.625882 244.39355 
L 141.628235 243.887212 
L 148.630588 243.033955 
L 155.632941 241.614653 
L 162.635294 240.839593 
L 169.637647 239.894746 
L 176.64 238.759115 
L 183.642353 234.765267 
L 190.644706 232.169896 
L 197.647059 226.034222 
L 204.649412 217.264812 
L 211.651765 213.099362 
L 218.654118 210.799068 
L 225.656471 208.998025 
L 232.658824 209.072421 
L 239.661176 205.821576 
L 246.663529 201.818483 
L 253.665882 200.563266 
L 260.668235 197.78532 
L 267.670588 189.198659 
L 274.672941 183.482916 
L 281.675294 179.06447 
L 288.677647 174.854003 
L 295.68 170.981641 
L 302.682353 168.679013 
L 309.684706 163.681476 
L 316.687059 158.971496 
L 323.689412 154.83456 
L 330.691765 157.394764 
L 337.694118 161.223145 
L 344.696471 165.905474 
L 351.698824 169.420116 
L 358.701176 169.97052 
L 365.703529 170.268016 
L 372.705882 168.53005 
L 379.708235 164.285884 
L 386.710588 158.87524 
L 393.712941 153.976032 
L 400.715294 147.959425 
L 407.717647 154.101062 
L 414.72 161.950681 
L 414.72 124.54268 
L 414.72 124.54268 
L 407.717647 115.386691 
L 400.715294 112.363007 
L 393.712941 125.389975 
L 386.710588 136.201931 
L 379.708235 147.005591 
L 372.705882 155.832201 
L 365.703529 161.639102 
L 358.701176 163.727184 
L 351.698824 164.895304 
L 344.696471 162.044 
L 337.694118 157.613025 
L 330.691765 153.852126 
L 323.689412 151.280172 
L 316.687059 155.786579 
L 309.684706 160.874584 
L 302.682353 166.179121 
L 295.68 168.733535 
L 288.677647 172.792965 
L 281.675294 177.245628 
L 274.672941 181.829109 
L 267.670588 187.73771 
L 260.668235 196.498046 
L 253.665882 199.396356 
L 246.663529 200.790513 
L 239.661176 204.937818 
L 232.658824 208.286215 
L 225.656471 208.286992 
L 218.654118 210.141606 
L 211.651765 212.504631 
L 204.649412 216.710951 
L 197.647059 225.495654 
L 190.644706 231.624157 
L 183.642353 234.353716 
L 176.64 238.380571 
L 169.637647 239.515598 
L 162.635294 240.483083 
L 155.632941 241.269635 
L 148.630588 242.733954 
L 141.628235 243.616589 
L 134.625882 244.147985 
L 127.623529 244.748591 
L 120.621176 245.269013 
L 113.618824 245.835921 
L 106.616471 246.201418 
L 99.614118 246.757526 
L 92.611765 246.980885 
L 85.609412 247.445661 
L 78.607059 248.157213 
L 71.604706 248.619138 
L 64.602353 249.023863 
L 57.6 249.859493 
z
" clip-path="url(#p9794301c36)" style="fill: #d0bbff"/>
   </g>
   <g id="PolyCollection_6">
    <path d="M 57.6 249.855864 
L 57.6 249.859493 
L 64.602353 249.023863 
L 71.604706 248.619138 
L 78.607059 248.157213 
L 85.609412 247.445661 
L 92.611765 246.980885 
L 99.614118 246.757526 
L 106.616471 246.201418 
L 113.618824 245.835921 
L 120.621176 245.269013 
L 127.623529 244.748591 
L 134.625882 244.147985 
L 141.628235 243.616589 
L 148.630588 242.733954 
L 155.632941 241.269635 
L 162.635294 240.483083 
L 169.637647 239.515598 
L 176.64 238.380571 
L 183.642353 234.353716 
L 190.644706 231.624157 
L 197.647059 225.495654 
L 204.649412 216.710951 
L 211.651765 212.504631 
L 218.654118 210.141606 
L 225.656471 208.286992 
L 232.658824 208.286215 
L 239.661176 204.937818 
L 246.663529 200.790513 
L 253.665882 199.396356 
L 260.668235 196.498046 
L 267.670588 187.73771 
L 274.672941 181.829109 
L 281.675294 177.245628 
L 288.677647 172.792965 
L 295.68 168.733535 
L 302.682353 166.179121 
L 309.684706 160.874584 
L 316.687059 155.786579 
L 323.689412 151.280172 
L 330.691765 153.852126 
L 337.694118 157.613025 
L 344.696471 162.044 
L 351.698824 164.895304 
L 358.701176 163.727184 
L 365.703529 161.639102 
L 372.705882 155.832201 
L 379.708235 147.005591 
L 386.710588 136.201931 
L 393.712941 125.389975 
L 400.715294 112.363007 
L 407.717647 115.386691 
L 414.72 124.54268 
L 414.72 116.151901 
L 414.72 116.151901 
L 407.717647 107.093291 
L 400.715294 103.996854 
L 393.712941 117.704094 
L 386.710588 129.286185 
L 379.708235 141.175793 
L 372.705882 151.099325 
L 365.703529 157.980163 
L 358.701176 161.002205 
L 351.698824 162.81543 
L 344.696471 160.28279 
L 337.694118 156.098763 
L 330.691765 152.534006 
L 323.689412 150.21859 
L 316.687059 154.975747 
L 309.684706 160.196817 
L 302.682353 165.578342 
L 295.68 168.221235 
L 288.677647 172.345297 
L 281.675294 176.848766 
L 274.672941 181.476487 
L 267.670588 187.422415 
L 260.668235 196.220511 
L 253.665882 199.151309 
L 246.663529 200.602753 
L 239.661176 204.793434 
L 232.658824 208.172677 
L 225.656471 208.195748 
L 218.654118 210.070321 
L 211.651765 212.446221 
L 204.649412 216.662132 
L 197.647059 225.457031 
L 190.644706 231.589682 
L 183.642353 234.320882 
L 176.64 238.35465 
L 169.637647 239.494169 
L 162.635294 240.465111 
L 155.632941 241.252181 
L 148.630588 242.720388 
L 141.628235 243.604665 
L 134.625882 244.136925 
L 127.623529 244.739259 
L 120.621176 245.260459 
L 113.618824 245.828923 
L 106.616471 246.195715 
L 99.614118 246.751996 
L 92.611765 246.976478 
L 85.609412 247.442032 
L 78.607059 248.154189 
L 71.604706 248.6162 
L 64.602353 249.020493 
L 57.6 249.855864 
z
" clip-path="url(#p9794301c36)" style="fill: #debb9b"/>
   </g>
   <g id="PolyCollection_7">
    <path d="M 57.6 249.766348 
L 57.6 249.855864 
L 64.602353 249.020493 
L 71.604706 248.6162 
L 78.607059 248.154189 
L 85.609412 247.442032 
L 92.611765 246.976478 
L 99.614118 246.751996 
L 106.616471 246.195715 
L 113.618824 245.828923 
L 120.621176 245.260459 
L 127.623529 244.739259 
L 134.625882 244.136925 
L 141.628235 243.604665 
L 148.630588 242.720388 
L 155.632941 241.252181 
L 162.635294 240.465111 
L 169.637647 239.494169 
L 176.64 238.35465 
L 183.642353 234.320882 
L 190.644706 231.589682 
L 197.647059 225.457031 
L 204.649412 216.662132 
L 211.651765 212.446221 
L 218.654118 210.070321 
L 225.656471 208.195748 
L 232.658824 208.172677 
L 239.661176 204.793434 
L 246.663529 200.602753 
L 253.665882 199.151309 
L 260.668235 196.220511 
L 267.670588 187.422415 
L 274.672941 181.476487 
L 281.675294 176.848766 
L 288.677647 172.345297 
L 295.68 168.221235 
L 302.682353 165.578342 
L 309.684706 160.196817 
L 316.687059 154.975747 
L 323.689412 150.21859 
L 330.691765 152.534006 
L 337.694118 156.098763 
L 344.696471 160.28279 
L 351.698824 162.81543 
L 358.701176 161.002205 
L 365.703529 157.980163 
L 372.705882 151.099325 
L 379.708235 141.175793 
L 386.710588 129.286185 
L 393.712941 117.704094 
L 400.715294 103.996854 
L 407.717647 107.093291 
L 414.72 116.151901 
L 414.72 110.983107 
L 414.72 110.983107 
L 407.717647 101.31862 
L 400.715294 98.219763 
L 393.712941 112.835474 
L 386.710588 124.967451 
L 379.708235 137.473305 
L 372.705882 147.996493 
L 365.703529 155.369844 
L 358.701176 158.650758 
L 351.698824 160.609318 
L 344.696471 158.152024 
L 337.694118 153.947691 
L 330.691765 150.326684 
L 323.689412 147.864033 
L 316.687059 152.762031 
L 309.684706 158.048942 
L 302.682353 163.409816 
L 295.68 166.157001 
L 288.677647 170.369888 
L 281.675294 174.976267 
L 274.672941 179.676569 
L 267.670588 185.750809 
L 260.668235 194.801901 
L 253.665882 197.858505 
L 246.663529 199.571414 
L 239.661176 204.038074 
L 232.658824 207.571639 
L 225.656471 207.652947 
L 218.654118 209.582388 
L 211.651765 211.996825 
L 204.649412 216.266912 
L 197.647059 225.143983 
L 190.644706 231.349387 
L 183.642353 234.115323 
L 176.64 238.178555 
L 169.637647 239.335269 
L 162.635294 240.317875 
L 155.632941 241.096391 
L 148.630588 242.584126 
L 141.628235 243.475575 
L 134.625882 244.010599 
L 127.623529 244.614144 
L 120.621176 245.145971 
L 113.618824 245.721347 
L 106.616471 246.094361 
L 99.614118 246.653579 
L 92.611765 246.87979 
L 85.609412 247.337395 
L 78.607059 248.047132 
L 71.604706 248.523228 
L 64.602353 248.923632 
L 57.6 249.766348 
z
" clip-path="url(#p9794301c36)" style="fill: #fab0e4"/>
   </g>
   <g id="PolyCollection_8">
    <path d="M 57.6 249.704049 
L 57.6 249.766348 
L 64.602353 248.923632 
L 71.604706 248.523228 
L 78.607059 248.047132 
L 85.609412 247.337395 
L 92.611765 246.87979 
L 99.614118 246.653579 
L 106.616471 246.094361 
L 113.618824 245.721347 
L 120.621176 245.145971 
L 127.623529 244.614144 
L 134.625882 244.010599 
L 141.628235 243.475575 
L 148.630588 242.584126 
L 155.632941 241.096391 
L 162.635294 240.317875 
L 169.637647 239.335269 
L 176.64 238.178555 
L 183.642353 234.115323 
L 190.644706 231.349387 
L 197.647059 225.143983 
L 204.649412 216.266912 
L 211.651765 211.996825 
L 218.654118 209.582388 
L 225.656471 207.652947 
L 232.658824 207.571639 
L 239.661176 204.038074 
L 246.663529 199.571414 
L 253.665882 197.858505 
L 260.668235 194.801901 
L 267.670588 185.750809 
L 274.672941 179.676569 
L 281.675294 174.976267 
L 288.677647 170.369888 
L 295.68 166.157001 
L 302.682353 163.409816 
L 309.684706 158.048942 
L 316.687059 152.762031 
L 323.689412 147.864033 
L 330.691765 150.326684 
L 337.694118 153.947691 
L 344.696471 158.152024 
L 351.698824 160.609318 
L 358.701176 158.650758 
L 365.703529 155.369844 
L 372.705882 147.996493 
L 379.708235 137.473305 
L 386.710588 124.967451 
L 393.712941 112.835474 
L 400.715294 98.219763 
L 407.717647 101.31862 
L 414.72 110.983107 
L 414.72 106.634822 
L 414.72 106.634822 
L 407.717647 96.706366 
L 400.715294 93.483948 
L 393.712941 108.314464 
L 386.710588 120.631695 
L 379.708235 133.356329 
L 372.705882 144.075485 
L 365.703529 151.647396 
L 358.701176 155.090149 
L 351.698824 157.141595 
L 344.696471 154.458177 
L 337.694118 150.380947 
L 330.691765 146.638367 
L 323.689412 144.182369 
L 316.687059 149.186214 
L 309.684706 154.625717 
L 302.682353 160.152059 
L 295.68 163.01641 
L 288.677647 167.360807 
L 281.675294 172.061281 
L 274.672941 176.938801 
L 267.670588 183.22007 
L 260.668235 192.619896 
L 253.665882 195.822612 
L 246.663529 197.785493 
L 239.661176 202.466612 
L 232.658824 206.186122 
L 225.656471 206.443525 
L 218.654118 208.565824 
L 211.651765 211.09302 
L 204.649412 215.496864 
L 197.647059 224.56299 
L 190.644706 230.870526 
L 183.642353 233.659359 
L 176.64 237.848744 
L 169.637647 239.077693 
L 162.635294 240.089591 
L 155.632941 240.858084 
L 148.630588 242.391182 
L 141.628235 243.30501 
L 134.625882 243.866215 
L 127.623529 244.50389 
L 120.621176 245.042716 
L 113.618824 245.62319 
L 106.616471 246.000438 
L 99.614118 246.565273 
L 92.611765 246.789409 
L 85.609412 247.25384 
L 78.607059 247.966775 
L 71.604706 248.454276 
L 64.602353 248.857186 
L 57.6 249.704049 
z
" clip-path="url(#p9794301c36)" style="fill: #cfcfcf"/>
   </g>
   <g id="PolyCollection_9">
    <path d="M 57.6 248.058451 
L 57.6 249.704049 
L 64.602353 248.857186 
L 71.604706 248.454276 
L 78.607059 247.966775 
L 85.609412 247.25384 
L 92.611765 246.789409 
L 99.614118 246.565273 
L 106.616471 246.000438 
L 113.618824 245.62319 
L 120.621176 245.042716 
L 127.623529 244.50389 
L 134.625882 243.866215 
L 141.628235 243.30501 
L 148.630588 242.391182 
L 155.632941 240.858084 
L 162.635294 240.089591 
L 169.637647 239.077693 
L 176.64 237.848744 
L 183.642353 233.659359 
L 190.644706 230.870526 
L 197.647059 224.56299 
L 204.649412 215.496864 
L 211.651765 211.09302 
L 218.654118 208.565824 
L 225.656471 206.443525 
L 232.658824 206.186122 
L 239.661176 202.466612 
L 246.663529 197.785493 
L 253.665882 195.822612 
L 260.668235 192.619896 
L 267.670588 183.22007 
L 274.672941 176.938801 
L 281.675294 172.061281 
L 288.677647 167.360807 
L 295.68 163.01641 
L 302.682353 160.152059 
L 309.684706 154.625717 
L 316.687059 149.186214 
L 323.689412 144.182369 
L 330.691765 146.638367 
L 337.694118 150.380947 
L 344.696471 154.458177 
L 351.698824 157.141595 
L 358.701176 155.090149 
L 365.703529 151.647396 
L 372.705882 144.075485 
L 379.708235 133.356329 
L 386.710588 120.631695 
L 393.712941 108.314464 
L 400.715294 93.483948 
L 407.717647 96.706366 
L 414.72 106.634822 
L 414.72 101.954912 
L 414.72 101.954912 
L 407.717647 91.888293 
L 400.715294 88.371145 
L 393.712941 103.346132 
L 386.710588 115.81777 
L 379.708235 128.715906 
L 372.705882 139.558968 
L 365.703529 147.218582 
L 358.701176 150.771501 
L 351.698824 152.962925 
L 344.696471 150.153873 
L 337.694118 146.003025 
L 330.691765 142.132392 
L 323.689412 139.630253 
L 316.687059 144.705988 
L 309.684706 150.191286 
L 302.682353 155.884477 
L 295.68 158.796006 
L 288.677647 163.2275 
L 281.675294 167.916396 
L 274.672941 172.943052 
L 267.670588 179.344252 
L 260.668235 188.921555 
L 253.665882 192.126691 
L 246.663529 194.010424 
L 239.661176 198.650242 
L 232.658824 202.453565 
L 225.656471 202.700426 
L 218.654118 204.881568 
L 211.651765 207.42233 
L 204.649412 211.824791 
L 197.647059 221.248119 
L 190.644706 227.854964 
L 183.642353 230.828187 
L 176.64 235.184335 
L 169.637647 236.425468 
L 162.635294 237.580022 
L 155.632941 238.34912 
L 148.630588 240.107132 
L 141.628235 241.159986 
L 134.625882 241.855898 
L 127.623529 242.568314 
L 120.621176 243.171945 
L 113.618824 243.774452 
L 106.616471 244.152218 
L 99.614118 244.731569 
L 92.611765 244.890556 
L 85.609412 245.401214 
L 78.607059 246.0992 
L 71.604706 246.615129 
L 64.602353 247.198281 
L 57.6 248.058451 
z
" clip-path="url(#p9794301c36)" style="fill: #fffea3"/>
   </g>
   <g id="PolyCollection_10">
    <path d="M 57.6 246.369132 
L 57.6 248.058451 
L 64.602353 247.198281 
L 71.604706 246.615129 
L 78.607059 246.0992 
L 85.609412 245.401214 
L 92.611765 244.890556 
L 99.614118 244.731569 
L 106.616471 244.152218 
L 113.618824 243.774452 
L 120.621176 243.171945 
L 127.623529 242.568314 
L 134.625882 241.855898 
L 141.628235 241.159986 
L 148.630588 240.107132 
L 155.632941 238.34912 
L 162.635294 237.580022 
L 169.637647 236.425468 
L 176.64 235.184335 
L 183.642353 230.828187 
L 190.644706 227.854964 
L 197.647059 221.248119 
L 204.649412 211.824791 
L 211.651765 207.42233 
L 218.654118 204.881568 
L 225.656471 202.700426 
L 232.658824 202.453565 
L 239.661176 198.650242 
L 246.663529 194.010424 
L 253.665882 192.126691 
L 260.668235 188.921555 
L 267.670588 179.344252 
L 274.672941 172.943052 
L 281.675294 167.916396 
L 288.677647 163.2275 
L 295.68 158.796006 
L 302.682353 155.884477 
L 309.684706 150.191286 
L 316.687059 144.705988 
L 323.689412 139.630253 
L 330.691765 142.132392 
L 337.694118 146.003025 
L 344.696471 150.153873 
L 351.698824 152.962925 
L 358.701176 150.771501 
L 365.703529 147.218582 
L 372.705882 139.558968 
L 379.708235 128.715906 
L 386.710588 115.81777 
L 393.712941 103.346132 
L 400.715294 88.371145 
L 407.717647 91.888293 
L 414.72 101.954912 
L 414.72 69.04917 
L 414.72 69.04917 
L 407.717647 58.120481 
L 400.715294 54.144 
L 393.712941 71.60177 
L 386.710588 86.225517 
L 379.708235 101.694399 
L 372.705882 114.709961 
L 365.703529 124.24553 
L 358.701176 129.031201 
L 351.698824 131.86436 
L 344.696471 127.988888 
L 337.694118 123.181011 
L 330.691765 118.690503 
L 323.689412 115.98557 
L 316.687059 121.554682 
L 309.684706 127.434941 
L 302.682353 133.774015 
L 295.68 137.040844 
L 288.677647 142.114333 
L 281.675294 147.5814 
L 274.672941 153.914598 
L 267.670588 161.865485 
L 260.668235 173.126837 
L 253.665882 176.928433 
L 246.663529 179.46954 
L 239.661176 185.308065 
L 232.658824 189.867267 
L 225.656471 190.589619 
L 218.654118 193.463735 
L 211.651765 196.842546 
L 204.649412 202.264768 
L 197.647059 214.670392 
L 190.644706 222.521395 
L 183.642353 226.275726 
L 176.64 231.199127 
L 169.637647 232.649708 
L 162.635294 234.086204 
L 155.632941 234.844933 
L 148.630588 236.979329 
L 141.628235 238.245346 
L 134.625882 239.06888 
L 127.623529 239.936048 
L 120.621176 240.662289 
L 113.618824 241.319923 
L 106.616471 241.738473 
L 99.614118 242.440606 
L 92.611765 242.620503 
L 85.609412 243.162872 
L 78.607059 243.781106 
L 71.604706 244.043693 
L 64.602353 245.475955 
L 57.6 246.369132 
z
" clip-path="url(#p9794301c36)" style="fill: #b9f2f0"/>
   </g>
   <g id="matplotlib.axis_1">
    <g id="xtick_1">
     <g id="line2d_1">
      <defs>
       <path id="mf1709596bc" d="M 0 0 
L 0 3.5 
" style="stroke: #000000; stroke-width: 0.8"/>
      </defs>
      <g>
       <use xlink:href="#mf1709596bc" x="78.607059" y="307.584" style="stroke: #000000; stroke-width: 0.8"/>
      </g>
     </g>
     <g id="text_1">
      <!-- 1973 -->
      <g transform="translate(71.560298 337.952774) rotate(-45) scale(0.1 -0.1)">
       <defs>
        <path id="DejaVuSans-31" d="M 794 531 
L 1825 531 
L 1825 4091 
L 703 3866 
L 703 4441 
L 1819 4666 
L 2450 4666 
L 2450 531 
L 3481 531 
L 3481 0 
L 794 0 
L 794 531 
z
" transform="scale(0.015625)"/>
        <path id="DejaVuSans-39" d="M 703 97 
L 703 672 
Q 941 559 1184 500 
Q 1428 441 1663 441 
Q 2288 441 2617 861 
Q 2947 1281 2994 2138 
Q 2813 1869 2534 1725 
Q 2256 1581 1919 1581 
Q 1219 1581 811 2004 
Q 403 2428 403 3163 
Q 403 3881 828 4315 
Q 1253 4750 1959 4750 
Q 2769 4750 3195 4129 
Q 3622 3509 3622 2328 
Q 3622 1225 3098 567 
Q 2575 -91 1691 -91 
Q 1453 -91 1209 -44 
Q 966 3 703 97 
z
M 1959 2075 
Q 2384 2075 2632 2365 
Q 2881 2656 2881 3163 
Q 2881 3666 2632 3958 
Q 2384 4250 1959 4250 
Q 1534 4250 1286 3958 
Q 1038 3666 1038 3163 
Q 1038 2656 1286 2365 
Q 1534 2075 1959 2075 
z
" transform="scale(0.015625)"/>
        <path id="DejaVuSans-37" d="M 525 4666 
L 3525 4666 
L 3525 4397 
L 1831 0 
L 1172 0 
L 2766 4134 
L 525 4134 
L 525 4666 
z
" transform="scale(0.015625)"/>
        <path id="DejaVuSans-33" d="M 2597 2516 
Q 3050 2419 3304 2112 
Q 3559 1806 3559 1356 
Q 3559 666 3084 287 
Q 2609 -91 1734 -91 
Q 1441 -91 1130 -33 
Q 819 25 488 141 
L 488 750 
Q 750 597 1062 519 
Q 1375 441 1716 441 
Q 2309 441 2620 675 
Q 2931 909 2931 1356 
Q 2931 1769 2642 2001 
Q 2353 2234 1838 2234 
L 1294 2234 
L 1294 2753 
L 1863 2753 
Q 2328 2753 2575 2939 
Q 2822 3125 2822 3475 
Q 2822 3834 2567 4026 
Q 2313 4219 1838 4219 
Q 1578 4219 1281 4162 
Q 984 4106 628 3988 
L 628 4550 
Q 988 4650 1302 4700 
Q 1616 4750 1894 4750 
Q 2613 4750 3031 4423 
Q 3450 4097 3450 3541 
Q 3450 3153 3228 2886 
Q 3006 2619 2597 2516 
z
" transform="scale(0.015625)"/>
       </defs>
       <use xlink:href="#DejaVuSans-31"/>
       <use xlink:href="#DejaVuSans-39" x="63.623047"/>
       <use xlink:href="#DejaVuSans-37" x="127.246094"/>
       <use xlink:href="#DejaVuSans-33" x="190.869141"/>
      </g>
     </g>
    </g>
    <g id="xtick_2">
     <g id="line2d_2">
      <g>
       <use xlink:href="#mf1709596bc" x="106.616471" y="307.584" style="stroke: #000000; stroke-width: 0.8"/>
      </g>
     </g>
     <g id="text_2">
      <!-- 1977 -->
      <g transform="translate(99.56971 337.952774) rotate(-45) scale(0.1 -0.1)">
       <use xlink:href="#DejaVuSans-31"/>
       <use xlink:href="#DejaVuSans-39" x="63.623047"/>
       <use xlink:href="#DejaVuSans-37" x="127.246094"/>
       <use xlink:href="#DejaVuSans-37" x="190.869141"/>
      </g>
     </g>
    </g>
    <g id="xtick_3">
     <g id="line2d_3">
      <g>
       <use xlink:href="#mf1709596bc" x="134.625882" y="307.584" style="stroke: #000000; stroke-width: 0.8"/>
      </g>
     </g>
     <g id="text_3">
      <!-- 1981 -->
      <g transform="translate(127.579121 337.952774) rotate(-45) scale(0.1 -0.1)">
       <defs>
        <path id="DejaVuSans-38" d="M 2034 2216 
Q 1584 2216 1326 1975 
Q 1069 1734 1069 1313 
Q 1069 891 1326 650 
Q 1584 409 2034 409 
Q 2484 409 2743 651 
Q 3003 894 3003 1313 
Q 3003 1734 2745 1975 
Q 2488 2216 2034 2216 
z
M 1403 2484 
Q 997 2584 770 2862 
Q 544 3141 544 3541 
Q 544 4100 942 4425 
Q 1341 4750 2034 4750 
Q 2731 4750 3128 4425 
Q 3525 4100 3525 3541 
Q 3525 3141 3298 2862 
Q 3072 2584 2669 2484 
Q 3125 2378 3379 2068 
Q 3634 1759 3634 1313 
Q 3634 634 3220 271 
Q 2806 -91 2034 -91 
Q 1263 -91 848 271 
Q 434 634 434 1313 
Q 434 1759 690 2068 
Q 947 2378 1403 2484 
z
M 1172 3481 
Q 1172 3119 1398 2916 
Q 1625 2713 2034 2713 
Q 2441 2713 2670 2916 
Q 2900 3119 2900 3481 
Q 2900 3844 2670 4047 
Q 2441 4250 2034 4250 
Q 1625 4250 1398 4047 
Q 1172 3844 1172 3481 
z
" transform="scale(0.015625)"/>
       </defs>
       <use xlink:href="#DejaVuSans-31"/>
       <use xlink:href="#DejaVuSans-39" x="63.623047"/>
       <use xlink:href="#DejaVuSans-38" x="127.246094"/>
       <use xlink:href="#DejaVuSans-31" x="190.869141"/>
      </g>
     </g>
    </g>
    <g id="xtick_4">
     <g id="line2d_4">
      <g>
       <use xlink:href="#mf1709596bc" x="162.635294" y="307.584" style="stroke: #000000; stroke-width: 0.8"/>
      </g>
     </g>
     <g id="text_4">
      <!-- 1985 -->
      <g transform="translate(155.588533 337.952774) rotate(-45) scale(0.1 -0.1)">
       <defs>
        <path id="DejaVuSans-35" d="M 691 4666 
L 3169 4666 
L 3169 4134 
L 1269 4134 
L 1269 2991 
Q 1406 3038 1543 3061 
Q 1681 3084 1819 3084 
Q 2600 3084 3056 2656 
Q 3513 2228 3513 1497 
Q 3513 744 3044 326 
Q 2575 -91 1722 -91 
Q 1428 -91 1123 -41 
Q 819 9 494 109 
L 494 744 
Q 775 591 1075 516 
Q 1375 441 1709 441 
Q 2250 441 2565 725 
Q 2881 1009 2881 1497 
Q 2881 1984 2565 2268 
Q 2250 2553 1709 2553 
Q 1456 2553 1204 2497 
Q 953 2441 691 2322 
L 691 4666 
z
" transform="scale(0.015625)"/>
       </defs>
       <use xlink:href="#DejaVuSans-31"/>
       <use xlink:href="#DejaVuSans-39" x="63.623047"/>
       <use xlink:href="#DejaVuSans-38" x="127.246094"/>
       <use xlink:href="#DejaVuSans-35" x="190.869141"/>
      </g>
     </g>
    </g>
    <g id="xtick_5">
     <g id="line2d_5">
      <g>
       <use xlink:href="#mf1709596bc" x="190.644706" y="307.584" style="stroke: #000000; stroke-width: 0.8"/>
      </g>
     </g>
     <g id="text_5">
      <!-- 1989 -->
      <g transform="translate(183.597945 337.952774) rotate(-45) scale(0.1 -0.1)">
       <use xlink:href="#DejaVuSans-31"/>
       <use xlink:href="#DejaVuSans-39" x="63.623047"/>
       <use xlink:href="#DejaVuSans-38" x="127.246094"/>
       <use xlink:href="#DejaVuSans-39" x="190.869141"/>
      </g>
     </g>
    </g>
    <g id="xtick_6">
     <g id="line2d_6">
      <g>
       <use xlink:href="#mf1709596bc" x="218.654118" y="307.584" style="stroke: #000000; stroke-width: 0.8"/>
      </g>
     </g>
     <g id="text_6">
      <!-- 1993 -->
      <g transform="translate(211.607357 337.952774) rotate(-45) scale(0.1 -0.1)">
       <use xlink:href="#DejaVuSans-31"/>
       <use xlink:href="#DejaVuSans-39" x="63.623047"/>
       <use xlink:href="#DejaVuSans-39" x="127.246094"/>
       <use xlink:href="#DejaVuSans-33" x="190.869141"/>
      </g>
     </g>
    </g>
    <g id="xtick_7">
     <g id="line2d_7">
      <g>
       <use xlink:href="#mf1709596bc" x="246.663529" y="307.584" style="stroke: #000000; stroke-width: 0.8"/>
      </g>
     </g>
     <g id="text_7">
      <!-- 1997 -->
      <g transform="translate(239.616768 337.952774) rotate(-45) scale(0.1 -0.1)">
       <use xlink:href="#DejaVuSans-31"/>
       <use xlink:href="#DejaVuSans-39" x="63.623047"/>
       <use xlink:href="#DejaVuSans-39" x="127.246094"/>
       <use xlink:href="#DejaVuSans-37" x="190.869141"/>
      </g>
     </g>
    </g>
    <g id="xtick_8">
     <g id="line2d_8">
      <g>
       <use xlink:href="#mf1709596bc" x="274.672941" y="307.584" style="stroke: #000000; stroke-width: 0.8"/>
      </g>
     </g>
     <g id="text_8">
      <!-- 2001 -->
      <g transform="translate(267.62618 337.952774) rotate(-45) scale(0.1 -0.1)">
       <defs>
        <path id="DejaVuSans-32" d="M 1228 531 
L 3431 531 
L 3431 0 
L 469 0 
L 469 531 
Q 828 903 1448 1529 
Q 2069 2156 2228 2338 
Q 2531 2678 2651 2914 
Q 2772 3150 2772 3378 
Q 2772 3750 2511 3984 
Q 2250 4219 1831 4219 
Q 1534 4219 1204 4116 
Q 875 4013 500 3803 
L 500 4441 
Q 881 4594 1212 4672 
Q 1544 4750 1819 4750 
Q 2544 4750 2975 4387 
Q 3406 4025 3406 3419 
Q 3406 3131 3298 2873 
Q 3191 2616 2906 2266 
Q 2828 2175 2409 1742 
Q 1991 1309 1228 531 
z
" transform="scale(0.015625)"/>
        <path id="DejaVuSans-30" d="M 2034 4250 
Q 1547 4250 1301 3770 
Q 1056 3291 1056 2328 
Q 1056 1369 1301 889 
Q 1547 409 2034 409 
Q 2525 409 2770 889 
Q 3016 1369 3016 2328 
Q 3016 3291 2770 3770 
Q 2525 4250 2034 4250 
z
M 2034 4750 
Q 2819 4750 3233 4129 
Q 3647 3509 3647 2328 
Q 3647 1150 3233 529 
Q 2819 -91 2034 -91 
Q 1250 -91 836 529 
Q 422 1150 422 2328 
Q 422 3509 836 4129 
Q 1250 4750 2034 4750 
z
" transform="scale(0.015625)"/>
       </defs>
       <use xlink:href="#DejaVuSans-32"/>
       <use xlink:href="#DejaVuSans-30" x="63.623047"/>
       <use xlink:href="#DejaVuSans-30" x="127.246094"/>
       <use xlink:href="#DejaVuSans-31" x="190.869141"/>
      </g>
     </g>
    </g>
    <g id="xtick_9">
     <g id="line2d_9">
      <g>
       <use xlink:href="#mf1709596bc" x="302.682353" y="307.584" style="stroke: #000000; stroke-width: 0.8"/>
      </g>
     </g>
     <g id="text_9">
      <!-- 2005 -->
      <g transform="translate(295.635592 337.952774) rotate(-45) scale(0.1 -0.1)">
       <use xlink:href="#DejaVuSans-32"/>
       <use xlink:href="#DejaVuSans-30" x="63.623047"/>
       <use xlink:href="#DejaVuSans-30" x="127.246094"/>
       <use xlink:href="#DejaVuSans-35" x="190.869141"/>
      </g>
     </g>
    </g>
    <g id="xtick_10">
     <g id="line2d_10">
      <g>
       <use xlink:href="#mf1709596bc" x="330.691765" y="307.584" style="stroke: #000000; stroke-width: 0.8"/>
      </g>
     </g>
     <g id="text_10">
      <!-- 2009 -->
      <g transform="translate(323.645004 337.952774) rotate(-45) scale(0.1 -0.1)">
       <use xlink:href="#DejaVuSans-32"/>
       <use xlink:href="#DejaVuSans-30" x="63.623047"/>
       <use xlink:href="#DejaVuSans-30" x="127.246094"/>
       <use xlink:href="#DejaVuSans-39" x="190.869141"/>
      </g>
     </g>
    </g>
    <g id="xtick_11">
     <g id="line2d_11">
      <g>
       <use xlink:href="#mf1709596bc" x="358.701176" y="307.584" style="stroke: #000000; stroke-width: 0.8"/>
      </g>
     </g>
     <g id="text_11">
      <!-- 2013 -->
      <g transform="translate(351.654415 337.952774) rotate(-45) scale(0.1 -0.1)">
       <use xlink:href="#DejaVuSans-32"/>
       <use xlink:href="#DejaVuSans-30" x="63.623047"/>
       <use xlink:href="#DejaVuSans-31" x="127.246094"/>
       <use xlink:href="#DejaVuSans-33" x="190.869141"/>
      </g>
     </g>
    </g>
    <g id="xtick_12">
     <g id="line2d_12">
      <g>
       <use xlink:href="#mf1709596bc" x="386.710588" y="307.584" style="stroke: #000000; stroke-width: 0.8"/>
      </g>
     </g>
     <g id="text_12">
      <!-- 2017 -->
      <g transform="translate(379.663827 337.952774) rotate(-45) scale(0.1 -0.1)">
       <use xlink:href="#DejaVuSans-32"/>
       <use xlink:href="#DejaVuSans-30" x="63.623047"/>
       <use xlink:href="#DejaVuSans-31" x="127.246094"/>
       <use xlink:href="#DejaVuSans-37" x="190.869141"/>
      </g>
     </g>
    </g>
    <g id="xtick_13">
     <g id="line2d_13">
      <g>
       <use xlink:href="#mf1709596bc" x="414.72" y="307.584" style="stroke: #000000; stroke-width: 0.8"/>
      </g>
     </g>
     <g id="text_13">
      <!-- 2021 -->
      <g transform="translate(407.673239 337.952774) rotate(-45) scale(0.1 -0.1)">
       <use xlink:href="#DejaVuSans-32"/>
       <use xlink:href="#DejaVuSans-30" x="63.623047"/>
       <use xlink:href="#DejaVuSans-32" x="127.246094"/>
       <use xlink:href="#DejaVuSans-31" x="190.869141"/>
      </g>
     </g>
    </g>
   </g>
   <g id="matplotlib.axis_2">
    <g id="ytick_1">
     <g id="line2d_14">
      <defs>
       <path id="m8859124397" d="M 0 0 
L -3.5 0 
" style="stroke: #000000; stroke-width: 0.8"/>
      </defs>
      <g>
       <use xlink:href="#m8859124397" x="57.6" y="307.584" style="stroke: #000000; stroke-width: 0.8"/>
      </g>
     </g>
     <g id="text_14">
      <!-- 0.0 -->
      <g transform="translate(34.696875 311.383219) scale(0.1 -0.1)">
       <defs>
        <path id="DejaVuSans-2e" d="M 684 794 
L 1344 794 
L 1344 0 
L 684 0 
L 684 794 
z
" transform="scale(0.015625)"/>
       </defs>
       <use xlink:href="#DejaVuSans-30"/>
       <use xlink:href="#DejaVuSans-2e" x="63.623047"/>
       <use xlink:href="#DejaVuSans-30" x="95.410156"/>
      </g>
     </g>
    </g>
    <g id="ytick_2">
     <g id="line2d_15">
      <g>
       <use xlink:href="#m8859124397" x="57.6" y="264.381108" style="stroke: #000000; stroke-width: 0.8"/>
      </g>
     </g>
     <g id="text_15">
      <!-- 0.5 -->
      <g transform="translate(34.696875 268.180327) scale(0.1 -0.1)">
       <use xlink:href="#DejaVuSans-30"/>
       <use xlink:href="#DejaVuSans-2e" x="63.623047"/>
       <use xlink:href="#DejaVuSans-35" x="95.410156"/>
      </g>
     </g>
    </g>
    <g id="ytick_3">
     <g id="line2d_16">
      <g>
       <use xlink:href="#m8859124397" x="57.6" y="221.178217" style="stroke: #000000; stroke-width: 0.8"/>
      </g>
     </g>
     <g id="text_16">
      <!-- 1.0 -->
      <g transform="translate(34.696875 224.977435) scale(0.1 -0.1)">
       <use xlink:href="#DejaVuSans-31"/>
       <use xlink:href="#DejaVuSans-2e" x="63.623047"/>
       <use xlink:href="#DejaVuSans-30" x="95.410156"/>
      </g>
     </g>
    </g>
    <g id="ytick_4">
     <g id="line2d_17">
      <g>
       <use xlink:href="#m8859124397" x="57.6" y="177.975325" style="stroke: #000000; stroke-width: 0.8"/>
      </g>
     </g>
     <g id="text_17">
      <!-- 1.5 -->
      <g transform="translate(34.696875 181.774544) scale(0.1 -0.1)">
       <use xlink:href="#DejaVuSans-31"/>
       <use xlink:href="#DejaVuSans-2e" x="63.623047"/>
       <use xlink:href="#DejaVuSans-35" x="95.410156"/>
      </g>
     </g>
    </g>
    <g id="ytick_5">
     <g id="line2d_18">
      <g>
       <use xlink:href="#m8859124397" x="57.6" y="134.772433" style="stroke: #000000; stroke-width: 0.8"/>
      </g>
     </g>
     <g id="text_18">
      <!-- 2.0 -->
      <g transform="translate(34.696875 138.571652) scale(0.1 -0.1)">
       <use xlink:href="#DejaVuSans-32"/>
       <use xlink:href="#DejaVuSans-2e" x="63.623047"/>
       <use xlink:href="#DejaVuSans-30" x="95.410156"/>
      </g>
     </g>
    </g>
    <g id="ytick_6">
     <g id="line2d_19">
      <g>
       <use xlink:href="#m8859124397" x="57.6" y="91.569542" style="stroke: #000000; stroke-width: 0.8"/>
      </g>
     </g>
     <g id="text_19">
      <!-- 2.5 -->
      <g transform="translate(34.696875 95.368761) scale(0.1 -0.1)">
       <use xlink:href="#DejaVuSans-32"/>
       <use xlink:href="#DejaVuSans-2e" x="63.623047"/>
       <use xlink:href="#DejaVuSans-35" x="95.410156"/>
      </g>
     </g>
    </g>
    <g id="ytick_7">
     <g id="line2d_20">
      <g>
       <use xlink:href="#m8859124397" x="57.6" y="48.36665" style="stroke: #000000; stroke-width: 0.8"/>
      </g>
     </g>
     <g id="text_20">
      <!-- 3.0 -->
      <g transform="translate(34.696875 52.165869) scale(0.1 -0.1)">
       <use xlink:href="#DejaVuSans-33"/>
       <use xlink:href="#DejaVuSans-2e" x="63.623047"/>
       <use xlink:href="#DejaVuSans-30" x="95.410156"/>
      </g>
     </g>
    </g>
    <g id="text_21">
     <!-- Million -->
     <g transform="translate(28.617187 190.626437) rotate(-90) scale(0.1 -0.1)">
      <defs>
       <path id="DejaVuSans-4d" d="M 628 4666 
L 1569 4666 
L 2759 1491 
L 3956 4666 
L 4897 4666 
L 4897 0 
L 4281 0 
L 4281 4097 
L 3078 897 
L 2444 897 
L 1241 4097 
L 1241 0 
L 628 0 
L 628 4666 
z
" transform="scale(0.015625)"/>
       <path id="DejaVuSans-69" d="M 603 3500 
L 1178 3500 
L 1178 0 
L 603 0 
L 603 3500 
z
M 603 4863 
L 1178 4863 
L 1178 4134 
L 603 4134 
L 603 4863 
z
" transform="scale(0.015625)"/>
       <path id="DejaVuSans-6c" d="M 603 4863 
L 1178 4863 
L 1178 0 
L 603 0 
L 603 4863 
z
" transform="scale(0.015625)"/>
       <path id="DejaVuSans-6f" d="M 1959 3097 
Q 1497 3097 1228 2736 
Q 959 2375 959 1747 
Q 959 1119 1226 758 
Q 1494 397 1959 397 
Q 2419 397 2687 759 
Q 2956 1122 2956 1747 
Q 2956 2369 2687 2733 
Q 2419 3097 1959 3097 
z
M 1959 3584 
Q 2709 3584 3137 3096 
Q 3566 2609 3566 1747 
Q 3566 888 3137 398 
Q 2709 -91 1959 -91 
Q 1206 -91 779 398 
Q 353 888 353 1747 
Q 353 2609 779 3096 
Q 1206 3584 1959 3584 
z
" transform="scale(0.015625)"/>
       <path id="DejaVuSans-6e" d="M 3513 2113 
L 3513 0 
L 2938 0 
L 2938 2094 
Q 2938 2591 2744 2837 
Q 2550 3084 2163 3084 
Q 1697 3084 1428 2787 
Q 1159 2491 1159 1978 
L 1159 0 
L 581 0 
L 581 3500 
L 1159 3500 
L 1159 2956 
Q 1366 3272 1645 3428 
Q 1925 3584 2291 3584 
Q 2894 3584 3203 3211 
Q 3513 2838 3513 2113 
z
" transform="scale(0.015625)"/>
      </defs>
      <use xlink:href="#DejaVuSans-4d"/>
      <use xlink:href="#DejaVuSans-69" x="86.279297"/>
      <use xlink:href="#DejaVuSans-6c" x="114.0625"/>
      <use xlink:href="#DejaVuSans-6c" x="141.845703"/>
      <use xlink:href="#DejaVuSans-69" x="169.628906"/>
      <use xlink:href="#DejaVuSans-6f" x="197.412109"/>
      <use xlink:href="#DejaVuSans-6e" x="258.59375"/>
     </g>
    </g>
    <g id="text_22">
     <!-- 1e6 -->
     <g transform="translate(57.6 38.472) scale(0.1 -0.1)">
      <defs>
       <path id="DejaVuSans-65" d="M 3597 1894 
L 3597 1613 
L 953 1613 
Q 991 1019 1311 708 
Q 1631 397 2203 397 
Q 2534 397 2845 478 
Q 3156 559 3463 722 
L 3463 178 
Q 3153 47 2828 -22 
Q 2503 -91 2169 -91 
Q 1331 -91 842 396 
Q 353 884 353 1716 
Q 353 2575 817 3079 
Q 1281 3584 2069 3584 
Q 2775 3584 3186 3129 
Q 3597 2675 3597 1894 
z
M 3022 2063 
Q 3016 2534 2758 2815 
Q 2500 3097 2075 3097 
Q 1594 3097 1305 2825 
Q 1016 2553 972 2059 
L 3022 2063 
z
" transform="scale(0.015625)"/>
       <path id="DejaVuSans-36" d="M 2113 2584 
Q 1688 2584 1439 2293 
Q 1191 2003 1191 1497 
Q 1191 994 1439 701 
Q 1688 409 2113 409 
Q 2538 409 2786 701 
Q 3034 994 3034 1497 
Q 3034 2003 2786 2293 
Q 2538 2584 2113 2584 
z
M 3366 4563 
L 3366 3988 
Q 3128 4100 2886 4159 
Q 2644 4219 2406 4219 
Q 1781 4219 1451 3797 
Q 1122 3375 1075 2522 
Q 1259 2794 1537 2939 
Q 1816 3084 2150 3084 
Q 2853 3084 3261 2657 
Q 3669 2231 3669 1497 
Q 3669 778 3244 343 
Q 2819 -91 2113 -91 
Q 1303 -91 875 529 
Q 447 1150 447 2328 
Q 447 3434 972 4092 
Q 1497 4750 2381 4750 
Q 2619 4750 2861 4703 
Q 3103 4656 3366 4563 
z
" transform="scale(0.015625)"/>
      </defs>
      <use xlink:href="#DejaVuSans-31"/>
      <use xlink:href="#DejaVuSans-65" x="63.623047"/>
      <use xlink:href="#DejaVuSans-36" x="125.146484"/>
     </g>
    </g>
   </g>
   <g id="patch_3">
    <path d="M 57.6 307.584 
L 57.6 41.472 
" style="fill: none; stroke: #000000; stroke-width: 0.8; stroke-linejoin: miter; stroke-linecap: square"/>
   </g>
   <g id="patch_4">
    <path d="M 414.72 307.584 
L 414.72 41.472 
" style="fill: none; stroke: #000000; stroke-width: 0.8; stroke-linejoin: miter; stroke-linecap: square"/>
   </g>
   <g id="patch_5">
    <path d="M 57.6 307.584 
L 414.72 307.584 
" style="fill: none; stroke: #000000; stroke-width: 0.8; stroke-linejoin: miter; stroke-linecap: square"/>
   </g>
   <g id="patch_6">
    <path d="M 57.6 41.472 
L 414.72 41.472 
" style="fill: none; stroke: #000000; stroke-width: 0.8; stroke-linejoin: miter; stroke-linecap: square"/>
   </g>
   <g id="text_23">
    <!-- Foreign Residents by Country of Origin -->
    <g transform="translate(120.139688 35.472) scale(0.12 -0.12)">
     <defs>
      <path id="DejaVuSans-46" d="M 628 4666 
L 3309 4666 
L 3309 4134 
L 1259 4134 
L 1259 2759 
L 3109 2759 
L 3109 2228 
L 1259 2228 
L 1259 0 
L 628 0 
L 628 4666 
z
" transform="scale(0.015625)"/>
      <path id="DejaVuSans-72" d="M 2631 2963 
Q 2534 3019 2420 3045 
Q 2306 3072 2169 3072 
Q 1681 3072 1420 2755 
Q 1159 2438 1159 1844 
L 1159 0 
L 581 0 
L 581 3500 
L 1159 3500 
L 1159 2956 
Q 1341 3275 1631 3429 
Q 1922 3584 2338 3584 
Q 2397 3584 2469 3576 
Q 2541 3569 2628 3553 
L 2631 2963 
z
" transform="scale(0.015625)"/>
      <path id="DejaVuSans-67" d="M 2906 1791 
Q 2906 2416 2648 2759 
Q 2391 3103 1925 3103 
Q 1463 3103 1205 2759 
Q 947 2416 947 1791 
Q 947 1169 1205 825 
Q 1463 481 1925 481 
Q 2391 481 2648 825 
Q 2906 1169 2906 1791 
z
M 3481 434 
Q 3481 -459 3084 -895 
Q 2688 -1331 1869 -1331 
Q 1566 -1331 1297 -1286 
Q 1028 -1241 775 -1147 
L 775 -588 
Q 1028 -725 1275 -790 
Q 1522 -856 1778 -856 
Q 2344 -856 2625 -561 
Q 2906 -266 2906 331 
L 2906 616 
Q 2728 306 2450 153 
Q 2172 0 1784 0 
Q 1141 0 747 490 
Q 353 981 353 1791 
Q 353 2603 747 3093 
Q 1141 3584 1784 3584 
Q 2172 3584 2450 3431 
Q 2728 3278 2906 2969 
L 2906 3500 
L 3481 3500 
L 3481 434 
z
" transform="scale(0.015625)"/>
      <path id="DejaVuSans-20" transform="scale(0.015625)"/>
      <path id="DejaVuSans-52" d="M 2841 2188 
Q 3044 2119 3236 1894 
Q 3428 1669 3622 1275 
L 4263 0 
L 3584 0 
L 2988 1197 
Q 2756 1666 2539 1819 
Q 2322 1972 1947 1972 
L 1259 1972 
L 1259 0 
L 628 0 
L 628 4666 
L 2053 4666 
Q 2853 4666 3247 4331 
Q 3641 3997 3641 3322 
Q 3641 2881 3436 2590 
Q 3231 2300 2841 2188 
z
M 1259 4147 
L 1259 2491 
L 2053 2491 
Q 2509 2491 2742 2702 
Q 2975 2913 2975 3322 
Q 2975 3731 2742 3939 
Q 2509 4147 2053 4147 
L 1259 4147 
z
" transform="scale(0.015625)"/>
      <path id="DejaVuSans-73" d="M 2834 3397 
L 2834 2853 
Q 2591 2978 2328 3040 
Q 2066 3103 1784 3103 
Q 1356 3103 1142 2972 
Q 928 2841 928 2578 
Q 928 2378 1081 2264 
Q 1234 2150 1697 2047 
L 1894 2003 
Q 2506 1872 2764 1633 
Q 3022 1394 3022 966 
Q 3022 478 2636 193 
Q 2250 -91 1575 -91 
Q 1294 -91 989 -36 
Q 684 19 347 128 
L 347 722 
Q 666 556 975 473 
Q 1284 391 1588 391 
Q 1994 391 2212 530 
Q 2431 669 2431 922 
Q 2431 1156 2273 1281 
Q 2116 1406 1581 1522 
L 1381 1569 
Q 847 1681 609 1914 
Q 372 2147 372 2553 
Q 372 3047 722 3315 
Q 1072 3584 1716 3584 
Q 2034 3584 2315 3537 
Q 2597 3491 2834 3397 
z
" transform="scale(0.015625)"/>
      <path id="DejaVuSans-64" d="M 2906 2969 
L 2906 4863 
L 3481 4863 
L 3481 0 
L 2906 0 
L 2906 525 
Q 2725 213 2448 61 
Q 2172 -91 1784 -91 
Q 1150 -91 751 415 
Q 353 922 353 1747 
Q 353 2572 751 3078 
Q 1150 3584 1784 3584 
Q 2172 3584 2448 3432 
Q 2725 3281 2906 2969 
z
M 947 1747 
Q 947 1113 1208 752 
Q 1469 391 1925 391 
Q 2381 391 2643 752 
Q 2906 1113 2906 1747 
Q 2906 2381 2643 2742 
Q 2381 3103 1925 3103 
Q 1469 3103 1208 2742 
Q 947 2381 947 1747 
z
" transform="scale(0.015625)"/>
      <path id="DejaVuSans-74" d="M 1172 4494 
L 1172 3500 
L 2356 3500 
L 2356 3053 
L 1172 3053 
L 1172 1153 
Q 1172 725 1289 603 
Q 1406 481 1766 481 
L 2356 481 
L 2356 0 
L 1766 0 
Q 1100 0 847 248 
Q 594 497 594 1153 
L 594 3053 
L 172 3053 
L 172 3500 
L 594 3500 
L 594 4494 
L 1172 4494 
z
" transform="scale(0.015625)"/>
      <path id="DejaVuSans-62" d="M 3116 1747 
Q 3116 2381 2855 2742 
Q 2594 3103 2138 3103 
Q 1681 3103 1420 2742 
Q 1159 2381 1159 1747 
Q 1159 1113 1420 752 
Q 1681 391 2138 391 
Q 2594 391 2855 752 
Q 3116 1113 3116 1747 
z
M 1159 2969 
Q 1341 3281 1617 3432 
Q 1894 3584 2278 3584 
Q 2916 3584 3314 3078 
Q 3713 2572 3713 1747 
Q 3713 922 3314 415 
Q 2916 -91 2278 -91 
Q 1894 -91 1617 61 
Q 1341 213 1159 525 
L 1159 0 
L 581 0 
L 581 4863 
L 1159 4863 
L 1159 2969 
z
" transform="scale(0.015625)"/>
      <path id="DejaVuSans-79" d="M 2059 -325 
Q 1816 -950 1584 -1140 
Q 1353 -1331 966 -1331 
L 506 -1331 
L 506 -850 
L 844 -850 
Q 1081 -850 1212 -737 
Q 1344 -625 1503 -206 
L 1606 56 
L 191 3500 
L 800 3500 
L 1894 763 
L 2988 3500 
L 3597 3500 
L 2059 -325 
z
" transform="scale(0.015625)"/>
      <path id="DejaVuSans-43" d="M 4122 4306 
L 4122 3641 
Q 3803 3938 3442 4084 
Q 3081 4231 2675 4231 
Q 1875 4231 1450 3742 
Q 1025 3253 1025 2328 
Q 1025 1406 1450 917 
Q 1875 428 2675 428 
Q 3081 428 3442 575 
Q 3803 722 4122 1019 
L 4122 359 
Q 3791 134 3420 21 
Q 3050 -91 2638 -91 
Q 1578 -91 968 557 
Q 359 1206 359 2328 
Q 359 3453 968 4101 
Q 1578 4750 2638 4750 
Q 3056 4750 3426 4639 
Q 3797 4528 4122 4306 
z
" transform="scale(0.015625)"/>
      <path id="DejaVuSans-75" d="M 544 1381 
L 544 3500 
L 1119 3500 
L 1119 1403 
Q 1119 906 1312 657 
Q 1506 409 1894 409 
Q 2359 409 2629 706 
Q 2900 1003 2900 1516 
L 2900 3500 
L 3475 3500 
L 3475 0 
L 2900 0 
L 2900 538 
Q 2691 219 2414 64 
Q 2138 -91 1772 -91 
Q 1169 -91 856 284 
Q 544 659 544 1381 
z
M 1991 3584 
L 1991 3584 
z
" transform="scale(0.015625)"/>
      <path id="DejaVuSans-66" d="M 2375 4863 
L 2375 4384 
L 1825 4384 
Q 1516 4384 1395 4259 
Q 1275 4134 1275 3809 
L 1275 3500 
L 2222 3500 
L 2222 3053 
L 1275 3053 
L 1275 0 
L 697 0 
L 697 3053 
L 147 3053 
L 147 3500 
L 697 3500 
L 697 3744 
Q 697 4328 969 4595 
Q 1241 4863 1831 4863 
L 2375 4863 
z
" transform="scale(0.015625)"/>
      <path id="DejaVuSans-4f" d="M 2522 4238 
Q 1834 4238 1429 3725 
Q 1025 3213 1025 2328 
Q 1025 1447 1429 934 
Q 1834 422 2522 422 
Q 3209 422 3611 934 
Q 4013 1447 4013 2328 
Q 4013 3213 3611 3725 
Q 3209 4238 2522 4238 
z
M 2522 4750 
Q 3503 4750 4090 4092 
Q 4678 3434 4678 2328 
Q 4678 1225 4090 567 
Q 3503 -91 2522 -91 
Q 1538 -91 948 565 
Q 359 1222 359 2328 
Q 359 3434 948 4092 
Q 1538 4750 2522 4750 
z
" transform="scale(0.015625)"/>
     </defs>
     <use xlink:href="#DejaVuSans-46"/>
     <use xlink:href="#DejaVuSans-6f" x="53.894531"/>
     <use xlink:href="#DejaVuSans-72" x="115.076172"/>
     <use xlink:href="#DejaVuSans-65" x="153.939453"/>
     <use xlink:href="#DejaVuSans-69" x="215.462891"/>
     <use xlink:href="#DejaVuSans-67" x="243.246094"/>
     <use xlink:href="#DejaVuSans-6e" x="306.722656"/>
     <use xlink:href="#DejaVuSans-20" x="370.101562"/>
     <use xlink:href="#DejaVuSans-52" x="401.888672"/>
     <use xlink:href="#DejaVuSans-65" x="466.871094"/>
     <use xlink:href="#DejaVuSans-73" x="528.394531"/>
     <use xlink:href="#DejaVuSans-69" x="580.494141"/>
     <use xlink:href="#DejaVuSans-64" x="608.277344"/>
     <use xlink:href="#DejaVuSans-65" x="671.753906"/>
     <use xlink:href="#DejaVuSans-6e" x="733.277344"/>
     <use xlink:href="#DejaVuSans-74" x="796.65625"/>
     <use xlink:href="#DejaVuSans-73" x="835.865234"/>
     <use xlink:href="#DejaVuSans-20" x="887.964844"/>
     <use xlink:href="#DejaVuSans-62" x="919.751953"/>
     <use xlink:href="#DejaVuSans-79" x="983.228516"/>
     <use xlink:href="#DejaVuSans-20" x="1042.408203"/>
     <use xlink:href="#DejaVuSans-43" x="1074.195312"/>
     <use xlink:href="#DejaVuSans-6f" x="1144.019531"/>
     <use xlink:href="#DejaVuSans-75" x="1205.201172"/>
     <use xlink:href="#DejaVuSans-6e" x="1268.580078"/>
     <use xlink:href="#DejaVuSans-74" x="1331.958984"/>
     <use xlink:href="#DejaVuSans-72" x="1371.167969"/>
     <use xlink:href="#DejaVuSans-79" x="1412.28125"/>
     <use xlink:href="#DejaVuSans-20" x="1471.460938"/>
     <use xlink:href="#DejaVuSans-6f" x="1503.248047"/>
     <use xlink:href="#DejaVuSans-66" x="1564.429688"/>
     <use xlink:href="#DejaVuSans-20" x="1599.634766"/>
     <use xlink:href="#DejaVuSans-4f" x="1631.421875"/>
     <use xlink:href="#DejaVuSans-72" x="1710.132812"/>
     <use xlink:href="#DejaVuSans-69" x="1751.246094"/>
     <use xlink:href="#DejaVuSans-67" x="1779.029297"/>
     <use xlink:href="#DejaVuSans-69" x="1842.505859"/>
     <use xlink:href="#DejaVuSans-6e" x="1870.289062"/>
    </g>
   </g>
   <g id="legend_1">
    <g id="patch_7">
     <path d="M 64.6 196.25325 
L 150.476562 196.25325 
Q 152.476562 196.25325 152.476562 194.25325 
L 152.476562 48.472 
Q 152.476562 46.472 150.476562 46.472 
L 64.6 46.472 
Q 62.6 46.472 62.6 48.472 
L 62.6 194.25325 
Q 62.6 196.25325 64.6 196.25325 
z
" style="fill: #ffffff; opacity: 0.8; stroke: #cccccc; stroke-linejoin: miter"/>
    </g>
    <g id="patch_8">
     <path d="M 66.6 58.070437 
L 86.6 58.070437 
L 86.6 51.070437 
L 66.6 51.070437 
z
" style="fill: #a1c9f4"/>
    </g>
    <g id="text_24">
     <!-- Koreas -->
     <g transform="translate(94.6 58.070437) scale(0.1 -0.1)">
      <defs>
       <path id="DejaVuSans-4b" d="M 628 4666 
L 1259 4666 
L 1259 2694 
L 3353 4666 
L 4166 4666 
L 1850 2491 
L 4331 0 
L 3500 0 
L 1259 2247 
L 1259 0 
L 628 0 
L 628 4666 
z
" transform="scale(0.015625)"/>
       <path id="DejaVuSans-61" d="M 2194 1759 
Q 1497 1759 1228 1600 
Q 959 1441 959 1056 
Q 959 750 1161 570 
Q 1363 391 1709 391 
Q 2188 391 2477 730 
Q 2766 1069 2766 1631 
L 2766 1759 
L 2194 1759 
z
M 3341 1997 
L 3341 0 
L 2766 0 
L 2766 531 
Q 2569 213 2275 61 
Q 1981 -91 1556 -91 
Q 1019 -91 701 211 
Q 384 513 384 1019 
Q 384 1609 779 1909 
Q 1175 2209 1959 2209 
L 2766 2209 
L 2766 2266 
Q 2766 2663 2505 2880 
Q 2244 3097 1772 3097 
Q 1472 3097 1187 3025 
Q 903 2953 641 2809 
L 641 3341 
Q 956 3463 1253 3523 
Q 1550 3584 1831 3584 
Q 2591 3584 2966 3190 
Q 3341 2797 3341 1997 
z
" transform="scale(0.015625)"/>
      </defs>
      <use xlink:href="#DejaVuSans-4b"/>
      <use xlink:href="#DejaVuSans-6f" x="60.576172"/>
      <use xlink:href="#DejaVuSans-72" x="121.757812"/>
      <use xlink:href="#DejaVuSans-65" x="160.621094"/>
      <use xlink:href="#DejaVuSans-61" x="222.144531"/>
      <use xlink:href="#DejaVuSans-73" x="283.423828"/>
     </g>
    </g>
    <g id="patch_9">
     <path d="M 66.6 72.748562 
L 86.6 72.748562 
L 86.6 65.748562 
L 66.6 65.748562 
z
" style="fill: #ffb482"/>
    </g>
    <g id="text_25">
     <!-- China -->
     <g transform="translate(94.6 72.748562) scale(0.1 -0.1)">
      <defs>
       <path id="DejaVuSans-68" d="M 3513 2113 
L 3513 0 
L 2938 0 
L 2938 2094 
Q 2938 2591 2744 2837 
Q 2550 3084 2163 3084 
Q 1697 3084 1428 2787 
Q 1159 2491 1159 1978 
L 1159 0 
L 581 0 
L 581 4863 
L 1159 4863 
L 1159 2956 
Q 1366 3272 1645 3428 
Q 1925 3584 2291 3584 
Q 2894 3584 3203 3211 
Q 3513 2838 3513 2113 
z
" transform="scale(0.015625)"/>
      </defs>
      <use xlink:href="#DejaVuSans-43"/>
      <use xlink:href="#DejaVuSans-68" x="69.824219"/>
      <use xlink:href="#DejaVuSans-69" x="133.203125"/>
      <use xlink:href="#DejaVuSans-6e" x="160.986328"/>
      <use xlink:href="#DejaVuSans-61" x="224.365234"/>
     </g>
    </g>
    <g id="patch_10">
     <path d="M 66.6 87.426688 
L 86.6 87.426688 
L 86.6 80.426688 
L 66.6 80.426688 
z
" style="fill: #8de5a1"/>
    </g>
    <g id="text_26">
     <!-- Brazil -->
     <g transform="translate(94.6 87.426688) scale(0.1 -0.1)">
      <defs>
       <path id="DejaVuSans-42" d="M 1259 2228 
L 1259 519 
L 2272 519 
Q 2781 519 3026 730 
Q 3272 941 3272 1375 
Q 3272 1813 3026 2020 
Q 2781 2228 2272 2228 
L 1259 2228 
z
M 1259 4147 
L 1259 2741 
L 2194 2741 
Q 2656 2741 2882 2914 
Q 3109 3088 3109 3444 
Q 3109 3797 2882 3972 
Q 2656 4147 2194 4147 
L 1259 4147 
z
M 628 4666 
L 2241 4666 
Q 2963 4666 3353 4366 
Q 3744 4066 3744 3513 
Q 3744 3084 3544 2831 
Q 3344 2578 2956 2516 
Q 3422 2416 3680 2098 
Q 3938 1781 3938 1306 
Q 3938 681 3513 340 
Q 3088 0 2303 0 
L 628 0 
L 628 4666 
z
" transform="scale(0.015625)"/>
       <path id="DejaVuSans-7a" d="M 353 3500 
L 3084 3500 
L 3084 2975 
L 922 459 
L 3084 459 
L 3084 0 
L 275 0 
L 275 525 
L 2438 3041 
L 353 3041 
L 353 3500 
z
" transform="scale(0.015625)"/>
      </defs>
      <use xlink:href="#DejaVuSans-42"/>
      <use xlink:href="#DejaVuSans-72" x="68.603516"/>
      <use xlink:href="#DejaVuSans-61" x="109.716797"/>
      <use xlink:href="#DejaVuSans-7a" x="170.996094"/>
      <use xlink:href="#DejaVuSans-69" x="223.486328"/>
      <use xlink:href="#DejaVuSans-6c" x="251.269531"/>
     </g>
    </g>
    <g id="patch_11">
     <path d="M 66.6 102.104812 
L 86.6 102.104812 
L 86.6 95.104812 
L 66.6 95.104812 
z
" style="fill: #ff9f9b"/>
    </g>
    <g id="text_27">
     <!-- Philippines -->
     <g transform="translate(94.6 102.104812) scale(0.1 -0.1)">
      <defs>
       <path id="DejaVuSans-50" d="M 1259 4147 
L 1259 2394 
L 2053 2394 
Q 2494 2394 2734 2622 
Q 2975 2850 2975 3272 
Q 2975 3691 2734 3919 
Q 2494 4147 2053 4147 
L 1259 4147 
z
M 628 4666 
L 2053 4666 
Q 2838 4666 3239 4311 
Q 3641 3956 3641 3272 
Q 3641 2581 3239 2228 
Q 2838 1875 2053 1875 
L 1259 1875 
L 1259 0 
L 628 0 
L 628 4666 
z
" transform="scale(0.015625)"/>
       <path id="DejaVuSans-70" d="M 1159 525 
L 1159 -1331 
L 581 -1331 
L 581 3500 
L 1159 3500 
L 1159 2969 
Q 1341 3281 1617 3432 
Q 1894 3584 2278 3584 
Q 2916 3584 3314 3078 
Q 3713 2572 3713 1747 
Q 3713 922 3314 415 
Q 2916 -91 2278 -91 
Q 1894 -91 1617 61 
Q 1341 213 1159 525 
z
M 3116 1747 
Q 3116 2381 2855 2742 
Q 2594 3103 2138 3103 
Q 1681 3103 1420 2742 
Q 1159 2381 1159 1747 
Q 1159 1113 1420 752 
Q 1681 391 2138 391 
Q 2594 391 2855 752 
Q 3116 1113 3116 1747 
z
" transform="scale(0.015625)"/>
      </defs>
      <use xlink:href="#DejaVuSans-50"/>
      <use xlink:href="#DejaVuSans-68" x="60.302734"/>
      <use xlink:href="#DejaVuSans-69" x="123.681641"/>
      <use xlink:href="#DejaVuSans-6c" x="151.464844"/>
      <use xlink:href="#DejaVuSans-69" x="179.248047"/>
      <use xlink:href="#DejaVuSans-70" x="207.03125"/>
      <use xlink:href="#DejaVuSans-70" x="270.507812"/>
      <use xlink:href="#DejaVuSans-69" x="333.984375"/>
      <use xlink:href="#DejaVuSans-6e" x="361.767578"/>
      <use xlink:href="#DejaVuSans-65" x="425.146484"/>
      <use xlink:href="#DejaVuSans-73" x="486.669922"/>
     </g>
    </g>
    <g id="patch_12">
     <path d="M 66.6 116.782938 
L 86.6 116.782938 
L 86.6 109.782938 
L 66.6 109.782938 
z
" style="fill: #d0bbff"/>
    </g>
    <g id="text_28">
     <!-- Vietnam -->
     <g transform="translate(94.6 116.782938) scale(0.1 -0.1)">
      <defs>
       <path id="DejaVuSans-56" d="M 1831 0 
L 50 4666 
L 709 4666 
L 2188 738 
L 3669 4666 
L 4325 4666 
L 2547 0 
L 1831 0 
z
" transform="scale(0.015625)"/>
       <path id="DejaVuSans-6d" d="M 3328 2828 
Q 3544 3216 3844 3400 
Q 4144 3584 4550 3584 
Q 5097 3584 5394 3201 
Q 5691 2819 5691 2113 
L 5691 0 
L 5113 0 
L 5113 2094 
Q 5113 2597 4934 2840 
Q 4756 3084 4391 3084 
Q 3944 3084 3684 2787 
Q 3425 2491 3425 1978 
L 3425 0 
L 2847 0 
L 2847 2094 
Q 2847 2600 2669 2842 
Q 2491 3084 2119 3084 
Q 1678 3084 1418 2786 
Q 1159 2488 1159 1978 
L 1159 0 
L 581 0 
L 581 3500 
L 1159 3500 
L 1159 2956 
Q 1356 3278 1631 3431 
Q 1906 3584 2284 3584 
Q 2666 3584 2933 3390 
Q 3200 3197 3328 2828 
z
" transform="scale(0.015625)"/>
      </defs>
      <use xlink:href="#DejaVuSans-56"/>
      <use xlink:href="#DejaVuSans-69" x="66.158203"/>
      <use xlink:href="#DejaVuSans-65" x="93.941406"/>
      <use xlink:href="#DejaVuSans-74" x="155.464844"/>
      <use xlink:href="#DejaVuSans-6e" x="194.673828"/>
      <use xlink:href="#DejaVuSans-61" x="258.052734"/>
      <use xlink:href="#DejaVuSans-6d" x="319.332031"/>
     </g>
    </g>
    <g id="patch_13">
     <path d="M 66.6 131.461062 
L 86.6 131.461062 
L 86.6 124.461062 
L 66.6 124.461062 
z
" style="fill: #debb9b"/>
    </g>
    <g id="text_29">
     <!-- Nepal -->
     <g transform="translate(94.6 131.461062) scale(0.1 -0.1)">
      <defs>
       <path id="DejaVuSans-4e" d="M 628 4666 
L 1478 4666 
L 3547 763 
L 3547 4666 
L 4159 4666 
L 4159 0 
L 3309 0 
L 1241 3903 
L 1241 0 
L 628 0 
L 628 4666 
z
" transform="scale(0.015625)"/>
      </defs>
      <use xlink:href="#DejaVuSans-4e"/>
      <use xlink:href="#DejaVuSans-65" x="74.804688"/>
      <use xlink:href="#DejaVuSans-70" x="136.328125"/>
      <use xlink:href="#DejaVuSans-61" x="199.804688"/>
      <use xlink:href="#DejaVuSans-6c" x="261.083984"/>
     </g>
    </g>
    <g id="patch_14">
     <path d="M 66.6 146.139187 
L 86.6 146.139187 
L 86.6 139.139187 
L 66.6 139.139187 
z
" style="fill: #fab0e4"/>
    </g>
    <g id="text_30">
     <!-- Indonesia -->
     <g transform="translate(94.6 146.139187) scale(0.1 -0.1)">
      <defs>
       <path id="DejaVuSans-49" d="M 628 4666 
L 1259 4666 
L 1259 0 
L 628 0 
L 628 4666 
z
" transform="scale(0.015625)"/>
      </defs>
      <use xlink:href="#DejaVuSans-49"/>
      <use xlink:href="#DejaVuSans-6e" x="29.492188"/>
      <use xlink:href="#DejaVuSans-64" x="92.871094"/>
      <use xlink:href="#DejaVuSans-6f" x="156.347656"/>
      <use xlink:href="#DejaVuSans-6e" x="217.529297"/>
      <use xlink:href="#DejaVuSans-65" x="280.908203"/>
      <use xlink:href="#DejaVuSans-73" x="342.431641"/>
      <use xlink:href="#DejaVuSans-69" x="394.53125"/>
      <use xlink:href="#DejaVuSans-61" x="422.314453"/>
     </g>
    </g>
    <g id="patch_15">
     <path d="M 66.6 160.817312 
L 86.6 160.817312 
L 86.6 153.817312 
L 66.6 153.817312 
z
" style="fill: #cfcfcf"/>
    </g>
    <g id="text_31">
     <!-- Thailand -->
     <g transform="translate(94.6 160.817312) scale(0.1 -0.1)">
      <defs>
       <path id="DejaVuSans-54" d="M -19 4666 
L 3928 4666 
L 3928 4134 
L 2272 4134 
L 2272 0 
L 1638 0 
L 1638 4134 
L -19 4134 
L -19 4666 
z
" transform="scale(0.015625)"/>
      </defs>
      <use xlink:href="#DejaVuSans-54"/>
      <use xlink:href="#DejaVuSans-68" x="61.083984"/>
      <use xlink:href="#DejaVuSans-61" x="124.462891"/>
      <use xlink:href="#DejaVuSans-69" x="185.742188"/>
      <use xlink:href="#DejaVuSans-6c" x="213.525391"/>
      <use xlink:href="#DejaVuSans-61" x="241.308594"/>
      <use xlink:href="#DejaVuSans-6e" x="302.587891"/>
      <use xlink:href="#DejaVuSans-64" x="365.966797"/>
     </g>
    </g>
    <g id="patch_16">
     <path d="M 66.6 175.495437 
L 86.6 175.495437 
L 86.6 168.495437 
L 66.6 168.495437 
z
" style="fill: #fffea3"/>
    </g>
    <g id="text_32">
     <!-- US -->
     <g transform="translate(94.6 175.495437) scale(0.1 -0.1)">
      <defs>
       <path id="DejaVuSans-55" d="M 556 4666 
L 1191 4666 
L 1191 1831 
Q 1191 1081 1462 751 
Q 1734 422 2344 422 
Q 2950 422 3222 751 
Q 3494 1081 3494 1831 
L 3494 4666 
L 4128 4666 
L 4128 1753 
Q 4128 841 3676 375 
Q 3225 -91 2344 -91 
Q 1459 -91 1007 375 
Q 556 841 556 1753 
L 556 4666 
z
" transform="scale(0.015625)"/>
       <path id="DejaVuSans-53" d="M 3425 4513 
L 3425 3897 
Q 3066 4069 2747 4153 
Q 2428 4238 2131 4238 
Q 1616 4238 1336 4038 
Q 1056 3838 1056 3469 
Q 1056 3159 1242 3001 
Q 1428 2844 1947 2747 
L 2328 2669 
Q 3034 2534 3370 2195 
Q 3706 1856 3706 1288 
Q 3706 609 3251 259 
Q 2797 -91 1919 -91 
Q 1588 -91 1214 -16 
Q 841 59 441 206 
L 441 856 
Q 825 641 1194 531 
Q 1563 422 1919 422 
Q 2459 422 2753 634 
Q 3047 847 3047 1241 
Q 3047 1584 2836 1778 
Q 2625 1972 2144 2069 
L 1759 2144 
Q 1053 2284 737 2584 
Q 422 2884 422 3419 
Q 422 4038 858 4394 
Q 1294 4750 2059 4750 
Q 2388 4750 2728 4690 
Q 3069 4631 3425 4513 
z
" transform="scale(0.015625)"/>
      </defs>
      <use xlink:href="#DejaVuSans-55"/>
      <use xlink:href="#DejaVuSans-53" x="73.193359"/>
     </g>
    </g>
    <g id="patch_17">
     <path d="M 66.6 190.173562 
L 86.6 190.173562 
L 86.6 183.173562 
L 66.6 183.173562 
z
" style="fill: #b9f2f0"/>
    </g>
    <g id="text_33">
     <!-- Other -->
     <g transform="translate(94.6 190.173562) scale(0.1 -0.1)">
      <use xlink:href="#DejaVuSans-4f"/>
      <use xlink:href="#DejaVuSans-74" x="78.710938"/>
      <use xlink:href="#DejaVuSans-68" x="117.919922"/>
      <use xlink:href="#DejaVuSans-65" x="181.298828"/>
      <use xlink:href="#DejaVuSans-72" x="242.822266"/>
     </g>
    </g>
   </g>
  </g>
 </g>
 <defs>
  <clipPath id="p9794301c36">
   <rect x="57.6" y="41.472" width="357.12" height="266.112"/>
  </clipPath>
 </defs>
</svg>
